<svg xmlns="http://www.w3.org/2000/svg" width="167" height="132" viewBox="0 0 167 132" fill="none">
  <g clip-path="url(#clip0_1302_2032)">
    <path d="M166.759 130.989H0.241329C0.177325 130.989 0.115942 130.961 0.0706836 130.912C0.0254255 130.862 0 130.795 0 130.725C0 130.655 0.0254255 130.588 0.0706836 130.538C0.115942 130.489 0.177325 130.461 0.241329 130.461H166.759C166.823 130.461 166.884 130.489 166.929 130.538C166.975 130.588 167 130.655 167 130.725C167 130.795 166.975 130.862 166.929 130.912C166.884 130.961 166.823 130.989 166.759 130.989Z" fill="#CCCCCC"/>
    <path d="M150.277 84.9336H52.2972C51.8811 84.9336 51.4821 85.1144 51.188 85.4363C50.8938 85.7582 50.7285 86.1948 50.7285 86.65C50.7285 87.1052 50.8938 87.5418 51.188 87.8637C51.4821 88.1856 51.8811 88.3664 52.2972 88.3664H55.0724V129.429C55.0724 129.884 55.2377 130.32 55.5319 130.642C55.8261 130.964 56.2251 131.145 56.6411 131.145C57.0571 131.145 57.4561 130.964 57.7503 130.642C58.0445 130.32 58.2097 129.884 58.2097 129.429L58.2336 88.3664H144.123V129.429C144.123 129.884 144.288 130.32 144.582 130.642C144.877 130.964 145.276 131.145 145.692 131.145C146.108 131.145 146.507 130.964 146.801 130.642C147.095 130.32 147.26 129.884 147.26 129.429V89.2715L147.717 88.3664H150.277C150.693 88.3664 151.092 88.1856 151.386 87.8637C151.68 87.5418 151.846 87.1052 151.846 86.65C151.846 86.1948 151.68 85.7582 151.386 85.4363C151.092 85.1144 150.693 84.9336 150.277 84.9336Z" fill="#CCCCCC"/>
    <path d="M106.618 85.8341H76.9388C76.3641 85.8334 75.8132 85.5833 75.4068 85.1387C75.0005 84.694 74.7719 84.0912 74.7712 83.4623V65.5827C74.7719 64.9539 75.0005 64.351 75.4068 63.9064C75.8132 63.4618 76.3641 63.2116 76.9388 63.2109H106.618C107.193 63.2116 107.744 63.4618 108.15 63.9064C108.556 64.351 108.785 64.9539 108.786 65.5827V83.4623C108.785 84.0912 108.556 84.694 108.15 85.1387C107.744 85.5833 107.193 85.8334 106.618 85.8341Z" fill="#3F3D56"/>
    <path d="M106.618 65.0352H76.939C76.8066 65.0355 76.6797 65.0932 76.586 65.1956C76.4924 65.298 76.4397 65.4369 76.4395 65.5818V83.4616C76.4397 83.6065 76.4924 83.7453 76.5861 83.8478C76.6797 83.9502 76.8066 84.0079 76.939 84.0082H106.618C106.75 84.0079 106.877 83.9502 106.971 83.8478C107.064 83.7453 107.117 83.6065 107.117 83.4616V65.5818C107.117 65.4369 107.064 65.298 106.971 65.1956C106.877 65.0932 106.75 65.0355 106.618 65.0352Z" fill="white"/>
    <path d="M94.3096 77.6931C94.3096 77.6931 90.7567 76.7972 88.8026 78.4396C86.8485 80.0819 91.2896 83.8146 91.2896 83.8146L94.3096 77.6931Z" fill="#2F2E41"/>
    <path d="M91.9523 76.0021C93.8032 76.0021 95.3037 74.3603 95.3037 72.3351C95.3037 70.3098 93.8032 68.668 91.9523 68.668C90.1014 68.668 88.601 70.3098 88.601 72.3351C88.601 74.3603 90.1014 76.0021 91.9523 76.0021Z" fill="#A0616A"/>
    <path d="M89.3609 67.1855C89.5844 66.7704 89.9083 66.431 90.297 66.2047C90.6857 65.9784 91.1239 65.8741 91.5634 65.9032C92.0231 65.9663 92.4716 66.1037 92.8944 66.3109L95.0853 67.246C95.6522 67.488 96.2731 67.7844 96.5191 68.3934C96.7474 68.9587 96.5771 69.6115 96.4046 70.1999L95.5849 72.9973C95.4942 72.3642 95.3383 71.7443 95.1205 71.1494C94.899 70.5506 94.4989 70.0514 93.9851 69.733C93.4161 69.4136 92.7453 69.4202 92.1065 69.4538C91.2017 69.5015 90.2179 69.6274 89.5751 70.3257C89.2338 70.7223 89.0025 71.2167 88.9079 71.7515C88.8149 72.2834 88.768 72.8238 88.768 73.3653C88.397 72.6675 88.0845 71.9343 87.8342 71.1748C87.6284 70.6093 87.5111 70.0098 87.4873 69.4017C87.4658 68.7883 87.6518 68.1878 88.0096 67.7151C88.1913 67.4841 88.4284 67.3132 88.694 67.2217C88.9597 67.1303 89.2434 67.1218 89.5133 67.1973L89.3609 67.1855Z" fill="#2F2E41"/>
    <path d="M99.9546 80.8719C99.9231 80.7481 99.8589 80.6371 99.77 80.553C99.6812 80.469 99.5716 80.4154 99.4551 80.3992C99.4473 80.3934 99.4393 80.3881 99.4309 80.3834L94.4278 77.3154C94.2849 77.2278 94.1167 77.2039 93.9581 77.2485C93.7995 77.2932 93.6628 77.4031 93.5763 77.5553L92.208 79.9794L90.147 77.7243L90.1143 77.6884C90.0085 77.5727 89.8688 77.5014 89.7198 77.4872C89.5708 77.4729 89.422 77.5165 89.2994 77.6104L85.1876 80.761C85.1805 80.761 85.1732 80.7637 85.166 80.7637C84.9692 80.7996 84.7895 80.9078 84.6565 81.0706C84.5235 81.2333 84.4453 81.4408 84.4347 81.6588L84.3285 84.0064H100.749L99.9546 80.8719Z" fill="#045395"/>
    <path d="M109.119 83.6422H105.951C105.951 83.5455 105.916 83.4526 105.853 83.3842C105.791 83.3158 105.706 83.2773 105.617 83.2773H104.617C104.529 83.2773 104.444 83.3158 104.381 83.3842C104.319 83.4526 104.284 83.5455 104.284 83.6422H103.283C103.283 83.5455 103.248 83.4526 103.185 83.3842C103.123 83.3158 103.038 83.2773 102.95 83.2773H101.949C101.861 83.2773 101.776 83.3158 101.713 83.3842C101.651 83.4526 101.616 83.5455 101.616 83.6422H100.615C100.615 83.5455 100.58 83.4526 100.518 83.3842C100.455 83.3158 100.37 83.2773 100.282 83.2773H99.2815C99.193 83.2773 99.1082 83.3158 99.0457 83.3842C98.9832 83.4526 98.948 83.5455 98.948 83.6422H97.9476C97.9476 83.5455 97.9125 83.4526 97.8499 83.3842C97.7874 83.3158 97.7026 83.2773 97.6141 83.2773H96.6137C96.5253 83.2773 96.4404 83.3158 96.3779 83.3842C96.3154 83.4526 96.2802 83.5455 96.2802 83.6422H95.2798C95.2798 83.5455 95.2447 83.4526 95.1821 83.3842C95.1196 83.3158 95.0348 83.2773 94.9463 83.2773H93.9459C93.8575 83.2773 93.7727 83.3158 93.7101 83.3842C93.6476 83.4526 93.6124 83.5455 93.6124 83.6422H92.612C92.612 83.5455 92.5769 83.4526 92.5143 83.3842C92.4518 83.3158 92.367 83.2773 92.2785 83.2773H91.2781C91.1897 83.2773 91.1049 83.3158 91.0423 83.3842C90.9798 83.4526 90.9446 83.5455 90.9446 83.6422H89.9442C89.9442 83.5455 89.9091 83.4526 89.8466 83.3842C89.784 83.3158 89.6992 83.2773 89.6108 83.2773H88.6103C88.5219 83.2773 88.4371 83.3158 88.3745 83.3842C88.312 83.4526 88.2769 83.5455 88.2769 83.6422H87.2764C87.2764 83.5455 87.2413 83.4526 87.1788 83.3842C87.1162 83.3158 87.0314 83.2773 86.943 83.2773H85.9425C85.8541 83.2773 85.7693 83.3158 85.7067 83.3842C85.6442 83.4526 85.6091 83.5455 85.6091 83.6422H84.6087C84.6087 83.5455 84.5735 83.4526 84.511 83.3842C84.4484 83.3158 84.3636 83.2773 84.2752 83.2773H83.2748C83.1863 83.2773 83.1015 83.3158 83.039 83.3842C82.9764 83.4526 82.9413 83.5455 82.9413 83.6422H81.9409C81.9409 83.5455 81.9057 83.4526 81.8432 83.3842C81.7807 83.3158 81.6958 83.2773 81.6074 83.2773H80.607C80.5185 83.2773 80.4337 83.3158 80.3712 83.3842C80.3086 83.4526 80.2735 83.5455 80.2735 83.6422H79.2731C79.2731 83.5455 79.2379 83.4526 79.1754 83.3842C79.1129 83.3158 79.0281 83.2773 78.9396 83.2773H77.9392C77.8507 83.2773 77.7659 83.3158 77.7034 83.3842C77.6408 83.4526 77.6057 83.5455 77.6057 83.6422H74.4377C74.1727 83.6427 73.9186 83.7582 73.7313 83.9635C73.544 84.1687 73.4388 84.4469 73.4388 84.7369C73.4388 85.0269 73.544 85.3051 73.7313 85.5104C73.9186 85.7156 74.1727 85.8311 74.4377 85.8316H109.119C109.384 85.8316 109.639 85.7162 109.826 85.511C110.014 85.3057 110.119 85.0272 110.119 84.7369C110.119 84.4466 110.014 84.1681 109.826 83.9629C109.639 83.7576 109.384 83.6422 109.119 83.6422Z" fill="#3F3D56"/>
    <path d="M69.2807 77.2874V84.5559H52.6381C52.1922 84.5729 51.7477 84.4915 51.3312 84.3165C50.9147 84.1415 50.5346 83.8765 50.2137 83.5374C49.8928 83.1982 49.6376 82.7918 49.4632 82.3424C49.2889 81.893 49.1991 81.4098 49.1991 80.9217C49.1991 80.4335 49.2889 79.9503 49.4632 79.5009C49.6376 79.0515 49.8928 78.6451 50.2137 78.3059C50.5346 77.9668 50.9147 77.7018 51.3312 77.5268C51.7477 77.3518 52.1922 77.2704 52.6381 77.2874H69.2807Z" fill="#F2F2F2"/>
    <path d="M69.6894 84.4976C69.6894 84.5717 69.6624 84.6428 69.6145 84.6952C69.5666 84.7477 69.5016 84.7771 69.4339 84.7772H52.3415C51.4132 84.7772 50.5229 84.3736 49.8665 83.6554C49.2101 82.9371 48.8413 81.9629 48.8413 80.9472C48.8413 79.9314 49.2101 78.9572 49.8665 78.239C50.5229 77.5207 51.4132 77.1172 52.3415 77.1172H69.4339C69.5016 77.1172 69.5666 77.1466 69.6145 77.1991C69.6625 77.2515 69.6894 77.3226 69.6894 77.3967C69.6894 77.4709 69.6625 77.542 69.6145 77.5944C69.5666 77.6469 69.5016 77.6763 69.4339 77.6763H52.3415C51.5492 77.6771 50.7896 78.022 50.2296 78.6354C49.6695 79.2487 49.355 80.0802 49.355 80.9472C49.355 81.8141 49.6695 82.6457 50.2296 83.259C50.7896 83.8723 51.5492 84.2173 52.3415 84.218H69.4339C69.5016 84.2181 69.5666 84.2475 69.6145 84.2999C69.6624 84.3524 69.6894 84.4234 69.6894 84.4976Z" fill="#045395"/>
    <path d="M69.2807 78.9629H51.3963C51.3896 78.9629 51.3829 78.9615 51.3766 78.9587C51.3704 78.956 51.3647 78.9519 51.3599 78.9467C51.3552 78.9415 51.3514 78.9354 51.3488 78.9286C51.3462 78.9218 51.3448 78.9146 51.3448 78.9072C51.3448 78.8999 51.3462 78.8926 51.3488 78.8858C51.3514 78.8791 51.3552 78.8729 51.3599 78.8677C51.3647 78.8626 51.3704 78.8585 51.3766 78.8557C51.3829 78.8529 51.3896 78.8515 51.3963 78.8516H69.2807C69.2942 78.8517 69.3071 78.8576 69.3166 78.868C69.3261 78.8784 69.3314 78.8925 69.3314 78.9072C69.3314 78.9219 69.3261 78.936 69.3166 78.9464C69.3071 78.9569 69.2942 78.9628 69.2807 78.9629Z" fill="#CCCCCC"/>
    <path d="M69.2807 80.3066H51.3963C51.3896 80.3067 51.3829 80.3053 51.3766 80.3025C51.3704 80.2997 51.3647 80.2956 51.3599 80.2904C51.3552 80.2853 51.3514 80.2791 51.3488 80.2723C51.3462 80.2656 51.3448 80.2583 51.3448 80.251C51.3448 80.2436 51.3462 80.2363 51.3488 80.2296C51.3514 80.2228 51.3552 80.2166 51.3599 80.2115C51.3647 80.2063 51.3704 80.2022 51.3766 80.1994C51.3829 80.1967 51.3896 80.1953 51.3963 80.1953H69.2807C69.2942 80.1954 69.3071 80.2013 69.3166 80.2117C69.3261 80.2222 69.3314 80.2363 69.3314 80.251C69.3314 80.2657 69.3261 80.2798 69.3166 80.2902C69.3071 80.3006 69.2942 80.3065 69.2807 80.3066Z" fill="#CCCCCC"/>
    <path d="M69.2807 81.6465H51.3963C51.3896 81.6465 51.3829 81.6451 51.3766 81.6423C51.3704 81.6396 51.3647 81.6355 51.3599 81.6303C51.3552 81.6251 51.3514 81.619 51.3488 81.6122C51.3462 81.6054 51.3448 81.5981 51.3448 81.5908C51.3448 81.5835 51.3462 81.5762 51.3488 81.5694C51.3514 81.5626 51.3552 81.5565 51.3599 81.5513C51.3647 81.5461 51.3704 81.5421 51.3766 81.5393C51.3829 81.5365 51.3896 81.5351 51.3963 81.5352H69.2807C69.2942 81.5353 69.3071 81.5412 69.3166 81.5516C69.3261 81.562 69.3314 81.5761 69.3314 81.5908C69.3314 81.6055 69.3261 81.6196 69.3166 81.63C69.3071 81.6404 69.2942 81.6464 69.2807 81.6465Z" fill="#CCCCCC"/>
    <path d="M69.2807 82.9902H51.3963C51.3896 82.9903 51.3829 82.9889 51.3766 82.9861C51.3704 82.9833 51.3647 82.9792 51.3599 82.9741C51.3552 82.9689 51.3514 82.9627 51.3488 82.9559C51.3462 82.9492 51.3448 82.9419 51.3448 82.9346C51.3448 82.9272 51.3462 82.9199 51.3488 82.9132C51.3514 82.9064 51.3552 82.9003 51.3599 82.8951C51.3647 82.8899 51.3704 82.8858 51.3766 82.883C51.3829 82.8803 51.3896 82.8789 51.3963 82.8789H69.2807C69.2942 82.879 69.3071 82.8849 69.3166 82.8954C69.3261 82.9058 69.3314 82.9199 69.3314 82.9346C69.3314 82.9492 69.3261 82.9634 69.3166 82.9738C69.3071 82.9842 69.2942 82.9901 69.2807 82.9902Z" fill="#CCCCCC"/>
    <path d="M66.1434 69.6272V76.8958H49.5007C49.0548 76.9128 48.6104 76.8313 48.1939 76.6563C47.7774 76.4813 47.3973 76.2164 47.0764 75.8772C46.7555 75.5381 46.5002 75.1317 46.3259 74.6823C46.1516 74.2329 46.0618 73.7497 46.0618 73.2615C46.0618 72.7733 46.1516 72.2901 46.3259 71.8407C46.5002 71.3913 46.7555 70.9849 47.0764 70.6458C47.3973 70.3066 47.7774 70.0416 48.1939 69.8667C48.6104 69.6917 49.0548 69.6102 49.5007 69.6272H66.1434Z" fill="#F2F2F2"/>
    <path d="M66.5522 76.8413C66.5521 76.9155 66.5252 76.9866 66.4773 77.039C66.4294 77.0914 66.3644 77.1209 66.2967 77.1209H49.2043C48.7447 77.1209 48.2895 77.0218 47.8649 76.8294C47.4402 76.6369 47.0543 76.3548 46.7293 75.9991C46.4043 75.6435 46.1464 75.2213 45.9705 74.7566C45.7946 74.2919 45.7041 73.7939 45.7041 73.2909C45.7041 72.788 45.7946 72.2899 45.9705 71.8253C46.1464 71.3606 46.4043 70.9384 46.7293 70.5827C47.0543 70.2271 47.4402 69.9449 47.8649 69.7525C48.2895 69.56 48.7447 69.4609 49.2043 69.4609H66.2967C66.3644 69.4609 66.4294 69.4904 66.4773 69.5428C66.5252 69.5952 66.5522 69.6664 66.5522 69.7405C66.5522 69.8146 66.5252 69.8857 66.4773 69.9382C66.4294 69.9906 66.3644 70.0201 66.2967 70.0201H49.2043C48.412 70.0208 47.6524 70.3658 47.0924 70.9791C46.5323 71.5924 46.2178 72.4239 46.2178 73.2909C46.2178 74.1579 46.5323 74.9894 47.0924 75.6027C47.6524 76.2161 48.412 76.561 49.2043 76.5618H66.2967C66.3644 76.5618 66.4294 76.5913 66.4773 76.6437C66.5252 76.6961 66.5521 76.7672 66.5522 76.8413Z" fill="#3F3D56"/>
    <path d="M66.1433 71.3066H48.259C48.2522 71.3067 48.2455 71.3053 48.2393 71.3025C48.2331 71.2997 48.2274 71.2956 48.2226 71.2904C48.2178 71.2853 48.214 71.2791 48.2114 71.2724C48.2089 71.2656 48.2075 71.2583 48.2075 71.251C48.2075 71.2436 48.2089 71.2364 48.2114 71.2296C48.214 71.2228 48.2178 71.2167 48.2226 71.2115C48.2274 71.2063 48.2331 71.2022 48.2393 71.1994C48.2455 71.1967 48.2522 71.1953 48.259 71.1953H66.1433C66.1568 71.1954 66.1697 71.2013 66.1793 71.2117C66.1888 71.2222 66.1941 71.2363 66.1941 71.251C66.1941 71.2657 66.1888 71.2798 66.1793 71.2902C66.1697 71.3006 66.1568 71.3065 66.1433 71.3066Z" fill="#CCCCCC"/>
    <path d="M66.1433 72.6465H48.259C48.2522 72.6465 48.2455 72.6451 48.2393 72.6423C48.2331 72.6395 48.2274 72.6355 48.2226 72.6303C48.2178 72.6251 48.214 72.619 48.2114 72.6122C48.2089 72.6054 48.2075 72.5981 48.2075 72.5908C48.2075 72.5835 48.2089 72.5762 48.2114 72.5694C48.214 72.5626 48.2178 72.5565 48.2226 72.5513C48.2274 72.5461 48.2331 72.5421 48.2393 72.5393C48.2455 72.5365 48.2522 72.5351 48.259 72.5352H66.1433C66.1568 72.5353 66.1697 72.5412 66.1793 72.5516C66.1888 72.562 66.1941 72.5761 66.1941 72.5908C66.1941 72.6055 66.1888 72.6196 66.1793 72.63C66.1697 72.6404 66.1568 72.6464 66.1433 72.6465Z" fill="#CCCCCC"/>
    <path d="M66.1433 73.9902H48.259C48.2522 73.9903 48.2455 73.9889 48.2393 73.9861C48.2331 73.9833 48.2274 73.9792 48.2226 73.974C48.2178 73.9689 48.214 73.9627 48.2114 73.9559C48.2089 73.9492 48.2075 73.9419 48.2075 73.9346C48.2075 73.9272 48.2089 73.9199 48.2114 73.9132C48.214 73.9064 48.2178 73.9002 48.2226 73.8951C48.2274 73.8899 48.2331 73.8858 48.2393 73.883C48.2455 73.8803 48.2522 73.8789 48.259 73.8789H66.1433C66.1568 73.879 66.1697 73.8849 66.1793 73.8953C66.1888 73.9058 66.1941 73.9199 66.1941 73.9346C66.1941 73.9492 66.1888 73.9633 66.1793 73.9738C66.1697 73.9842 66.1568 73.9901 66.1433 73.9902Z" fill="#CCCCCC"/>
    <path d="M66.1433 75.33H48.259C48.2522 75.3301 48.2455 75.3287 48.2393 75.3259C48.2331 75.3231 48.2274 75.3191 48.2226 75.3139C48.2178 75.3087 48.214 75.3026 48.2114 75.2958C48.2089 75.289 48.2075 75.2817 48.2075 75.2744C48.2075 75.2671 48.2089 75.2598 48.2114 75.253C48.214 75.2462 48.2178 75.2401 48.2226 75.2349C48.2274 75.2297 48.2331 75.2256 48.2393 75.2229C48.2455 75.2201 48.2522 75.2187 48.259 75.2188H66.1433C66.1568 75.2189 66.1697 75.2248 66.1793 75.2352C66.1888 75.2456 66.1941 75.2597 66.1941 75.2744C66.1941 75.2891 66.1888 75.3032 66.1793 75.3136C66.1697 75.324 66.1568 75.3299 66.1433 75.33Z" fill="#CCCCCC"/>
    <path d="M85.5038 110.39V104.052C85.5038 103.772 85.4021 103.504 85.2211 103.305C85.04 103.107 84.7945 102.996 84.5385 102.996H62.5775C62.3215 102.996 62.0759 103.107 61.8949 103.305C61.7139 103.504 61.6122 103.772 61.6122 104.052V110.39H85.5038Z" fill="#CCCCCC"/>
    <path d="M85.5038 112.766H61.6122V120.952H85.5038V112.766Z" fill="#CCCCCC"/>
    <path d="M61.6122 123.328V129.666C61.6122 129.946 61.7139 130.214 61.8949 130.413C62.0759 130.611 62.3215 130.722 62.5775 130.722H84.5385C84.7945 130.722 85.04 130.611 85.2211 130.413C85.4021 130.214 85.5038 129.946 85.5038 129.666V123.328H61.6122Z" fill="#CCCCCC"/>
    <path d="M73.4374 107.748C73.8372 107.748 74.1614 107.394 74.1614 106.956C74.1614 106.519 73.8372 106.164 73.4374 106.164C73.0375 106.164 72.7134 106.519 72.7134 106.956C72.7134 107.394 73.0375 107.748 73.4374 107.748Z" fill="white"/>
    <path d="M73.4374 118.311C73.8372 118.311 74.1614 117.956 74.1614 117.519C74.1614 117.081 73.8372 116.727 73.4374 116.727C73.0375 116.727 72.7134 117.081 72.7134 117.519C72.7134 117.956 73.0375 118.311 73.4374 118.311Z" fill="white"/>
    <path d="M73.4762 128.651C73.876 128.651 74.2002 128.296 74.2002 127.859C74.2002 127.421 73.876 127.066 73.4762 127.066C73.0763 127.066 72.7522 127.421 72.7522 127.859C72.7522 128.296 73.0763 128.651 73.4762 128.651Z" fill="white"/>
    <path d="M82.7951 95.7717V103.04H66.1525C65.7066 103.057 65.2621 102.976 64.8456 102.801C64.4291 102.626 64.049 102.361 63.7281 102.022C63.4072 101.683 63.152 101.276 62.9777 100.827C62.8033 100.377 62.7135 99.8942 62.7135 99.406C62.7135 98.9178 62.8033 98.4346 62.9777 97.9852C63.152 97.5358 63.4072 97.1295 63.7281 96.7903C64.049 96.4512 64.4291 96.1862 64.8456 96.0112C65.2621 95.8362 65.7066 95.7548 66.1525 95.7717H82.7951Z" fill="#F2F2F2"/>
    <path d="M83.2039 102.982C83.2039 103.056 83.1769 103.127 83.129 103.18C83.0811 103.232 83.0161 103.262 82.9484 103.262H65.856C65.3961 103.262 64.9407 103.163 64.5157 102.971C64.0907 102.779 63.7044 102.497 63.3791 102.141C63.0538 101.785 62.7957 101.363 62.6196 100.898C62.4435 100.433 62.3529 99.9348 62.3529 99.4315C62.3529 98.9283 62.4435 98.43 62.6196 97.9651C62.7957 97.5003 63.0538 97.0779 63.3791 96.7222C63.7044 96.3665 64.0907 96.0845 64.5157 95.8922C64.9407 95.6999 65.3961 95.6011 65.856 95.6016H82.9484C83.0161 95.6016 83.0811 95.631 83.129 95.6834C83.177 95.7359 83.2039 95.807 83.2039 95.8811C83.2039 95.9553 83.177 96.0264 83.129 96.0788C83.0811 96.1312 83.0161 96.1607 82.9484 96.1607H65.856C65.0637 96.1615 64.3041 96.5064 63.7441 97.1197C63.184 97.733 62.8695 98.5646 62.8695 99.4315C62.8695 100.299 63.184 101.13 63.7441 101.743C64.3041 102.357 65.0637 102.702 65.856 102.702H82.9484C83.0161 102.702 83.0811 102.732 83.129 102.784C83.1769 102.837 83.2039 102.908 83.2039 102.982Z" fill="#3F3D56"/>
    <path d="M82.7951 97.4472H64.9107C64.904 97.4473 64.8973 97.4459 64.891 97.4431C64.8848 97.4403 64.8791 97.4363 64.8743 97.4311C64.8696 97.4259 64.8658 97.4197 64.8632 97.413C64.8606 97.4062 64.8593 97.3989 64.8593 97.3916C64.8593 97.3842 64.8606 97.377 64.8632 97.3702C64.8658 97.3634 64.8696 97.3573 64.8743 97.3521C64.8791 97.3469 64.8848 97.3428 64.891 97.3401C64.8973 97.3373 64.904 97.3359 64.9107 97.3359H82.7951C82.8086 97.336 82.8215 97.342 82.831 97.3524C82.8405 97.3628 82.8458 97.3769 82.8458 97.3916C82.8458 97.4063 82.8405 97.4204 82.831 97.4308C82.8215 97.4412 82.8086 97.4471 82.7951 97.4472Z" fill="#CCCCCC"/>
    <path d="M82.7951 98.791H64.9107C64.904 98.791 64.8973 98.7896 64.891 98.7869C64.8848 98.7841 64.8791 98.78 64.8743 98.7748C64.8696 98.7696 64.8658 98.7635 64.8632 98.7567C64.8606 98.7499 64.8593 98.7427 64.8593 98.7353C64.8593 98.728 64.8606 98.7207 64.8632 98.714C64.8658 98.7072 64.8696 98.701 64.8743 98.6958C64.8791 98.6907 64.8848 98.6866 64.891 98.6838C64.8973 98.681 64.904 98.6796 64.9107 98.6797H82.7951C82.8086 98.6798 82.8215 98.6857 82.831 98.6961C82.8405 98.7065 82.8458 98.7206 82.8458 98.7353C82.8458 98.75 82.8405 98.7641 82.831 98.7745C82.8215 98.785 82.8086 98.7909 82.7951 98.791Z" fill="#CCCCCC"/>
    <path d="M82.7951 100.131H64.9107C64.904 100.131 64.8973 100.129 64.891 100.127C64.8848 100.124 64.8791 100.12 64.8743 100.115C64.8696 100.109 64.8658 100.103 64.8632 100.097C64.8606 100.09 64.8593 100.083 64.8593 100.075C64.8593 100.068 64.8606 100.061 64.8632 100.054C64.8658 100.047 64.8696 100.041 64.8743 100.036C64.8791 100.031 64.8848 100.026 64.891 100.024C64.8973 100.021 64.904 100.019 64.9107 100.02H82.7951C82.8086 100.02 82.8215 100.026 82.831 100.036C82.8405 100.046 82.8458 100.06 82.8458 100.075C82.8458 100.09 82.8405 100.104 82.831 100.114C82.8215 100.125 82.8086 100.131 82.7951 100.131Z" fill="#CCCCCC"/>
    <path d="M82.7951 101.475H64.9107C64.904 101.475 64.8973 101.473 64.891 101.47C64.8848 101.468 64.8791 101.464 64.8743 101.458C64.8696 101.453 64.8658 101.447 64.8632 101.44C64.8606 101.434 64.8593 101.426 64.8593 101.419C64.8593 101.412 64.8606 101.404 64.8632 101.398C64.8658 101.391 64.8696 101.385 64.8743 101.379C64.8791 101.374 64.8848 101.37 64.891 101.367C64.8973 101.365 64.904 101.363 64.9107 101.363H82.7951C82.8086 101.363 82.8215 101.369 82.831 101.38C82.8405 101.39 82.8458 101.404 82.8458 101.419C82.8458 101.434 82.8405 101.448 82.831 101.458C82.8215 101.469 82.8086 101.474 82.7951 101.475Z" fill="#CCCCCC"/>
    <path d="M39.8806 48.363V1.98752C39.8819 1.46058 40.348 0.955398 41.1765 0.582796C42.0051 0.210193 43.1284 0.000599377 44.3001 0H125.816C126.987 0.000602866 128.111 0.210198 128.939 0.5828C129.768 0.955402 130.234 1.46058 130.235 1.98752V48.363C130.234 48.8899 129.768 49.3951 128.939 49.7677C128.111 50.1403 126.987 50.3499 125.816 50.3505H44.3001C43.1284 50.3499 42.0051 50.1403 41.1765 49.7677C40.348 49.3951 39.8819 48.8899 39.8806 48.363ZM44.3001 0.441672C43.3888 0.442131 42.5151 0.605145 41.8707 0.894949C41.2262 1.18475 40.8637 1.57768 40.8627 1.98752V48.363C40.8637 48.7728 41.2262 49.1658 41.8707 49.4556C42.5151 49.7454 43.3888 49.9084 44.3001 49.9088H125.816C126.727 49.9084 127.601 49.7454 128.245 49.4556C128.889 49.1658 129.252 48.7728 129.253 48.363V1.98752C129.252 1.57768 128.889 1.18475 128.245 0.894949C127.601 0.605145 126.727 0.442132 125.816 0.441672H44.3001Z" fill="#E6E6E6"/>
    <path d="M89.7313 15.33V5.76042C89.7323 5.49564 90.0894 5.24179 90.7243 5.05456C91.3592 4.86733 92.22 4.76201 93.1179 4.76172H120.617C121.515 4.76201 122.376 4.86733 123.011 5.05456C123.646 5.24179 124.003 5.49564 124.004 5.76042V15.33C124.003 15.5948 123.646 15.8487 123.011 16.0359C122.376 16.2231 121.515 16.3284 120.617 16.3287H93.1179C92.22 16.3284 91.3592 16.2231 90.7243 16.0359C90.0894 15.8487 89.7323 15.5948 89.7313 15.33Z" fill="#045395"/>
    <path d="M47.9813 28.9394V19.3698C47.9824 19.105 48.372 18.8512 49.0646 18.6639C49.7572 18.4767 50.6963 18.3714 51.6758 18.3711H81.6749C82.6544 18.3714 83.5935 18.4767 84.2861 18.6639C84.9787 18.8512 85.3683 19.105 85.3694 19.3698V28.9394C85.3683 29.2042 84.9787 29.458 84.2861 29.6453C83.5935 29.8325 82.6544 29.9378 81.6749 29.9381H51.6758C50.6963 29.9378 49.7572 29.8325 49.0646 29.6453C48.372 29.458 47.9824 29.2042 47.9813 28.9394Z" fill="#CCCCCC"/>
    <path d="M74.7761 44.5878V35.0182C74.7776 34.7534 75.2905 34.4996 76.2025 34.3124C77.1144 34.1251 78.3508 34.0198 79.6405 34.0195H119.139C120.429 34.0198 121.665 34.1251 122.577 34.3124C123.489 34.4996 124.002 34.7534 124.004 35.0182V44.5878C124.002 44.8526 123.489 45.1065 122.577 45.2937C121.665 45.4809 120.429 45.5862 119.139 45.5865H79.6405C78.3508 45.5862 77.1144 45.4809 76.2025 45.2937C75.2905 45.1065 74.7776 44.8526 74.7761 44.5878Z" fill="#FF6584"/>
    <path d="M122.007 82.6648H114.425C114.353 82.6647 114.282 82.6828 114.217 82.7176L112.303 83.7659C112.24 83.7952 112.187 83.8441 112.149 83.9066C112.111 83.969 112.091 84.0423 112.091 84.1171C112.091 84.192 112.111 84.2653 112.149 84.3277C112.187 84.3902 112.24 84.4391 112.303 84.4684L114.217 85.5167C114.282 85.5515 114.353 85.5696 114.425 85.5695H122.007C122.112 85.5761 122.214 85.5374 122.293 85.4618C122.372 85.3862 122.42 85.2797 122.427 85.1655V83.0688C122.42 82.9546 122.372 82.8481 122.293 82.7725C122.214 82.6969 122.112 82.6582 122.007 82.6648Z" fill="#3F3D56"/>
    <path d="M122.427 83.0688V85.1655C122.42 85.2797 122.372 85.3862 122.293 85.4618C122.214 85.5374 122.112 85.5761 122.007 85.5695H120.497V82.6648H122.007C122.112 82.6582 122.214 82.6969 122.293 82.7725C122.372 82.8481 122.42 82.9546 122.427 83.0688Z" fill="#045395"/>
    <path d="M121.95 66.98C122.294 66.8178 122.665 66.7369 123.039 66.7425C123.413 66.7481 123.781 66.8401 124.121 67.0124C124.46 67.1848 124.762 67.4337 125.007 67.7428C125.253 68.0519 125.435 68.4141 125.544 68.8059C125.577 68.9301 125.603 69.0567 125.621 69.1848L136.225 74.9383L138.678 73.1589L141.732 77.0051L137.985 80.3349C137.534 80.7322 136.979 80.96 136.4 80.9844C135.822 81.0088 135.252 80.8285 134.775 80.4704L124.017 72.3297C123.937 72.3669 123.855 72.3995 123.772 72.4275C123.414 72.546 123.037 72.5803 122.666 72.5283C122.295 72.4763 121.938 72.3391 121.618 72.1257C121.299 71.9122 121.025 71.6274 120.813 71.2898C120.602 70.9523 120.458 70.5696 120.391 70.1669C120.371 70.05 120.358 69.9318 120.351 69.8131C120.321 69.2187 120.459 68.6286 120.745 68.1221C121.03 67.6156 121.451 67.217 121.95 66.98Z" fill="#FFB8B8"/>
    <path d="M144.035 102.402H132.449C132.449 102.767 120.508 103.063 120.508 103.063C120.321 103.217 120.15 103.394 119.999 103.591C119.545 104.183 119.298 104.931 119.299 105.703V106.231C119.299 107.107 119.617 107.946 120.183 108.565C120.749 109.184 121.516 109.532 122.316 109.532H144.035C144.835 109.531 145.602 109.183 146.168 108.564C146.733 107.946 147.051 107.106 147.052 106.231V105.703C147.051 104.828 146.733 103.989 146.167 103.37C145.602 102.752 144.835 102.404 144.035 102.402Z" fill="#3F3D56"/>
    <path d="M131.432 131.582H134.57V109.401H131.432V131.582Z" fill="#3F3D56"/>
    <path d="M122.503 131.461C122.503 131.832 127.257 131.604 133.122 131.604C138.986 131.604 143.74 131.832 143.74 131.461C143.74 131.09 138.986 128.148 133.122 128.148C127.257 128.148 122.503 131.09 122.503 131.461Z" fill="#3F3D56"/>
    <path d="M125.335 128.862L122.377 128.861L120.969 120.465L125.336 120.465L125.335 128.862Z" fill="#FFB8B8"/>
    <path d="M126.09 132L116.55 132V131.868C116.55 131.334 116.646 130.806 116.833 130.313C117.019 129.82 117.293 129.372 117.638 128.995C117.982 128.617 118.392 128.318 118.842 128.114C119.293 127.91 119.776 127.805 120.263 127.805H120.263L126.09 127.805L126.09 132Z" fill="#2F2E41"/>
    <path d="M120.91 123.656L115.012 109.183C114.519 107.964 114.465 106.586 114.859 105.324C115.254 104.062 116.068 103.009 117.14 102.375L129.934 94.868L135.772 94.3247L141.157 93.7891L141.196 93.861C141.245 93.9528 142.403 96.1412 141.621 98.5407C141.027 100.361 139.483 101.782 137.031 102.766C131.308 105.062 124.697 107.025 122.12 107.762C122.006 107.794 121.9 107.852 121.808 107.932C121.716 108.012 121.64 108.112 121.586 108.227C121.532 108.339 121.5 108.463 121.492 108.591C121.484 108.718 121.5 108.846 121.539 108.966L127.019 122.437C127.076 122.608 127.096 122.791 127.079 122.972C127.061 123.152 127.006 123.327 126.917 123.48C126.828 123.634 126.708 123.764 126.567 123.859C126.425 123.954 126.265 124.012 126.099 124.029L122.005 124.355C121.97 124.359 121.935 124.361 121.901 124.361C121.691 124.36 121.486 124.294 121.31 124.169C121.134 124.044 120.995 123.866 120.91 123.656Z" fill="#2F2E41"/>
    <path d="M126.783 128.862L123.825 128.861L122.417 120.465L126.784 120.465L126.783 128.862Z" fill="#FFB8B8"/>
    <path d="M127.538 132L117.998 132V131.868C117.998 131.334 118.094 130.806 118.281 130.313C118.467 129.82 118.741 129.372 119.085 128.995C119.43 128.617 119.84 128.318 120.29 128.114C120.741 127.91 121.224 127.805 121.711 127.805H121.711L127.538 127.805L127.538 132Z" fill="#2F2E41"/>
    <path d="M122.599 124.445L116.701 109.973C116.209 108.753 116.154 107.375 116.549 106.113C116.943 104.851 117.757 103.798 118.829 103.164L131.623 95.6571L137.461 95.1137L142.846 94.5781L142.885 94.6501C142.935 94.7419 144.093 96.9302 143.31 99.3298C142.716 101.15 141.172 102.572 138.72 103.555C132.997 105.851 126.386 107.814 123.809 108.551C123.695 108.583 123.589 108.641 123.497 108.721C123.405 108.801 123.33 108.901 123.276 109.016C123.222 109.129 123.189 109.252 123.181 109.38C123.173 109.507 123.189 109.635 123.228 109.755L128.708 123.226C128.765 123.397 128.786 123.58 128.768 123.761C128.751 123.942 128.695 124.116 128.606 124.269C128.518 124.423 128.398 124.553 128.256 124.648C128.114 124.743 127.954 124.801 127.789 124.818L123.694 125.144C123.659 125.148 123.625 125.15 123.59 125.15C123.381 125.15 123.175 125.083 123 124.958C122.824 124.833 122.685 124.655 122.599 124.445Z" fill="#2F2E41"/>
    <path d="M119.659 80.2345C117.181 76.6271 115.222 72.6258 113.849 68.3696C113.77 68.115 113.776 67.8378 113.865 67.5874C113.955 67.3369 114.123 67.1295 114.34 67.0019L122.821 62.0292C122.958 61.9481 123.111 61.9024 123.267 61.8955C123.422 61.8885 123.578 61.9206 123.72 61.9892C123.866 62.0584 123.995 62.1629 124.098 62.2949C124.201 62.4269 124.275 62.5828 124.314 62.7508C125.302 66.8521 127.157 70.6416 129.731 73.8127C129.837 73.9417 129.915 74.0956 129.958 74.2624C130.002 74.4293 130.01 74.6048 129.982 74.7756C129.955 74.9437 129.893 75.1028 129.802 75.2409C129.71 75.379 129.591 75.4925 129.453 75.5726L120.972 80.5454C120.755 80.6719 120.504 80.7102 120.263 80.6533C120.023 80.5963 119.809 80.448 119.659 80.2345Z" fill="#CCCCCC"/>
    <path d="M120.238 79.7595C120.284 79.8218 120.348 79.8647 120.419 79.8809C120.491 79.897 120.565 79.8854 120.63 79.8479L129.111 74.8751C129.153 74.8516 129.188 74.818 129.216 74.7769C129.243 74.7358 129.261 74.6883 129.269 74.6382C129.278 74.5853 129.275 74.5309 129.262 74.4792C129.248 74.4275 129.224 74.38 129.19 74.3403C126.541 71.0759 124.63 67.1747 123.614 62.9525C123.602 62.9004 123.58 62.8519 123.548 62.8109C123.516 62.7699 123.476 62.7375 123.431 62.7162C123.389 62.6954 123.342 62.6857 123.296 62.6878C123.249 62.6899 123.204 62.7038 123.163 62.7283L114.682 67.7011C114.617 67.739 114.567 67.8004 114.54 67.8745C114.513 67.9486 114.51 68.0308 114.532 68.107C115.88 72.2869 117.804 76.2166 120.238 79.7595Z" fill="white"/>
    <path d="M147.837 78.9083L141.194 81.6703L139.572 76.741C139.357 76.0865 139.36 75.3698 139.581 74.7174C139.802 74.0651 140.226 73.5193 140.78 73.1763C141.339 72.8294 141.994 72.7128 142.625 72.8476C143.256 72.9825 143.822 73.3598 144.222 73.9116L147.837 78.9083Z" fill="#045395"/>
    <path d="M130.941 98.4371C130.801 98.3289 130.684 98.1894 130.598 98.0278C130.511 97.8662 130.457 97.6863 130.438 97.5C129.588 88.8097 130.18 82.0089 132.25 76.7089C132.614 75.7948 133.163 74.9829 133.856 74.3344C134.548 73.6859 135.366 73.2175 136.248 72.9645L141.617 72.668L141.645 72.6827C142.857 73.332 143.845 74.3914 144.463 75.7037C145.081 77.0159 145.296 78.5112 145.077 79.9678C143.35 84.9489 141.904 90.1351 143.006 94.3187C143.053 94.4936 143.066 94.6769 143.046 94.8577C143.026 95.0384 142.973 95.2129 142.89 95.3706C142.809 95.523 142.701 95.6558 142.571 95.7606C142.442 95.8655 142.294 95.9403 142.138 95.9804L131.91 98.6424C131.745 98.6855 131.573 98.6895 131.406 98.6541C131.238 98.6187 131.08 98.5448 130.941 98.4371Z" fill="#045395"/>
    <path d="M139.825 70.4753C143.099 70.4753 145.753 67.5716 145.753 63.9896C145.753 60.4077 143.099 57.5039 139.825 57.5039C136.552 57.5039 133.898 60.4077 133.898 63.9896C133.898 67.5716 136.552 70.4753 139.825 70.4753Z" fill="#FFB8B8"/>
    <path d="M123.378 69.1241L118.759 71.3553C118.583 71.4399 118.384 71.4448 118.205 71.3689C118.026 71.293 117.882 71.1425 117.804 70.9505L117.69 70.6673C117.612 70.475 117.608 70.2571 117.677 70.0613C117.747 69.8654 117.884 69.7077 118.06 69.6226L122.679 67.3914C122.855 67.3068 123.054 67.3019 123.233 67.3778C123.412 67.4537 123.556 67.6042 123.634 67.7962L123.748 68.0794C123.825 68.2717 123.83 68.4896 123.76 68.6855C123.691 68.8813 123.554 69.039 123.378 69.1241Z" fill="#CCCCCC"/>
    <path d="M125.067 72.5577L120.448 74.7889C120.272 74.8735 120.073 74.8784 119.894 74.8025C119.715 74.7266 119.571 74.5761 119.493 74.3841L119.379 74.1009C119.302 73.9086 119.297 73.6907 119.367 73.4949C119.436 73.299 119.573 73.1413 119.749 73.0562L124.368 70.825C124.544 70.7404 124.743 70.7355 124.922 70.8114C125.101 70.8873 125.245 71.0378 125.323 71.2298L125.437 71.513C125.515 71.7053 125.519 71.9232 125.45 72.1191C125.38 72.3149 125.243 72.4726 125.067 72.5577Z" fill="#CCCCCC"/>
    <path d="M128.63 85.9677L118.331 77.0777C118.249 77.1093 118.166 77.1362 118.081 77.1584C117.718 77.2514 117.34 77.2598 116.974 77.1828C116.607 77.1059 116.259 76.9454 115.953 76.7118C115.645 76.478 115.386 76.1749 115.193 75.8227C115.001 75.4705 114.879 75.0774 114.837 74.6696C114.768 74.0178 114.902 73.3595 115.218 72.8017C115.533 72.2438 116.012 71.8191 116.576 71.5964C116.929 71.4582 117.303 71.403 117.676 71.4343C118.049 71.4656 118.412 71.5829 118.741 71.7782C119.069 71.9736 119.357 72.2428 119.584 72.5681C119.811 72.8934 119.972 73.2676 120.058 73.666C120.084 73.7923 120.103 73.9204 120.113 74.0495L130.365 80.521L132.916 78.9138L135.743 82.9624L131.781 86.0518C131.318 86.4105 130.761 86.596 130.193 86.5809C129.625 86.5657 129.077 86.3507 128.63 85.9677Z" fill="#FFB8B8"/>
    <path d="M136.999 84.2243L131.123 79.852L133.885 75.5724C134.251 75.0041 134.79 74.5959 135.405 74.42C136.02 74.2442 136.672 74.3119 137.246 74.6112C137.827 74.9139 138.289 75.4339 138.55 76.0771C138.811 76.7204 138.853 77.4444 138.669 78.1186L136.999 84.2243Z" fill="#045395"/>
    <path d="M139.093 61.1564C137.679 62.4061 135.821 63.6907 134.377 62.3599C133.428 61.486 133.129 59.8678 133.514 58.4478C134.206 55.8942 136.106 54.7699 137.924 53.9082C140.286 52.7879 142.859 51.8967 145.298 52.6989C147.737 53.5012 149.893 56.5497 149.453 59.7488C149.099 62.3214 147.219 64.4621 147.486 67.0522C147.754 69.659 150.025 71.0311 152.03 71.497C154.035 71.9629 156.279 72.1126 157.72 73.9716C159.558 76.343 159.099 80.5818 157.369 83.0857C155.639 85.5895 153.029 86.7244 150.5 87.496C147.149 88.5183 143.525 89.0555 140.343 87.359C137.16 85.6624 134.683 81.0955 135.605 76.813C135.995 75.0041 136.912 73.4753 137.799 71.987C138.685 70.4987 139.583 68.9424 139.921 67.1164C140.203 65.5948 139.994 63.828 139.213 62.6866C139.071 62.4868 138.981 62.234 138.957 61.9645C138.933 61.695 138.976 61.4226 139.08 61.1864L139.093 61.1564Z" fill="#2F2E41"/>
    <path d="M26.3224 94.5346C24.795 95.122 23.1552 95.2692 21.5607 94.9619C19.9663 94.6545 18.4711 93.9031 17.2192 92.7799C14.0307 89.8517 13.031 85.0274 12.2176 80.5603C11.4157 76.1561 10.6137 71.7519 9.81177 67.3477L14.8487 71.1427C18.471 73.8718 22.1749 76.6884 24.6829 80.6414C27.1909 84.5944 28.2857 89.9906 26.2706 94.268" fill="#E6E6E6"/>
    <path d="M25.8918 110.53C26.4016 106.467 26.9258 102.351 26.5682 98.2445C26.2506 94.5972 25.2337 91.0348 23.1633 88.1139C22.0644 86.5664 20.7272 85.2405 19.2118 84.1958C18.8167 83.9229 18.453 84.6082 18.8464 84.8799C21.4684 86.6931 23.4964 89.3706 24.638 92.5263C25.899 96.0355 26.1014 99.861 25.8842 103.589C25.7528 105.843 25.4743 108.083 25.1936 110.32C25.1715 110.421 25.1853 110.527 25.2322 110.618C25.2792 110.708 25.3557 110.776 25.4465 110.807C25.539 110.834 25.6377 110.82 25.721 110.769C25.8044 110.717 25.8658 110.631 25.8918 110.53Z" fill="#F2F2F2"/>
    <path d="M20.9815 103.342C20.3264 104.432 19.426 105.318 18.367 105.916C17.308 106.514 16.126 106.804 14.935 106.757C11.8742 106.598 9.32247 104.26 7.02542 102.041L0.231201 95.4773L4.72785 95.2418C7.96157 95.0725 11.2787 94.9145 14.3587 96.0057C17.4387 97.0968 20.2793 99.7229 20.8425 103.211" fill="#E6E6E6"/>
    <path d="M27.3326 112.866C24.8788 108.115 22.0326 102.835 16.947 101.148C15.533 100.68 14.0502 100.513 12.5787 100.654C12.1149 100.698 12.2307 101.48 12.6937 101.437C15.1603 101.212 17.6222 101.925 19.6648 103.455C21.6304 104.919 23.1609 106.954 24.4562 109.112C25.2497 110.434 25.9604 111.813 26.6712 113.189C26.8984 113.629 27.5624 113.311 27.3326 112.866Z" fill="#F2F2F2"/>
    <path d="M31.2641 117.867C31.1814 116.819 30.8375 115.815 30.2697 114.966C29.702 114.117 28.9321 113.455 28.0441 113.051V110.305H23.8342V113.138C22.9898 113.561 22.2632 114.222 21.7284 115.053C21.1935 115.883 20.8695 116.854 20.7895 117.867L19.7996 130.459H32.2541L31.2641 117.867Z" fill="#F2F2F2"/>
  </g>
  <defs>
    <clipPath id="clip0_1302_2032">
      <rect width="167" height="132" fill="white"/>
    </clipPath>
  </defs>
</svg>