<svg xmlns="http://www.w3.org/2000/svg" width="136" height="136" viewBox="0 0 136 136" fill="none">
  <path d="M128.18 92.6438V96.6558L70.8631 129.745L7.82031 93.3442V89.3322L70.8631 125.733L128.18 92.6438ZM102.986 102.823L86.8975 112.112L77.9623 106.951L94.0511 97.6622L102.986 102.823ZM87.3667 111.16L101.341 103.089L93.5751 98.6074L79.6011 106.679L87.3667 111.16ZM72.4339 103.123L52.0883 91.379V92.2358L72.4339 103.979L82.6067 98.1042V97.2474L72.4339 103.123ZM87.5027 78.7582V94.4186L85.9999 95.2958V79.6354L65.6543 67.885L67.1571 67.0078L87.5027 78.7582ZM80.7027 92.2358L77.7719 93.929L68.1091 88.353V87.945L77.7719 93.521L80.3491 92.0318L76.6703 89.9034L80.7027 92.2358ZM101.749 86.483L101.728 86.1362L101.932 89.9306L102.211 90.0938C102.585 90.3114 102.816 90.7126 102.816 91.1478V97.2814C102.816 97.669 102.64 97.9954 102.381 98.213L102.442 99.3554C102.932 99.9878 103.707 98.9542 103.734 99.0358C103.762 99.1174 104.108 87.673 104.312 87.8974C104.516 88.1286 105.55 101.021 105.55 101.021C106.325 101.511 106.842 100.851 106.842 100.851L107.522 86.347L107.515 86.4966C105.53 86.9522 103.231 86.7346 101.749 86.483ZM112.33 76.453L108.753 78.5134L111.133 79.887L114.71 77.8266L112.33 76.453Z" fill="#4F8EBA"/>
  <path d="M25.9151 92.6746C25.9219 92.6746 25.9219 92.6746 25.9287 92.6746C25.9355 92.6746 25.9423 92.6746 25.9491 92.6678C25.9355 92.6678 25.9287 92.6678 25.9151 92.6746ZM25.9695 92.6542C25.9695 92.6542 25.9627 92.6542 25.9627 92.661C25.9559 92.661 25.9559 92.661 25.9491 92.6678C25.9559 92.661 25.9627 92.661 25.9695 92.6542ZM26.3299 83.6442C26.2891 83.6714 26.2415 83.6918 26.2007 83.719C26.2483 83.6986 26.2891 83.6714 26.3299 83.6442ZM26.0035 92.6406C25.9967 92.6406 25.9967 92.6474 25.9899 92.6474C25.9831 92.6474 25.9831 92.6542 25.9763 92.6542C25.9899 92.6474 25.9967 92.6474 26.0035 92.6406ZM26.1667 83.7394C26.1327 83.753 26.1055 83.7666 26.0715 83.787C26.0987 83.7666 26.1327 83.753 26.1667 83.7394ZM25.6975 79.6662C25.7111 79.6662 25.7247 79.6662 25.7451 79.6662C25.7315 79.6662 25.7111 79.6662 25.6975 79.6662ZM25.3643 83.9842C25.3983 83.9774 25.4391 83.9706 25.4731 83.9638C25.4391 83.9774 25.3983 83.9842 25.3643 83.9842ZM25.3099 83.991C25.2895 83.991 25.2691 83.9978 25.2487 83.9978C25.2691 83.9978 25.2895 83.9978 25.3099 83.991ZM26.0715 92.5998C26.0579 92.6066 26.0511 92.6134 26.0443 92.6202C26.0443 92.6202 26.0375 92.6202 26.0375 92.627C26.0511 92.6134 26.0647 92.6066 26.0715 92.5998ZM25.9083 92.6746C25.8879 92.6814 25.8675 92.6814 25.8471 92.6814C25.8607 92.6814 25.8675 92.6814 25.8811 92.6814C25.8879 92.6814 25.8879 92.6814 25.8947 92.6814C25.9015 92.6746 25.9015 92.6746 25.9083 92.6746ZM26.7447 82.7942H26.7379C26.7379 82.7942 26.7379 82.7942 26.7447 82.7942ZM26.8399 82.7738C26.8331 82.7738 26.8263 82.7738 26.8195 82.7806C26.8195 82.7806 26.8263 82.7806 26.8399 82.7738ZM26.4115 82.8486C26.4047 82.8486 26.3979 82.8486 26.3911 82.8486C26.4047 82.8486 26.4115 82.8486 26.4115 82.8486ZM26.9283 82.7602C26.9215 82.7602 26.9079 82.767 26.9011 82.767C26.9079 82.7602 26.9147 82.7602 26.9283 82.7602ZM26.5203 82.8282C26.5135 82.8282 26.5067 82.8282 26.4999 82.8282C26.5067 82.835 26.5135 82.835 26.5203 82.8282ZM27.2071 82.699C27.2003 82.699 27.1867 82.7058 27.1799 82.7058C27.1867 82.7058 27.1935 82.699 27.2071 82.699ZM27.3499 79.197C27.3363 79.2038 27.3295 79.2106 27.3159 79.2174C27.3227 79.2106 27.3363 79.2038 27.3499 79.197ZM27.3023 82.6786C27.2955 82.6786 27.2887 82.6854 27.2819 82.6854C27.2819 82.6786 27.2955 82.6786 27.3023 82.6786ZM26.0919 79.6186C26.1055 79.6186 26.1259 79.6118 26.1395 79.6118C26.1259 79.6118 26.1123 79.6118 26.0919 79.6186ZM27.1119 82.7194C27.0983 82.7194 27.0915 82.7262 27.0779 82.7262C27.0915 82.7262 27.0983 82.7262 27.1119 82.7194ZM102.667 97.8834C102.674 97.8766 102.674 97.8698 102.68 97.8562C102.674 97.863 102.667 97.8698 102.667 97.8834ZM102.714 97.7882C102.708 97.795 102.708 97.8086 102.701 97.8154C102.701 97.8086 102.708 97.8018 102.714 97.7882ZM102.64 97.9174C102.633 97.9242 102.633 97.931 102.626 97.9378C102.633 97.931 102.64 97.9242 102.64 97.9174ZM26.3775 82.8486C26.3707 82.8486 26.3707 82.8486 26.3639 82.8486C26.3639 82.8554 26.3707 82.8554 26.3775 82.8486ZM102.776 97.6182C102.769 97.6386 102.762 97.6522 102.755 97.6726C102.762 97.659 102.769 97.6386 102.776 97.6182ZM102.816 97.387C102.816 97.4074 102.816 97.421 102.81 97.4414C102.816 97.421 102.816 97.4006 102.816 97.387ZM102.782 97.591C102.789 97.5774 102.789 97.5638 102.796 97.5434C102.789 97.557 102.789 97.5774 102.782 97.591ZM102.803 97.5162C102.803 97.5026 102.81 97.4822 102.81 97.4686C102.803 97.4822 102.803 97.4958 102.803 97.5162ZM79.5059 68.2966C79.3563 68.0722 79.1999 67.8614 79.0367 67.6642C79.1999 67.8682 79.3563 68.079 79.5059 68.2966ZM79.8391 68.8474C79.7847 68.7522 79.7371 68.6638 79.6827 68.5686C79.7303 68.657 79.7847 68.7522 79.8391 68.8474ZM78.3975 67.0046C78.4723 67.0726 78.5471 67.1406 78.6151 67.2154C78.5403 67.1406 78.4723 67.0658 78.3975 67.0046ZM25.5207 83.957C25.5479 83.9502 25.5751 83.9434 25.6023 83.9434C25.5751 83.9502 25.5479 83.957 25.5207 83.957ZM79.0367 67.6642C78.9007 67.501 78.7647 67.3514 78.6151 67.2086C78.7579 67.3514 78.9007 67.5078 79.0367 67.6642ZM78.2819 66.9026C78.2071 66.8414 78.1323 66.7734 78.0507 66.719C78.1255 66.7802 78.2071 66.8414 78.2819 66.9026ZM76.6635 64.8966C76.6023 64.7946 76.5547 64.6926 76.5071 64.5838C76.5547 64.6926 76.6091 64.7946 76.6635 64.8966ZM76.4187 65.9914C76.3507 65.9846 76.2759 65.9778 76.2079 65.9778C76.2759 65.9778 76.3507 65.9778 76.4187 65.9914ZM76.9627 65.3182C77.0375 65.4066 77.1123 65.4882 77.1939 65.563C77.1123 65.4882 77.0307 65.4066 76.9627 65.3182ZM76.7519 66.0526C76.6771 66.0322 76.6023 66.0186 76.5275 66.005C76.6023 66.0186 76.6703 66.0322 76.7519 66.0526ZM100.198 95.3266C100.144 95.2518 100.083 95.177 100.022 95.109C100.083 95.1838 100.137 95.2518 100.198 95.3266ZM20.8899 89.0026C20.9103 89.0298 20.9307 89.0638 20.9647 89.1046C20.9511 89.0842 20.9375 89.0706 20.9307 89.057C20.9239 89.0502 20.9239 89.0434 20.9171 89.0366C20.9035 89.023 20.8967 89.0094 20.8899 89.0026ZM21.0871 89.2406C21.1075 89.261 21.1279 89.2814 21.1551 89.295C21.1279 89.2746 21.1075 89.261 21.0871 89.2406ZM21.1755 89.3086C21.2299 89.3494 21.2843 89.3834 21.3455 89.4174C21.3115 89.4038 21.2843 89.3834 21.2571 89.363C21.2503 89.3562 21.2435 89.3494 21.2299 89.3494C21.2095 89.3358 21.1959 89.3222 21.1755 89.3086ZM21.0871 89.2338C21.0803 89.227 21.0803 89.227 21.0735 89.2202C21.0599 89.2066 21.0463 89.193 21.0327 89.1794C21.0463 89.1998 21.0667 89.2134 21.0871 89.2338ZM20.9715 89.1114L20.9647 89.1046C20.9647 89.1046 20.9647 89.1114 20.9715 89.1114ZM20.9715 89.1182C20.9851 89.1318 20.9919 89.1454 21.0055 89.159L21.0123 89.1658C20.9987 89.1522 20.9851 89.1318 20.9715 89.1182ZM24.7591 83.991C24.7659 83.991 24.7727 83.991 24.7863 83.991C24.7795 83.991 24.7727 83.991 24.7591 83.991ZM97.8999 90.1722C97.9679 90.1654 98.0427 90.1654 98.1243 90.179C98.0495 90.1654 97.9747 90.1586 97.8999 90.1722ZM98.2467 90.1994C98.3215 90.2198 98.3963 90.247 98.4711 90.2878C98.3963 90.2538 98.3215 90.2198 98.2467 90.1994ZM96.3699 93.6266C96.4515 93.579 96.5331 93.545 96.6215 93.511C96.5331 93.5382 96.4515 93.579 96.3699 93.6266ZM100.491 95.7414C100.899 96.3602 101.225 97.047 101.422 97.7338C101.225 97.0538 100.906 96.3602 100.491 95.7414ZM96.1387 93.783C96.1795 93.749 96.2135 93.7218 96.2543 93.6946C96.2203 93.7218 96.1795 93.749 96.1387 93.783ZM102.436 98.169L102.429 98.1758C102.436 98.169 102.436 98.169 102.436 98.169ZM98.5391 90.3218C98.5459 90.3286 98.5595 90.3354 98.5663 90.3354C98.6615 90.3898 98.7499 90.4578 98.8383 90.5258C98.7499 90.451 98.6547 90.3898 98.5663 90.3354C98.5595 90.3354 98.5527 90.3286 98.5391 90.3218ZM100.239 95.3878C100.294 95.4626 100.348 95.5374 100.402 95.6122C100.355 95.5374 100.3 95.4626 100.239 95.3878ZM97.4987 92.0286C97.5463 92.1306 97.5939 92.2394 97.6551 92.3414C97.5939 92.2394 97.5395 92.1374 97.4987 92.0286ZM97.6551 92.3414C97.7163 92.4434 97.7775 92.5386 97.8455 92.6338C97.7775 92.5386 97.7095 92.4434 97.6551 92.3414ZM99.7767 93.0078C99.8107 92.9194 99.8311 92.8242 99.8447 92.7154C99.8311 92.8174 99.8107 92.9194 99.7767 93.0078ZM99.8515 92.5658C99.8515 92.6202 99.8515 92.6678 99.8447 92.7154C99.8515 92.661 99.8515 92.6134 99.8515 92.5658C99.8515 92.4638 99.8447 92.3618 99.8243 92.253C99.8447 92.355 99.8515 92.4638 99.8515 92.5658ZM97.9475 92.763C97.9815 92.8038 98.0223 92.8514 98.0631 92.8922C98.0223 92.8514 97.9815 92.8106 97.9475 92.763ZM99.3823 94.4494C99.3075 94.3814 99.2327 94.3202 99.1579 94.259C99.2327 94.3134 99.3075 94.3814 99.3823 94.4494ZM27.5267 79.1018C27.5199 79.1018 27.5199 79.1086 27.5131 79.1086C27.5199 79.1086 27.5267 79.1086 27.5267 79.1018ZM27.4111 79.1698C27.4179 79.163 27.4315 79.163 27.4383 79.1562C27.4315 79.1562 27.4247 79.163 27.4111 79.1698ZM25.3711 79.673C25.3575 79.673 25.3439 79.673 25.3303 79.673C25.3439 79.6662 25.3575 79.673 25.3711 79.673ZM25.2011 79.6594C25.1875 79.6594 25.1739 79.6594 25.1603 79.6594C25.1807 79.6594 25.1943 79.6594 25.2011 79.6594ZM25.0651 84.0046C25.0515 84.0046 25.0447 84.0046 25.0311 84.0046C25.0447 84.0046 25.0583 84.0046 25.0651 84.0046ZM26.4659 79.5302C26.4795 79.5234 26.4999 79.5234 26.5135 79.5166C26.4999 79.5234 26.4863 79.5234 26.4659 79.5302ZM26.6087 79.4894C26.6291 79.4826 26.6427 79.4758 26.6631 79.4758C26.6427 79.4826 26.6223 79.4826 26.6087 79.4894ZM26.9147 79.3874C26.8943 79.3942 26.8807 79.401 26.8603 79.4078C26.8807 79.401 26.9011 79.3942 26.9147 79.3874ZM24.8679 79.6186C24.8543 79.6186 24.8407 79.6118 24.8271 79.6118C24.8475 79.6186 24.8543 79.6186 24.8679 79.6186ZM26.9827 79.3602C26.9963 79.3534 27.0167 79.3466 27.0303 79.3398C27.0167 79.3466 27.0031 79.3534 26.9827 79.3602ZM73.5423 88.0982L79.4379 91.505L77.5271 90.4034L73.5423 88.0982ZM128.18 92.6406L70.8631 125.729L7.82031 89.3358L22.0187 81.135C22.0527 81.6042 22.1343 82.1006 22.3247 82.2502C22.3247 82.2502 22.3995 82.2706 22.3723 82.0598C22.3723 82.0598 22.5695 82.5698 22.6035 82.1822C22.6035 82.1822 22.9027 82.5426 22.8551 82.1822C22.8551 82.1822 23.1815 82.597 23.2563 82.359C23.3311 82.1142 22.9503 81.8898 22.9163 81.4138C22.9163 81.4138 23.4399 81.6178 23.4671 81.2914C23.4671 81.2914 22.8687 80.9242 22.8143 80.8018C22.8007 80.7678 22.7735 80.7406 22.7463 80.7134L23.8343 80.0878C23.7731 80.931 23.6847 81.9034 23.5623 82.6106C23.5487 82.7058 23.5283 82.7942 23.5147 82.8758C23.5147 82.8758 23.5147 82.8758 23.5147 82.8826C23.5079 82.9234 23.4943 82.9642 23.4875 82.9982C23.4807 83.0322 23.4739 83.073 23.4603 83.1002V83.107C23.4535 83.141 23.4399 83.1682 23.4331 83.2022C23.4331 83.209 23.4331 83.209 23.4263 83.2158C23.4195 83.243 23.4127 83.2702 23.3991 83.2906V83.2974C23.3923 83.3246 23.3787 83.345 23.3719 83.3654C23.3719 83.3722 23.3651 83.3722 23.3651 83.379C23.3583 83.3994 23.3447 83.4198 23.3379 83.4402C23.3379 83.4402 23.8955 83.8618 24.6843 83.9706C24.7591 84.3106 24.7999 84.5282 24.7999 84.5282C24.7999 84.5282 24.8067 84.569 24.8135 84.6438C24.7319 84.8614 24.5687 85.1334 24.2491 85.3714C23.6099 85.8406 23.0455 86.235 22.6647 87.1666C22.2839 88.0982 21.2979 88.7714 21.0191 88.8734C20.9783 88.887 20.9239 88.9074 20.8695 88.9346C20.8763 88.9482 20.8831 88.9618 20.8899 88.9754C20.8423 88.9006 20.8287 88.853 20.8287 88.853C20.3323 88.785 19.9515 89.6078 19.9583 89.8866C19.9651 90.1586 20.2235 90.4102 20.5499 90.8454C20.8763 91.2806 20.7879 92.4706 21.7399 92.7154C22.6919 92.9602 22.7939 92.7086 22.9843 92.2054C23.0999 91.9062 22.8415 91.7022 22.6171 91.4166C22.5967 91.3962 22.5831 91.369 22.5627 91.3486C22.5627 91.3418 22.5559 91.3418 22.5559 91.335C22.5423 91.3078 22.5219 91.2874 22.5083 91.2602C22.5083 91.2602 22.5083 91.2534 22.5015 91.2534C22.4879 91.2262 22.4743 91.2058 22.4607 91.1786C22.4607 91.1718 22.4539 91.1718 22.4539 91.165C22.4403 91.1378 22.4267 91.1106 22.4199 91.0834C22.4199 91.0834 22.4199 91.0766 22.4131 91.0766C22.3995 91.0426 22.3859 91.0086 22.3791 90.9746C22.3791 90.9678 22.3791 90.9678 22.3791 90.961C22.3723 90.927 22.3655 90.893 22.3587 90.859C22.3519 90.8318 22.3519 90.7978 22.3519 90.7706C22.3519 90.7638 22.3519 90.757 22.3519 90.7502C22.3519 90.7162 22.3519 90.6754 22.3519 90.6414C22.3587 90.4918 22.3587 90.3694 22.3519 90.2538C22.3519 90.2538 22.3519 90.2538 22.3519 90.247C22.3519 90.247 22.3519 90.247 22.3519 90.2402C22.3519 90.2198 22.3451 90.1994 22.3451 90.179C22.3451 90.1654 22.3451 90.1518 22.3383 90.1382C22.3383 90.1178 22.3315 90.0974 22.3315 90.077C22.3315 90.0702 22.3315 90.0566 22.3247 90.0498C22.3043 89.9206 22.2703 89.8186 22.2431 89.7438C22.2227 89.6962 22.2023 89.6554 22.1819 89.6282C22.1683 89.6078 22.1615 89.601 22.1547 89.5942C22.1479 89.5874 22.1411 89.5806 22.1411 89.5806C22.1343 89.5806 22.1207 89.5806 22.1139 89.5806C22.2091 89.295 23.9159 87.9486 24.5143 87.2618C24.4667 87.8738 24.4735 88.5266 24.5347 88.7034C24.6435 89.0094 25.1739 91.0834 25.1059 91.4778C25.1059 91.4778 25.2215 92.0898 25.1535 92.2666C25.1467 92.287 25.1399 92.3074 25.1263 92.3278C24.9563 92.423 24.6503 92.7426 24.9223 93.783C24.9223 93.783 24.9903 93.885 25.5003 94.0618C26.0103 94.2454 26.7243 95.1022 26.9895 95.0682C27.2547 95.0342 28.0775 95.1362 28.3223 94.6126C28.5671 94.089 27.9823 94.0278 27.6151 93.6742C27.6083 93.6674 27.5947 93.6538 27.5879 93.647C27.5199 93.579 27.4519 93.5042 27.3771 93.4158C27.3499 93.3818 27.3159 93.3478 27.2887 93.3138C27.2615 93.2798 27.2275 93.239 27.2003 93.205C27.1799 93.1778 27.1527 93.1506 27.1323 93.1166C27.0847 93.0554 27.0371 93.001 26.9895 92.9398C26.9759 92.9194 26.9555 92.9058 26.9419 92.8854C26.9419 92.8854 26.9419 92.8854 26.9419 92.8786C26.9283 92.8582 26.9147 92.8446 26.8943 92.8242C26.8943 92.8242 26.8943 92.8242 26.8943 92.8174C26.8807 92.797 26.8671 92.7834 26.8467 92.763C26.7175 92.6134 26.6019 92.491 26.5203 92.4298C26.4999 92.4162 26.4863 92.4094 26.4727 92.4026C26.4659 92.4026 26.4591 92.3958 26.4523 92.3958C26.4455 92.3958 26.4387 92.3958 26.4319 92.3958C26.4183 92.3958 26.4047 92.3958 26.3979 92.3958H26.3911C26.3843 92.3958 26.3707 92.4026 26.3639 92.4026H26.3571C26.3503 92.4026 26.3367 92.4094 26.3299 92.4162C26.3231 92.4162 26.3163 92.423 26.3163 92.423C26.3163 92.4162 26.3163 92.4162 26.3163 92.4094C26.3231 92.253 26.2755 89.5126 26.2755 89.5126L26.2075 86.1602C26.2075 86.1602 26.2143 85.8678 26.2211 85.4938C26.3639 85.3782 26.5611 85.1538 26.8195 84.739C27.0643 84.3378 27.2683 83.5286 27.4247 82.6446C27.8395 82.5358 28.2339 82.3794 28.3359 82.1754L28.2611 81.4886L27.9823 78.8162C28.2339 78.619 28.3291 78.4626 28.3155 78.4626C28.3019 78.4626 28.1727 78.0274 28.0639 77.6534L28.4039 77.4562C28.8935 77.9934 29.3151 78.4898 29.3151 78.5782C29.3151 78.789 30.1039 79.6526 30.1039 79.6526C30.1039 79.6526 30.5459 80.2918 30.6751 80.2578C30.8043 80.2238 30.5935 79.8906 30.5935 79.8906C30.5935 79.8906 30.8111 80.115 30.9607 80.149C31.1103 80.1898 30.7771 79.7206 30.7771 79.7206C30.7771 79.7206 31.1715 79.945 31.3007 79.945C31.4367 79.9518 31.1443 79.605 31.1443 79.605C31.5183 79.7138 31.7223 79.6254 31.4639 79.5166C31.2055 79.4078 30.4031 78.5578 30.4031 78.5578C31.0831 78.6802 31.1579 78.2586 31.0151 78.2994C30.8723 78.3402 29.9815 78.1158 29.9815 78.1158C29.9815 78.1158 29.5327 77.497 29.2267 76.9734L30.9607 75.9738L47.8451 85.9018L60.0307 78.8434L60.0375 77.5446L61.1527 76.9122L61.2275 63.5434C61.2275 63.1354 61.0167 62.7546 60.6631 62.5506L57.4535 60.6738L65.1579 56.2266L74.1135 61.3946V66.7462C74.1135 67.1814 74.3447 67.5826 74.7187 67.8002L80.0363 70.867C80.8455 71.3362 81.8587 70.7514 81.8587 69.813V65.8622L101.688 77.3134C101.518 79.8974 101.205 85.317 101.205 85.317L101.388 85.385C101.266 85.7386 101.048 86.3778 101.116 86.7382C101.164 86.9966 101.531 87.3298 101.83 87.5338L101.769 86.3506L101.96 89.907L102.238 90.0702L96.9207 87.0034C96.1115 86.5342 95.0983 87.119 95.0983 88.0574V94.191C95.0983 94.6262 95.3295 95.0274 95.7035 95.245L101.021 98.3118C101.497 98.5838 102.041 98.4954 102.408 98.1894L102.47 99.3182C102.408 99.8282 102.334 100.481 102.347 100.549C102.368 100.658 102.735 100.807 103.34 100.699C103.945 100.59 104.72 99.2502 104.829 98.951C104.911 98.7266 104.176 98.7198 103.782 98.7266C103.857 96.9722 104.156 87.663 104.34 87.8738C104.544 88.105 105.577 100.998 105.577 100.998C105.577 100.998 105.577 100.991 105.577 100.977C105.543 101.29 105.455 102.181 105.584 102.235C105.734 102.303 108.046 102.535 108.732 101.719C109.426 100.896 106.964 100.875 106.964 100.875C106.964 100.875 106.924 100.835 106.869 100.787L107.549 86.3234C107.549 86.3234 107.542 84.8886 107.522 83.0594C107.808 83.2498 108.195 83.345 108.671 83.175C109.059 83.039 109.508 82.6038 109.943 82.0734L128.18 92.6406ZM65.6543 83.5422L70.6931 86.4526L68.1159 87.9418V88.3498L77.7787 93.9258L80.7095 92.2326L86.0067 95.2926L87.5095 94.4154V78.755L67.1571 67.0114L65.6543 67.8886V83.5422ZM72.4271 103.976L82.5999 98.101V97.2442L62.2611 85.4938L52.0883 91.3758V92.2326L72.4271 103.976ZM102.986 102.82L94.0511 97.659L77.9623 106.948V109.008L86.8975 114.169L102.986 104.881V102.82Z" fill="#E6F4F7"/>
  <path d="M93.5816 98.6063L93.5952 107.562L91.3036 108.888V99.9255L93.5816 98.6063ZM86.1764 102.884L86.1628 110.466L87.3664 111.159L89.2704 110.058V101.095L86.1764 102.884ZM66.8984 69.5703V83.3063L84.7416 93.6083V79.8723L66.8984 69.5703Z" fill="#F2F9FD"/>
  <path d="M103.421 70.5153C103.638 69.5429 105.053 69.5565 105.053 69.5565C105.053 69.5565 105.529 69.1621 106.107 69.1689L83.585 56.1673C85.4142 51.9921 89.8682 50.8633 95.0566 53.8621C100.204 56.8337 104.604 63.0081 106.433 69.2233C106.576 69.2709 106.725 69.3457 106.868 69.4681C107.711 70.1821 107.059 71.1069 107.059 71.1069C107.059 71.1069 107.256 71.7393 107.399 72.4057C109.853 72.3037 112.05 70.3113 112.05 67.5573V43.0841C112.05 41.3501 111.125 39.7521 109.629 38.8885L88.447 26.6553C85.217 24.7921 81.1778 27.1245 81.1778 30.8509V55.3105C81.1778 57.0445 82.1026 58.6425 83.5986 59.5061L103.339 70.9029C103.353 70.8009 103.387 70.6649 103.421 70.5153ZM95.0906 39.8949C97.9262 41.5269 100.211 45.4913 100.204 48.7485C100.197 52.0057 97.8922 53.3181 95.0566 51.6793C92.221 50.0473 89.9362 46.0829 89.943 42.8257C89.9566 39.5753 92.2618 38.2629 95.0906 39.8949ZM58.9758 63.7425L58.9078 76.0573L42.9618 66.7345L43.023 54.4129L58.9758 63.7425ZM42.6014 68.2645L34.9922 72.6029L50.1154 81.4429L57.7314 77.1045L42.6014 68.2645ZM39.7794 75.8873L36.8146 77.5737L41.5406 80.3073L44.4782 78.6413L39.7794 75.8873Z" fill="#BEDCEB"/>
  <path d="M41.9157 52.9062L41.8477 66.9415L60.0105 77.5631L60.0853 63.5346L41.9157 52.9062ZM58.9089 76.0535L42.9629 66.7375L43.0241 54.4159L58.9769 63.7455L58.9089 76.0535ZM41.8477 66.9415L29.6621 73.8911L47.8249 84.5127L60.0105 77.5631L41.8477 66.9415ZM41.5417 80.3103L36.8157 77.5767L39.7805 75.8903L44.4861 78.6443L41.5417 80.3103ZM34.9933 72.6059L42.6025 68.2675L57.7257 77.1075L50.1097 81.4459L34.9933 72.6059Z" fill="#4F8EBA"/>
  <path d="M89.9505 42.8241C89.9573 39.5669 92.2625 38.2545 95.0981 39.8933C97.9337 41.5253 100.218 45.4897 100.212 48.7469C100.205 52.0041 97.8997 53.3165 95.0641 51.6777C92.2285 50.0457 89.9369 46.0813 89.9505 42.8241ZM106.427 69.2149C104.598 62.9997 100.198 56.8253 95.0505 53.8537C89.8553 50.8549 85.4012 51.9837 83.5788 56.1589L106.1 69.1673C106.209 69.1673 106.318 69.1809 106.427 69.2149ZM59.3097 48.4069V54.5473C59.3097 55.4857 58.2965 56.0705 57.4873 55.6013L52.1697 52.5345C51.7957 52.3169 51.5645 51.9157 51.5645 51.4805V45.3469C51.5645 44.4085 52.5777 43.8237 53.3869 44.2929L58.7045 47.3597C59.0785 47.5705 59.3097 47.9717 59.3097 48.4069ZM53.7677 48.3457C53.7677 49.1617 54.3389 50.1545 55.0529 50.5693C55.7601 50.9773 56.3381 50.6509 56.3449 49.8349C56.3449 49.0189 55.7737 48.0261 55.0597 47.6113C54.3457 47.1965 53.7677 47.5297 53.7677 48.3457ZM57.9089 55.0097C57.4601 53.4389 56.3449 51.8681 55.0461 51.1133C53.7405 50.3585 52.6253 50.6441 52.1697 51.6913L57.9089 55.0097ZM81.8381 63.7001V69.8337C81.8381 70.7721 80.8248 71.3569 80.0156 70.8877L74.6981 67.8209C74.3241 67.6033 74.0929 67.2021 74.0929 66.7669V60.6333C74.0929 59.6949 75.1061 59.1101 75.9153 59.5793L81.2329 62.6461C81.6 62.8637 81.8381 63.2649 81.8381 63.7001ZM76.2893 63.6321C76.2893 64.4481 76.8605 65.4409 77.5745 65.8557C78.2817 66.2637 78.8597 65.9373 78.8665 65.1213C78.8733 64.3053 78.2953 63.3125 77.5813 62.8977C76.8741 62.4897 76.2961 62.8161 76.2893 63.6321ZM80.4373 70.2961C79.9885 68.7253 78.8733 67.1545 77.5745 66.3997C76.2689 65.6449 75.1537 65.9305 74.6981 66.9777L80.4373 70.2961ZM102.823 91.1449V97.2785C102.823 98.2169 101.81 98.8017 101 98.3325L95.6828 95.2657C95.3088 95.0481 95.0776 94.6469 95.0776 94.2117V88.0713C95.0776 87.1329 96.0909 86.5481 96.9001 87.0173L102.218 90.0841C102.592 90.3085 102.823 90.7097 102.823 91.1449ZM97.2808 91.0769C97.2808 91.8929 97.8521 92.8857 98.5661 93.3005C99.2801 93.7153 99.8512 93.3821 99.8581 92.5661C99.8581 91.7501 99.2868 90.7573 98.5728 90.3425C97.8588 89.9345 97.2808 90.2609 97.2808 91.0769ZM101.429 97.7409C100.98 96.1701 99.8649 94.5993 98.5661 93.8445C97.2605 93.0897 96.1452 93.3753 95.6896 94.4225L101.429 97.7409Z" fill="#E8666A"/>
  <path d="M55.0526 47.6122C55.7598 48.0202 56.3378 49.0198 56.3378 49.8358C56.3378 50.6518 55.7598 50.985 55.0458 50.5702C54.3318 50.1554 53.7606 49.1626 53.7606 48.3466C53.7674 47.5306 54.3454 47.1974 55.0526 47.6122ZM52.1694 51.6922L57.9154 55.0106C57.4666 53.4398 56.3514 51.869 55.0526 51.1142C53.7402 50.3594 52.625 50.645 52.1694 51.6922ZM76.289 63.633C76.289 64.449 76.8602 65.4418 77.5742 65.8566C78.2882 66.2714 78.8594 65.9382 78.8662 65.1222C78.8662 64.3062 78.295 63.3134 77.581 62.8986C76.8738 62.4906 76.2958 62.817 76.289 63.633ZM74.691 66.9786L80.437 70.297C79.9882 68.7262 78.873 67.1554 77.5742 66.4006C76.2686 65.6458 75.1534 65.9314 74.691 66.9786ZM97.2806 91.0778C97.2806 91.8938 97.8518 92.8866 98.5658 93.3014C99.273 93.7094 99.851 93.383 99.8578 92.567C99.8646 91.751 99.2866 90.7582 98.5726 90.3434C97.8586 89.9354 97.2806 90.2618 97.2806 91.0778ZM95.6826 94.4234L101.429 97.7418C100.98 96.171 99.8646 94.6002 98.5658 93.8454C97.2534 93.0906 96.1382 93.3762 95.6826 94.4234ZM23.793 74.7034C23.793 74.7034 25.8738 73.0782 27.3222 73.4454L27.4582 74.3158C27.4582 74.3158 27.5466 74.9482 27.6486 75.6282C27.0162 75.6826 24.7314 75.941 23.9358 76.859C23.9562 76.281 24.0242 75.5806 23.793 74.7034Z" fill="white"/>
  <path d="M101.81 87.5558C101.51 87.3518 101.143 87.0186 101.096 86.7602C101.028 86.3998 101.245 85.7606 101.368 85.407L101.714 85.5362C101.721 85.8898 101.728 86.087 101.728 86.087V86.1482L101.81 87.5558ZM105.924 71.7254C105.529 71.8818 105.801 72.7726 105.801 72.7726H105.59L105.584 72.4598C105.584 72.4598 105.692 72.1198 105.053 71.7866C104.414 71.4534 104.999 72.5278 104.999 72.5278C104.849 73.0786 104.339 72.827 103.911 72.827C104.054 73.099 104.203 73.3302 104.264 73.4662C104.305 73.5478 104.434 73.6294 104.611 73.711V74.0374L106.039 74.2754C106.019 74.1938 106.005 74.1122 105.985 74.0374C106.638 74.1122 107.256 74.0986 107.426 73.9014C107.542 73.7654 107.549 73.4322 107.501 73.0514C107.426 73.0378 107.352 72.929 107.29 73.0106C107.195 73.1398 107.059 73.0038 107.114 72.6638C107.141 72.4938 107.27 72.4326 107.392 72.419C107.25 71.7458 107.052 71.1134 107.052 71.1134C107.08 71.3854 106.325 71.569 105.924 71.7254ZM24.6839 69.6514C24.6839 69.6514 24.7315 69.7194 24.8131 69.8282C24.8471 70.2022 24.9219 71.0862 24.8539 71.3922C24.9083 71.4058 24.9559 71.4262 24.9627 71.467C24.9763 71.569 26.6287 72.7182 26.0575 70.9978C25.9895 71.0318 25.9215 71.0658 25.8671 71.0998C25.8467 70.991 25.8195 70.8754 25.7923 70.7666C25.9079 70.8346 26.0235 70.889 26.1459 70.9298C26.2411 70.9638 26.3431 70.9842 26.4451 70.991C26.7239 71.0046 26.9279 70.9094 27.0775 70.7394C27.4107 70.3518 27.4651 69.5766 27.4039 68.815C27.3631 68.6314 27.2951 68.4682 27.2339 68.3594C27.1183 68.4682 26.8939 68.577 26.4723 68.5022C26.4723 68.5022 26.0303 68.8354 25.3707 68.6178C25.3707 68.6178 25.3843 68.9238 25.0715 69.0258C24.7587 69.1346 25.0987 69.6922 25.0987 69.6922C25.0987 69.6922 24.9423 69.801 24.7587 69.4474C24.5751 69.0938 24.5139 69.1822 24.4867 69.1958C24.4731 69.2026 24.3847 69.087 24.3235 68.9374C24.2215 68.9238 24.1263 68.9714 24.1127 69.1822C24.0923 69.6446 24.6839 69.6514 24.6839 69.6514ZM31.4431 79.5386C31.1847 79.4298 30.3823 78.5798 30.3823 78.5798C31.0623 78.7022 31.1371 78.2806 30.9943 78.3214C30.8515 78.3622 29.9607 78.1378 29.9607 78.1378C29.9607 78.1378 29.0155 76.8254 28.9203 76.4242C28.8455 76.0978 27.8391 74.799 27.4583 74.323C27.4651 74.3502 27.5467 74.969 27.6487 75.6286C27.6555 75.6558 27.6555 75.6898 27.6623 75.717C27.6623 75.7374 27.6691 75.7578 27.6691 75.785C27.6759 75.853 27.6895 75.9142 27.6963 75.9822C27.6963 76.0026 27.7031 76.023 27.7031 76.0434C27.7235 76.193 27.7507 76.3358 27.7711 76.4718C27.7779 76.499 27.7779 76.5262 27.7847 76.5534C27.8051 76.6758 27.8255 76.7846 27.8391 76.8866C28.4987 77.5938 29.2807 78.4642 29.2807 78.5866C29.2807 78.7974 30.0695 79.661 30.0695 79.661C30.0695 79.661 30.5115 80.3002 30.6407 80.2662C30.7699 80.2322 30.5591 79.899 30.5591 79.899C30.5591 79.899 30.7767 80.1234 30.9263 80.1574C31.0759 80.1982 30.7427 79.729 30.7427 79.729C30.7427 79.729 31.1371 79.9534 31.2663 79.9534C31.4023 79.9602 31.1099 79.6134 31.1099 79.6134C31.4975 79.7358 31.7015 79.6406 31.4431 79.5386ZM25.0987 91.4794C25.0987 91.4794 25.2143 92.0914 25.1463 92.2682C25.1395 92.2886 25.1327 92.309 25.1191 92.3294C25.1667 92.3022 25.2007 92.2954 25.2143 92.2954H25.2211C25.2211 92.5198 25.5815 92.6694 25.8331 92.683C25.8399 92.683 25.8399 92.683 25.8467 92.683C25.8603 92.683 25.8671 92.683 25.8807 92.683C25.8875 92.683 25.8875 92.683 25.8943 92.683C25.9011 92.683 25.9079 92.683 25.9147 92.6762C25.9215 92.6762 25.9215 92.6762 25.9283 92.6762C25.9351 92.6762 25.9419 92.6694 25.9487 92.6694C25.9555 92.6694 25.9555 92.6694 25.9623 92.6626C25.9691 92.6626 25.9759 92.6558 25.9827 92.6558C25.9895 92.6558 25.9895 92.6558 25.9963 92.649C26.0031 92.649 26.0099 92.6422 26.0167 92.6422C26.0167 92.6422 26.0235 92.6422 26.0235 92.6354C26.0303 92.6286 26.0371 92.6286 26.0439 92.6218C26.0439 92.6218 26.0507 92.6218 26.0507 92.615C26.0575 92.6082 26.0643 92.6082 26.0711 92.6014C26.0711 92.6014 26.0711 92.6014 26.0779 92.6014C26.1459 92.5538 26.2071 92.4926 26.2683 92.4518C26.2751 92.445 26.2819 92.445 26.2887 92.4382C26.2887 92.4314 26.2887 92.4314 26.2887 92.4246C26.2955 92.2682 26.2479 89.5278 26.2479 89.5278L26.1799 86.1754C26.1799 86.1754 26.1867 85.883 26.1935 85.509C26.3363 85.3934 26.5335 85.169 26.7919 84.7542C27.0367 84.353 27.2407 83.5438 27.3971 82.6598C26.8667 82.8026 26.3159 82.8706 26.3159 82.8706L26.3227 83.1698L26.3363 83.6526C25.7515 83.9994 25.1735 84.0538 24.6839 83.9858C24.7587 84.3258 24.7995 84.5434 24.7995 84.5434C24.7995 84.5434 24.8063 84.5842 24.8131 84.659C24.7315 84.8766 24.5683 85.1486 24.2487 85.3866C23.6095 85.8558 23.0451 86.2502 22.6643 87.1818C22.2835 88.1134 21.2975 88.7866 21.0187 88.8886C20.9779 88.9022 20.9235 88.9226 20.8691 88.9498C20.8759 88.9634 20.8827 88.977 20.8895 88.9906C20.8895 88.9974 20.8963 89.0042 20.9031 89.0042C20.9099 89.011 20.9167 89.0246 20.9235 89.0382C20.9303 89.045 20.9303 89.0518 20.9371 89.0586C20.9507 89.0722 20.9643 89.0926 20.9779 89.1062C20.9847 89.113 20.9847 89.113 20.9915 89.1198C21.0051 89.1334 21.0119 89.147 21.0255 89.1606C21.0323 89.1674 21.0391 89.1742 21.0459 89.181C21.0595 89.1946 21.0731 89.2082 21.0867 89.2218C21.0935 89.2286 21.1003 89.2354 21.1003 89.2354C21.1207 89.2558 21.1411 89.2762 21.1683 89.2898C21.1751 89.2966 21.1819 89.2966 21.1887 89.3034C21.2091 89.317 21.2295 89.3306 21.2499 89.3442C21.2567 89.351 21.2635 89.3578 21.2771 89.3578C21.3043 89.3782 21.3315 89.3918 21.3655 89.4122C21.4131 89.4394 21.4675 89.4598 21.5219 89.4802H21.5287C21.5559 89.487 21.5763 89.5006 21.6035 89.5074C21.6103 89.5074 21.6171 89.5074 21.6171 89.5142C21.6443 89.521 21.6715 89.5278 21.6987 89.5346C21.7055 89.5346 21.7055 89.5346 21.7123 89.5346C21.7463 89.5414 21.7735 89.5482 21.8075 89.555C21.8143 89.555 21.8143 89.555 21.8211 89.555C21.8483 89.5618 21.8755 89.5618 21.9027 89.5686C21.9095 89.5686 21.9231 89.5686 21.9367 89.5686C21.9639 89.5686 21.9843 89.5754 22.0115 89.5754C22.0251 89.5754 22.0319 89.5754 22.0455 89.5754C22.0727 89.5754 22.0999 89.5754 22.1339 89.5754C22.2291 89.2898 23.9359 87.9434 24.5343 87.2566C24.4867 87.8686 24.4935 88.5214 24.5547 88.6982C24.6295 89.011 25.1667 91.0918 25.0987 91.4794ZM22.3243 82.2518C22.3243 82.2518 22.3991 82.2722 22.3719 82.0614C22.3719 82.0614 22.5691 82.5714 22.6031 82.1838C22.6031 82.1838 22.9023 82.5442 22.8547 82.1838C22.8547 82.1838 23.1811 82.5986 23.2559 82.3606C23.3307 82.1158 22.9499 81.8914 22.9159 81.4154C22.9159 81.4154 23.4395 81.6194 23.4667 81.293C23.4667 81.293 22.8683 80.9258 22.8139 80.8034C22.7663 80.681 22.6167 80.7286 22.5759 80.1778C22.5351 79.627 23.0179 79.0694 22.9499 77.519C22.9499 77.519 22.8683 76.7574 22.8887 76.5534C22.8955 76.4582 23.0179 76.125 23.1811 75.7646C22.8955 75.785 22.4331 75.785 22.0931 75.649C21.9027 76.1386 21.7463 76.5058 21.6783 76.5874C21.4471 76.839 21.9979 80.1982 21.9979 80.1982C21.9979 80.1982 21.9367 81.9594 22.3243 82.2518Z" fill="white"/>
  <path d="M86.1695 110.464L87.3731 111.158L79.6075 106.677L87.0059 102.406L86.1831 102.882L86.1695 110.464ZM93.5815 98.6052L93.5951 107.561L91.3035 108.887V99.9244L89.2703 101.101V110.063L87.3663 111.165L101.34 103.093L93.5815 98.6052ZM85.9927 79.6332V95.2936L65.6471 83.55V67.8828L85.9927 79.6332ZM84.7483 79.8712L66.8983 69.5692V83.3052L84.7415 93.6072V79.8712H84.7483ZM52.0879 91.3768L72.4335 103.12L82.6063 97.2452L62.2675 85.4948L52.0879 91.3768ZM80.3487 92.0296L77.7715 93.5188L68.1087 87.9428L70.6859 86.4536L80.3487 92.0296ZM111.561 79.6468C111.078 80.49 109.663 82.8496 108.65 83.2032C108.174 83.3664 107.793 83.2712 107.501 83.0876C107.521 84.91 107.528 86.3516 107.528 86.3516L107.521 86.5012C105.529 86.9568 103.231 86.7392 101.748 86.4808L101.728 86.0864C101.728 86.0864 101.721 85.8824 101.714 85.5356L101.184 85.3384C101.184 85.3384 101.531 79.3544 101.694 76.9676C101.857 74.5808 102.741 74.6012 102.911 74.4856C103.924 73.826 104.618 74.3768 104.618 74.3768V74.03L106.046 74.268C106.107 74.5196 106.168 74.7576 106.168 74.7576C106.168 74.7576 106.923 75.0092 107.209 75.5124L107.222 75.4988C107.277 75.526 108.922 76.2468 108.745 80.5036L110.031 79.2524L111.146 79.8984L111.561 79.6468Z" fill="#A3D6FF"/>
  <path d="M28.321 94.622C28.0762 95.1388 27.2534 95.0504 26.9882 95.0776C26.723 95.1048 26.009 94.248 25.499 94.0712C24.989 93.8876 24.921 93.7924 24.921 93.7924C24.5538 92.3984 25.227 92.3032 25.227 92.3032C25.227 92.5276 25.5874 92.6772 25.839 92.6908C25.8458 92.6908 25.8459 92.6908 25.8527 92.6908C26.0499 92.6908 26.1722 92.5072 26.3082 92.4392C26.315 92.4324 26.3286 92.4324 26.3354 92.4256H26.3422C26.349 92.4256 26.3626 92.4188 26.3694 92.4188H26.3762C26.3898 92.4188 26.3966 92.4188 26.4102 92.4188C26.417 92.4188 26.4239 92.4188 26.4307 92.4188C26.4375 92.4188 26.4442 92.4256 26.451 92.4256C26.4646 92.4324 26.4851 92.446 26.4987 92.4528C26.5871 92.514 26.6958 92.6364 26.825 92.786C26.8386 92.8064 26.8523 92.82 26.8727 92.8404C26.8727 92.8404 26.8727 92.8404 26.8727 92.8472C26.8863 92.8676 26.8998 92.8812 26.9202 92.9016C26.9202 92.9016 26.9202 92.9016 26.9202 92.9084C26.9338 92.9288 26.9542 92.9424 26.9679 92.9628C27.0155 93.024 27.0631 93.0784 27.1107 93.1396C27.1311 93.1668 27.1583 93.194 27.1787 93.228C27.2127 93.262 27.2398 93.3028 27.267 93.3368C27.2942 93.3708 27.3282 93.4048 27.3554 93.4388C27.4302 93.5272 27.505 93.6088 27.5662 93.67C27.573 93.6768 27.5866 93.6904 27.5934 93.6972C27.981 94.0372 28.5658 94.1052 28.321 94.622ZM22.5547 91.3444C22.5547 91.3376 22.5479 91.3376 22.5479 91.3308C22.5343 91.3036 22.5138 91.2832 22.5002 91.256C22.5002 91.256 22.5002 91.2492 22.4934 91.2492C22.4798 91.222 22.4663 91.2016 22.4527 91.1744C22.4527 91.1676 22.4459 91.1676 22.4459 91.1608C22.4323 91.1336 22.4187 91.1064 22.4119 91.0792C22.4119 91.0792 22.4118 91.0724 22.405 91.0724C22.3914 91.0384 22.3778 91.0044 22.371 90.9704C22.371 90.9636 22.371 90.9636 22.371 90.9568C22.3642 90.9228 22.3575 90.8888 22.3507 90.8548C22.3439 90.8276 22.3439 90.7936 22.3439 90.7664C22.3439 90.7596 22.3439 90.7528 22.3439 90.746C22.3439 90.712 22.3439 90.6712 22.3439 90.6372C22.3507 90.4876 22.3507 90.3652 22.3439 90.2496C22.3439 90.2496 22.3439 90.2496 22.3439 90.2428C22.3439 90.2428 22.3439 90.2428 22.3439 90.236C22.3439 90.2156 22.337 90.1952 22.337 90.1748C22.337 90.1612 22.337 90.1476 22.3302 90.134C22.3302 90.1136 22.3234 90.0932 22.3234 90.0728C22.3234 90.066 22.3235 90.0524 22.3167 90.0456C22.2963 89.9164 22.2622 89.8144 22.235 89.7396C22.2146 89.692 22.1943 89.6512 22.1739 89.624C22.1603 89.6036 22.1535 89.5968 22.1467 89.59C22.1399 89.5832 22.133 89.5764 22.133 89.5764C22.0922 89.5764 22.0582 89.5764 22.0242 89.5764C22.0106 89.5764 22.0038 89.5764 21.9902 89.5764C21.963 89.5764 21.9358 89.5764 21.9154 89.5696C21.9018 89.5696 21.895 89.5696 21.8814 89.5696C21.8542 89.5696 21.8271 89.5628 21.7999 89.556C21.7931 89.556 21.793 89.556 21.7862 89.556C21.7522 89.5492 21.725 89.5424 21.691 89.5356C21.6842 89.5356 21.6842 89.5356 21.6774 89.5356C21.6502 89.5288 21.6231 89.522 21.5959 89.5152C21.5891 89.5152 21.5822 89.5152 21.5822 89.5084C21.555 89.5016 21.5346 89.4948 21.5074 89.4812H21.5007C21.4463 89.4608 21.3918 89.4336 21.3442 89.4132C20.943 89.1956 20.8139 88.8488 20.8139 88.8488C20.3175 88.7808 19.9366 89.6036 19.9434 89.8824C19.9502 90.1544 20.2086 90.406 20.535 90.8412C20.8614 91.2764 20.773 92.4664 21.725 92.7112C22.677 92.956 22.779 92.7044 22.9694 92.2012C23.085 91.902 22.8266 91.698 22.6022 91.4124C22.5886 91.3988 22.5683 91.3716 22.5547 91.3444ZM23.629 79.1724C23.629 79.1724 24.8054 79.9476 26.3218 79.5736C27.8314 79.1996 28.3142 78.472 28.2938 78.472C28.2734 78.472 28.015 77.5676 27.9198 77.2412C27.9062 77.2072 27.8926 77.1392 27.879 77.0508C27.879 77.044 27.879 77.0304 27.8722 77.0236C27.8518 76.9012 27.8247 76.7448 27.7907 76.5612C27.7839 76.534 27.7838 76.5068 27.777 76.4796C27.7566 76.3436 27.7294 76.2008 27.709 76.0512C27.709 76.0308 27.7022 76.0104 27.7022 75.99C27.6954 75.9288 27.6818 75.8608 27.675 75.7928C27.6682 75.7724 27.6682 75.752 27.6682 75.7248C27.6614 75.6976 27.6615 75.6636 27.6547 75.6364C27.0223 75.6908 24.7375 75.9492 23.9419 76.8672C23.9419 76.9012 23.9419 76.9352 23.9419 76.9692C23.9419 77.0032 23.9419 77.0372 23.9419 77.0712C23.9419 77.112 23.9419 77.1596 23.9419 77.2004C23.9555 77.8328 23.629 79.1724 23.629 79.1724ZM27.6207 71.8488C27.6275 70.652 27.199 70.6724 27.1038 70.6928C26.9542 70.89 26.7366 70.9988 26.4442 70.9784C26.3354 70.9716 26.2267 70.9512 26.1247 70.9104C26.0703 70.924 26.0362 70.9376 26.0362 70.9376C26.6618 72.7396 24.9754 71.57 24.955 71.4612C24.9414 71.3524 24.6354 71.3796 24.6354 71.3796C24.6354 71.3796 22.9151 72.2976 22.8199 72.3452C22.7247 72.3928 22.4187 73.2564 22.3779 73.4128C22.3371 73.5692 21.6842 75.2624 21.6842 75.2624C21.9086 75.9764 23.4522 75.7384 23.4522 75.7384C23.4386 75.582 23.799 74.698 23.799 74.698C23.799 74.698 25.8798 73.0728 27.3282 73.44L27.4642 74.3104C28.117 74.0588 28.3959 73.3924 28.3959 73.3924C28.3959 73.3924 27.6139 72.7192 27.6207 71.8488Z" fill="#4A90E2"/>
  <path d="M108.712 101.743C108.019 102.566 105.713 102.328 105.564 102.26C105.435 102.206 105.523 101.315 105.557 101.002C105.557 101.016 105.557 101.023 105.557 101.023C106.332 101.512 106.849 100.853 106.849 100.853V100.819C106.903 100.866 106.944 100.907 106.944 100.907C106.944 100.907 109.406 100.927 108.712 101.743ZM103.762 98.7581C103.755 98.9485 103.748 99.0505 103.741 99.0437C103.714 98.9553 102.939 99.9957 102.449 99.3633V99.3565C102.388 99.8665 102.313 100.519 102.327 100.587C102.347 100.696 102.715 100.846 103.32 100.737C103.925 100.628 104.7 99.2885 104.809 98.9893C104.884 98.7581 104.156 98.7513 103.762 98.7581ZM104.993 72.5305C104.993 72.5305 104.401 71.4629 105.047 71.7893C105.693 72.1157 105.577 72.4625 105.577 72.4625L105.584 72.7753H105.795C105.795 72.7753 105.523 71.8845 105.917 71.7281C106.312 71.5717 107.073 71.3881 107.039 71.1025C107.039 71.1025 107.692 70.1777 106.849 69.4637C106.006 68.7497 105.033 69.5589 105.033 69.5589C105.033 69.5589 103.626 69.5453 103.401 70.5177C103.184 71.4901 103.143 71.5581 103.32 71.9933C103.497 72.4285 103.463 72.8161 103.891 72.8229C104.34 72.8297 104.843 73.0745 104.993 72.5305ZM107.638 72.4149C107.638 72.4149 107.175 72.3061 107.121 72.6461C107.067 72.9861 107.196 73.1221 107.298 72.9929C107.393 72.8637 107.509 73.1901 107.645 72.9317C107.774 72.6801 107.638 72.4149 107.638 72.4149ZM102.987 102.825V104.885L86.8977 114.174L77.9625 109.013V106.952L86.8977 112.113L102.987 102.825ZM60.6429 62.5685L43.5273 52.5657C43.2213 52.3889 42.8473 52.3821 42.5345 52.5589L41.9157 52.9125L60.0921 63.5409L60.0173 77.5693L61.1325 76.9369L61.2073 63.5681C61.2073 63.1533 60.9897 62.7725 60.6429 62.5685ZM60.0173 77.5625L60.0105 78.8613L47.8249 85.9197L29.6621 75.2437L29.6689 73.8905L47.8317 84.5121L60.0173 77.5625Z" fill="#FBC02D"/>
  <path d="M28.2339 81.4977L28.3087 82.1845C28.0775 82.6537 26.3095 82.8645 26.3095 82.8645L26.3163 83.1637L26.3299 83.6465C24.7999 84.5577 23.3379 83.4561 23.3379 83.4561C23.3447 83.4357 23.3583 83.4153 23.3651 83.3949C23.3651 83.3881 23.3719 83.3881 23.3719 83.3813C23.3787 83.3609 23.3923 83.3337 23.3991 83.3133V83.3065C23.4059 83.2793 23.4127 83.2589 23.4263 83.2317C23.4263 83.2249 23.4263 83.2249 23.4331 83.2181C23.4399 83.1909 23.4535 83.1569 23.4603 83.1229V83.1161C23.4671 83.0821 23.4807 83.0481 23.4875 83.0141C23.4943 82.9733 23.5079 82.9393 23.5147 82.8985C23.5147 82.8985 23.5147 82.8985 23.5147 82.8917C23.5351 82.8101 23.5487 82.7217 23.5623 82.6265C23.7255 81.6881 23.8275 80.2737 23.8819 79.3149C24.3035 79.5189 25.2283 79.8521 26.3231 79.5801C27.1459 79.3761 27.6627 79.0633 27.9619 78.8253L28.2339 81.4977ZM27.8327 66.2997C27.8327 66.2997 27.5131 65.1641 26.4659 65.7421C25.4187 66.3201 25.8539 67.1089 25.8539 67.1089C25.2079 66.7689 24.9087 67.4761 24.9087 67.4761C24.9087 67.4761 24.6367 67.3605 24.3579 67.7141C24.0723 68.0677 24.3171 68.4485 24.3171 68.4485C24.1675 68.7749 24.4735 69.1761 24.4939 69.1693C24.5143 69.1625 24.5755 69.0673 24.7659 69.4209C24.9495 69.7745 25.1059 69.6657 25.1059 69.6657C25.1059 69.6657 24.7659 69.1081 25.0787 68.9993C25.3915 68.8905 25.3779 68.5913 25.3779 68.5913C26.0443 68.8089 26.4795 68.4757 26.4795 68.4757C26.9011 68.5573 27.1255 68.4417 27.2411 68.3329C27.3363 68.4961 27.4519 68.8021 27.4451 69.0877C27.4383 69.4685 27.6831 68.5981 27.4927 68.1153C28.3971 67.6189 27.8327 66.2997 27.8327 66.2997Z" fill="#045395"/>
</svg>