<svg xmlns="http://www.w3.org/2000/svg" width="147" height="147" viewBox="0 0 147 147" fill="none">
  <g clip-path="url(#clip0_1302_2155)">
    <path d="M92.1617 93.5467L88.7881 91.5989L88.3397 88.7618C88.8689 88.5854 89.1776 88.4678 89.1776 88.4678C88.9645 87.4388 89.0527 82.1615 89.1262 79.1774L89.4349 79.3538V76.9357L92.1764 75.0026V93.5467H92.1617ZM95.5207 42.692C95.7632 42.4348 95.9102 41.9497 95.9102 41.4278V31.2187C95.9102 30.0941 95.2634 29.3959 94.7489 29.9545L94.7416 29.9692C94.499 30.2338 94.352 30.7115 94.352 31.2334L94.3594 41.4278C94.3667 42.5524 95.0062 43.2506 95.5207 42.692ZM89.4202 62.4929C89.7215 62.9633 90.0523 63.6322 90.1111 64.3672C90.1552 64.9184 89.8318 65.477 89.4202 65.9548V70.4677L91.8898 70.5706C91.978 70.5706 92.0735 70.5632 92.1617 70.5632V18.7457L59.7923 0.0546875L59.7776 43.5079L62.5118 45.0881L62.5265 7.95594L89.4202 23.4865V62.4929ZM62.1517 77.2517V97.1261C62.1517 98.8166 60.3215 99.8677 58.8662 99.0224L30.8627 82.8524C30.1865 82.4629 29.7676 81.7352 29.7676 80.9561V61.0597C29.7676 59.3692 31.5977 58.3181 33.0604 59.1634L61.0639 75.3554C61.7401 75.745 62.1517 76.4653 62.1517 77.2517ZM37.735 65.2639C37.735 64.9258 37.5512 64.6097 37.2646 64.4407L35.3536 63.3382C34.7215 62.9707 33.935 63.4264 33.935 64.1614V66.3664C33.935 66.7045 34.1188 67.0205 34.4128 67.1896L36.3238 68.2921C36.9559 68.6596 37.7423 68.2039 37.7423 67.4689V65.2639H37.735ZM43.0123 68.4464C43.0123 68.1083 42.8285 67.7923 42.5419 67.6232L40.6309 66.5207C39.9988 66.1532 39.2123 66.6089 39.2123 67.3439V69.5489C39.2123 69.887 39.3961 70.2031 39.6901 70.3721L41.6011 71.4746C42.2332 71.8421 43.0196 71.3864 43.0196 70.6514V68.4464H43.0123ZM48.2822 71.6731C48.2822 71.335 48.0985 71.0189 47.8118 70.8499L45.9008 69.7474C45.2687 69.3799 44.4823 69.8356 44.4823 70.5706V72.7756C44.4823 73.1137 44.666 73.4297 44.96 73.5988L46.871 74.7013C47.5031 75.0688 48.2896 74.6131 48.2896 73.8781V71.6731H48.2822ZM53.5522 74.6351C53.5522 74.297 53.3684 73.981 53.0818 73.8119L51.1708 72.7094C50.5387 72.3419 49.7522 72.7976 49.7522 73.5326V75.7376C49.7522 76.0757 49.936 76.3918 50.23 76.5608L52.141 77.6633C52.7731 78.0308 53.5595 77.5751 53.5595 76.8401V74.6351H53.5522ZM58.8295 77.8544C58.8295 77.5163 58.6457 77.2003 58.3591 77.0312L56.4481 75.9287C55.816 75.5612 55.0295 76.0169 55.0295 76.7519V78.9569C55.0295 79.295 55.2133 79.6111 55.5073 79.7801L57.4183 80.8826C58.0504 81.2501 58.8368 80.7944 58.8368 80.0594V77.8544H58.8295ZM76.7488 82.4408C76.5062 82.6099 76.2416 82.6981 75.9697 82.6981C74.654 82.6981 73.5956 80.5739 73.5956 77.9573C73.5956 75.3407 74.6614 73.2166 75.9697 73.2166C76.6973 73.2166 77.3441 73.8707 77.7851 74.8924L78.0718 72.7903L67.5539 66.7192V79.3391L76.4621 84.4841L76.7488 82.4408Z" fill="#90A7B5"/>
    <path d="M89.4201 79.3476L89.1261 78.7669C89.1481 77.7673 89.1702 77.1132 89.1702 77.1132L89.4201 76.9368V79.3476ZM87.9795 67.1833C87.6928 67.6905 87.3621 68.1462 87.024 68.3961C86.9652 68.4402 86.9064 68.4769 86.8476 68.521L87.2959 70.3732L89.4201 70.4614V65.9485C88.7953 66.6688 87.9868 67.1833 87.9795 67.1833ZM78.1452 72.2548C78.1452 72.2548 74.9994 70.4026 74.8303 69.3001C74.8009 69.1017 74.8597 68.8444 74.97 68.5578C73.8675 67.2568 72.8826 66.0735 72.8017 65.9044C72.6768 65.6178 71.0598 62.0677 70.1998 60.1861H70.1925C70.1925 60.1861 69.6486 59.2821 69.5016 59.1645C69.3546 59.0469 69.0165 57.2461 69.0165 57.2461C69.0165 57.2461 68.3256 55.3278 68.4873 55.0117C68.649 54.6957 69.1855 55.9378 69.1855 55.9378C69.1855 55.9378 68.796 54.7618 69.0238 54.5707C69.259 54.3796 69.5751 55.7614 69.6192 55.7614C69.6633 55.7614 69.2443 54.3649 69.5457 54.3061C69.847 54.2473 70.1925 55.9305 70.1925 55.9305C70.1925 55.9305 70.1557 54.6222 70.3027 54.3723C70.4497 54.1224 70.9054 55.8937 70.9054 55.8937L71.6404 57.5181L71.6992 56.8639C71.6992 56.8639 72.1917 55.438 72.199 56.1069C72.2064 56.7757 72.4563 57.5328 72.4563 57.7606C72.4563 57.9297 72.199 58.7823 72.0447 59.2453L75.7344 64.5741L77.1015 65.4928C77.1015 65.4928 77.1676 65.5296 77.2852 65.6031L62.5191 32.8L62.5117 45.0892L66.2161 47.2281C67.0467 47.7058 67.5538 48.5878 67.5538 49.5507V54.24V62.0016L70.6996 68.5504L78.0717 72.8061L78.1452 72.2548ZM83.5474 64.6255C83.5474 64.3903 83.5548 64.1992 83.5695 64.0449C83.202 64.0375 82.2391 62.9203 83.371 60.436C84.5029 57.9517 88.9056 61.8178 88.9056 61.8178C88.9056 61.8178 89.1481 62.0751 89.4201 62.494V60.7962L62.5264 7.95703V26.5672L83.1579 67.0584C83.1873 66.1984 83.5474 65.4781 83.5474 64.6255ZM75.9696 74.0629C74.8891 74.0629 74.0145 75.8122 74.0145 77.9658C74.0145 80.1193 74.8891 81.8686 75.9696 81.8686C76.3003 81.8686 76.6164 81.6996 76.8883 81.4129L77.638 75.9445C77.2999 74.8126 76.6752 74.0629 75.9696 74.0629Z" fill="#DDE7EC"/>
    <path d="M100.931 61.8859C100.931 61.8859 100.585 63.6866 100.446 63.8042C100.299 63.9218 99.7548 64.8259 99.7548 64.8259C99.7548 64.8259 97.9173 70.8161 96.5649 71.9995C95.8593 72.6095 93.9777 73.8223 92.2798 74.9174L91.8903 70.5736C92.5591 70.5589 93.1839 70.5148 93.6322 70.4266L98.0055 64.2158C98.0055 64.2158 97.4983 62.6503 97.4983 62.4151C97.4983 62.1799 97.7482 61.4302 97.7556 60.7613C97.7629 60.0925 98.2554 61.5184 98.2554 61.5184L98.3142 62.1725L99.0492 60.5482C99.0492 60.5482 99.5049 58.7842 99.6519 59.0267C99.7989 59.2693 99.7621 60.5849 99.7621 60.5849C99.7621 60.5849 100.108 58.9018 100.409 58.9606C100.71 59.0194 100.291 60.4159 100.335 60.4159C100.38 60.4159 100.696 59.0341 100.931 59.2252C101.166 59.4163 100.769 60.5923 100.769 60.5923C100.769 60.5923 101.306 59.3428 101.467 59.6662C101.629 59.9896 100.931 61.8859 100.931 61.8859ZM75.7423 64.6054L72.0526 59.2766C72.1996 58.8062 72.4642 57.9536 72.4642 57.7919C72.4642 57.5567 72.2143 56.807 72.207 56.1382C72.1996 55.4693 71.7072 56.8952 71.7072 56.8952L71.6484 57.5494L70.9134 55.925C70.9134 55.925 70.4577 54.161 70.3107 54.4036C70.1637 54.6461 70.2004 55.9618 70.2004 55.9618C70.2004 55.9618 69.855 54.2786 69.5536 54.3374C69.2523 54.3962 69.6712 55.7927 69.6271 55.7927C69.583 55.7927 69.267 54.4109 69.0318 54.602C68.7966 54.7931 69.1935 55.9691 69.1935 55.9691C69.1935 55.9691 68.6569 54.7196 68.4952 55.043C68.3335 55.3664 69.0244 57.2774 69.0244 57.2774C69.0244 57.2774 69.3699 59.0782 69.5095 59.1958C69.6565 59.3134 70.2004 60.2174 70.2004 60.2174H70.2078C71.0604 62.0917 72.6774 65.6417 72.8097 65.9357C72.8832 66.1048 73.8681 67.2881 74.9779 68.5891C75.4851 67.3396 77.1094 65.5388 77.1094 65.5388L75.7423 64.6054ZM87.0246 68.398C87.3627 68.1481 87.6861 67.6924 87.9801 67.1852C87.9801 67.1852 88.2741 66.3547 87.8331 65.8181C87.3994 65.2816 87.4729 66.5605 87.4729 66.5605L87.0099 66.6487C87.0099 66.6487 87.4141 64.9802 86.6203 64.9508C85.0621 64.892 83.9449 64.0468 83.5774 64.0468C83.5627 64.2011 83.5554 64.3922 83.5554 64.6274C83.5554 65.7446 82.9306 66.6266 83.2614 67.9055C83.3422 68.2216 83.4378 68.4715 83.5407 68.6773L83.2614 69.6034L83.1805 69.5593C83.2099 69.5887 83.232 69.6181 83.2467 69.6401V69.6475C83.2393 69.6695 83.2173 69.7357 83.1952 69.8165C83.0335 70.4633 82.8057 72.5213 87.2965 70.3678L86.8482 68.5156C86.907 68.4862 86.9658 68.4421 87.0246 68.398Z" fill="white"/>
    <path d="M89.4192 60.7962L62.5255 7.95703L89.4192 23.4876V62.494V60.7962ZM75.9687 82.7065C76.2406 82.7065 76.4979 82.611 76.7478 82.4493L76.8874 81.4129C76.6155 81.7069 76.2994 81.8686 75.9687 81.8686C74.8882 81.8686 74.0136 80.1193 74.0136 77.9658C74.0136 75.8122 74.8882 74.0629 75.9687 74.0629C76.6743 74.0629 77.299 74.8126 77.6371 75.9372L77.7768 74.9008C77.3431 73.8718 76.689 73.225 75.9613 73.225C74.6457 73.225 73.5873 75.3492 73.5873 77.9658C73.5946 80.5824 74.653 82.7065 75.9687 82.7065ZM89.1252 78.7669C89.1252 78.8992 89.1178 79.0315 89.1178 79.1712L89.4265 79.3476L89.1252 78.7669ZM67.5529 66.7276L70.6987 68.5431L67.5529 61.9942V66.7276ZM39.2187 44.0014L33.8017 40.8703C32.0083 39.834 29.7666 41.1276 29.7666 43.2003L29.7592 49.4551C29.7592 50.418 30.2737 51.3073 31.1043 51.7851L36.5286 54.9088C38.322 55.9452 40.5637 54.6516 40.5637 52.5789V46.324C40.5637 45.3685 40.0566 44.4792 39.2187 44.0014ZM58.3507 77.0397L56.4397 75.9372C55.8076 75.5697 55.0212 76.0254 55.0212 76.7604V78.9654C55.0212 79.3035 55.2049 79.6195 55.4989 79.7886L57.4099 80.8911C58.042 81.2586 58.8285 80.8029 58.8285 80.0679V77.8629C58.8285 77.5174 58.6447 77.2087 58.3507 77.0397ZM67.5529 49.5433C67.5529 48.5878 67.0458 47.7058 66.2152 47.2207L39.1231 31.5946C37.3518 30.573 35.1321 31.8372 35.11 33.8805L35.088 35.5269L67.5529 54.2326V49.5433ZM77.2843 65.6325C78.2104 66.1984 82.4073 68.7783 83.1717 69.5647L83.2525 69.6088L83.5318 68.6827C83.4289 68.4769 83.3334 68.227 83.2525 67.911C83.1717 67.6096 83.1496 67.3303 83.157 67.0657L62.5255 26.5672V7.95703L62.5108 44.5674L62.5182 32.7927L77.2843 65.6325ZM134.673 97.4727L75.2925 131.753L26.709 103.705L41.3943 95.2236L67.5529 110.328V80.1267L68.2365 79.7371L76.4685 84.4852L75.9172 88.4689C76.0422 88.5939 76.1818 88.7115 76.3215 88.8217L75.9172 107.991L72.2863 111.269C72.2863 111.269 70.9707 112.364 72.6391 112.32C74.3076 112.276 76.8801 110.703 76.8801 110.703C76.8801 110.703 77.8429 110.791 78.6294 110.159C79.1586 109.732 78.8793 108.909 78.6441 108.409L80.952 98.5458L82.569 92.901L86.8026 103.919C86.8026 103.919 88.1182 111.761 88.2432 112.746C88.2432 112.731 88.2358 112.709 88.2358 112.695L88.0521 112.812C88.0521 112.812 90.2865 115.274 91.8594 116.502C93.4249 117.729 94.5715 116.678 94.476 115.965C94.4025 115.399 92.124 113.069 91.1685 112.114C91.5948 109.674 90.529 102.566 90.529 102.566L88.7871 91.6L92.1607 93.5478L97.5924 90.4608V76.0695L134.673 97.4727Z" fill="#A3D6FF"/>
    <path d="M26.709 103.703L75.2925 131.751L134.673 97.463V103.703L75.2851 137.991L26.709 109.943V103.703ZM88.3314 88.7606C86.0308 89.5323 79.5628 91.3478 76.3215 88.8194L75.9172 107.988C75.9172 107.988 77.1447 109.26 78.5853 108.642L80.9446 98.5434L82.5616 92.8987L86.7952 103.916C86.7952 103.916 88.2505 112.575 88.2505 112.839C88.2505 113.104 89.8234 113.802 90.8745 112.839C91.9255 111.876 90.5217 102.564 90.5217 102.564L88.3314 88.7606ZM92.1607 18.7445L97.5924 15.6648V61.8596C97.5409 62.1021 97.4968 62.3006 97.4968 62.3961C97.4968 62.4623 97.5336 62.6313 97.5924 62.8445V64.7775L93.6307 70.4076C93.2412 70.4885 92.7267 70.5252 92.1607 70.5473V18.7445ZM94.351 31.2321L94.3584 41.4266C94.3584 42.5511 95.0052 43.2494 95.5197 42.6908C95.7622 42.4335 95.9092 41.9484 95.9092 41.4266V31.2174C95.9092 30.0929 95.2624 29.3946 94.7479 29.9532L94.7406 29.9679C94.498 30.2325 94.351 30.7103 94.351 31.2321ZM35.1615 35.5613L67.5529 54.2303V110.333L35.1615 91.6344V85.3428L58.8652 99.0286C60.3279 99.8738 62.1507 98.8154 62.1507 97.1322V77.2579C62.1507 76.4787 61.7317 75.7511 61.0555 75.3615L35.1615 60.3822V54.1347L36.5286 54.9212C38.322 55.9575 40.5637 54.6639 40.5637 52.5912V46.3364C40.5637 45.3735 40.0492 44.4842 39.2187 44.0064L35.1615 41.6618V35.5613ZM97.5924 70.4517V90.4585L92.1607 93.5454V74.994L92.2783 74.9132C93.9688 73.818 95.8578 72.6053 96.5634 71.9952C96.8868 71.7086 97.2396 71.1426 97.5924 70.4517ZM92.1607 18.7445L59.7913 0.0534377L65.1715 -3.07031L97.5924 15.6722L92.1607 18.7445Z" fill="#4A90E2"/>
    <path d="M35.3536 63.3368L37.2646 64.4393C37.5586 64.6083 37.735 64.9244 37.735 65.2625V67.4675C37.735 68.1951 36.9486 68.6508 36.3165 68.2907L34.4055 67.1882C34.1115 67.0191 33.9277 66.7031 33.9277 66.365V64.16C33.9351 63.4323 34.7215 62.9766 35.3536 63.3368ZM39.205 67.3425V69.5475C39.205 69.8856 39.3888 70.2017 39.6828 70.3707L41.5938 71.4732C42.2259 71.8407 43.0123 71.385 43.0123 70.65V68.445C43.0123 68.1069 42.8286 67.7909 42.5419 67.6218L40.6309 66.5193C39.9988 66.1592 39.205 66.6149 39.205 67.3425ZM44.475 70.5692V72.7742C44.475 73.1123 44.6587 73.4283 44.9527 73.5974L46.8637 74.6999C47.4958 75.0674 48.2823 74.6117 48.2823 73.8767V71.6717C48.2823 71.3336 48.0985 71.0175 47.8119 70.8485L45.9009 69.746C45.2688 69.3785 44.475 69.8342 44.475 70.5692ZM49.7523 73.5312V75.7362C49.7523 76.0743 49.936 76.3904 50.23 76.5594L52.141 77.6619C52.7731 78.0294 53.5596 77.5737 53.5596 76.8387V74.6337C53.5596 74.2956 53.3758 73.9796 53.0892 73.8105L51.1782 72.708C50.5387 72.3405 49.7523 72.7962 49.7523 73.5312ZM77.109 65.5197C77.109 65.5197 74.6688 68.2172 74.8378 69.305C75.0069 70.4001 78.1527 72.2597 78.1527 72.2597L75.9256 88.4664C79.6815 92.1855 89.1777 88.4664 89.1777 88.4664C88.869 87.0111 89.1777 77.1107 89.1777 77.1107L92.2794 74.913L91.8898 70.5692L87.2961 70.3707C82.0261 72.8918 83.2462 69.6357 83.2462 69.6357C82.6656 68.8787 77.109 65.5197 77.109 65.5197Z" fill="#FBC02D"/>
    <path d="M91.8533 116.5C90.2878 115.273 88.046 112.81 88.046 112.81L88.2298 112.693C88.2371 112.774 88.2445 112.825 88.2445 112.84C88.2445 113.104 89.8174 113.803 90.8684 112.84C91.0007 112.715 91.0963 112.465 91.1551 112.112C92.1106 113.068 94.3891 115.398 94.4626 115.964C94.5728 116.676 93.4262 117.728 91.8533 116.5ZM78.5866 108.643C77.146 109.253 75.9185 107.989 75.9185 107.989L72.2876 111.267C72.2876 111.267 70.972 112.362 72.6404 112.318C74.3089 112.274 76.8814 110.701 76.8814 110.701C76.8814 110.701 77.8442 110.789 78.6307 110.157C79.1599 109.731 78.8806 108.908 78.6454 108.408L78.5866 108.643ZM88.9133 61.8161C88.9133 61.8161 84.5107 57.95 83.3788 60.4343C82.2469 62.9186 83.2024 64.0358 83.5772 64.0431C83.9447 64.0505 85.0619 64.8957 86.6201 64.9472C87.4213 64.9766 87.0097 66.645 87.0097 66.645L87.4727 66.5568C87.4727 66.5568 87.3992 65.2779 87.8329 65.8145C88.2665 66.351 87.9799 67.1816 87.9799 67.1816C87.9799 67.1816 90.229 65.7557 90.1187 64.3665C90.0085 62.9774 88.9133 61.8161 88.9133 61.8161Z" fill="#045395"/>
  </g>
  <defs>
    <clipPath id="clip0_1302_2155">
      <rect width="147" height="147" fill="white"/>
    </clipPath>
  </defs>
</svg>