<svg xmlns="http://www.w3.org/2000/svg" width="35" height="35" viewBox="0 0 35 24" fill="none">
<path fill-rule="evenodd" clip-rule="evenodd" d="M19.1843 15.75C17.7623 18.8483 14.6326 21 11.0003 21C7.36809 21 4.23841 18.8483 2.81641 15.75H19.1843Z" fill="#FFCE00"/>
<path fill-rule="evenodd" clip-rule="evenodd" d="M19.1839 15.75C19.7079 14.6084 20 13.3383 20 12C20 10.6617 19.7079 9.39157 19.1839 8.25H2.81606C2.29212 9.39157 2 10.6617 2 12C2 13.3383 2.29212 14.6084 2.81606 15.75H19.1839Z" fill="#DD0000"/>
<path fill-rule="evenodd" clip-rule="evenodd" d="M2.81641 8.25C4.23841 5.1517 7.36809 3 11.0003 3C14.6326 3 17.7623 5.1517 19.1843 8.25H2.81641Z" fill="black"/>
<path d="M11 21.75C5.61523 21.75 1.25 17.3848 1.25 12C1.25 6.61523 5.61523 2.25 11 2.25C16.3848 2.25 20.75 6.61523 20.75 12C20.75 17.3848 16.3848 21.75 11 21.75Z" stroke="#D7D4CF" stroke-width="1.5"/>
</svg>