<svg xmlns="http://www.w3.org/2000/svg" width="24" height="24" viewBox="0 0 24 24" fill="none">
<path fill-rule="evenodd" clip-rule="evenodd" d="M15.75 3.81641C18.8483 5.23842 21 8.3681 21 12.0004C21 15.6326 18.8483 18.7623 15.75 20.1843V3.81641Z" fill="#CE2B37"/>
<path fill-rule="evenodd" clip-rule="evenodd" d="M8.25 20.1839V3.81606C9.39157 3.29212 10.6617 3 12 3C13.3383 3 14.6084 3.29212 15.75 3.81606V20.1839C14.6084 20.7079 13.3383 21 12 21C10.6617 21 9.39157 20.7079 8.25 20.1839Z" fill="white"/>
<path fill-rule="evenodd" clip-rule="evenodd" d="M8.25 3.81641V20.1843C5.1517 18.7623 3 15.6326 3 12.0004C3 8.3681 5.1517 5.23842 8.25 3.81641Z" fill="#009246"/>
<path d="M12 21.75C6.61523 21.75 2.25 17.3848 2.25 12C2.25 6.61523 6.61523 2.25 12 2.25C17.3848 2.25 21.75 6.61523 21.75 12C21.75 17.3848 17.3848 21.75 12 21.75Z" stroke="#D7D4CF" stroke-width="1.5"/>
</svg>