<svg width="24" height="24" viewBox="0 0 24 24" fill="none" xmlns="http://www.w3.org/2000/svg">
<path fill-rule="evenodd" clip-rule="evenodd" d="M8.25 20.1843C5.1517 18.7623 3 15.6326 3 12.0004C3 8.3681 5.1517 5.23842 8.25 3.81641V20.1843Z" fill="#006847"/>
<path fill-rule="evenodd" clip-rule="evenodd" d="M8.25 20.1839V3.81606C9.39157 3.29212 10.6617 3 12 3C13.3383 3 14.6084 3.29212 15.75 3.81606V20.1839C14.6084 20.7079 13.3383 21 12 21C10.6617 21 9.39157 20.7079 8.25 20.1839Z" fill="white"/>
<path fill-rule="evenodd" clip-rule="evenodd" d="M15.75 20.1843V3.81641C18.8483 5.23842 21 8.3681 21 12.0004C21 15.6326 18.8483 18.7623 15.75 20.1843Z" fill="#CE1126"/>
<path d="M9 12.1508C9 13.2325 9.5778 14.2142 10.4961 14.7471C10.7827 14.9133 11.1499 14.8158 11.3162 14.5292C11.4825 14.2426 11.385 13.8754 11.0984 13.7091C10.5464 13.3889 10.2 12.8003 10.2 12.1508C10.2 11.8194 9.93135 11.5508 9.6 11.5508C9.26865 11.5508 9 11.8194 9 12.1508ZM13.6147 14.6796C14.4706 14.1321 15 13.1863 15 12.1508C15 11.8194 14.7314 11.5508 14.4 11.5508C14.0687 11.5508 13.8 11.8194 13.8 12.1508C13.8 12.7727 13.4827 13.3395 12.9681 13.6686C12.689 13.8471 12.6073 14.2182 12.7859 14.4974C12.9644 14.7765 13.3355 14.8581 13.6147 14.6796Z" fill="#006847"/>
<path d="M12.0008 13.35C12.6636 13.35 13.2008 12.5441 13.2008 11.55C13.2008 10.5559 12.6636 9.75 12.0008 9.75C11.3381 9.75 10.8008 10.5559 10.8008 11.55C10.8008 12.5441 11.3381 13.35 12.0008 13.35Z" fill="#9B7745"/>
<path d="M12 21.75C6.61523 21.75 2.25 17.3848 2.25 12C2.25 6.61523 6.61523 2.25 12 2.25C17.3848 2.25 21.75 6.61523 21.75 12C21.75 17.3848 17.3848 21.75 12 21.75Z" stroke="#D7D4CF" stroke-width="1.5"/>
</svg>
