<svg xmlns="http://www.w3.org/2000/svg" width="62" height="46" viewBox="0 0 62 46" fill="none">
  <g clip-path="url(#clip0_1288_1106)">
    <path d="M17.9603 29.0985C17.5381 29.1047 17.1148 29.0327 16.7067 28.8823C15.8351 28.5609 15.141 27.9197 14.7518 27.0754C14.3625 26.2311 14.325 25.2864 14.6454 24.4139C14.9665 23.5414 15.6069 22.8466 16.4503 22.457C18.1909 21.6524 20.2599 22.4156 21.0637 24.1574C21.8668 25.9 21.1052 27.9713 19.3653 28.7759C18.917 28.9834 18.4398 29.0908 17.9603 29.0978L17.9603 29.0985ZM17.8954 24.7908C17.7839 24.7925 17.6705 24.8172 17.5627 24.8671C17.1498 25.0577 16.9689 25.5501 17.1593 25.9634C17.3505 26.3774 17.8416 26.5585 18.2544 26.3672C18.6672 26.1766 18.8481 25.6842 18.6577 25.2702C18.5165 24.9649 18.2113 24.7862 17.8954 24.7908Z" fill="#fff"/>
    <path d="M59.45 5.58871C59.2356 5.06116 58.7269 4.74481 58.1969 4.75253C58.0171 4.75515 57.8355 4.79501 57.6612 4.8757C57.0224 5.17156 56.7218 5.91724 56.9863 6.56984C59.4501 12.6415 59.5653 19.3198 57.289 25.5118C54.866 32.0975 50.0274 37.3452 43.6616 40.2886C37.2972 43.2297 30.1677 43.5144 23.5898 41.0886C17.0112 38.6628 11.769 33.8187 8.83093 27.4473L8.29278 26.2822L11.7026 19.6114L33.8746 19.0673L34.2572 18.639L47.3008 4.05311C48.5583 5.44669 49.5798 7.02978 50.348 8.77509C54.2419 17.6274 50.2273 28.047 41.4004 31.9997C37.0157 33.9637 32.0646 34.0463 27.6359 32.2672C27.4669 32.199 27.2932 32.1695 27.1222 32.172C26.6346 32.1791 26.174 32.4545 25.9488 32.9177C25.6161 33.6073 25.9323 34.4415 26.6435 34.7266C29.1645 35.7423 31.8355 36.2311 34.5003 36.1923C37.1651 36.1535 39.9348 35.5631 42.4847 34.4214C52.6382 29.8748 57.253 17.8894 52.7747 7.70445C51.6782 5.21145 50.1308 3.00487 48.1722 1.14665L47.1831 0.205408L34.8023 14.0522L32.6669 16.4405L1.18913 17.2131L6.31362 28.3213C9.55497 35.3514 15.3991 40.8931 22.655 43.5725C26.0509 44.827 29.5784 45.4253 33.0899 45.3742C37.0763 45.3161 41.0438 44.4217 44.7725 42.6987C51.7808 39.4595 57.1084 33.6807 59.7759 26.4298C62.2803 19.6166 62.1554 12.2702 59.4493 5.58947L59.45 5.58871ZM5.28793 19.7681L8.68588 19.6851L6.87944 23.2199L5.28793 19.7681Z" fill="#fff"/>
  </g>
  <defs>
    <clipPath id="clip0_1288_1106">
      <rect width="60.3903" height="44.9572" fill="white" transform="translate(0.951172 0.878906) rotate(-0.834616)"/>
    </clipPath>
  </defs>
</svg>