<svg xmlns="http://www.w3.org/2000/svg" width="98" height="98" viewBox="0 0 98 98" fill="none">
<path d="M50.5189 24.4704C50.4209 24.7791 50.4258 25.029 50.4258 25.029L50.3082 25.2005L50.2935 24.4655H50.5189V24.4704ZM51.4107 24.931L50.8325 25.3671C50.8325 25.3671 51.1657 25.3965 51.2686 25.3181L51.4107 24.931ZM79.3309 34.4272L76.2929 36.1912L82.3738 39.6849L85.402 37.9209L79.3309 34.4272ZM70.2218 22.0547L67.1838 23.8187L73.2647 27.3124L76.2929 25.5484L70.2218 22.0547ZM61.1078 9.80469L58.0698 11.5687L64.1507 15.0624L67.1789 13.2984L61.1078 9.80469ZM31.8009 48.059L24.5979 52.2142L31.7862 56.3645L31.8009 48.059ZM33.1043 57.124L48.4119 48.2844L39.9055 43.3746L39.9251 53.1844L37.4163 54.6348V44.8152L39.9055 43.3746L33.1043 47.2995L35.1868 46.0941V55.9137L33.1043 57.124Z" fill="#EFF8F9"/>
<path d="M52.8956 54.2021L52.1067 54.6578L53.7972 53.6827L53.2827 53.3838L53.9883 52.9771C53.856 53.4867 53.7727 54.1727 53.8119 55.089L52.8956 54.2021ZM56.992 60.5525L56.8891 60.6162C56.7715 61.4394 56.5461 63.9531 56.3599 66.1189L57.2468 65.6044C57.1733 63.6787 57.0753 61.2777 56.992 60.5525ZM55.3603 44.8039C55.326 44.5589 54.3362 43.5446 53.9197 43.1281C53.8903 43.28 53.8511 43.3927 53.7923 43.4466C53.3366 43.868 52.6506 43.5593 52.6506 43.4466C52.6506 43.4417 52.6457 43.4172 52.6408 43.3829L52.5624 43.4319C52.5624 43.4319 53.5375 44.505 54.2186 45.0391C54.8997 45.5732 55.4044 45.1175 55.3603 44.8039ZM48.466 41.5111C48.5689 41.7267 48.6914 42.0893 48.4611 42.2706C48.1181 42.545 47.7016 42.5107 47.7016 42.5107C47.7016 42.5107 46.5795 43.1967 45.8543 43.2163C45.1291 43.2359 45.7024 42.7606 45.7024 42.7606L47.2851 41.3298C47.2851 41.3298 47.8192 41.8835 48.4464 41.614L48.466 41.5111ZM85.4022 55.4467L82.374 57.2058V39.6834L85.4022 37.9194V55.4467ZM76.2931 25.5469L73.2649 27.3109V51.8648L76.2931 50.1057V25.5469ZM67.184 13.2969L64.1558 15.0609V46.612L67.184 44.8529V13.2969ZM9.31006 54.0747C9.46686 54.06 9.63346 54.0453 9.80006 54.0404C9.79516 53.9767 9.79026 53.913 9.78536 53.8493C9.58936 53.8591 9.40316 53.8689 9.22186 53.8885C9.25126 53.9522 9.28066 54.0159 9.31006 54.0747ZM11.6817 53.9669C11.6768 53.9816 11.6719 53.9963 11.6719 54.011C11.6719 54.0698 11.6768 54.1237 11.6915 54.1727C12.4314 54.3295 12.9214 54.599 12.9214 54.9077C12.9214 55.3928 11.6915 55.7848 10.1725 55.7848C8.65346 55.7848 7.42356 55.3928 7.42356 54.9077C7.42356 54.6725 7.71756 54.4569 8.19286 54.2952C8.21736 54.2315 8.24186 54.1531 8.24676 54.0551C7.57056 54.2315 7.13446 54.501 7.13446 54.8048C7.13446 54.8293 7.13936 54.8538 7.14426 54.8734L7.84496 60.5378C7.84496 60.9494 8.88866 61.2826 10.1725 61.2826C11.4563 61.2826 12.5 60.9494 12.5 60.5378L13.2007 54.8734C13.2056 54.8489 13.2105 54.8293 13.2105 54.8048C13.2105 54.452 12.5931 54.1335 11.6817 53.9669ZM14.1954 49.1012C13.4261 49.3609 12.4902 50.679 11.6866 52.0608C11.9757 52.296 11.6866 52.4969 11.3387 52.6782C11.1868 52.9575 11.0398 53.2319 10.9075 53.4965C11.0692 53.6141 11.1721 53.6533 10.981 53.9277C10.8536 54.109 10.6478 54.2462 10.4518 54.4226C10.3244 54.6921 10.2166 54.9273 10.1333 55.1135C10.2411 55.1037 10.2656 55.1478 10.2803 55.2017C10.7311 54.844 11.2407 54.9273 11.6033 54.7656C12.059 54.5647 11.6817 54.4667 11.6817 54.0159C11.6817 53.5651 13.6368 54.3148 13.088 53.374C12.5392 52.4332 12.9165 52.3891 12.9165 52.3891C14.558 52.1882 14.3718 51.169 14.2003 50.6349C14.0239 50.1008 15.9447 48.5083 14.1954 49.1012ZM19.6148 50.5663C19.6099 50.581 19.605 50.5957 19.605 50.6104C19.605 50.6692 19.6099 50.7231 19.6246 50.7721C20.3645 50.9289 20.8545 51.1984 20.8545 51.5071C20.8545 51.9922 19.6246 52.3842 18.1056 52.3842C16.5866 52.3842 15.3567 51.9922 15.3567 51.5071C15.3567 51.2719 15.6507 51.0563 16.126 50.8946C16.1505 50.8309 16.175 50.7525 16.1799 50.6545C15.5037 50.8309 15.0676 51.1004 15.0676 51.4042C15.0676 51.4287 15.0725 51.4532 15.0774 51.4728L15.7781 57.1372C15.7781 57.5488 16.8218 57.882 18.1056 57.882C19.3894 57.882 20.4331 57.5488 20.4331 57.1372L21.1338 51.4728C21.1387 51.4483 21.1436 51.4287 21.1436 51.4042C21.1436 51.0465 20.5262 50.7329 19.6148 50.5663ZM17.2432 50.6741C17.4 50.6594 17.5666 50.6447 17.7332 50.6398C17.7283 50.5761 17.7234 50.5124 17.7185 50.4487C17.5225 50.4585 17.3363 50.4683 17.155 50.4879C17.1844 50.5516 17.2138 50.6104 17.2432 50.6741ZM22.1236 45.7006C21.3543 45.9603 20.4184 47.2784 19.6148 48.6602C19.9039 48.8954 19.6148 49.0963 19.2669 49.2776C19.115 49.5569 18.968 49.8313 18.8357 50.0959C18.9974 50.2135 19.1003 50.2527 18.9092 50.5271C18.7818 50.7084 18.576 50.8456 18.38 51.022C18.2526 51.2915 18.1448 51.5267 18.0615 51.7129C18.1693 51.7031 18.1938 51.7472 18.2085 51.8011C18.6593 51.4434 19.1689 51.5267 19.5315 51.365C19.9872 51.1641 19.6099 51.0661 19.6099 50.6153C19.6099 50.1645 21.565 50.9142 21.0162 49.9734C20.4674 49.0326 20.8447 48.9885 20.8447 48.9885C22.4862 48.7876 22.3 47.7684 22.1285 47.2343C21.957 46.7002 23.8778 45.1028 22.1236 45.7006ZM32.59 58.1613L22.7998 52.5116V54.7705L32.59 60.4202L50.2104 50.2478V47.9889L32.59 58.1613ZM79.3409 61.4443L51.6853 77.7662L31.3699 66.0356L51.5873 54.3638L52.1018 54.6627L51.8029 54.4912C51.9646 54.7705 52.2684 55.285 52.6212 55.7799L50.0438 57.2646L54.6939 59.9498L54.6596 59.2393L55.0173 66.8882L49.0344 70.3427L55.3652 73.9981L63.9794 68.9119L58.4179 65.6387L58.266 68.4513L58.7756 59.0531L58.7168 60.0968C58.9275 59.9547 59.1872 59.7146 59.2215 59.5333C59.2362 59.45 59.2313 59.3471 59.2166 59.2393L64.9888 55.8338L58.8148 52.2029L58.7658 52.2323C58.5894 50.9044 58.0455 50.9093 57.9426 50.8358C57.9034 50.8113 57.8642 50.7868 57.825 50.7672L59.5253 49.7872L79.3409 61.4443ZM51.0238 66.6873C49.8723 65.9768 48.7159 65.2614 47.5644 64.5509C47.4027 64.448 47.2361 64.35 47.0744 64.2471C46.6971 64.0119 46.3492 64.6097 46.7265 64.8449C47.878 65.5554 49.0344 66.2708 50.1859 66.9813C50.3476 67.0842 50.5142 67.1822 50.6759 67.2851C51.0532 67.5154 51.4011 66.9225 51.0238 66.6873ZM50.4211 63.0074C51.5726 63.7179 52.729 64.4333 53.8805 65.1438C54.0422 65.2467 54.2088 65.3447 54.3705 65.4476C54.7478 65.6828 55.0957 65.085 54.7184 64.8498C53.5669 64.1393 52.4105 63.4239 51.259 62.7134C51.0973 62.6105 50.9307 62.5125 50.769 62.4096C50.3917 62.1793 50.0438 62.7722 50.4211 63.0074ZM49.2304 63.6836C49.0687 63.5807 48.9021 63.4827 48.7404 63.3798C48.3631 63.1446 48.0152 63.7424 48.3925 63.9776C49.544 64.6881 50.7004 65.4035 51.8519 66.114C52.0136 66.2169 52.1802 66.3149 52.3419 66.4178C52.7192 66.653 53.0671 66.0552 52.6898 65.82C51.5383 65.1095 50.3819 64.399 49.2304 63.6836ZM45.5848 59.9939C46.7363 60.7044 47.8927 61.4198 49.0442 62.1303C49.2059 62.2332 49.3725 62.3312 49.5342 62.4341C49.9115 62.6693 50.2594 62.0715 49.8821 61.8363C48.7306 61.1258 47.5742 60.4104 46.4227 59.6999C46.261 59.597 46.0944 59.499 45.9327 59.3961C45.5554 59.1658 45.2075 59.7587 45.5848 59.9939ZM43.5562 60.9641C44.7077 61.6746 45.8641 62.39 47.0156 63.1005C47.1773 63.2034 47.3439 63.3014 47.5056 63.4043C47.8829 63.6395 48.2308 63.0417 47.8535 62.8065C46.702 62.096 45.5456 61.3806 44.3941 60.6701C44.2324 60.5672 44.0658 60.4692 43.9041 60.3663C43.5219 60.136 43.1789 60.7338 43.5562 60.9641ZM41.8853 61.7873C43.0368 62.4978 44.1932 63.2132 45.3447 63.9237C45.5064 64.0266 45.673 64.1246 45.8347 64.2275C46.212 64.4627 46.5599 63.8649 46.1826 63.6297C45.0311 62.9192 43.8747 62.2038 42.7232 61.4933C42.5615 61.3904 42.3949 61.2924 42.2332 61.1895C41.8559 60.9592 41.508 61.5521 41.8853 61.7873ZM40.4251 62.7183C41.5766 63.4288 42.733 64.1442 43.8845 64.8547C44.0462 64.9576 44.2128 65.0556 44.3745 65.1585C44.7518 65.3937 45.0997 64.7959 44.7224 64.5607C43.5709 63.8502 42.4145 63.1348 41.263 62.4243C41.1013 62.3214 40.9347 62.2234 40.773 62.1205C40.3957 61.8902 40.0478 62.488 40.4251 62.7183ZM43.2279 65.2908C42.0764 64.5803 40.92 63.8649 39.7685 63.1544C39.6068 63.0515 39.4402 62.9535 39.2785 62.8506C38.9012 62.6154 38.5533 63.2132 38.9306 63.4484C40.0821 64.1589 41.2385 64.8743 42.39 65.5848C42.5517 65.6877 42.7183 65.7857 42.88 65.8886C43.2622 66.1189 43.6052 65.5211 43.2279 65.2908ZM48.0642 68.3043C46.9127 67.5938 45.7563 66.8784 44.6048 66.1679C44.4431 66.065 44.2765 65.967 44.1148 65.8641C43.7375 65.6289 43.3896 66.2267 43.7669 66.4619C44.9184 67.1724 46.0748 67.8878 47.2263 68.5983C47.388 68.7012 47.5546 68.7992 47.7163 68.9021C48.0936 69.1324 48.4415 68.5346 48.0642 68.3043ZM48.7208 67.8682C48.8825 67.9711 49.0491 68.0691 49.2108 68.172C49.5881 68.4072 49.936 67.8094 49.5587 67.5742C48.4072 66.8637 47.2508 66.1483 46.0993 65.4378C45.9376 65.3349 45.771 65.2369 45.6093 65.134C45.232 64.8988 44.8841 65.4966 45.2614 65.7318C46.4129 66.4423 47.5644 67.1577 48.7208 67.8682ZM65.7042 57.6713C66.8557 58.3818 68.0121 59.0972 69.1636 59.8077C69.3253 59.9106 69.4919 60.0086 69.6536 60.1115C70.0309 60.3467 70.3788 59.7489 70.0015 59.5137C68.85 58.8032 67.6936 58.0878 66.5421 57.3773C66.3804 57.2744 66.2138 57.1764 66.0521 57.0735C65.6699 56.8432 65.3269 57.4361 65.7042 57.6713ZM63.6707 58.6415C64.8222 59.352 65.9786 60.0674 67.1301 60.7779C67.2918 60.8808 67.4584 60.9788 67.6201 61.0817C67.9974 61.3169 68.3453 60.7191 67.968 60.4839C66.8165 59.7734 65.6601 59.058 64.5086 58.3475C64.3469 58.2446 64.1803 58.1466 64.0186 58.0437C63.6413 57.8134 63.2934 58.4112 63.6707 58.6415ZM62.0047 59.4647C63.1562 60.1752 64.3126 60.8906 65.4641 61.6011C65.6258 61.704 65.7924 61.802 65.9541 61.9049C66.3314 62.1401 66.6793 61.5423 66.302 61.3071C65.1505 60.5966 63.9941 59.8812 62.8426 59.1707C62.6809 59.0678 62.5143 58.9698 62.3526 58.8669C61.9753 58.6366 61.6274 59.2295 62.0047 59.4647ZM60.5445 60.3957C61.696 61.1062 62.8524 61.8216 64.0039 62.5321C64.1656 62.635 64.3322 62.733 64.4939 62.8359C64.8712 63.0711 65.2191 62.4733 64.8418 62.2381C63.6903 61.5276 62.5339 60.8122 61.3824 60.1017C61.2207 59.9988 61.0541 59.9008 60.8924 59.7979C60.5102 59.5676 60.1672 60.1654 60.5445 60.3957ZM63.3473 62.9682C62.1958 62.2577 61.0394 61.5423 59.8879 60.8318C59.7262 60.7289 59.5596 60.6309 59.3979 60.528C59.0206 60.2928 58.6727 60.8906 59.05 61.1258C60.2015 61.8363 61.3579 62.5517 62.5094 63.2622C62.6711 63.3651 62.8377 63.4631 62.9994 63.566C63.3767 63.7963 63.7246 63.1985 63.3473 62.9682ZM68.1836 65.9817C67.0321 65.2712 65.8757 64.5558 64.7242 63.8453C64.5625 63.7424 64.3959 63.6444 64.2342 63.5415C63.8569 63.3063 63.509 63.9041 63.8863 64.1393C65.0378 64.8498 66.1942 65.5652 67.3457 66.2757C67.5074 66.3786 67.674 66.4766 67.8357 66.5795C68.213 66.8098 68.5609 66.212 68.1836 65.9817ZM69.6781 65.2516C68.5266 64.5411 67.3702 63.8257 66.2187 63.1152C66.057 63.0123 65.8904 62.9143 65.7287 62.8114C65.3514 62.5762 65.0035 63.174 65.3808 63.4092C66.5323 64.1197 67.6887 64.8351 68.8402 65.5456C69.0019 65.6485 69.1685 65.7465 69.3302 65.8494C69.7075 66.0846 70.0554 65.4868 69.6781 65.2516ZM71.1383 64.3647C69.9868 63.6542 68.8304 62.9388 67.6789 62.2283C67.5172 62.1254 67.3506 62.0274 67.1889 61.9245C66.8116 61.6893 66.4637 62.2871 66.841 62.5223C67.9925 63.2328 69.1489 63.9482 70.3004 64.6587C70.4621 64.7616 70.6287 64.8596 70.7904 64.9625C71.1726 65.1928 71.5156 64.5999 71.1383 64.3647ZM72.8092 63.4974C71.6577 62.7869 70.5013 62.0715 69.3498 61.361C69.1881 61.2581 69.0215 61.1601 68.8598 61.0572C68.4825 60.822 68.1346 61.4198 68.5119 61.655C69.6634 62.3655 70.8198 63.0809 71.9713 63.7914C72.133 63.8943 72.2996 63.9923 72.4613 64.0952C72.8386 64.3304 73.1865 63.7326 72.8092 63.4974ZM74.8378 62.5272C73.6863 61.8167 72.5299 61.1013 71.3784 60.3908C71.2167 60.2879 71.0501 60.1899 70.8884 60.087C70.5111 59.8518 70.1632 60.4496 70.5405 60.6848C71.692 61.3953 72.8484 62.1107 73.9999 62.8212C74.1616 62.9241 74.3282 63.0221 74.4899 63.125C74.8672 63.3553 75.2151 62.7624 74.8378 62.5272ZM47.4811 84.6752L4.99316 60.1458V63.664L47.4811 88.1934L93.007 61.9098V58.3916L47.4811 84.6752Z" fill="#B5D6E9"/>
<path d="M85.4022 54.0011V55.4515L82.374 57.2106L76.2931 53.6973V50.1056L73.2649 51.8647L67.184 48.3514V44.8479L64.1558 46.607L58.0749 43.0937V38.2133L53.0671 35.3223L53.6453 38.963C53.6453 38.963 54.1108 42.0598 53.9246 43.1231C54.3411 43.5396 55.3309 44.5539 55.3652 44.7989C55.4093 45.1125 54.9095 45.5682 54.2235 45.0341C53.5375 44.5 52.5673 43.4269 52.5673 43.4269L52.6457 43.3779C52.5771 42.8634 52.0185 39.5559 52.0185 39.5559L50.1761 34.7539L49.4705 37.2088L48.466 41.5061C48.5689 41.7217 48.6914 42.0843 48.4611 42.2656C48.1181 42.54 47.7016 42.5057 47.7016 42.5057C47.7016 42.5057 46.5795 43.1917 45.8543 43.2113C45.1291 43.2309 45.7024 42.7556 45.7024 42.7556L47.2851 41.3248L47.4076 35.4399L20.7859 50.9435C21.0162 51.0807 21.1436 51.2375 21.1436 51.4041C21.1436 51.4286 21.1387 51.4531 21.1338 51.4727L20.4331 57.142C20.4331 57.5536 19.3894 57.8868 18.1056 57.8868C16.8218 57.8868 15.7781 57.5536 15.7781 57.142L15.4008 54.0844L13.137 55.4025L12.5 60.5426C12.5 60.9542 11.4563 61.2874 10.1725 61.2874C8.8887 61.2874 7.845 60.9542 7.845 60.5426L7.6049 58.6169L4.9834 60.1408L47.4811 84.6751L93.007 58.3915L85.4022 54.0011ZM22.7998 52.5066L40.4202 42.3342L50.2104 47.9839V50.2428L32.59 60.4152L22.7998 54.7655V52.5066ZM51.6902 77.7661L31.3748 66.0355L51.5922 54.3637L49.5734 53.1975L50.3917 52.7222L51.0091 52.3645L51.259 52.2175L53.2778 53.3837L53.9834 52.977C54.2872 51.8059 54.8605 51.5511 54.8899 51.5364L54.8997 51.5462C55.1006 51.1885 55.6347 51.0121 55.6347 51.0121C55.6347 51.0121 55.6396 51.0023 55.6445 50.9827C55.6592 50.9288 55.6935 50.8014 55.7229 50.6642C55.7376 50.6054 55.7474 50.5515 55.7621 50.4927C55.3015 50.5466 54.8605 50.5368 54.7429 50.3947C54.6596 50.2967 54.6547 50.0664 54.689 49.792C54.6596 49.7969 54.6253 49.7871 54.5959 49.7185C54.4979 49.5323 54.5959 49.351 54.5959 49.351C54.5959 49.351 54.6792 49.3314 54.7674 49.3412C54.8654 48.8659 55.0124 48.4151 55.0124 48.4151C55.0124 48.4151 54.5518 47.7585 55.1447 47.2538C55.7425 46.7491 56.4285 47.3224 56.4285 47.3224C56.4285 47.3224 57.4281 47.3126 57.5849 48.0035C57.7417 48.6944 57.7711 48.7434 57.6437 49.0521C57.5163 49.3608 57.5457 49.6401 57.2419 49.6401C57.139 49.8361 57.0361 49.9978 56.992 50.0909C56.9626 50.1497 56.8744 50.2085 56.7421 50.2624V50.4976V50.7475C56.7421 50.7475 56.8499 50.6642 57.0361 50.6201C57.0508 50.6152 57.0655 50.6152 57.0802 50.6103C57.09 50.6103 57.0998 50.6054 57.1096 50.6054C57.1292 50.6005 57.1537 50.6005 57.1782 50.5956C57.1831 50.5956 57.188 50.5956 57.1978 50.5956C57.3693 50.5858 57.5898 50.6201 57.8348 50.7524L59.5351 49.7724L79.3507 61.4344L51.6902 77.7661Z" fill="white"/>
<path d="M46.8685 24.16C46.3883 23.5916 45.9571 23.0771 45.9277 23.0036C45.8738 22.8762 45.1682 21.3327 44.7958 20.5144H44.7909C44.7909 20.5144 44.5557 20.1224 44.492 20.0685C44.4283 20.0146 44.2813 19.2355 44.2813 19.2355C44.2813 19.2355 43.9824 18.3976 44.051 18.2604C44.1196 18.1232 44.3548 18.6671 44.3548 18.6671C44.3548 18.6671 44.1833 18.1526 44.2862 18.0742C44.3891 17.9909 44.5263 18.5936 44.5459 18.5936C44.5655 18.5936 44.3793 17.986 44.5165 17.9615C44.6488 17.937 44.8007 18.6671 44.8007 18.6671C44.8007 18.6671 44.786 18.0987 44.8497 17.9909C44.9134 17.8831 45.1094 18.6524 45.1094 18.6524L45.4279 19.3629L45.4524 19.0787C45.4524 19.0787 45.668 18.4564 45.6729 18.7504C45.6778 19.0395 45.7856 19.3727 45.7856 19.4707C45.7856 19.5442 45.6729 19.9166 45.6092 20.1175L47.2164 22.4352L47.8093 22.8321C47.7995 22.837 47.089 23.6161 46.8685 24.16ZM58.4031 20.2792C58.3345 20.142 58.0993 20.6859 58.0993 20.6859C58.0993 20.6859 58.2708 20.1714 58.1679 20.093C58.065 20.0097 57.9278 20.6124 57.9082 20.6124C57.8886 20.6124 58.0748 20.0048 57.9376 19.9803C57.8053 19.9558 57.6534 20.6859 57.6534 20.6859C57.6534 20.6859 57.6681 20.1175 57.6044 20.0097C57.5407 19.9019 57.3447 20.6712 57.3447 20.6712L57.0262 21.3817L57.0017 21.0975C57.0017 21.0975 56.7861 20.4752 56.7812 20.7692C56.7763 21.0583 56.6685 21.3915 56.6685 21.4895C56.6685 21.5924 56.889 22.2735 56.889 22.2735L54.9829 24.9783C54.7869 25.0175 54.5174 25.0371 54.2234 25.042L54.39 26.9334C55.125 26.4532 55.9482 25.9289 56.2569 25.6594C56.8498 25.1449 57.6485 22.5332 57.6485 22.5332C57.6485 22.5332 57.8837 22.1412 57.9474 22.0873C58.0111 22.0383 58.1581 21.2543 58.1581 21.2543C58.1581 21.2543 58.4717 20.4164 58.4031 20.2792ZM59.0352 58.5727L58.7902 58.6609C58.7853 58.9108 58.7804 59.0529 58.7804 59.0529L58.7216 60.0966C58.9323 59.9545 59.192 59.7144 59.2263 59.5331C59.2753 59.2734 59.1234 58.8226 59.0352 58.5727ZM56.4627 49.4391C56.4627 49.4391 56.8792 48.6845 56.4235 48.9148C55.9678 49.15 56.0462 49.3901 56.0462 49.3901L56.0413 49.6155H55.8894C55.8894 49.6155 56.0854 48.9834 55.8012 48.8707C55.5219 48.758 54.9829 48.6306 55.0025 48.4297C55.0025 48.4297 54.8604 48.8805 54.7575 49.3558C54.8457 49.3656 54.9339 49.4097 54.9535 49.5273C54.9927 49.7723 54.8996 49.8654 54.831 49.7772C54.7869 49.7184 54.7379 49.7919 54.684 49.8066C54.6497 50.081 54.6546 50.3162 54.7379 50.4093C54.8555 50.5465 55.3014 50.5612 55.7571 50.5073C55.7473 50.5612 55.7326 50.62 55.7179 50.6788L56.7322 50.5122V50.277C56.8596 50.2231 56.9527 50.1643 56.9821 50.1055C57.0262 50.0124 57.1291 49.8458 57.232 49.6547C56.9282 49.6498 56.5705 49.8262 56.4627 49.4391ZM52.5329 23.5573C52.4055 23.7778 52.2634 23.9738 52.1164 24.0865C52.0919 24.1061 52.0674 24.1208 52.038 24.1404L52.1605 24.65L51.4108 24.9293L50.8375 25.3654C50.7444 25.287 50.617 25.2429 50.5141 25.2233C50.4651 25.1645 50.4406 25.0959 50.4308 25.0273C50.4308 25.0028 50.4308 24.7921 50.5092 24.5275L50.6023 24.2139C50.5582 24.1257 50.5141 24.0179 50.4798 23.8807C50.3377 23.3221 50.6072 22.9399 50.6072 22.4499C50.6072 22.347 50.6121 22.2637 50.617 22.1951C50.7787 22.2 51.2638 22.5675 51.94 22.592C52.2879 22.6067 52.1115 23.3319 52.1115 23.3319L52.3124 23.2927C52.3124 23.2927 52.283 22.7341 52.4692 22.9693C52.6603 23.1996 52.5329 23.5524 52.5329 23.5573Z" fill="white"/>
<path d="M12.9214 54.9096C12.9214 55.3947 11.6915 55.7867 10.1725 55.7867C8.65348 55.7867 7.42358 55.3947 7.42358 54.9096C7.42358 54.6744 7.71758 54.4588 8.19288 54.2971C8.10958 54.5225 7.98708 54.6107 8.32518 54.7626C8.69268 54.9292 9.21698 54.8361 9.67758 55.2232C9.55508 55.2575 9.46688 55.2869 9.43258 55.2869C9.36888 55.2869 9.23168 55.1203 9.13858 55.2477C9.05038 55.3751 9.00138 55.3898 8.95728 55.4731C8.91808 55.5564 9.12878 55.5858 9.12878 55.5858C9.12878 55.5858 10.0108 55.6397 10.05 55.6397C10.0892 55.6397 10.8438 55.6985 10.8585 55.5858C10.8732 55.4731 10.7115 55.3849 10.7115 55.3849C10.7115 55.3849 10.5008 55.3996 10.3538 55.3457C10.2852 55.3212 10.2803 55.2575 10.2656 55.2036C10.7164 54.8459 11.226 54.9292 11.5886 54.7675C11.9806 54.5911 11.7503 54.498 11.6817 54.1795C12.4363 54.3363 12.9214 54.6058 12.9214 54.9096ZM11.5543 51.9696C10.6086 51.4355 10.9075 51.2052 10.9075 51.2052C12.2207 50.1958 11.5445 49.4167 11.128 49.0443C10.7115 48.6719 11.5592 46.3248 10.3538 47.7213C9.32478 48.912 9.75598 53.8561 9.91768 55.1546C9.94708 55.1448 9.98138 55.1399 10.0108 55.1301C10.1774 54.4588 10.7311 54.2726 10.981 53.9198C11.2701 53.5131 10.8977 53.6258 10.6674 53.2338C10.4371 52.8418 12.5 52.5037 11.5543 51.9696ZM19.6246 50.774C19.6932 51.0925 19.9235 51.1856 19.5315 51.362C19.1689 51.5237 18.6642 51.4404 18.2085 51.7981C18.2232 51.852 18.2281 51.9157 18.2967 51.9402C18.4437 51.999 18.6544 51.9794 18.6544 51.9794C18.6544 51.9794 18.8161 52.0676 18.8014 52.1803C18.7867 52.293 18.0321 52.2342 17.9929 52.2342C17.9537 52.2342 17.0717 52.1803 17.0717 52.1803C17.0717 52.1803 16.861 52.1509 16.9002 52.0676C16.9394 51.9843 16.9884 51.9696 17.0815 51.8422C17.1697 51.7148 17.3118 51.8814 17.3755 51.8814C17.4098 51.8814 17.498 51.8569 17.6205 51.8177C17.1599 51.4306 16.6356 51.5237 16.2681 51.3571C15.93 51.2052 16.0525 51.117 16.1358 50.8916C15.6605 51.0484 15.3665 51.264 15.3665 51.5041C15.3665 51.9892 16.5964 52.3812 18.1154 52.3812C19.6344 52.3812 20.8643 51.9892 20.8643 51.5041C20.8545 51.2003 20.3645 50.9308 19.6246 50.774ZM19.4874 48.569C18.5417 48.0349 18.8406 47.8046 18.8406 47.8046C20.1538 46.7952 19.4776 46.0161 19.0611 45.6437C18.6446 45.2713 19.4923 42.9242 18.2869 44.3207C17.2579 45.5114 17.6891 50.4555 17.8508 51.754C17.8802 51.7442 17.9145 51.7393 17.9439 51.7295C18.1105 51.0582 18.6642 50.872 18.9141 50.5192C19.2032 50.1125 18.8308 50.2252 18.6005 49.8332C18.3702 49.4412 20.4331 49.1031 19.4874 48.569ZM65.7042 57.6732C66.8557 58.3837 68.0121 59.0991 69.1636 59.8096C69.3253 59.9125 69.4919 60.0105 69.6536 60.1134C70.0309 60.3486 70.3788 59.7508 70.0015 59.5156C68.85 58.8051 67.6936 58.0897 66.5421 57.3792C66.3804 57.2763 66.2138 57.1783 66.0521 57.0754C65.6699 56.8451 65.3269 57.438 65.7042 57.6732ZM70.5356 60.6867C71.6871 61.3972 72.8435 62.1126 73.995 62.8231C74.1567 62.926 74.3233 63.024 74.485 63.1269C74.8623 63.3621 75.2102 62.7643 74.8329 62.5291C73.6814 61.8186 72.525 61.1032 71.3735 60.3927C71.2118 60.2898 71.0452 60.1918 70.8835 60.0889C70.5062 59.8586 70.1583 60.4515 70.5356 60.6867ZM63.6707 58.6434C64.8222 59.3539 65.9786 60.0693 67.1301 60.7798C67.2918 60.8827 67.4584 60.9807 67.6201 61.0836C67.9974 61.3188 68.3453 60.721 67.968 60.4858C66.8165 59.7753 65.6601 59.0599 64.5086 58.3494C64.3469 58.2465 64.1803 58.1485 64.0186 58.0456C63.6413 57.8153 63.2934 58.4131 63.6707 58.6434ZM68.507 61.6569C69.6585 62.3674 70.8149 63.0828 71.9664 63.7933C72.1281 63.8962 72.2947 63.9942 72.4564 64.0971C72.8337 64.3323 73.1816 63.7345 72.8043 63.4993C71.6528 62.7888 70.4964 62.0734 69.3449 61.3629C69.1832 61.26 69.0166 61.162 68.8549 61.0591C68.4776 60.8288 68.1297 61.4266 68.507 61.6569ZM62.0047 59.4666C63.1562 60.1771 64.3126 60.8925 65.4641 61.603C65.6258 61.7059 65.7924 61.8039 65.9541 61.9068C66.3314 62.142 66.6793 61.5442 66.302 61.309C65.1505 60.5985 63.9941 59.8831 62.8426 59.1726C62.6809 59.0697 62.5143 58.9717 62.3526 58.8688C61.9753 58.6385 61.6274 59.2314 62.0047 59.4666ZM66.841 62.5242C67.9925 63.2347 69.1489 63.9501 70.3004 64.6606C70.4621 64.7635 70.6287 64.8615 70.7904 64.9644C71.1677 65.1996 71.5156 64.6018 71.1383 64.3666C69.9868 63.6561 68.8304 62.9407 67.6789 62.2302C67.5172 62.1273 67.3506 62.0293 67.1889 61.9264C66.8067 61.6961 66.4637 62.289 66.841 62.5242ZM60.5445 60.3976C61.696 61.1081 62.8524 61.8235 64.0039 62.534C64.1656 62.6369 64.3322 62.7349 64.4939 62.8378C64.8712 63.073 65.2191 62.4752 64.8418 62.24C63.6903 61.5295 62.5339 60.8141 61.3824 60.1036C61.2207 60.0007 61.0541 59.9027 60.8924 59.7998C60.5102 59.5695 60.1672 60.1673 60.5445 60.3976ZM65.3759 63.4111C66.5274 64.1216 67.6838 64.837 68.8353 65.5475C68.997 65.6504 69.1636 65.7484 69.3253 65.8513C69.7026 66.0865 70.0505 65.4887 69.6732 65.2535C68.5217 64.543 67.3653 63.8276 66.2138 63.1171C66.0521 63.0142 65.8855 62.9162 65.7238 62.8133C65.3465 62.583 64.9986 63.1808 65.3759 63.4111ZM59.0451 61.1277C60.1966 61.8382 61.353 62.5536 62.5045 63.2641C62.6662 63.367 62.8328 63.465 62.9945 63.5679C63.3718 63.8031 63.7197 63.2053 63.3424 62.9701C62.1909 62.2596 61.0345 61.5442 59.883 60.8337C59.7213 60.7308 59.5547 60.6328 59.393 60.5299C59.0157 60.2947 58.6678 60.8925 59.0451 61.1277ZM63.8814 64.1363C65.0329 64.8468 66.1893 65.5622 67.3408 66.2727C67.5025 66.3756 67.6691 66.4736 67.8308 66.5765C68.2081 66.8117 68.556 66.2139 68.1787 65.9787C67.0272 65.2682 65.8708 64.5528 64.7193 63.8423C64.5576 63.7394 64.391 63.6414 64.2293 63.5385C63.852 63.3082 63.5041 63.906 63.8814 64.1363ZM45.5848 59.9958C46.7363 60.7063 47.8927 61.4217 49.0442 62.1322C49.2059 62.2351 49.3725 62.3331 49.5342 62.436C49.9115 62.6712 50.2594 62.0734 49.8821 61.8382C48.7306 61.1277 47.5742 60.4123 46.4227 59.7018C46.261 59.5989 46.0944 59.5009 45.9327 59.398C45.5554 59.1677 45.2075 59.7606 45.5848 59.9958ZM50.4211 63.0093C51.5726 63.7198 52.729 64.4352 53.8805 65.1457C54.0422 65.2486 54.2088 65.3466 54.3705 65.4495C54.7478 65.6847 55.0957 65.0869 54.7184 64.8517C53.5669 64.1412 52.4105 63.4258 51.259 62.7153C51.0973 62.6124 50.9307 62.5144 50.769 62.4115C50.3917 62.1812 50.0438 62.7741 50.4211 63.0093ZM43.5562 60.966C44.7077 61.6765 45.8641 62.3919 47.0156 63.1024C47.1773 63.2053 47.3439 63.3033 47.5056 63.4062C47.8829 63.6414 48.2308 63.0436 47.8535 62.8084C46.702 62.0979 45.5456 61.3825 44.3941 60.672C44.2324 60.5691 44.0658 60.4711 43.9041 60.3682C43.5219 60.1379 43.1789 60.7357 43.5562 60.966ZM48.3876 63.9795C49.5391 64.69 50.6955 65.4054 51.847 66.1159C52.0087 66.2188 52.1753 66.3168 52.337 66.4197C52.7143 66.6549 53.0622 66.0571 52.6849 65.8219C51.5334 65.1114 50.377 64.396 49.2255 63.6855C49.0638 63.5826 48.8972 63.4846 48.7355 63.3817C48.3582 63.1514 48.0103 63.7492 48.3876 63.9795ZM41.8853 61.7892C43.0368 62.4997 44.1932 63.2151 45.3447 63.9256C45.5064 64.0285 45.673 64.1265 45.8347 64.2294C46.212 64.4646 46.5599 63.8668 46.1826 63.6316C45.0311 62.9211 43.8747 62.2057 42.7232 61.4952C42.5615 61.3923 42.3949 61.2943 42.2332 61.1914C41.8559 60.9611 41.508 61.554 41.8853 61.7892ZM46.7216 64.8468C47.8731 65.5573 49.0295 66.2727 50.181 66.9832C50.3427 67.0861 50.5093 67.1841 50.671 67.287C51.0483 67.5222 51.3962 66.9244 51.0189 66.6892C49.8674 65.9787 48.711 65.2633 47.5595 64.5528C47.3978 64.4499 47.2312 64.3519 47.0695 64.249C46.6922 64.0187 46.3443 64.6116 46.7216 64.8468ZM40.4251 62.7202C41.5766 63.4307 42.733 64.1461 43.8845 64.8566C44.0462 64.9595 44.2128 65.0575 44.3745 65.1604C44.7518 65.3956 45.0997 64.7978 44.7224 64.5626C43.5709 63.8521 42.4145 63.1367 41.263 62.4262C41.1013 62.3233 40.9347 62.2253 40.773 62.1224C40.3957 61.8921 40.0478 62.4899 40.4251 62.7202ZM45.2614 65.7337C46.4129 66.4442 47.5693 67.1596 48.7208 67.8701C48.8825 67.973 49.0491 68.071 49.2108 68.1739C49.5881 68.4091 49.936 67.8113 49.5587 67.5761C48.4072 66.8656 47.2508 66.1502 46.0993 65.4397C45.9376 65.3368 45.771 65.2388 45.6093 65.1359C45.2271 64.9056 44.8841 65.5034 45.2614 65.7337ZM38.9306 63.4503C40.0821 64.1608 41.2385 64.8762 42.39 65.5867C42.5517 65.6896 42.7183 65.7876 42.88 65.8905C43.2573 66.1257 43.6052 65.5279 43.2279 65.2927C42.0764 64.5822 40.92 63.8668 39.7685 63.1563C39.6068 63.0534 39.4402 62.9554 39.2785 62.8525C38.8963 62.6173 38.5533 63.2151 38.9306 63.4503ZM43.762 66.4589C44.9135 67.1694 46.0699 67.8848 47.2214 68.5953C47.3831 68.6982 47.5497 68.7962 47.7114 68.8991C48.0887 69.1343 48.4366 68.5365 48.0593 68.3013C46.9078 67.5908 45.7514 66.8754 44.5999 66.1649C44.4382 66.062 44.2716 65.964 44.1099 65.8611C43.7326 65.6308 43.3847 66.2286 43.762 66.4589ZM37.4165 44.8156V54.6352L39.9253 53.1848L39.9057 43.375L37.4165 44.8156ZM31.8011 48.0594L31.7913 56.3649L33.1045 57.1244L35.1919 55.919V46.0994L31.8011 48.0594Z" fill="#A3D6FF"/>
<path d="M58.2707 68.4536C58.3148 68.8113 58.3687 69.2817 58.3589 69.3258C58.3442 69.4042 58.0845 69.5071 57.6533 69.4336C57.227 69.3552 56.6733 68.4095 56.5998 68.1939C56.541 68.0371 57.0604 68.0273 57.3446 68.0322C57.3495 68.1645 57.3544 68.238 57.3544 68.2331C57.374 68.1743 57.9277 68.9044 58.2707 68.4585V68.4536ZM56.0657 69.6443C55.5169 69.9922 55.1494 69.5218 55.1494 69.5218V69.4973C55.1102 69.5316 55.0857 69.561 55.0857 69.561C55.0857 69.561 53.3413 69.5757 53.8313 70.1588C54.3213 70.7419 55.9579 70.5704 56.0657 70.5263C56.1588 70.4871 56.0951 69.855 56.0706 69.6345C56.0657 69.6394 56.0657 69.6443 56.0657 69.6443ZM58.8048 52.5874C58.6872 50.892 58.06 50.9116 57.9424 50.8283C57.227 50.3628 56.7321 50.7499 56.7321 50.7499V50.5L55.7178 50.6666C55.6737 50.8479 55.6296 51.0145 55.6296 51.0145C55.6296 51.0145 55.0955 51.1909 54.8946 51.5486L54.8848 51.5388C54.8456 51.5584 53.6794 52.068 53.8019 55.0864L52.8905 54.1995L52.1016 54.6552L51.8027 54.4837C52.1408 55.0815 53.1502 56.7573 53.8656 57.0072C54.2037 57.1248 54.4732 57.0562 54.679 56.9239C54.6643 58.2175 54.6594 59.2367 54.6594 59.2367L54.6643 59.3445C56.0755 59.6679 57.7072 59.5111 58.7558 59.3298L58.7705 59.0505C58.7705 59.0505 58.7754 58.9084 58.7803 58.6585L59.1576 58.5213C59.1674 58.5262 58.9224 54.2828 58.8048 52.5874Z" fill="#4A90E2"/>
<path d="M51.1902 25.5451L51.4156 24.9326L52.1653 24.6533L52.3368 24.9571L51.1902 25.5451ZM50.2935 24.472L50.0681 25.0208L50.3033 24.9375L50.2935 24.472ZM50.2935 25.5451C50.2935 25.5451 50.5189 25.6137 50.5728 25.6284C50.6218 25.6431 50.8374 25.3638 50.8374 25.3638C50.6414 25.1972 50.3082 25.2021 50.3082 25.2021L50.2935 25.5451ZM53.0522 27.8873C53.0522 27.8873 52.9199 32.1993 53.0522 32.8314C53.0522 32.8314 48.9166 34.4533 47.28 32.8314L48.2502 25.7705C48.2502 25.7705 46.8782 24.962 46.8096 24.4867C46.7361 24.0114 47.7994 22.8403 47.7994 22.8403C47.7994 22.8403 49.6712 23.9771 50.2984 24.472L50.073 25.0208L50.3082 24.9375L50.2984 24.472L50.3131 25.207L50.2984 25.55C50.2984 25.55 49.5683 26.9661 49.583 27.3581C49.5928 27.755 48.7598 29.9061 48.7598 29.9061L48.9068 30.2491L49.4948 30.0335C49.4948 30.0335 50.0387 29.2201 50.073 28.196C50.1073 27.167 50.5777 25.6333 50.5777 25.6333C50.6267 25.648 50.8423 25.3687 50.8423 25.3687C50.955 25.3785 51.0971 25.3638 51.2784 25.3197L51.1951 25.5451L52.3417 24.9571L54.2429 25.0355L54.4095 26.9269L53.0522 27.8873ZM49.3968 31.9739C49.3968 31.8808 49.3233 31.8073 49.2302 31.8073C49.1371 31.8073 49.0636 31.8808 49.0636 31.9739C49.0636 32.067 49.1371 32.1405 49.2302 32.1405C49.3233 32.1405 49.3968 32.067 49.3968 31.9739ZM49.5046 30.9008C49.5046 30.8077 49.4311 30.7342 49.338 30.7342C49.2449 30.7342 49.1714 30.8077 49.1714 30.9008C49.1714 30.9939 49.2449 31.0674 49.338 31.0674C49.4311 31.0674 49.5046 30.9939 49.5046 30.9008ZM76.2929 36.1928V53.7005L82.3738 57.2138V39.6865L76.2929 36.1928ZM67.1838 23.8203V48.3595L73.2647 51.8728V27.314L67.1838 23.8203ZM10.7211 55.3861C10.7211 55.3861 10.5104 55.4008 10.3634 55.3469C10.2164 55.2881 10.3683 55.0578 10.0743 55.1264C9.7803 55.195 9.501 55.2979 9.4373 55.293C9.3736 55.293 9.2364 55.1264 9.1433 55.2538C9.0551 55.3812 9.0061 55.3959 8.962 55.4792C8.9228 55.5625 9.1335 55.5919 9.1335 55.5919C9.1335 55.5919 10.0155 55.6458 10.0547 55.6458C10.0939 55.6458 10.8485 55.7046 10.8632 55.5919C10.8828 55.4743 10.7211 55.3861 10.7211 55.3861ZM9.8293 55.1852C9.2364 53.8475 7.1833 49.5992 5.7329 49.1043C3.9787 48.5114 5.9044 50.1039 5.7329 50.638C5.5614 51.1721 5.3752 52.1864 7.0167 52.3922C7.0167 52.3922 7.394 52.4412 6.8452 53.3771C6.2964 54.313 8.2515 53.5633 8.2515 54.019C8.2515 54.4747 7.8742 54.5678 8.3299 54.7687C8.6974 54.9353 9.2217 54.8422 9.6823 55.2293C9.7264 55.2146 9.7754 55.1999 9.8293 55.1852ZM18.6542 51.9806C18.6542 51.9806 18.4435 51.9953 18.2965 51.9414C18.1495 51.8875 18.3014 51.6523 18.0074 51.7209C17.7183 51.7846 17.4341 51.8924 17.3704 51.8875C17.3067 51.8826 17.1695 51.7209 17.0764 51.8483C16.9882 51.9757 16.9392 51.9904 16.8951 52.0737C16.8559 52.157 17.0666 52.1864 17.0666 52.1864C17.0666 52.1864 17.9486 52.2403 17.9878 52.2403C18.027 52.2403 18.7816 52.2991 18.7963 52.1864C18.8159 52.0737 18.6542 51.9806 18.6542 51.9806ZM17.7624 51.7797C17.1695 50.442 15.1164 46.1937 13.666 45.6988C11.9118 45.1059 13.8375 46.6984 13.666 47.2325C13.4945 47.7666 13.3083 48.7809 14.9498 48.9867C14.9498 48.9867 15.3271 49.0357 14.7783 49.9716C14.2295 50.9075 16.1846 50.1578 16.1846 50.6135C16.1846 51.0692 15.8073 51.1623 16.263 51.3632C16.6305 51.5298 17.1548 51.4367 17.6154 51.8238C17.6595 51.8091 17.7085 51.7944 17.7624 51.7797ZM50.2053 47.992L32.5898 58.1644L22.7996 52.5147L40.42 42.3374L50.2053 47.992ZM33.1043 57.1256L48.4119 48.286L39.9055 43.3762L24.5979 52.2158L33.1043 57.1256ZM58.4226 65.6418L58.2707 68.4544C58.3148 68.8121 58.3687 69.2825 58.3589 69.3266C58.3442 69.405 58.0845 69.5079 57.6533 69.4344C57.227 69.356 56.6733 68.4103 56.5998 68.1947C56.541 68.0379 57.0604 68.0281 57.3446 68.033C57.325 67.6361 57.2956 66.6953 57.2515 65.6026L56.3646 66.1171C56.2127 67.9007 56.0853 69.4491 56.0706 69.6255C56.0902 69.8509 56.1588 70.4781 56.0657 70.5173C55.9579 70.5614 54.3213 70.7329 53.8313 70.1498C53.3413 69.5667 55.0857 69.552 55.0857 69.552C55.0857 69.552 55.1102 69.5275 55.1494 69.4883V69.5128L55.0269 66.8815L49.044 70.336L55.3748 73.9914L63.989 68.9052L58.4226 65.6418ZM54.6643 59.2424C54.6643 59.2424 54.6692 58.2232 54.6839 56.9296C54.4781 57.0619 54.2086 57.1305 53.8705 57.0129C53.4883 56.8806 53.0228 56.3416 52.6259 55.783L50.0485 57.2677L54.6986 59.9529L54.6643 59.2424ZM56.9428 60.34C56.9281 60.3547 56.9085 60.4527 56.8889 60.6144L56.9918 60.5507C56.9722 60.4037 56.9575 60.3253 56.9428 60.34ZM58.8048 52.5882C58.9224 54.2836 59.1674 58.5221 59.1674 58.5221L58.7901 58.6593L59.0351 58.5711C59.0939 58.7426 59.187 59.0072 59.2213 59.2375L64.9935 55.832L58.8195 52.2011L58.7705 52.2305C58.7852 52.3383 58.795 52.4608 58.8048 52.5882ZM58.0698 11.5703V20.1698C58.1041 20.1061 58.1384 20.0669 58.1678 20.0914C58.2707 20.1747 58.0992 20.6843 58.0992 20.6843C58.0992 20.6843 58.3344 20.1404 58.403 20.2776C58.4716 20.4148 58.1727 21.2527 58.1727 21.2527C58.1727 21.2527 58.1237 21.5075 58.0698 21.7329V43.1018L64.1507 46.6151V15.064L58.0698 11.5703Z" fill="#FBC02D"/>
<path d="M54.5908 49.3641C54.5908 49.3641 54.9191 49.2857 54.9583 49.5307C54.9975 49.7757 54.9044 49.8688 54.8358 49.7806C54.7672 49.6875 54.6888 49.9227 54.5908 49.7365C54.4928 49.5454 54.5908 49.3641 54.5908 49.3641ZM54.6692 59.3454L54.6643 59.2376L55.1445 69.5178C55.1445 69.5178 55.512 69.9882 56.0608 69.6403C56.0608 69.6403 56.7958 60.5018 56.9379 60.3401C57.08 60.1784 57.325 68.2977 57.3446 68.234C57.3642 68.1752 57.9179 68.9053 58.2609 68.4594L58.7705 59.0563L58.7558 59.3356C57.7121 59.512 56.0853 59.6688 54.6692 59.3454ZM57.2319 49.6483C57.5357 49.6434 57.5112 49.369 57.6337 49.0603C57.7611 48.7516 57.7317 48.7026 57.5749 48.0117C57.4181 47.3208 56.4185 47.3306 56.4185 47.3306C56.4185 47.3306 55.7276 46.7573 55.1347 47.262C54.5369 47.7667 55.0024 48.4233 55.0024 48.4233C54.9828 48.6242 55.5169 48.7565 55.8011 48.8643C56.0804 48.977 55.8893 49.6091 55.8893 49.6091H56.0412L56.0461 49.3837C56.0461 49.3837 55.9677 49.1387 56.4234 48.9084C56.8791 48.6732 56.4626 49.4327 56.4626 49.4327C56.5704 49.8296 56.9281 49.6532 57.2319 49.6483ZM51.2637 52.2257L49.5732 53.2008L52.1065 54.6659L53.797 53.6908L51.2637 52.2257ZM50.2935 25.5452C50.2935 25.5452 49.5634 26.9613 49.5781 27.3533C49.5879 27.7502 48.7549 29.9013 48.7549 29.9013L48.9019 30.2443L49.4899 30.0287C49.4899 30.0287 50.0338 29.2153 50.0681 28.1912C50.1024 27.1622 50.5728 25.6285 50.5728 25.6285C50.6169 25.4864 50.2935 25.5452 50.2935 25.5452ZM49.2302 31.8074C49.1371 31.8074 49.0636 31.8809 49.0636 31.974C49.0636 32.0671 49.1371 32.1406 49.2302 32.1406C49.3233 32.1406 49.3968 32.0671 49.3968 31.974C49.3968 31.8809 49.3233 31.8074 49.2302 31.8074ZM49.338 30.7343C49.2449 30.7343 49.1714 30.8078 49.1714 30.9009C49.1714 30.994 49.2449 31.0675 49.338 31.0675C49.4311 31.0675 49.5046 30.994 49.5046 30.9009C49.5046 30.8078 49.4311 30.7343 49.338 30.7343ZM52.6896 32.9589C51.69 33.2921 48.8725 34.0859 47.4564 32.9834L47.28 41.333C47.28 41.333 47.8141 41.8867 48.4413 41.6172L49.4703 37.217L50.1759 34.7621L52.0183 39.5641C52.0183 39.5641 52.6504 43.3371 52.6504 43.4498C52.6504 43.5625 53.3364 43.8712 53.7921 43.4498C54.2478 43.0284 53.6402 38.9712 53.6402 38.9712L52.6896 32.9589ZM52.9395 21.2234C52.9395 21.2234 51.0236 19.5378 50.5287 20.6207C50.0338 21.7036 50.4552 22.1887 50.612 22.1936C50.7737 22.1985 51.2588 22.566 51.935 22.5905C52.2829 22.6052 52.1065 23.3304 52.1065 23.3304L52.3074 23.2912C52.3074 23.2912 52.278 22.7326 52.4642 22.9678C52.6504 23.203 52.5279 23.5607 52.5279 23.5607C52.5279 23.5607 53.5079 22.9433 53.4589 22.3357C53.4148 21.7281 52.9395 21.2234 52.9395 21.2234Z" fill="#045395"/>
</svg>