<svg xmlns="http://www.w3.org/2000/svg" width="86" height="86" viewBox="0 0 86 86" fill="none">
<path opacity="0.35" d="M58.4456 40.9717C58.3338 42.7218 55.8484 42.9282 54.7132 43.0916C53.578 43.255 51.7075 46.1576 50.8088 45.8996C50.2068 45.7276 50.2584 45.418 50.3616 45.2331C49.4758 46.4199 48.2374 47.254 47.3989 45.3706C46.6851 43.7667 47.6612 43.4615 48.0396 43.4056L47.2527 44.0979C47.3559 44.3516 47.8418 44.373 48.031 44.3816C48.2202 44.3902 49.6263 43.4572 49.7768 43.3325C49.8714 43.2508 49.794 43.0916 49.7252 42.9841C50.3487 42.7562 51.0066 42.4639 51.643 42.1414L51.4538 43.0401L50.8432 43.9216C50.4519 44.3645 51.3764 44.3128 51.6 44.2999C51.8236 44.287 52.2493 43.6894 52.3396 43.5819C52.4256 43.4701 52.417 43.6678 52.4686 43.8011C52.5159 43.9344 52.5632 43.7452 52.5632 43.7452C52.5632 43.7452 52.5245 43.0014 52.46 42.8079C52.3955 42.6101 52.2536 42.5499 52.2536 42.5499C52.2794 42.5843 52.2923 42.623 52.288 42.6746C52.288 42.6574 52.288 42.6402 52.288 42.623C52.2192 42.4424 52.0558 42.2875 52.3783 41.7586C53.0276 41.406 53.6296 41.0406 54.1198 40.7224C54.5842 41.1051 54.9454 41.4017 54.9454 41.4017C55.2851 41.8102 54.653 42.4252 54.8422 42.6445C55.0314 42.8638 55.7409 42.5499 55.8054 42.3005C55.8699 42.0468 55.728 40.6793 55.427 40.5847C55.126 40.4901 54.9497 40.5847 54.9497 40.5847C54.8852 40.4901 54.8164 40.3956 54.7476 40.301C55.0357 40.0946 55.2378 39.9268 55.3195 39.8322C55.4356 39.6903 55.7065 39.5828 56.0376 39.5312C56.4848 40.0816 56.9105 40.5976 56.9105 40.5976L56.588 42.1241C56.588 42.1155 56.5923 42.1112 56.5923 42.1026C56.459 42.6788 57.2674 42.1672 57.4609 42.0511C57.6501 41.935 57.7404 41.204 57.7662 41.0664C57.7877 40.9288 57.878 41.105 57.9855 41.1996C58.093 41.2942 58.0414 41.1094 58.0414 41.1094C58.0414 41.1094 57.6501 40.4773 57.5039 40.3354C57.3792 40.2193 57.2846 40.2063 57.2545 40.2106C57.2459 40.1891 57.2373 40.1806 57.2373 40.1806C57.1814 39.9613 57.104 39.7463 57.0051 39.5356C57.7748 39.6345 58.5058 40.0559 58.4456 40.9717Z" fill="#170B11"/>
<path d="M42.5959 69.7361L82.917 46.4688V48.5629L42.5959 72.8708L35.8062 68.7772V65.7543L42.5959 69.7361ZM6.75537 49.0445V51.2719L24.6735 62.0692L24.7122 59.4118L6.75537 49.0445Z" fill="#38874C"/>
<path d="M33.5787 47.1155V47.8293L32.8477 48.2636V52.2325L32.1167 51.8111V48.6979L25.4302 52.6668V56.5282L24.7379 56.1283V52.2583L22.0461 50.6845V54.5846L21.3538 54.1847V50.276V49.4547L25.4904 51.8541L28.8229 49.9019L32.1167 47.9712L33.5787 47.1155ZM65.7857 41.203L62.9391 42.8714L58.8025 40.472V41.2933V45.202L59.4948 45.6019V41.7018L62.1866 43.2756V47.1456L62.8789 47.5455V43.6841L69.5654 39.7152V42.8284L70.2964 43.2498V39.2809L71.0274 38.8466V38.1328L65.7857 41.203Z" fill="#9A1E5B"/>
<path opacity="0.39" d="M22.7341 53.3345L24.6648 52.2208L24.7336 52.2595V56.0908L22.0891 54.56L22.7298 54.1902V53.3345H22.7341ZM32.1167 51.808V50.9437L30.1946 49.8343L25.4259 52.6637L26.1182 52.2552V56.1295L25.4603 56.5122L25.4904 56.5294L32.8305 52.2251L32.1167 51.808ZM62.1823 43.2768L62.1135 43.2381L60.1828 44.3518V45.2075L59.5421 45.5773L62.1866 47.1081V43.2768H62.1823ZM69.5611 42.8253V41.961L67.639 40.8516L63.5626 43.2682V47.1425L62.9047 47.5252L62.9348 47.5424L70.2749 43.2381L69.5611 42.8253Z" fill="#170B11"/>
<path d="M50.3187 39.2433L50.4391 38.5854C50.6412 38.25 50.8132 37.9103 50.9594 37.5835L52.0989 38.981C52.0989 38.981 52.0989 38.981 52.0989 38.9853C51.8452 39.0369 51.5958 39.067 51.3507 39.0713C51.0196 39.0756 50.6713 39.1401 50.3187 39.2433ZM52.4214 37.5663C52.4343 37.4932 52.4515 37.433 52.4644 37.3943C52.4558 37.39 52.4472 37.3857 52.4386 37.3857L52.5848 36.5773C52.3526 36.6504 52.1161 36.7321 51.871 36.8224C52.0129 37.0202 52.2279 37.3728 52.2279 37.3728C52.2279 37.3728 52.301 37.4416 52.4214 37.5663ZM53.6082 37.7426C53.5308 37.9146 53.3889 38.2371 53.2771 38.4822C53.3029 38.508 53.3244 38.5381 53.3502 38.5639C53.8103 38.3575 54.2532 38.1038 54.6445 37.8372C54.3478 37.8501 53.9995 37.8243 53.6082 37.7426ZM55.9431 35.3346C56.0248 35.7775 56.0678 36.1903 56.0506 36.53C56.1151 36.4225 56.1538 36.3279 56.1581 36.2505C56.2312 35.5281 57.3922 34.6122 57.3922 34.6122L58.7983 32.4536V30.6476C58.8026 30.6433 57.7276 33.8597 55.9431 35.3346ZM49.1921 38.2715C49.1921 38.2328 49.2093 38.1167 49.2437 37.9447C47.1152 39.0111 44.862 40.5634 43.099 42.7951C39.5644 47.28 32.8134 58.3095 23.0481 58.4557C24.2134 59.1265 24.7079 59.4146 24.7079 59.4146C24.7079 59.4146 33.4541 56.6196 35.4751 53.0291C36.8425 50.5996 40.863 47.3875 40.863 47.3875C40.863 47.3875 44.4449 43.1907 45.421 42.3608C46.0703 41.8104 47.528 40.5591 49.0588 39.7679C49.1319 39.0025 49.1921 38.3661 49.1921 38.2715ZM62.836 37.6867C63.5541 34.9132 62.8747 32.6041 62.8747 32.6041L62.7801 34.8315L62.836 37.6867ZM55.311 28.6825C55.483 28.9018 55.6636 29.134 55.6851 29.3189C55.7152 29.6414 56.2269 30.0112 56.0807 30.4842C57.7405 30.5831 58.8069 30.6433 58.8069 30.6433L55.311 28.6825ZM48.818 29.4651C48.8481 29.1899 49.0373 29.1727 49.0373 29.1727L49.807 28.6911V28.6868H49.7898L49.7941 28.6438L49.807 28.532C49.7253 28.5148 49.6522 28.4847 49.6049 28.4374C49.5103 28.3428 49.4587 28.0031 49.4286 27.6548C49.0846 27.4871 49.0631 26.7518 49.1018 26.5024C49.1448 26.2573 49.7597 26.1025 50.366 26.1068C50.9723 26.1111 50.9852 26.6013 50.9852 26.6013C51.1959 26.7131 51.1916 27.4699 51.1572 27.6075C51.1271 27.7494 50.7401 27.8784 50.7401 27.8784C50.7358 27.8956 50.7272 27.9128 50.7186 27.93V28.5148L50.8992 28.4933C50.8992 28.4933 52.0344 29.1856 52.0817 29.306C52.0817 29.306 52.4816 29.7833 52.8729 30.2907C52.9761 30.2993 53.0836 30.3036 53.1868 30.3122C53.1911 30.2993 53.1954 30.2907 53.1997 30.2821C53.2083 30.2563 53.2126 30.2305 53.2212 30.2133C53.2255 30.2047 53.2298 30.1961 53.2341 30.1875C53.0277 30.0284 52.903 29.8392 52.9374 29.6328C53.0449 28.9663 53.0148 28.9319 53.1223 28.8975C53.118 28.8889 52.8557 28.3084 52.9675 28.1106C52.9675 28.1106 52.9675 28.1106 52.9675 28.1063C52.9718 28.0891 52.9761 28.0719 52.9847 28.059C52.9933 28.0461 53.0019 28.0289 53.0105 28.016C53.0664 27.887 53.1438 27.7021 53.2814 27.5559L47.8161 24.4728C47.8161 24.4728 46.9733 23.8321 43.9719 24.0342C43.9719 24.0342 32.5898 23.5526 30.9042 24.2062C30.9042 24.2062 36.6404 29.0738 43.1979 29.6027C44.948 29.7446 46.8744 29.8822 48.7578 30.0112C48.7922 29.7274 48.8137 29.521 48.818 29.4651Z" fill="#7DC68D"/>
<path d="M52.0386 30.7985L52.6105 31.6542L52.1633 33.7268C52.1633 33.7268 51.9999 33.9117 51.987 33.9633C51.9827 33.9805 51.9225 34.0235 51.8451 34.0751C51.8752 33.6838 51.9741 32.0498 52.0386 30.7985ZM69.5611 39.7124L67.639 40.8519L69.5611 41.9613V39.7124ZM52.7997 35.421C52.7997 35.421 52.8126 35.4425 52.8427 35.4812L52.89 35.034C52.8212 35.0469 52.7094 35.0727 52.5761 35.0942C52.5632 35.1501 52.546 35.1931 52.5288 35.2017C52.4084 35.2791 52.3998 35.1845 52.3869 35.1802C52.374 35.1716 52.3353 35.2275 52.2536 35.1716C52.2407 35.163 52.2321 35.1587 52.2192 35.1544C52.1117 35.1716 52.0085 35.1845 51.9139 35.1974C51.8666 35.8983 51.7591 36.6938 51.7591 36.6938C51.7806 36.7024 51.8193 36.7497 51.8709 36.8185C52.116 36.7325 52.3568 36.6508 52.5847 36.5734L52.7997 35.421ZM51.9268 34.4105C51.944 34.3288 51.9526 34.2686 51.9526 34.2686C51.9526 34.2686 51.9354 34.2772 51.9053 34.2858C51.9139 34.3245 51.9182 34.3675 51.9268 34.4105ZM60.2645 42.1548C60.2387 42.1806 60.2086 42.2107 60.1828 42.2365V44.3478L62.1135 43.2341L60.2645 42.1548ZM66.951 35.7865L70.0943 37.5968L62.8789 32.6045C62.8789 32.6045 63.6572 35.2318 62.6811 38.2461L66.951 35.7865ZM82.9126 46.4677L42.5915 69.735L35.8018 65.7532C43.5633 63.0055 46.9904 57.1231 46.9904 57.1231C46.9904 57.1231 49.2092 48.5876 57.1642 44.3951C57.7662 44.0769 58.308 43.7415 58.7982 43.3889V45.2035L59.4905 45.6034L59.5421 45.5733L62.1866 47.1041V47.1428L62.8789 47.5427L62.909 47.5255L62.9391 47.5427L70.2792 43.2384L70.2921 43.247L71.0231 42.8256V38.8481V38.6933V38.2418L82.9126 46.4677ZM49.3038 62.4766C49.2006 62.2831 48.2503 62.4508 48.2503 62.4508C48.2503 62.4508 48.7792 62.2358 48.3191 61.8875C47.859 61.5392 47.472 61.9133 47.472 61.9133C47.3645 62.0509 47.6268 62.382 47.6268 62.382C47.0936 62.3304 46.7023 62.3863 46.6722 62.7389C46.6421 63.0915 47.7171 62.6529 47.7171 62.6529C47.4591 63.0055 47.2613 63.3108 47.9192 63.4699C48.5771 63.629 48.2073 62.6314 48.2073 62.6314C48.9684 63.3667 49.407 62.6701 49.3038 62.4766ZM55.5775 52.2168C55.4743 52.0233 54.524 52.191 54.524 52.191C54.524 52.191 55.0529 51.976 54.5928 51.6277C54.1327 51.2794 53.7457 51.6535 53.7457 51.6535C53.6382 51.7911 53.9005 52.1222 53.9005 52.1222C53.3673 52.0706 52.976 52.1265 52.9459 52.4791C52.9158 52.8317 53.9908 52.3931 53.9908 52.3931C53.7328 52.7457 53.535 53.051 54.1929 53.2101C54.8508 53.3692 54.481 52.3716 54.481 52.3716C55.2464 53.1069 55.6807 52.406 55.5775 52.2168ZM62.2511 48.9144C62.1479 48.7209 61.1976 48.8886 61.1976 48.8886C61.1976 48.8886 61.7265 48.6736 61.2664 48.3253C60.8063 47.977 60.4193 48.3511 60.4193 48.3511C60.3118 48.4887 60.5741 48.8198 60.5741 48.8198C60.0409 48.7682 59.6496 48.8241 59.6195 49.1767C59.5894 49.5293 60.6644 49.0907 60.6644 49.0907C60.4064 49.4433 60.2086 49.7486 60.8665 49.9077C61.5244 50.0668 61.1546 49.0692 61.1546 49.0692C61.92 49.8045 62.3543 49.1036 62.2511 48.9144ZM55.1432 32.5056C55.0701 32.2476 54.9884 32.0154 54.9368 31.9423C54.9325 31.9423 55.0185 32.1616 55.1432 32.5056ZM22.7341 53.3348L24.6648 52.2211L22.7341 51.0902V53.3348ZM43.0989 42.7955C39.5643 47.2804 32.8133 58.3099 23.048 58.4561L6.75098 49.0477C6.75098 49.0477 15.3295 40.0478 15.8369 37.7344C16.3443 35.421 22.1278 32.454 22.6352 29.7794C23.0652 27.5219 27.391 24.6022 30.9084 24.2109C30.9084 24.2109 36.6446 29.0785 43.2021 29.6074C44.9522 29.7493 46.8786 29.8869 48.762 30.0159C48.6416 31.1511 48.3922 33.5806 48.3922 33.5806C48.3922 33.5806 48.2288 33.7655 48.2159 33.8171C48.203 33.873 47.7171 34.1267 47.773 34.1998C47.8289 34.2729 48.1729 34.1224 48.1729 34.1224C48.1729 34.1224 48.031 34.8405 48.074 34.905C48.117 34.9738 48.2503 34.9437 48.2503 34.9437C48.3277 35.0512 48.3922 34.9652 48.4739 35.0211C48.5556 35.077 48.5943 35.0211 48.6072 35.0297C48.6201 35.0383 48.6287 35.1329 48.7491 35.0512C48.8695 34.9695 48.8695 33.6795 48.8695 33.6795L49.2694 31.7445L49.4586 33.8472L49.6392 35.9628C49.4801 36.7067 49.321 37.4979 49.2393 37.9365C47.1151 39.0115 44.8619 40.5595 43.0989 42.7955ZM30.8052 43.3975C30.7751 43.7501 31.8501 43.3115 31.8501 43.3115C31.5921 43.6641 31.3943 43.9694 32.0522 44.1285C32.7101 44.2876 32.3403 43.29 32.3403 43.29C33.1057 44.0296 33.5443 43.333 33.4368 43.1395C33.3336 42.946 32.3833 43.1137 32.3833 43.1137C32.3833 43.1137 32.9122 42.8987 32.4521 42.5504C31.992 42.2021 31.605 42.5762 31.605 42.5762C31.4975 42.7138 31.7598 43.0449 31.7598 43.0449C31.2309 42.989 30.8396 43.0449 30.8052 43.3975ZM21.8311 39.2308C21.801 39.5834 22.876 39.1448 22.876 39.1448C22.618 39.4974 22.4202 39.8027 23.0781 39.9618C23.736 40.1209 23.3662 39.1233 23.3662 39.1233C24.1316 39.8629 24.5702 39.1663 24.4627 38.9728C24.3595 38.7793 23.4092 38.947 23.4092 38.947C23.4092 38.947 23.9381 38.732 23.478 38.3837C23.0179 38.0354 22.6309 38.4095 22.6309 38.4095C22.5234 38.5471 22.7857 38.8782 22.7857 38.8782C22.2525 38.8223 21.8612 38.8782 21.8311 39.2308ZM21.543 47.7362C22.2009 47.8953 21.8311 46.8977 21.8311 46.8977C22.5965 47.6373 23.0351 46.9407 22.9276 46.7472C22.8244 46.5537 21.8741 46.7214 21.8741 46.7214C21.8741 46.7214 22.403 46.5064 21.9429 46.1581C21.4828 45.8098 21.0958 46.1839 21.0958 46.1839C20.9883 46.3215 21.2506 46.6526 21.2506 46.6526C20.7174 46.601 20.3261 46.6569 20.296 47.0095C20.2659 47.3621 21.3409 46.9235 21.3409 46.9235C21.0829 47.2718 20.8851 47.5771 21.543 47.7362ZM33.5787 47.117L29.5066 44.7692L21.3581 49.4605V50.2818V54.1905L22.0504 54.5904L22.102 54.5603L24.7465 56.0911V56.1298L25.4388 56.5297L25.4689 56.5125L25.499 56.5297L32.8391 52.2254L32.852 52.234L33.583 51.8126V47.8351V47.6803V47.117H33.5787ZM37.496 38.9728C37.3928 38.7793 36.4425 38.947 36.4425 38.947C36.4425 38.947 36.9714 38.732 36.5113 38.3837C36.0512 38.0354 35.6642 38.4095 35.6642 38.4095C35.5567 38.5471 35.819 38.8782 35.819 38.8782C35.2858 38.8266 34.8945 38.8825 34.8644 39.2351C34.8343 39.5877 35.9093 39.1491 35.9093 39.1491C35.6513 39.5017 35.4535 39.807 36.1114 39.9661C36.7693 40.1252 36.3995 39.1276 36.3995 39.1276C37.1649 39.8629 37.5992 39.1663 37.496 38.9728ZM32.1167 48.6994L30.1946 49.8389L32.1167 50.9483V48.6994ZM56.0763 30.4846C56.0677 30.5061 56.0634 30.5276 56.0505 30.5491C55.943 30.7985 55.8011 30.9275 55.6205 30.9705C55.8527 31.4564 56.1279 33.5634 56.1279 33.5634C56.1279 33.5634 56.2225 33.7956 55.6678 34.174C55.7753 34.5567 55.8699 34.9523 55.9387 35.3307C57.7232 33.8601 58.7939 30.6437 58.7939 30.6437C58.7939 30.6437 57.7361 30.5835 56.0763 30.4846ZM53.0921 30.5577C53.1351 30.4459 53.1738 30.3642 53.1996 30.3083C53.0964 30.2997 52.9932 30.2954 52.8857 30.2868C52.9545 30.3771 53.0233 30.4717 53.0921 30.5577ZM47.4806 45.5432C47.472 45.5303 47.4677 45.5131 47.4591 45.5002C47.1753 45.4056 44.7673 44.6832 44.6297 47.6416C44.6297 47.6416 46.999 48.6091 47.4806 45.5432ZM58.0414 39.9489C58.0715 39.9317 58.093 39.9016 58.1016 39.8629C58.1575 39.6264 58.4456 39.1405 58.4456 39.1405C58.4456 39.1405 58.0672 38.9599 57.9382 39.0502C57.8135 39.1405 57.5942 39.248 57.5942 39.248C57.5942 39.248 57.1642 39.3684 57.1685 39.549C57.4953 39.6178 57.8049 39.7468 58.0414 39.9489ZM46.4572 50.3979C46.4572 50.3979 45.8079 50.5785 46.1132 50.8322C46.4185 51.0859 46.9087 51.2493 46.9646 51.0128C47.0205 50.7763 47.3086 50.2904 47.3086 50.2904C47.3086 50.2904 46.9302 50.1098 46.8012 50.2001C46.6722 50.2861 46.4572 50.3979 46.4572 50.3979ZM38.2657 55.6052C38.1195 56.0395 37.5433 57.3768 37.5433 57.3768C37.5433 57.3768 37.6164 57.738 38.3044 57.1618C38.9924 56.5813 38.9924 55.7858 38.9924 55.7858C38.9924 55.7858 38.4119 55.1709 38.2657 55.6052ZM33.4927 58.7872C33.4927 58.7872 35.8792 59.7633 36.3479 56.6544C36.3479 56.6501 33.6389 55.6396 33.4927 58.7872ZM58.48 40.9852C58.48 40.9852 58.4757 40.968 58.4499 40.9379C58.4499 40.9508 58.4499 40.9637 58.4499 40.9723C58.3768 42.086 57.3448 42.5762 56.3085 42.8256C56.5493 42.8256 56.7815 42.817 56.9621 42.7955C57.5727 42.7224 57.7576 42.215 58.4843 41.8538C59.2024 41.4926 58.48 40.9852 58.48 40.9852ZM47.343 52.1308C47.343 52.1308 47.3086 51.8771 46.0057 51.6621C44.7028 51.4471 43.9804 53.9411 43.9804 53.9411C43.9804 53.9411 45.2102 54.0142 45.8208 53.9411C46.4357 53.868 46.6163 53.3606 47.343 52.9994C48.0654 52.6382 47.343 52.1308 47.343 52.1308Z" fill="#C1E2CC"/>
<path d="M48.8737 33.6862C48.8737 33.6862 48.8737 34.9762 48.7533 35.0579C48.6329 35.1353 48.6243 35.0407 48.6114 35.0364C48.5985 35.0278 48.5598 35.0837 48.4781 35.0278C48.3964 34.9719 48.3319 35.0536 48.2545 34.9504C48.2545 34.9504 48.1212 34.9762 48.0782 34.9117C48.0352 34.8429 48.1771 34.1291 48.1771 34.1291C48.1771 34.1291 47.8331 34.2796 47.7772 34.2065C47.7213 34.1334 48.2072 33.8797 48.2201 33.8238C48.233 33.7679 48.3964 33.5873 48.3964 33.5873L48.8737 33.6862ZM54.6615 34.1205C54.6615 34.1205 54.4164 34.0947 54.3648 34.1205C54.3132 34.1463 53.8187 33.9012 53.7972 33.9915C53.7757 34.0818 54.0982 34.271 54.0982 34.271C54.0982 34.271 53.436 34.5806 53.4059 34.6537C53.3758 34.7268 53.479 34.8214 53.479 34.8214C53.4403 34.9461 53.5435 34.9504 53.5478 35.0493C53.5521 35.1482 53.6209 35.1482 53.6209 35.1611C53.6209 35.174 53.5521 35.2385 53.6854 35.2901C53.8187 35.3417 54.8636 34.5763 54.8636 34.5763L54.6615 34.1205ZM53.608 37.7411C53.264 37.6723 52.8856 37.5605 52.4685 37.3928C52.3481 37.6981 52.2535 39.2332 52.2535 39.2332L51.4537 43.0344L50.8431 43.9159C50.8431 43.9159 50.8861 43.9374 50.9506 43.9589C51.1355 44.0191 51.5096 44.0965 51.6515 43.7869C51.8278 43.4085 52.3223 42.8796 52.2793 42.6173C52.2019 42.4109 51.9998 42.2389 52.5416 41.4993C53.2554 40.5232 53.0877 38.8505 53.1178 38.8118C53.1479 38.7774 53.479 38.0378 53.608 37.7411ZM54.5024 29.9753L54.5067 29.9796C54.5067 29.9796 54.5067 29.9839 54.5024 29.9882C54.4938 30.0097 54.468 30.0613 54.4336 30.1258C54.425 30.1387 54.4207 30.1516 54.4121 30.1688C54.4121 30.1731 54.4078 30.1774 54.4078 30.1817C54.4035 30.186 54.4035 30.1946 54.3992 30.1989C54.3949 30.2032 54.3949 30.2075 54.3906 30.2118C54.3863 30.2161 54.3863 30.2204 54.382 30.229C54.3777 30.2376 54.3691 30.2462 54.3648 30.2591C54.3605 30.2634 54.3605 30.2677 54.3562 30.272C54.3519 30.2806 54.3476 30.2849 54.3433 30.2935C54.339 30.2978 54.339 30.3021 54.3347 30.3064C54.3304 30.315 54.3261 30.3193 54.3218 30.3279C54.3175 30.3322 54.3175 30.3365 54.3132 30.3408C54.3046 30.3494 54.3003 30.3623 54.2917 30.3709C54.2917 30.3752 54.2874 30.3752 54.2874 30.3795C54.2831 30.3881 54.2788 30.3967 54.2702 30.4053C54.2659 30.4096 54.2659 30.4139 54.2616 30.4139C54.2573 30.4225 54.2487 30.4311 54.2444 30.4397C54.2444 30.444 54.2401 30.444 54.2401 30.4483C54.2315 30.4569 54.2272 30.4698 54.2186 30.4784C54.2186 30.4827 54.2143 30.4827 54.2143 30.487C54.21 30.4956 54.2014 30.5042 54.1971 30.5085C54.1928 30.5128 54.1928 30.5128 54.1928 30.5171C54.1885 30.5257 54.1799 30.5343 54.1756 30.5386L54.1713 30.5429C54.1627 30.5515 54.1584 30.5601 54.1498 30.5687L54.1455 30.573C54.1412 30.5773 54.1326 30.5859 54.1283 30.5902L54.124 30.5945C54.1154 30.5988 54.1111 30.6074 54.1025 30.6117C54.1025 30.6117 54.1025 30.6117 54.0982 30.6117C54.0896 30.616 54.0853 30.6203 54.0767 30.6246C54.0767 30.6246 54.0724 30.6246 54.0724 30.6289C54.0681 30.6332 54.0595 30.6332 54.0552 30.6375C54.0552 30.6375 54.0509 30.6375 54.0509 30.6418C54.0466 30.6461 54.038 30.6461 54.0337 30.6461C54.0251 30.6461 54.0208 30.6461 54.0165 30.6461H54.0122C54.0079 30.6461 54.0036 30.6461 53.9993 30.6418H53.995C53.9907 30.6375 53.9821 30.6375 53.9778 30.6332C53.9735 30.6289 53.9649 30.6246 53.9606 30.616L53.9563 30.6117C53.952 30.6074 53.9477 30.5988 53.9434 30.5945C53.9434 30.5902 53.9391 30.5902 53.9391 30.5859C53.9348 30.5773 53.9305 30.5687 53.9262 30.5558C53.9133 30.5257 53.9047 30.4999 53.8961 30.4698C53.8918 30.4612 53.8918 30.4526 53.8875 30.4483C53.8789 30.4268 53.8746 30.4053 53.866 30.3838C53.866 30.3795 53.8617 30.3709 53.8617 30.3666C53.8445 30.3107 53.8273 30.2591 53.8144 30.2118C53.7542 30.0054 53.737 29.8764 53.737 29.8721L53.8144 29.6442C53.7542 29.6614 53.694 29.6743 53.6338 29.6786C53.6123 29.6786 53.5908 29.6786 53.5736 29.6786C53.5564 29.6786 53.5392 29.6743 53.5263 29.67C53.522 29.67 53.5134 29.6657 53.5091 29.6657C53.5005 29.6614 53.4919 29.6614 53.479 29.6571C53.4704 29.6528 53.4661 29.6485 53.4575 29.6442C53.4489 29.6399 53.4446 29.6356 53.436 29.6313C53.4274 29.627 53.4188 29.6184 53.4145 29.6141C53.4102 29.6098 53.4059 29.6055 53.3973 29.6012C53.393 29.5969 53.3844 29.5883 53.3801 29.584C53.3758 29.5797 53.3672 29.5711 53.3629 29.5668C53.3586 29.5625 53.3543 29.5582 53.35 29.5496C53.3414 29.541 53.3371 29.5324 53.3285 29.5238C53.3242 29.5152 53.3199 29.5109 53.3156 29.5023C53.3113 29.4937 53.307 29.4851 53.2984 29.4765C53.2941 29.4722 53.2898 29.4636 53.2898 29.455C53.2855 29.4421 53.2769 29.4335 53.2726 29.4206C53.2726 29.4163 53.2683 29.4163 53.2683 29.412C53.2597 29.3948 53.2554 29.3819 53.2468 29.3647C53.2468 29.3604 53.2468 29.3604 53.2425 29.3561C53.2339 29.3389 53.2296 29.3217 53.2253 29.3045C53.2253 29.3002 53.2253 29.3002 53.221 29.2959C53.2167 29.2787 53.2081 29.2572 53.2038 29.24C53.2038 29.2357 53.1995 29.2314 53.1995 29.2271C53.1952 29.2099 53.1909 29.1927 53.1866 29.1755C53.1866 29.1712 53.1866 29.1669 53.1823 29.1669C53.178 29.1497 53.1737 29.1282 53.1694 29.1067V29.1024C53.1651 29.0809 53.1608 29.0594 53.1565 29.0379V29.0336C53.1479 28.9863 53.1436 28.939 53.135 28.896C53.1307 28.853 53.1264 28.8143 53.1221 28.7756V28.7713C53.1178 28.7283 53.1135 28.6896 53.1135 28.6509C53.6295 28.8444 54.0122 28.1736 54.0122 28.1736C54.2401 28.5692 54.4379 28.7799 54.4379 28.7799V28.7756C54.4379 28.7713 54.4422 28.7713 54.4422 28.767C54.4422 28.7627 54.4465 28.7627 54.4465 28.7584C54.4465 28.7584 54.4465 28.7584 54.4465 28.7541C54.4508 28.7498 54.4508 28.7455 54.4551 28.7412C54.4551 28.7412 54.4551 28.7369 54.4594 28.7369C54.4637 28.7326 54.4637 28.7283 54.468 28.724L54.4723 28.7197C54.4766 28.7154 54.4766 28.7111 54.4809 28.7068C54.4809 28.7025 54.4852 28.7025 54.4852 28.6982C54.4895 28.6939 54.4938 28.6896 54.4938 28.6853C54.4938 28.681 54.4981 28.681 54.4981 28.6767C54.5024 28.6724 54.5067 28.6681 54.511 28.6638C54.5153 28.6595 54.5153 28.6595 54.5196 28.6552C54.5239 28.6509 54.5282 28.6466 54.5325 28.6423C54.5368 28.638 54.5368 28.638 54.5411 28.6337C54.5454 28.6294 54.5497 28.6251 54.554 28.6251C54.5583 28.6251 54.5583 28.6208 54.5626 28.6208C54.5669 28.6165 54.5712 28.6165 54.5755 28.6122C54.5798 28.6122 54.5798 28.6079 54.5841 28.6079C54.5884 28.6079 54.5927 28.6036 54.597 28.6036C54.6013 28.6036 54.6013 28.5993 54.6056 28.5993C54.6099 28.5993 54.6142 28.5993 54.6185 28.595C54.6228 28.595 54.6228 28.595 54.6271 28.595C54.6314 28.595 54.6357 28.595 54.64 28.595C54.6443 28.595 54.6443 28.595 54.6486 28.595C54.6529 28.595 54.6615 28.5993 54.6658 28.5993C54.6701 28.5993 54.6701 28.5993 54.6744 28.6036C54.683 28.6079 54.6916 28.6122 54.7002 28.6208C54.8378 28.7369 54.5884 28.9992 54.5884 28.9992C54.5884 28.9992 54.5798 29.0164 54.5583 29.0422C54.5454 29.0637 54.5239 29.0852 54.4981 29.1153C54.4895 29.1239 54.4809 29.1368 54.4723 29.1454L54.5024 29.9753ZM53.8316 29.8291C53.8316 29.8291 53.823 29.8334 53.8058 29.8377C53.8144 29.8334 53.823 29.8334 53.8316 29.8291ZM50.8087 27.7307C50.8087 27.7307 51.0753 27.7307 51.0366 27.4555C50.9979 27.1803 50.7614 27.2448 50.7442 27.3609V27.4641C50.7442 27.4641 50.598 27.6146 50.6066 27.3394C50.6152 27.0642 50.5077 26.918 50.5077 26.918C50.5077 26.918 49.953 27.2319 49.4026 26.9954C49.4069 27.1416 49.4112 27.348 49.4284 27.5544C49.4284 27.5544 49.4284 27.5544 49.4284 27.5587C49.4284 27.5888 49.4327 27.6189 49.437 27.6447C49.4671 27.993 49.5187 28.3327 49.6133 28.4273C49.6606 28.4746 49.7294 28.5047 49.8154 28.5219L49.8025 28.6337L49.7982 28.6767H49.8154C49.8369 28.7369 49.91 28.8616 50.1465 29.0379C50.3959 29.2271 50.5937 28.8831 50.684 28.6767L50.7399 28.5047V27.9242C50.7872 27.7737 50.8044 27.735 50.8087 27.7307ZM56.5836 42.1142C56.5836 42.1056 56.5879 42.1013 56.5879 42.0927C56.5879 42.0927 56.6567 42.0669 56.7255 42.054C56.919 42.0196 57.2802 41.9078 57.263 41.5681C57.2372 41.108 57.4092 40.4286 57.2372 40.1921C57.2372 40.1921 57.2415 40.1921 57.2458 40.1921C57.2372 40.1706 57.2286 40.162 57.2286 40.162C56.9448 39.0182 55.93 37.8916 55.8354 37.8443C55.7967 37.8228 55.7881 37.711 55.7967 37.5906C55.6204 37.6723 55.3452 37.7712 54.9668 37.8185C54.9797 37.9776 55.0055 38.1367 55.0485 38.2313C55.1603 38.485 56.9061 40.5877 56.9061 40.5877L56.5836 42.1142ZM52.1675 33.7292C52.1675 33.7292 52.0041 33.9141 51.9912 33.9657C51.9783 34.0216 51.4924 34.2753 51.5483 34.3484C51.6042 34.4215 51.9482 34.271 51.9482 34.271C51.9482 34.271 51.8063 34.9891 51.8493 35.0536C51.8923 35.1181 52.0256 35.0923 52.0256 35.0923C52.103 35.1998 52.1675 35.1138 52.2492 35.1697C52.3309 35.2256 52.3696 35.1697 52.3825 35.1783C52.3954 35.1869 52.404 35.2815 52.5244 35.1998C52.6448 35.1224 52.6448 33.8281 52.6448 33.8281L52.1675 33.7292Z" fill="white"/>
<path d="M35.8062 65.8152V68.7779L6.75537 51.2726L24.6735 62.0699L24.7122 59.4125L35.8062 65.8152ZM52.2537 39.2326C52.2537 39.2326 52.258 39.1982 52.258 39.138C52.1806 39.0649 52.1247 39.0133 52.0989 38.9832C51.8452 39.0348 51.5958 39.0649 51.3507 39.0692C51.0196 39.0735 50.6713 39.138 50.3144 39.2455L49.6479 42.8747C49.6479 42.8747 49.6866 42.9177 49.7253 42.9822C50.3488 42.7543 51.0067 42.4619 51.6431 42.1394L52.2537 39.2326ZM53.3502 38.5661C53.7759 39.0477 54.2704 39.6454 54.7434 40.2947C55.0315 40.0883 55.2336 39.9206 55.3153 39.826C55.4314 39.6841 55.7023 39.5766 56.0334 39.525C55.5776 38.9617 55.1046 38.364 55.0487 38.235C55.0057 38.1404 54.9799 37.9813 54.967 37.8222C54.8681 37.8351 54.7606 37.8437 54.6445 37.848C54.2532 38.106 53.8103 38.3597 53.3502 38.5661ZM62.836 37.6846C62.7887 37.8695 62.7328 38.0544 62.6726 38.2436L58.7983 40.4753V41.2966V43.3907C58.3081 43.7433 57.7663 44.0787 57.1643 44.3969C49.2093 48.5937 46.9905 57.1249 46.9905 57.1249C46.9905 57.1249 43.5634 63.0073 35.8019 65.755L42.5916 69.7368L24.7079 59.4125C24.7079 59.4125 33.4541 56.6218 35.4708 53.027C36.8382 50.5975 40.8587 47.3854 40.8587 47.3854C40.8587 47.3854 44.4406 43.1886 45.4167 42.3587C46.066 41.8083 47.5237 40.557 49.0545 39.7658C48.9255 41.0816 48.7492 42.7758 48.7492 42.7758L48.0397 43.4036C47.657 43.4595 46.6852 43.7648 47.399 45.3687C47.4205 45.4117 47.4377 45.4547 47.4592 45.4977C47.1754 45.4031 44.7674 44.6807 44.6298 47.6391C44.6298 47.6391 46.9991 48.6066 47.4807 45.5407C48.3149 47.1962 49.506 46.3792 50.3617 45.2311C50.2628 45.416 50.2069 45.7256 50.8089 45.8976C51.7076 46.1556 53.5738 43.2531 54.7133 43.0897C55.1261 43.0295 55.7152 42.965 56.3086 42.8231C56.5494 42.8231 56.7816 42.8145 56.9622 42.793C57.5728 42.7199 57.7577 42.2125 58.4844 41.8513C59.2068 41.4901 58.4844 40.9827 58.4844 40.9827C58.4844 40.9827 58.4801 40.9655 58.4543 40.9354C58.4715 40.5011 58.3081 40.1786 58.0458 39.9507C58.0759 39.9335 58.0974 39.9034 58.106 39.8647C58.1619 39.6282 58.45 39.1423 58.45 39.1423C58.45 39.1423 58.0716 38.9617 57.9426 39.052C57.8179 39.1423 57.5986 39.2498 57.5986 39.2498C57.5986 39.2498 57.1686 39.3702 57.1729 39.5508C57.117 39.5379 57.0611 39.5293 57.0052 39.5207C56.5967 38.6306 55.9173 37.8867 55.8399 37.8437C55.8012 37.8222 55.7926 37.7104 55.8012 37.59C55.956 37.5169 56.0291 37.4567 56.0291 37.4567V36.773C56.042 36.6956 56.0506 36.6139 56.0549 36.5279C56.1194 36.4204 56.1581 36.3258 56.1624 36.2484C56.2355 35.526 57.3965 34.6101 57.3965 34.6101L58.7639 32.5117L62.7801 34.8294L62.836 37.6846ZM36.348 56.6476C36.348 56.6476 33.6347 55.6371 33.4928 58.7804C33.4928 58.7847 35.8793 59.7608 36.348 56.6476ZM38.9882 55.7833C38.9882 55.7833 38.4077 55.1684 38.2658 55.6027C38.1196 56.037 37.5434 57.3743 37.5434 57.3743C37.5434 57.3743 37.6165 57.7355 38.3045 57.1593C38.9882 56.5788 38.9882 55.7833 38.9882 55.7833ZM46.1133 50.8297C46.4186 51.0834 46.9088 51.2468 46.9647 51.0103C47.0206 50.7738 47.3087 50.2879 47.3087 50.2879C47.3087 50.2879 46.9303 50.1073 46.8013 50.1976C46.6766 50.2879 46.4573 50.3954 46.4573 50.3954C46.4573 50.3954 45.808 50.576 46.1133 50.8297ZM47.3431 52.1283C47.3431 52.1283 47.3087 51.8746 46.0058 51.6596C44.7029 51.4446 43.9805 53.9386 43.9805 53.9386C43.9805 53.9386 45.2103 54.0117 45.8209 53.9386C46.4358 53.8655 46.6164 53.3581 47.3431 52.9969C48.0655 52.6357 47.3431 52.1283 47.3431 52.1283ZM53.0879 39.8518C53.032 40.3893 52.8944 41.0257 52.5461 41.4987C52.4773 41.5933 52.4214 41.675 52.3784 41.7524C53.0277 41.3998 53.6297 41.0343 54.1199 40.7161C53.7974 40.4495 53.4233 40.1399 53.0879 39.8518Z" fill="#A3D6FF"/>
<path d="M22.734 51.0894V54.1897L22.0417 54.5896V50.6895L22.734 51.0894ZM32.8477 52.2289L33.5787 51.8075V47.83L32.8477 48.2643V52.2289ZM25.4302 52.6632V56.5246L26.1224 56.1247V52.2504L25.4302 52.6632ZM59.4905 41.7025V45.6026L60.1828 45.2027V42.1024L59.4905 41.7025ZM62.8746 43.6805V47.5419L63.5669 47.142V43.2677L62.8746 43.6805ZM71.0231 38.6925V38.8473L70.2921 39.2816V43.2505L71.0231 42.8291V38.6925ZM52.6148 33.8249L52.7954 32.7671C52.6234 31.5932 53.1007 30.5053 53.2125 30.2774C53.1351 30.5913 53.105 31.4857 53.105 31.4857C53.105 31.4857 52.7954 31.7867 52.7997 32.2597C52.804 32.7327 53.105 32.9692 53.105 32.9692L52.8943 34.9988L52.6406 34.457C52.6535 34.1388 52.6535 33.8378 52.6535 33.8378L52.6148 33.8249ZM49.2737 31.7523L49.0415 29.168C49.0415 29.168 48.8523 29.1895 48.8222 29.4604C48.7921 29.7356 48.3922 33.5798 48.3922 33.5798C48.3922 33.5798 48.5169 33.726 48.8738 33.683L49.2737 31.7523ZM52.4213 37.5659C52.3396 37.9787 52.2751 38.8516 52.2579 39.1397C52.1762 39.0666 52.1203 39.0107 52.0988 38.9806L50.9593 37.5831C50.9636 37.5788 50.9636 37.5702 50.9679 37.5659C50.8174 37.9013 50.6454 38.241 50.439 38.585L49.6521 42.8721C49.6521 42.8721 48.9727 43.1731 48.7534 42.7775C48.7534 42.7775 49.1963 38.5248 49.1963 38.2711C49.1963 38.1378 49.4285 37.0112 49.6478 35.9706L49.4672 33.855C49.6134 34.0958 49.794 34.2549 49.996 34.3495C50.5379 34.6118 51.2087 34.4312 51.5785 34.2893C51.557 34.3151 51.5441 34.3366 51.557 34.3495C51.5914 34.3925 51.7376 34.3538 51.8408 34.3151C51.8666 34.3065 51.8924 34.2979 51.9095 34.2893C51.9181 34.3237 51.9225 34.3667 51.9268 34.4097C51.8881 34.6204 51.8236 35.0031 51.8537 35.0504C51.8709 35.0762 51.8967 35.0848 51.9225 35.0934C51.8838 35.8158 51.7591 36.693 51.7591 36.693C51.8365 36.7231 52.2278 37.3724 52.2278 37.3724C52.2278 37.3724 52.3009 37.4412 52.4213 37.5659ZM49.8198 35.1364C49.8198 35.1321 49.8241 35.1278 49.8241 35.1192C49.8241 35.1235 49.8198 35.1321 49.8198 35.1364ZM49.8885 34.8225C49.8885 34.8182 49.8929 34.8096 49.8929 34.8053C49.8886 34.8096 49.8885 34.8182 49.8885 34.8225ZM49.8671 34.9214C49.8671 34.9171 49.8671 34.9171 49.8671 34.9128C49.8671 34.9128 49.8671 34.9171 49.8671 34.9214ZM51.7677 34.8612C51.7677 34.8741 51.7634 34.887 51.7591 34.9042C51.7634 34.8913 51.7677 34.8741 51.7677 34.8612ZM51.7935 34.6935C51.7935 34.7064 51.7892 34.715 51.7892 34.7279C51.7892 34.715 51.7892 34.7021 51.7935 34.6935ZM51.8236 34.4484C51.8236 34.457 51.8236 34.4613 51.8193 34.4699C51.8193 34.4656 51.8193 34.457 51.8236 34.4484ZM51.8279 34.3968C51.8279 34.4011 51.8279 34.4097 51.8279 34.414C51.8279 34.4054 51.8279 34.4011 51.8279 34.3968ZM51.7462 34.9988C51.7505 34.9859 51.7505 34.9687 51.7548 34.9558C51.7505 34.9687 51.7462 34.9859 51.7462 34.9988ZM51.6989 35.2525C51.7032 35.2353 51.7032 35.2181 51.7075 35.2052C51.7075 35.2181 51.7032 35.2353 51.6989 35.2525ZM51.6774 35.3643C51.6817 35.3471 51.686 35.3299 51.686 35.3127C51.6817 35.3299 51.6817 35.3471 51.6774 35.3643ZM51.6516 35.4804C51.6559 35.4632 51.6602 35.446 51.6645 35.4288C51.6602 35.4417 51.6559 35.4632 51.6516 35.4804ZM51.6387 35.5449C51.6344 35.5621 51.6301 35.5836 51.6258 35.6008C51.6301 35.5793 51.6344 35.5621 51.6387 35.5449ZM51.5484 35.9061C51.5527 35.8889 51.557 35.8674 51.5613 35.8502C51.5613 35.8674 51.5527 35.8846 51.5484 35.9061ZM51.0023 37.4842C51.0109 37.4584 51.0238 37.4369 51.0324 37.4111C51.0238 37.4369 51.0152 37.4584 51.0023 37.4842ZM51.514 36.0351C51.5183 36.0179 51.5226 35.9964 51.5312 35.9792C51.5269 35.9964 51.5183 36.0179 51.514 36.0351ZM51.4753 36.1684C51.4796 36.1512 51.4882 36.1297 51.4925 36.1125C51.4882 36.1297 51.4839 36.1512 51.4753 36.1684ZM51.4151 36.3748C51.4193 36.3576 51.4237 36.3404 51.4323 36.3232C51.428 36.3404 51.4193 36.3576 51.4151 36.3748ZM51.3721 36.5124C51.3807 36.4909 51.385 36.4694 51.3936 36.4522C51.385 36.4737 51.3764 36.4952 51.3721 36.5124ZM51.3248 36.6586C51.3334 36.6371 51.3377 36.6156 51.3463 36.5941C51.3377 36.6156 51.3291 36.6371 51.3248 36.6586ZM51.2732 36.8048C51.2818 36.7833 51.2904 36.7618 51.2947 36.7403C51.2861 36.7618 51.2775 36.7833 51.2732 36.8048ZM51.0711 37.3294C51.0797 37.3036 51.0926 37.2821 51.1012 37.2606C51.0883 37.2821 51.0797 37.3036 51.0711 37.3294ZM53.1222 38.8129C53.105 38.8344 53.1437 39.2859 53.0835 39.8535C53.9091 40.5501 54.9411 41.3972 54.9411 41.3972V40.5759C54.3907 39.7804 53.7758 39.0494 53.277 38.4818C53.1996 38.6624 53.1351 38.8 53.1222 38.8129ZM56.0032 36.8564C56.0032 36.8564 53.4963 37.6218 52.7954 35.9061L52.8384 35.4761C52.8083 35.4374 52.7954 35.4159 52.7954 35.4159L52.4385 37.381C54.8637 38.37 56.0204 37.4541 56.0204 37.4541V36.7704C56.0161 36.8005 56.0118 36.8306 56.0032 36.8564Z" fill="#4A90E2"/>
<path d="M33.441 43.138C33.5442 43.3315 33.1099 44.0281 32.3445 43.2885C32.3445 43.2885 32.7143 44.2861 32.0564 44.127C31.3985 43.9679 31.5963 43.6626 31.8543 43.31C31.8543 43.31 30.7793 43.7443 30.8094 43.396C30.8395 43.0434 31.2351 42.9918 31.764 43.0391C31.764 43.0391 31.5017 42.708 31.6092 42.5704C31.6092 42.5704 31.9962 42.2006 32.4563 42.5446C32.9164 42.8929 32.3875 43.1079 32.3875 43.1079C32.3875 43.1079 33.3335 42.9445 33.441 43.138ZM21.8783 46.7156C21.8783 46.7156 22.4072 46.5006 21.9471 46.1523C21.487 45.804 21.1 46.1781 21.1 46.1781C20.9925 46.3157 21.2548 46.6468 21.2548 46.6468C20.7216 46.5952 20.3303 46.6511 20.3002 47.0037C20.2701 47.3563 21.3451 46.9177 21.3451 46.9177C21.0871 47.2703 20.8893 47.5756 21.5472 47.7347C22.2051 47.8938 21.8353 46.8962 21.8353 46.8962C22.6007 47.6358 23.0393 46.9392 22.9318 46.7457C22.8243 46.5522 21.8783 46.7156 21.8783 46.7156ZM23.4091 38.9455C23.4091 38.9455 23.938 38.7305 23.4779 38.3822C23.0178 38.0339 22.6308 38.408 22.6308 38.408C22.5233 38.5456 22.7856 38.8767 22.7856 38.8767C22.2524 38.8251 21.8611 38.881 21.831 39.2336C21.8009 39.5862 22.8759 39.1476 22.8759 39.1476C22.6179 39.5002 22.4201 39.8055 23.078 39.9646C23.7359 40.1237 23.3661 39.1261 23.3661 39.1261C24.1315 39.8657 24.5701 39.1691 24.4626 38.9756C24.3594 38.7778 23.4091 38.9455 23.4091 38.9455ZM36.4424 38.9455C36.4424 38.9455 36.9713 38.7305 36.5112 38.3822C36.0511 38.0339 35.6641 38.408 35.6641 38.408C35.5566 38.5456 35.8189 38.8767 35.8189 38.8767C35.2857 38.8251 34.8944 38.881 34.8643 39.2336C34.8342 39.5862 35.9092 39.1476 35.9092 39.1476C35.6512 39.5002 35.4534 39.8055 36.1113 39.9646C36.7692 40.1237 36.3994 39.1261 36.3994 39.1261C37.1648 39.8657 37.6034 39.1691 37.4959 38.9756C37.3927 38.7778 36.4424 38.9455 36.4424 38.9455ZM62.251 48.9129C62.1478 48.7194 61.1975 48.8871 61.1975 48.8871C61.1975 48.8871 61.7264 48.6721 61.2663 48.3238C60.8062 47.9755 60.4192 48.3496 60.4192 48.3496C60.3117 48.4872 60.574 48.8183 60.574 48.8183C60.0408 48.7667 59.6495 48.8226 59.6194 49.1752C59.5893 49.5278 60.6643 49.0892 60.6643 49.0892C60.4063 49.4418 60.2085 49.7471 60.8664 49.9062C61.5243 50.0653 61.1545 49.0677 61.1545 49.0677C61.9199 49.803 62.3542 49.1021 62.251 48.9129ZM54.5282 52.1852C54.5282 52.1852 55.0571 51.9702 54.597 51.6219C54.1369 51.2736 53.7499 51.6477 53.7499 51.6477C53.6424 51.7853 53.9047 52.1164 53.9047 52.1164C53.3715 52.0648 52.9802 52.1207 52.9501 52.4733C52.92 52.8259 53.995 52.3873 53.995 52.3873C53.737 52.7399 53.5392 53.0452 54.1971 53.2043C54.855 53.3634 54.4852 52.3658 54.4852 52.3658C55.2506 53.1054 55.6892 52.4088 55.5817 52.2153C55.4742 52.0218 54.5282 52.1852 54.5282 52.1852ZM48.2502 62.445C48.2502 62.445 48.7791 62.23 48.319 61.8817C47.8589 61.5334 47.4719 61.9075 47.4719 61.9075C47.3644 62.0451 47.6267 62.3762 47.6267 62.3762C47.0935 62.3246 46.7022 62.3805 46.6721 62.7331C46.642 63.0857 47.717 62.6471 47.717 62.6471C47.459 62.9997 47.2612 63.305 47.9191 63.4641C48.577 63.6232 48.2072 62.6256 48.2072 62.6256C48.9726 63.3652 49.4112 62.6686 49.3037 62.4751C49.1962 62.2816 48.2502 62.445 48.2502 62.445ZM33.5786 47.1155L25.4946 51.8584L21.358 49.459L29.5065 44.7677L33.5786 47.1155ZM66.9509 35.785L58.8024 40.4763L62.939 42.8757L71.023 38.1328L66.9509 35.785ZM55.801 42.2952C55.7365 42.5489 55.027 42.8585 54.8378 42.6392C54.6486 42.4199 55.285 41.805 54.941 41.3965V40.5752C54.941 40.5752 55.1216 40.4806 55.4183 40.5752C55.7193 40.6741 55.8612 42.0415 55.801 42.2952ZM48.7533 42.7768L47.2569 44.0969C47.3601 44.3506 47.846 44.3721 48.0352 44.3807C48.2244 44.3893 49.6305 43.4562 49.781 43.3315C49.9315 43.2068 49.6563 42.8757 49.6563 42.8757C49.6563 42.8757 48.9726 43.1724 48.7533 42.7768ZM51.6558 43.7873C51.5096 44.0969 51.1398 44.0195 50.9549 43.9593C50.8904 43.9378 50.8474 43.9163 50.8474 43.9163C50.4561 44.3592 51.3806 44.3076 51.6042 44.2947C51.8278 44.2818 52.2535 43.6841 52.3438 43.5766C52.4298 43.4648 52.4212 43.6626 52.4728 43.7959C52.5201 43.9292 52.5674 43.74 52.5674 43.74C52.5674 43.74 52.5287 42.9961 52.4642 42.8026C52.3997 42.6091 52.2578 42.5446 52.2578 42.5446C52.4341 42.7639 51.8493 43.3702 51.6558 43.7873ZM57.2329 40.1925C57.2329 40.1925 57.3447 40.1753 57.4909 40.3172C57.6414 40.4591 58.0284 41.0912 58.0284 41.0912C58.0284 41.0912 58.08 41.2804 57.9725 41.1815C57.865 41.0869 57.779 40.9106 57.7532 41.0482C57.7317 41.1858 57.6414 41.9168 57.4479 42.0329C57.2544 42.149 56.4503 42.665 56.5793 42.0845C56.5793 42.0845 56.6481 42.0587 56.7169 42.0458C56.9104 42.0114 57.2716 41.8996 57.2544 41.5599C57.2329 41.1084 57.4049 40.429 57.2329 40.1925ZM53.8058 29.8381C53.8187 29.8338 53.8316 29.8295 53.8316 29.8295C53.823 29.8338 53.8144 29.8338 53.8058 29.8381ZM55.672 34.1768C55.9472 35.1701 56.1579 36.2451 56.0031 36.86C56.0031 36.86 53.4962 37.6254 52.7953 35.9097L53.1006 32.9685C53.1006 32.9685 52.8039 32.732 52.7953 32.259C52.791 31.786 53.1006 31.485 53.1006 31.485C53.1006 31.485 53.135 30.4272 53.2296 30.2079C53.2984 30.0488 53.5736 29.9241 53.7241 29.8682C53.7241 29.8682 53.7671 30.1606 53.9176 30.5519C54.0681 30.9432 54.5067 29.9843 54.5067 29.9843L54.6013 30.0058C54.6013 30.0058 55.3753 30.5089 55.6118 30.9518C55.8483 31.3947 56.1321 33.5662 56.1321 33.5662C56.1321 33.5662 56.2267 33.7984 55.672 34.1768ZM54.8636 34.5724L54.6615 34.1209C54.6615 34.1209 54.4164 34.0951 54.3648 34.1209C54.3132 34.1467 53.8187 33.9016 53.7972 33.9919C53.7757 34.0822 54.0982 34.2714 54.0982 34.2714C54.0982 34.2714 53.436 34.581 53.4059 34.6541C53.3758 34.7272 53.479 34.8218 53.479 34.8218C53.4403 34.9465 53.5435 34.9508 53.5478 35.0497C53.5521 35.1486 53.6209 35.1486 53.6209 35.1615C53.6209 35.1744 53.5521 35.2389 53.6854 35.2905C53.823 35.3335 54.8636 34.5724 54.8636 34.5724ZM55.1431 32.5041C55.07 32.2461 54.9883 32.0139 54.9367 31.9408C54.9324 31.9408 55.0184 32.1601 55.1431 32.5041ZM53.092 30.5562C52.6448 29.9671 52.0944 29.3049 52.0944 29.3049C52.0471 29.1888 50.9119 28.4922 50.9119 28.4922L50.7313 28.5137L50.6797 28.6814C50.5894 28.8878 50.3916 29.2275 50.1422 29.0426C49.91 28.8706 49.8369 28.7459 49.8111 28.6857L49.0414 29.1673L49.4628 33.8543C49.996 34.7487 51.0667 34.4821 51.5741 34.2886C51.6257 34.2284 51.7547 34.1467 51.8536 34.0779C51.8794 33.6823 51.9783 32.044 52.0428 30.797L52.6147 31.6527L52.1675 33.7253L52.3653 33.7683L52.619 33.8242L52.7996 32.7664C52.662 31.8591 52.9157 31.0034 53.092 30.5562Z" fill="#FBC02D"/>
<path d="M53.8058 29.6406L53.7284 29.8685C53.5822 29.9244 53.3328 30.0405 53.2468 30.1824C53.0404 30.0233 52.9157 29.8341 52.9501 29.6277C53.0576 28.9612 53.0275 28.9268 53.135 28.8924C53.1823 29.2751 53.2984 29.6621 53.565 29.675C53.6467 29.6793 53.7284 29.6664 53.8058 29.6406ZM55.6806 29.3181C55.6505 28.9784 55.0657 28.4925 55.0012 28.1829C54.9367 27.8733 54.6701 27.4046 53.952 27.3229C53.3242 27.2541 53.1307 27.7443 53.0146 28.0023C53.006 28.0195 52.9974 28.0324 52.9888 28.0453C52.9802 28.0582 52.9759 28.0754 52.9716 28.0926C52.9716 28.0926 52.9716 28.0926 52.9716 28.0969C52.8598 28.2947 53.1264 28.8752 53.1264 28.8838C53.1178 28.7978 53.1092 28.7161 53.1049 28.6344C53.6209 28.8279 54.0036 28.1571 54.0036 28.1571C54.2315 28.5527 54.4293 28.7634 54.4293 28.7634V28.7591C54.4465 28.729 54.5626 28.5011 54.6916 28.6086C54.8292 28.7247 54.5798 28.987 54.5798 28.987C54.5798 28.987 54.5368 29.0472 54.4637 29.1332L54.4938 29.9674L54.4981 29.9717L54.5927 29.9932C54.5927 29.9932 55.3667 30.4963 55.6032 30.9392C55.6075 30.9478 55.6118 30.9521 55.6161 30.9607C55.7967 30.9177 55.9386 30.7887 56.0461 30.5393C56.274 30.0448 55.715 29.6578 55.6806 29.3181ZM50.9936 26.5962C50.9936 26.5962 50.985 26.106 50.3744 26.1017C49.7638 26.0974 49.1489 26.2479 49.1102 26.4973C49.0672 26.7424 49.093 27.482 49.437 27.6497C49.4155 27.4089 49.4069 27.1681 49.4026 26.9961C49.953 27.2326 50.5077 26.9187 50.5077 26.9187C50.5077 26.9187 50.6109 27.0606 50.6066 27.3401C50.6023 27.6196 50.7442 27.4648 50.7442 27.4648V27.3616C50.7614 27.2455 50.9979 27.181 51.0366 27.4562C51.0753 27.7314 50.8087 27.7314 50.8087 27.7314C50.8087 27.7314 50.8001 27.7529 50.7485 27.8776C50.7485 27.8776 51.1355 27.7443 51.1656 27.6067C51.2 27.4648 51.2043 26.708 50.9936 26.5962Z" fill="#045395"/>
</svg>