<svg xmlns="http://www.w3.org/2000/svg" width="109" height="109" viewBox="0 0 109 109" fill="none">
  <path d="M46.7446 43.2076L46.8209 61.4051L27.7786 50.5051V32.2422L46.7446 43.2076ZM48.8647 60.0644L53.023 62.4134V48.1725L48.8647 45.8181V60.0644ZM63.8413 51.8022L63.4271 52.0148V52.5979L64.3754 52.1129L63.8413 51.8022ZM61.8738 54.827V55.4156L62.4079 55.7317L62.397 54.5109L61.8738 54.827ZM61.8684 51.8186L61.8629 52.8759L60.8438 53.4645V54.8324L61.3615 55.1376V53.7806L62.3807 53.192L62.3861 52.1347L63.4216 51.5188L62.9039 51.1973L61.8684 51.8186ZM55.3992 86.6277L14.0664 62.8112V65.727L55.3992 89.5435L96.7974 65.7161V62.8003L55.3992 86.6277Z" fill="#2276BB"/>
  <path d="M68.8824 30.4115L46.7445 43.2081L27.7785 32.2427L49.9055 19.457L68.8824 30.4115ZM65.329 36.3248L48.8646 45.8187L53.0229 48.1731L69.4438 38.6846L65.329 36.3248ZM57.7644 51.8518L66.7733 46.6471V54.4678L57.7644 59.6671V51.8518ZM60.8491 54.833L61.3669 55.1382L61.8737 54.8275V55.4161L62.4078 55.7322L63.4379 55.0891L63.427 53.9228L64.3753 53.4105V52.1134L63.8412 51.8028L63.427 52.0153V51.5248L62.9092 51.2033L61.8737 51.8191L61.8683 52.8764L60.8491 53.465V54.833ZM31.6426 52.8383C31.6262 52.8328 31.6099 52.8274 31.5935 52.8219L31.4464 52.9091C31.4464 52.92 31.4518 52.9309 31.4518 52.9418C31.4954 52.9146 31.5608 52.8764 31.6426 52.8383ZM63.1218 57.7651C63.1218 57.7651 63.0836 58.2174 63.1599 58.5771C63.1109 58.3319 63.1109 58.0376 63.1381 57.7487C63.1327 57.7542 63.1272 57.7596 63.1218 57.7651ZM75.248 56.0592C75.2426 56.0701 75.2426 56.0756 75.2371 56.0865C75.2862 56.1083 75.3298 56.1355 75.3625 56.1519C75.3734 56.0865 75.3897 56.0156 75.4115 55.9448C75.3407 55.9829 75.2698 56.0211 75.199 56.0429C75.2317 56.0538 75.248 56.0592 75.248 56.0592ZM28.7159 56.408C28.7159 56.2718 28.7268 56.1846 28.7323 56.1846C28.7704 56.1682 29.3808 54.4733 29.5661 53.9773L26.9774 55.4543C27.3207 55.6341 27.9311 55.972 28.7159 56.408ZM87.1454 57.231V61.8689L76.0219 55.3998C76.0001 55.645 75.9565 56.1628 76.0001 56.3426C76.0546 56.3372 76.12 56.3426 76.12 56.3426C76.12 56.3426 77.1937 56.9094 77.2536 56.9421C77.3136 56.9694 77.4989 57.5089 77.5261 57.607C77.5534 57.7051 77.9567 58.757 77.9567 58.757C77.9185 58.8714 77.8313 58.9477 77.7114 58.9968C77.8313 59.302 77.9294 59.5363 77.973 59.5854C78.1202 59.7434 77.7768 61.8308 77.7768 61.8308C77.7768 61.8308 77.8095 62.9208 77.5697 63.1061C77.5697 63.1061 77.5261 63.117 77.5425 62.9862C77.5425 62.9862 77.4171 63.3023 77.4008 63.0625C77.4008 63.0625 77.2155 63.2859 77.2482 63.0625C77.2482 63.0625 77.0465 63.3241 76.9975 63.1715C76.9484 63.0189 77.1882 62.8772 77.21 62.5829C77.21 62.5829 76.883 62.7082 76.8667 62.5066C76.8667 62.5066 77.2373 62.2777 77.27 62.2014C77.3027 62.1251 77.3899 62.1523 77.4171 61.8144C77.4444 61.4765 77.1392 61.1223 77.1828 60.1576C77.1828 60.1576 77.2318 59.6835 77.2209 59.5581C77.2155 59.4982 77.1392 59.2911 77.0411 59.0731C76.9321 59.0676 76.8612 59.0567 76.8612 59.0567C76.8667 58.9804 76.7304 58.6207 76.6705 58.4736C76.665 58.4681 76.6596 58.4681 76.6541 58.4627C76.6541 58.4627 76.6269 58.539 76.5942 58.6589C76.5179 59.0894 76.5506 59.4491 76.5615 59.7489C76.5615 59.7707 76.5615 59.7925 76.5615 59.8143C76.5615 59.8361 76.5615 59.8579 76.5615 59.8742C76.5615 59.9015 76.5615 59.9287 76.5615 59.956C76.5506 60.3538 76.7522 61.1877 76.7522 61.1877C76.7522 61.1877 76.725 61.204 76.6759 61.2313C76.7032 61.4493 76.7032 61.7272 76.6596 62.0924C76.507 63.3186 76.0328 64.1961 76.2072 64.6702C76.229 64.7247 76.2454 64.7956 76.2617 64.8719C76.5778 65.0953 77.1501 65.346 77.3899 66.0382C77.597 66.6322 77.9894 66.9429 78.0766 67.0137C78.142 66.9756 78.2237 66.9865 78.2237 66.9865C78.2237 66.9865 78.5998 67.2699 78.7796 67.368C78.9595 67.4606 79.0412 67.6514 79.0412 67.6514C79.0412 67.6514 79.1339 68.2018 78.9159 68.3217C78.7687 68.4035 78.6761 68.6378 78.518 68.9267C78.4472 69.0575 78.3654 69.1992 78.2564 69.3463C78.1801 69.4499 78.0984 69.5207 78.0112 69.5752C77.9894 69.5916 77.9621 69.6025 77.9349 69.6134C77.9076 69.6243 77.8858 69.6352 77.8586 69.6461C77.597 69.7333 77.3517 69.657 77.2863 69.5425C77.2809 69.5371 77.2809 69.5316 77.2809 69.5207V69.5153C77.2809 69.5098 77.2809 69.5044 77.2809 69.4935C77.2809 69.488 77.2809 69.488 77.2809 69.4826C77.2809 69.4771 77.2809 69.4662 77.2809 69.4608C77.2809 69.4553 77.2809 69.4553 77.2809 69.4499C77.2809 69.439 77.2809 69.4281 77.2863 69.4172V69.4117C77.2918 69.3845 77.2972 69.3463 77.3081 69.3136C77.3136 69.2973 77.319 69.2755 77.3245 69.2591C77.3245 69.2591 77.3245 69.2591 77.3245 69.2537C77.3299 69.2428 77.3299 69.2264 77.3354 69.2101C77.3517 69.1447 77.3681 69.0738 77.4062 68.9975C77.5043 68.7032 77.6406 68.3653 77.6951 68.131C77.7005 68.1146 77.7005 68.0983 77.706 68.0874C77.7114 68.0765 77.7114 68.0601 77.7114 68.0492C77.7114 68.0492 77.7114 68.0492 77.7114 68.0438C77.7114 68.0329 77.7169 68.022 77.7169 68.0111V68.0056C77.7169 67.9947 77.7223 67.9838 77.7223 67.9729C77.7387 67.6895 77.6351 67.7495 77.5915 67.586L76.3707 66.4687C76.3653 66.6431 76.3489 66.7848 76.3217 66.8666C76.2181 67.2208 75.7876 69.0357 75.8203 69.0902C75.8203 69.0902 75.8148 69.0956 75.8039 69.1065C75.8039 69.1338 75.7985 69.1556 75.7985 69.1828C75.8312 69.1883 75.8639 69.2046 75.8857 69.2428C75.9456 69.3518 76.0328 69.5098 76.0928 69.6679C76.1091 69.7115 76.12 69.7496 76.1309 69.7932V69.7987C76.1309 69.8096 76.1364 69.815 76.1364 69.8259C76.1364 69.8314 76.1418 69.8368 76.1418 69.8477C76.1418 69.8532 76.1418 69.8641 76.1473 69.8695C76.1473 69.875 76.1473 69.8859 76.1527 69.8913C76.1527 69.8968 76.1527 69.9022 76.1527 69.9131C76.1527 69.924 76.1527 69.9295 76.1527 69.9404C76.1527 69.9458 76.1527 69.9513 76.1527 69.9567C76.1527 69.9731 76.1527 69.984 76.1527 70.0003C76.1473 70.0603 76.1364 70.1093 76.12 70.1529C76.0819 70.2401 76.0165 70.3055 75.8857 70.3491C75.8639 70.36 75.8366 70.3655 75.8094 70.3709C75.793 70.3764 75.7821 70.3818 75.7658 70.3873C75.6241 70.4363 75.5096 70.4472 75.357 70.5235C75.3352 70.5344 75.3189 70.5508 75.2971 70.5617C75.2535 70.5889 75.2153 70.6216 75.1772 70.6543C75.0082 70.796 74.8938 70.9486 74.8829 70.9486C74.8774 70.9486 74.7902 70.9759 74.6703 71.0031C74.5777 71.0358 74.4905 71.0413 74.4087 71.0413C74.3651 71.0413 74.3215 71.0413 74.2779 71.0413C74.2398 71.0358 74.2071 71.0358 74.1744 71.0249C74.1526 71.0195 74.1308 71.014 74.1144 71.0031C74.0654 70.9813 74.0272 70.9541 74.0054 70.9105C74 70.905 73.9945 70.8941 73.9945 70.8887C73.9945 70.8832 73.9945 70.8832 73.9945 70.8778C73.9945 70.8723 73.9891 70.8669 73.9891 70.8614C73.9891 70.856 73.9891 70.856 73.9891 70.8505C73.9891 70.8451 73.9891 70.8396 73.9891 70.8342C73.9891 70.8287 73.9891 70.8233 73.9891 70.8233C73.9891 70.8178 73.9891 70.8124 73.9891 70.8069C73.9891 70.8015 73.9891 70.796 73.9891 70.796C73.9891 70.7906 73.9891 70.7851 73.9945 70.7797C73.9945 70.7742 73.9945 70.7688 74 70.7633C74 70.7579 74.0054 70.7524 74.0054 70.747C74.0054 70.7415 74.0109 70.7361 74.0109 70.7306C74.0109 70.7252 74.0163 70.7197 74.0163 70.7143C74.0163 70.7088 74.0218 70.7034 74.0218 70.6979C74.0218 70.6925 74.0272 70.687 74.0272 70.6816C74.0327 70.6761 74.0327 70.6707 74.0381 70.6652C74.0381 70.6598 74.0436 70.6598 74.0436 70.6543C74.049 70.6489 74.049 70.638 74.0545 70.6325C74.0817 70.5944 74.1144 70.5508 74.1471 70.5126C74.158 70.5017 74.1635 70.4908 74.1744 70.4854C74.1853 70.4745 74.1907 70.4636 74.2016 70.4581C74.3815 70.2674 74.6104 70.1039 74.6104 70.1093C74.6104 70.1148 74.7466 69.9349 74.8556 69.7769C74.8611 69.7714 74.8665 69.766 74.8665 69.7551C74.872 69.7442 74.8774 69.7387 74.8829 69.7278C74.8883 69.7224 74.8883 69.7169 74.8938 69.7115C74.8992 69.7006 74.9047 69.6897 74.9101 69.6788C74.9101 69.6733 74.9156 69.6733 74.9156 69.6679C74.921 69.657 74.9319 69.6406 74.9374 69.6297C74.9374 69.6243 74.9428 69.6243 74.9428 69.6188C74.9483 69.6079 74.9483 69.6025 74.9537 69.597C74.9537 69.5916 74.9592 69.5916 74.9592 69.5861C74.9646 69.5807 74.9646 69.5698 74.9646 69.5643C74.9646 69.5589 74.9646 69.5589 74.9701 69.5534C74.9701 69.5425 74.9755 69.5371 74.9755 69.5316C74.9755 69.4717 75.0137 69.3463 75.0573 69.2537C75.0409 69.2482 75.0246 69.2428 75.0028 69.2319L75.0573 65.1716C75.0573 65.1716 74.6594 64.7138 74.6431 64.5558C74.6213 64.3977 74.1853 63.2423 74.0109 62.0706C73.9291 61.5256 73.9237 61.1441 73.94 60.8825C73.8692 60.8116 73.8419 60.768 73.8474 60.768C73.8583 60.768 74.0218 60.2067 74.0763 59.9996C74.0817 59.9778 74.0926 59.9342 74.1035 59.8797C74.1035 59.8742 74.1035 59.8688 74.109 59.8633C74.1144 59.8415 74.1144 59.8197 74.1199 59.7979C73.7111 60.2339 73.237 60.7626 73.237 60.8389C73.237 60.9697 72.7465 61.5092 72.7465 61.5092C72.7465 61.5092 72.4685 61.9071 72.3922 61.8853C72.3105 61.8635 72.4413 61.6564 72.4413 61.6564C72.4413 61.6564 72.305 61.7926 72.2124 61.8199C72.1197 61.8417 72.3268 61.5528 72.3268 61.5528C72.3268 61.5528 72.0816 61.6891 71.9998 61.6945C71.9181 61.7 72.0979 61.482 72.0979 61.482C71.8636 61.5528 71.7382 61.4929 71.9017 61.4275C72.0652 61.3621 72.5612 60.828 72.5612 60.828C72.1361 60.9043 72.0925 60.6427 72.1797 60.6699C72.2669 60.6972 72.8228 60.5555 72.8228 60.5555C72.8228 60.5555 73.4114 59.7434 73.4659 59.4873C73.5095 59.2856 74.1144 58.5117 74.3597 58.2011C74.3597 58.1902 74.3597 58.1847 74.3597 58.1847C73.9564 58.0267 73.7765 57.6125 73.7765 57.6125C73.7765 57.6125 74.2616 57.1928 74.2561 56.6478C74.2507 55.8194 74.5886 55.9339 74.5886 55.9339H74.594C74.4414 55.7431 74.3924 55.4161 74.3924 55.0673C74.2507 54.8493 74.2616 54.615 74.3106 54.4297L72.7301 53.5086V48.9306L69.4274 47.0231V52.9473L66.7624 54.4842L64.1627 55.9829L65.3672 56.468C65.3672 56.6369 65.2146 56.7841 65.0402 56.904C65.2037 57.0511 65.3072 57.1765 65.3072 57.1765C65.3072 57.1765 65.5906 57.6343 65.5089 58.8442C65.5089 58.8442 65.498 59.1766 64.6914 59.2148C64.6968 59.2311 64.6968 59.242 64.6968 59.2584C64.7186 59.569 65.4816 59.6126 65.6124 59.9015C65.7432 60.1849 66.7569 62.4085 66.7569 62.5665C66.7569 62.7246 66.8387 63.1279 66.6643 63.8146C66.4899 64.5013 66.4626 64.7792 66.4626 64.7792H66.4572C66.4463 64.8555 66.4354 64.9046 66.4354 64.9046C66.4354 64.9046 66.4681 65.9946 66.2283 66.1799C66.2283 66.1799 66.1847 66.1908 66.201 66.06C66.201 66.06 66.0757 66.3761 66.0593 66.1363C66.0593 66.1363 65.874 66.3597 65.9067 66.1363C65.9067 66.1363 65.7051 66.3979 65.656 66.2453C65.607 66.0927 65.8468 65.951 65.8686 65.6567C65.8686 65.6567 65.5416 65.782 65.5252 65.5804C65.5252 65.5804 65.8958 65.3515 65.9285 65.2752C65.9612 65.1989 66.0484 65.2261 66.0757 64.8882C66.0811 64.8065 66.0757 64.7247 66.0648 64.6375C66.0539 64.5612 66.0375 64.4522 66.0212 64.316C66.0103 64.2233 65.9939 64.1198 65.9885 63.9999C65.9449 63.5312 65.9176 62.9698 66.0103 62.7409C66.0103 62.6864 66.0103 62.6374 66.0103 62.6047C65.9994 62.4902 65.6179 61.8308 65.389 61.6019C65.3345 61.7272 64.9639 62.6374 64.9802 63.2314C64.9966 63.7492 65.3944 63.7328 65.3072 64.534C65.3127 64.7138 65.3018 64.9264 65.2691 65.1825C65.1328 66.2507 64.7186 67.1718 64.7295 67.7059C64.7622 67.7549 64.8004 67.8094 64.844 67.8585C65.0892 68.1201 65.765 68.3599 66.0321 69.1719C66.2283 69.7714 66.5171 70.0603 66.6534 70.1693C66.7133 70.0657 66.8496 70.0875 66.8496 70.0875C66.8496 70.0875 67.1984 70.3546 67.3673 70.4472C67.5363 70.5344 67.6126 70.7143 67.6126 70.7143C67.6126 70.7143 67.6998 71.232 67.4981 71.341C67.2965 71.4555 67.2038 71.8642 66.8823 72.3002C66.8714 72.3166 66.8605 72.3275 66.8496 72.3384C66.8169 72.3765 66.7842 72.4092 66.7515 72.4365C66.7079 72.4746 66.6588 72.5073 66.6152 72.5346C66.5934 72.5455 66.5662 72.5564 66.5444 72.5673C66.5226 72.5782 66.4953 72.5836 66.4735 72.5891C66.4517 72.5945 66.4299 72.6 66.4027 72.6054C66.3918 72.6054 66.3809 72.6109 66.37 72.6109C66.3482 72.6109 66.3264 72.6163 66.3046 72.6163C66.2937 72.6163 66.2828 72.6163 66.2719 72.6163C66.2283 72.6163 66.1901 72.6109 66.1574 72.6C66.092 72.5836 66.043 72.5564 66.0048 72.5237C65.9885 72.5182 65.9776 72.5182 65.9612 72.5128C65.9612 72.5128 65.9612 72.491 65.9612 72.4583V72.4528C65.9612 72.4474 65.9612 72.4419 65.9612 72.4365C65.9612 72.431 65.9612 72.431 65.9612 72.4256C65.9612 72.4201 65.9612 72.4092 65.9612 72.4038C65.9612 72.3983 65.9612 72.3983 65.9612 72.3929C65.9612 72.382 65.9612 72.3711 65.9667 72.3602V72.3547C65.9721 72.3275 65.9776 72.2948 65.983 72.2621C65.9885 72.2457 65.9939 72.2294 65.9939 72.213C65.9939 72.213 65.9939 72.213 65.9939 72.2076C65.9994 72.1912 66.0048 72.1694 66.0103 72.1531C66.0975 71.8533 66.2719 71.4228 66.3427 71.1557C66.3482 71.1285 66.3536 71.1012 66.3591 71.074C66.3591 71.0631 66.3645 71.0522 66.3645 71.0413V71.0358C66.3645 71.0249 66.3645 71.014 66.37 71.0031C66.3863 70.7197 66.2719 70.8015 66.2446 70.6053L65.0129 69.4771C65.0129 69.6406 65.0075 69.7823 64.9802 69.875C64.8767 70.2292 64.517 72.1258 64.5497 72.1749C64.5497 72.1749 64.517 72.2021 64.457 72.2403C64.457 72.2512 64.457 72.2566 64.457 72.2675C64.5061 72.2675 64.5442 72.2839 64.5715 72.3275C64.6314 72.4365 64.7186 72.5945 64.7786 72.7526C64.7949 72.7962 64.8058 72.8343 64.8167 72.8725V72.8779C64.8167 72.8888 64.8222 72.8943 64.8222 72.9052C64.8222 72.9106 64.8276 72.9161 64.8276 72.927C64.8276 72.9324 64.8276 72.9433 64.8331 72.9488C64.8331 72.9542 64.8331 72.9651 64.8385 72.9706C64.8385 72.976 64.8385 72.9815 64.8385 72.9924C64.8385 73.0033 64.8385 73.0087 64.8385 73.0196C64.8385 73.0251 64.8385 73.0305 64.8385 73.036C64.8385 73.0523 64.8385 73.0632 64.8385 73.0796C64.8331 73.1232 64.8276 73.1613 64.8167 73.1995C64.8004 73.2485 64.7786 73.2867 64.7513 73.3248C64.7132 73.3684 64.6532 73.4066 64.5715 73.4338C64.5061 73.4556 64.4298 73.4774 64.3317 73.4938C64.2336 73.5101 64.1409 73.5537 64.0537 73.6082C64.0319 73.6191 64.0101 73.6355 63.9883 73.6518C63.9447 73.6791 63.9066 73.7118 63.8684 73.7445C63.6995 73.8862 63.585 74.0388 63.5741 74.0388C63.5632 74.0388 63.4433 74.0769 63.2962 74.1042C63.2635 74.1096 63.2253 74.1151 63.1872 74.1205C63.149 74.126 63.1109 74.126 63.0782 74.1314C63.0291 74.1314 62.9801 74.1314 62.9365 74.126C62.9256 74.126 62.9147 74.1205 62.9038 74.1205C62.8602 74.1096 62.8166 74.0987 62.7839 74.0824C62.7512 74.066 62.7185 74.0388 62.7021 74.0061C62.6967 74.0006 62.6912 73.9897 62.6912 73.9788C62.6912 73.9734 62.6912 73.9734 62.6912 73.9679C62.6912 73.9625 62.6858 73.957 62.6858 73.9516C62.6858 73.9461 62.6858 73.9461 62.6858 73.9407C62.6858 73.9352 62.6858 73.9298 62.6858 73.9243C62.6858 73.9189 62.6858 73.9134 62.6858 73.9134C62.6858 73.908 62.6858 73.9025 62.6858 73.8971C62.6858 73.8916 62.6858 73.8862 62.6858 73.8862C62.6858 73.8807 62.6858 73.8753 62.6912 73.8698C62.6912 73.8644 62.6912 73.8589 62.6967 73.8535C62.6967 73.848 62.6967 73.848 62.7021 73.8426C62.7021 73.7935 62.713 73.7445 62.7512 73.7009C62.7675 73.6845 62.7948 73.6573 62.8275 73.6246C62.8329 73.6191 62.8384 73.6082 62.8438 73.6028C62.8547 73.5919 62.8602 73.581 62.8711 73.5701C62.882 73.5592 62.8874 73.5483 62.8983 73.5428C63.0618 73.3684 63.2689 73.2158 63.3016 73.194C63.3071 73.1886 63.3125 73.1831 63.318 73.1831C63.3507 73.145 63.4651 72.9978 63.5523 72.8561C63.5578 72.8507 63.5632 72.8452 63.5632 72.8343C63.5687 72.8234 63.5741 72.818 63.5796 72.8071C63.585 72.8016 63.585 72.7962 63.5905 72.7907C63.5959 72.7798 63.6014 72.7689 63.6068 72.758C63.6068 72.7526 63.6123 72.7526 63.6123 72.7471C63.6177 72.7362 63.6286 72.7199 63.6341 72.709C63.6341 72.7035 63.6395 72.7035 63.6395 72.6981C63.645 72.6872 63.645 72.6817 63.6504 72.6763C63.6504 72.6708 63.6559 72.6708 63.6559 72.6654C63.6613 72.6599 63.6613 72.649 63.6613 72.6436C63.6613 72.6381 63.6613 72.6381 63.6668 72.6327C63.6668 72.6218 63.6722 72.6163 63.6722 72.6109C63.6722 72.5455 63.7158 72.4092 63.7594 72.322C63.754 72.3166 63.7485 72.3166 63.7376 72.3111L63.7921 68.2509C63.7921 68.2509 63.3943 67.7931 63.3779 67.635C63.3561 67.477 62.9201 66.3216 62.7457 65.1498C62.6313 64.3977 62.6912 64.038 62.7457 63.8691L62.9528 62.8336L62.2062 63.6238C62.1844 63.6238 62.1626 63.6184 62.1462 63.6129C62.0209 63.7492 61.9391 63.8473 61.9391 63.88C61.9337 63.9999 61.4704 64.4631 61.4704 64.4631C61.4704 64.4631 61.2088 64.8119 61.138 64.7901C61.0671 64.7683 61.1925 64.5885 61.1925 64.5885C61.1925 64.5885 61.0671 64.7084 60.9799 64.7247C60.8982 64.7411 61.0944 64.4904 61.0944 64.4904C61.0944 64.4904 60.8709 64.6048 60.7946 64.6048C60.7183 64.6048 60.8927 64.4195 60.8927 64.4195C60.6802 64.474 60.5712 64.4141 60.7183 64.3596C60.8655 64.3051 61.3342 63.8473 61.3342 63.8473C60.9527 63.9018 60.92 63.662 61.0017 63.6892C61.0835 63.7165 61.5849 63.6075 61.5849 63.6075C61.5849 63.6075 61.683 63.4821 61.8029 63.3186C61.792 63.3023 61.7865 63.2968 61.7865 63.2968L62.9419 61.4983C62.7839 61.3076 62.6749 60.9588 63.0291 60.392C63.0291 60.392 62.882 59.4982 63.1708 59.3619C63.4597 59.2257 64.0101 59.2311 64.0101 59.2311C64.0101 59.2311 64.0265 59.1385 64.0592 59.0731C63.9556 59.1276 63.8412 59.1603 63.7267 59.1712C63.5959 59.1766 63.4924 59.1439 63.4052 59.084C63.2907 59.1058 63.0836 59.1112 62.7948 58.9477C62.7948 58.9477 62.9256 58.5935 62.9365 58.3755C62.9419 58.1629 62.8929 57.1601 63.1872 56.8767C63.2853 56.7841 63.367 56.7078 63.4488 56.6478C63.3943 56.5988 63.3507 56.5388 63.318 56.4789L57.7535 59.6889L53.012 62.4248V62.4357L49.0008 60.1685L46.8154 61.4329L32.4655 53.1871C32.5037 53.4487 32.5309 53.8411 32.5255 54.446C32.5255 54.446 32.5636 54.9147 32.6835 55.0728C32.7871 55.2145 33.6918 56.8113 33.9043 57.1983C33.9534 57.2691 33.9861 57.3127 33.9861 57.3127C33.9861 57.3127 34.5365 57.4544 34.6292 57.4272C34.7218 57.3999 34.6728 57.667 34.2477 57.5852C34.2477 57.5852 34.7491 58.1193 34.9071 58.1847C35.0652 58.2501 34.9398 58.3101 34.7109 58.2392C34.7109 58.2392 34.8908 58.4518 34.809 58.4518C34.7273 58.4463 34.482 58.3101 34.482 58.3101C34.482 58.3101 34.6891 58.5989 34.5965 58.5771C34.5038 58.5553 34.3676 58.4136 34.3676 58.4136C34.3676 58.4136 34.4984 58.6207 34.4166 58.6425C34.3349 58.6643 34.0624 58.2665 34.0624 58.2665C34.0624 58.2665 33.5773 57.7378 33.5719 57.6016C33.561 57.6016 33.5501 57.607 33.5392 57.607L32.7489 56.7241C32.7707 56.8931 32.7871 57.062 32.7925 57.2146C32.7925 57.2146 32.956 57.6179 32.8143 58.6698C36.5639 60.7462 40.7441 63.057 41.2509 63.3513C41.3872 63.226 41.5616 63.1497 41.7578 63.1497C41.8668 63.1497 41.9703 63.1715 42.063 63.2151C42.7224 62.8118 43.6217 62.8063 44.4937 63.3459L60.8982 72.8888C61.0399 72.9324 61.1816 72.9978 61.3178 73.0741L61.5413 73.2049C61.8465 73.3848 62.0917 73.6246 62.2661 73.9025C62.9092 74.1859 63.367 74.889 63.367 75.7174C63.367 76.791 62.5931 77.663 61.6339 77.663C61.1816 77.663 60.7728 77.4668 60.4622 77.1507C60.1025 77.1507 59.7428 77.0581 59.4103 76.8619L59.2632 76.7747C59.2141 76.7529 59.1705 76.7256 59.1215 76.6984L42.1338 66.8121C41.2673 66.3052 40.8912 65.2752 41.1746 64.3541C41.0711 64.2233 41.0057 64.0598 41.0057 63.88C41.0057 63.82 41.0111 63.7655 41.0275 63.711L32.7816 58.8551C32.5963 60.005 32.1767 61.1332 32.1549 61.2858C32.1331 61.4438 31.7407 61.9016 31.7407 61.9016L31.7952 65.9619C31.7843 65.9673 31.7679 65.9728 31.757 65.9782C31.8115 66.0654 31.866 66.2289 31.866 66.3052C31.866 66.3107 31.866 66.3216 31.8715 66.327C31.8715 66.327 31.8715 66.3325 31.8769 66.3379C31.8769 66.3434 31.8824 66.3488 31.8824 66.3597C31.8824 66.3652 31.8878 66.3652 31.8878 66.3706C31.8933 66.3761 31.8933 66.387 31.8987 66.3924C31.8987 66.3979 31.9042 66.3979 31.9042 66.4033C31.9096 66.4142 31.9151 66.4306 31.926 66.4415C31.926 66.4469 31.9314 66.4469 31.9314 66.4524C31.9369 66.4633 31.9423 66.4742 31.9478 66.4796C31.9532 66.4851 31.9532 66.4905 31.9587 66.496C31.9641 66.5069 31.9696 66.5123 31.975 66.5232C31.9805 66.5287 31.9859 66.5396 31.9859 66.545C32.0949 66.7085 32.2312 66.8829 32.2312 66.8775C32.2312 66.872 32.4819 67.0519 32.6672 67.259C32.6781 67.2699 32.6835 67.2808 32.6944 67.2917C32.738 67.3407 32.7707 67.3898 32.798 67.4334C32.798 67.4388 32.8034 67.4388 32.8034 67.4443C32.8089 67.4497 32.8089 67.4552 32.8143 67.4606C32.8143 67.4661 32.8198 67.4715 32.8198 67.477C32.8198 67.4824 32.8252 67.4879 32.8252 67.4933C32.8252 67.4988 32.8307 67.5042 32.8307 67.5097C32.8307 67.5151 32.8361 67.5206 32.8361 67.526C32.8361 67.5315 32.8416 67.5369 32.8416 67.5424C32.8416 67.5478 32.8416 67.5533 32.847 67.5587C32.847 67.5642 32.847 67.5696 32.8525 67.5751C32.8525 67.5805 32.8525 67.586 32.8525 67.586C32.8525 67.5914 32.8525 67.5969 32.8525 67.6023C32.8525 67.6078 32.8525 67.6132 32.8525 67.6132C32.8525 67.6187 32.8525 67.6241 32.8525 67.6296C32.8525 67.635 32.8525 67.635 32.8525 67.6405C32.8525 67.6459 32.847 67.6514 32.847 67.6568C32.847 67.6623 32.847 67.6623 32.847 67.6677C32.8416 67.6786 32.8416 67.6841 32.8361 67.695C32.8143 67.7277 32.7871 67.7549 32.7544 67.7713C32.7217 67.7931 32.6781 67.804 32.6345 67.8094C32.6236 67.8094 32.6127 67.8149 32.6018 67.8149C32.5582 67.8203 32.5091 67.8203 32.4601 67.8203C32.4219 67.8203 32.3838 67.8149 32.3511 67.8094C32.3129 67.804 32.2802 67.7985 32.2421 67.7931C32.0895 67.7658 31.9696 67.7277 31.9641 67.7277C31.9587 67.7277 31.9532 67.7222 31.9423 67.7059C31.9096 67.6732 31.8497 67.6023 31.7734 67.526C31.6317 67.3898 31.4246 67.2208 31.2066 67.1827C30.9886 67.1445 30.8632 67.0955 30.7869 67.0137C30.7542 66.981 30.7324 66.9374 30.7215 66.8884C30.7106 66.8502 30.7052 66.8121 30.6997 66.7685C30.6997 66.7576 30.6997 66.7412 30.6997 66.7249C30.6997 66.7194 30.6997 66.714 30.6997 66.7085C30.6997 66.6976 30.6997 66.6922 30.6997 66.6813C30.6997 66.6758 30.6997 66.6704 30.6997 66.6595C30.6997 66.654 30.6997 66.6431 30.7052 66.6377C30.7052 66.6322 30.7052 66.6213 30.7106 66.6159C30.7106 66.6104 30.7161 66.605 30.7161 66.5941C30.7161 66.5832 30.7215 66.5777 30.7215 66.5668V66.5614C30.7324 66.5232 30.7433 66.4796 30.7597 66.4415C30.8196 66.2834 30.9068 66.1199 30.9668 66.0164C30.9777 65.9946 30.994 65.9837 31.0104 65.9728C31.0104 65.9346 31.0104 65.8856 31.0049 65.8365C30.994 65.8256 30.9886 65.8202 30.9886 65.8202C31.0213 65.7657 30.5907 63.9563 30.4872 63.5966C30.4599 63.5094 30.449 63.3677 30.4381 63.1987L29.2718 64.2615C29.2555 64.5449 29.1083 64.4141 29.1301 64.7411C29.1301 64.752 29.1301 64.7629 29.1356 64.7738V64.7792C29.141 64.801 29.141 64.8283 29.1519 64.8501C29.1574 64.8664 29.1574 64.8773 29.1628 64.8937C29.2391 65.1989 29.4462 65.6894 29.5334 66.0164C29.5334 66.0164 29.5334 66.0164 29.5334 66.0218C29.5389 66.0382 29.5443 66.06 29.5498 66.0763C29.5607 66.1145 29.5661 66.1472 29.5716 66.1744V66.1799C29.5716 66.1908 29.577 66.2017 29.577 66.2126C29.577 66.218 29.577 66.218 29.577 66.2235C29.577 66.2344 29.577 66.2398 29.577 66.2453C29.577 66.2507 29.577 66.2507 29.577 66.2562C29.577 66.2616 29.577 66.2671 29.577 66.278V66.2834C29.577 66.2889 29.5716 66.2998 29.5716 66.3052C29.4735 66.4796 28.9503 66.5723 28.6069 66.109C28.2636 65.6403 28.1655 65.2043 27.9529 65.0844C27.7349 64.9645 27.8276 64.4141 27.8276 64.4141C27.8276 64.4141 27.9093 64.2233 28.0892 64.1307C28.1001 64.1252 28.1055 64.1198 28.1164 64.1143C28.1655 64.0762 28.2145 64.0489 28.2636 64.0217C28.4434 63.9018 28.6451 63.7492 28.6451 63.7492C28.6451 63.7492 28.6832 63.7437 28.7323 63.7492C28.7323 63.7437 28.7323 63.7437 28.7323 63.7437C28.7323 63.7437 29.201 63.4331 29.4408 62.7573C29.6806 62.0651 30.2583 61.8144 30.5689 61.591C30.5853 61.5147 30.6071 61.4438 30.6234 61.3893C30.7978 60.9152 30.3237 60.0377 30.1711 58.8115C30.1384 58.5444 30.1329 58.321 30.1384 58.1302H30.1329C30.1329 58.1302 30.1275 57.7215 30.231 57.3018L29.6588 56.9639C29.6751 57.3999 29.6206 57.6888 29.5661 57.8795C29.4953 58.1411 29.5607 58.2665 29.5607 58.2665C29.5607 58.2665 29.5007 58.3482 29.4135 58.4082C29.4081 58.4518 29.4081 58.4899 29.4081 58.5281C29.4353 58.866 29.528 58.8442 29.5552 58.915C29.5879 58.9913 29.9585 59.2202 29.9585 59.2202C29.9422 59.4219 29.6152 59.2965 29.6152 59.2965C29.6315 59.5908 29.8713 59.738 29.8277 59.8851C29.7787 60.0377 29.577 59.7761 29.577 59.7761C29.6043 59.9996 29.4244 59.7761 29.4244 59.7761C29.4026 60.0214 29.2827 59.6998 29.2827 59.6998C29.2991 59.8306 29.2555 59.8197 29.2555 59.8197C29.0157 59.6344 29.0484 58.5444 29.0484 58.5444C29.0484 58.5444 29.0375 58.4845 29.0211 58.3864C29.0157 58.3809 29.0102 58.3755 29.0048 58.37C28.7813 58.1629 28.7268 56.9803 28.7323 56.4135L26.9937 55.3889L14.0881 62.7464L55.4209 86.5629L96.8191 62.7355L87.1454 57.231ZM30.3128 57.062C30.5144 56.5715 30.1656 55.3071 30.1656 55.3071C30.1656 55.3071 29.9149 55.5197 29.6642 56.19C29.5988 56.359 29.6152 56.577 29.6315 56.8222C29.6315 56.8549 29.637 56.8822 29.637 56.9149C29.8332 57.0239 30.0348 57.1383 30.2474 57.2528C30.2637 57.1874 30.2855 57.122 30.3128 57.062Z" fill="#BEDDED"/>
  <path d="M69.4384 38.6778V52.9296L66.7734 54.4665V46.6457L57.7645 51.8505V59.6658L53.023 62.4017V48.1608L69.4384 38.6778ZM48.8647 45.8173L65.3291 36.318L68.8825 38.3617V30.4102L46.7446 43.2068L46.8209 61.4043L49.0064 60.1399L48.8592 60.0582V45.8173H48.8647ZM63.4271 51.5235L62.3916 52.1393L62.3861 53.1966L61.367 53.7852V55.1423L62.3916 54.5155L62.4025 55.7363L63.4325 55.0932L63.4216 53.9269L64.3699 53.4146V52.1175L63.4216 52.6026L63.4271 51.5235Z" fill="#4F8FBA"/>
  <path d="M74.3598 42.7652V43.4792L73.7385 43.1249V42.4219L74.3598 42.7652ZM24.9883 43.6917V44.4057L25.6096 44.0514V43.3484L24.9883 43.6917Z" fill="#A5AF44"/>
  <path d="M72.9591 41.9805L73.5804 42.3293V43.0432L72.9591 42.689V41.9805ZM77.3027 50.8095L78.251 51.2945V50.7114L77.8368 50.4988L77.3027 50.8095ZM79.2811 53.202L79.2702 54.4228L79.8043 54.1067V53.5181L79.2811 53.202ZM79.8097 51.567L79.8043 50.5097L78.7688 49.8939L78.251 50.2154L79.2865 50.8313L79.292 51.8886L80.3111 52.4772V53.8342L80.8289 53.529V52.1556L79.8097 51.567ZM25.7675 43.2612V43.9752L26.3888 43.6209V42.9179L25.7675 43.2612ZM19.5436 51.4417L19.5382 52.499L18.519 53.0876V54.4555L19.0368 54.7607V53.4091L20.0559 52.8205L20.0614 51.7632L21.0969 51.1474L20.5791 50.8258L19.5436 51.4417ZM21.0969 51.6379V52.221L22.0452 51.736L21.5111 51.4253L21.0969 51.6379ZM19.5436 54.4501V55.0387L20.0777 55.3548L20.0668 54.134L19.5436 54.4501Z" fill="#9A9F38"/>
  <path d="M72.7467 42.9257V41.5469L72.7412 53.4878L87.151 61.8645V51.0571L72.7467 42.9257ZM80.8345 53.5314L80.3167 53.8366L79.8099 53.526V54.1146L79.2758 54.4307L78.2457 53.7876L78.2566 52.6213L77.3083 52.109V50.8119L77.8424 50.5012L78.2566 50.7138V50.2233L78.7744 49.9017L79.8099 50.5176L79.8153 51.5749L80.8345 52.1635V53.5314ZM12.2026 51.9891V62.7964L26.607 54.4252V43.8577L12.2026 51.9891ZM22.0453 53.0355L21.097 53.5478L21.1079 54.7141L20.0779 55.3572L19.5438 55.0411V54.4525L19.0369 54.7631L18.5192 54.4579V53.09L19.5383 52.5014L19.5438 51.4441L20.5793 50.8282L21.097 51.1498V51.6403L21.5112 51.4277L22.0453 51.7384V53.0355Z" fill="#E5E39F"/>
  <path d="M77.7769 61.8267C77.7769 61.8267 77.8096 62.9167 77.5698 63.102C77.5698 63.102 77.5262 63.1129 77.5425 62.9821C77.5425 62.9821 77.4172 63.2982 77.4008 63.0584C77.4008 63.0584 77.2155 63.2819 77.2482 63.0584C77.2482 63.0584 77.0466 63.32 76.9975 63.1674C76.9485 63.0148 77.1883 62.8731 77.2101 62.5788C77.2101 62.5788 76.8831 62.7042 76.8667 62.5025C76.8667 62.5025 77.2373 62.2736 77.27 62.1973C77.3027 62.121 77.3899 62.1483 77.4172 61.8104C77.4444 61.4725 77.1392 61.1182 77.1828 60.1536C77.1828 60.1536 77.2319 59.6794 77.221 59.5541C77.2155 59.4941 77.1392 59.287 77.0411 59.069C77.2264 59.0799 77.5098 59.0799 77.7169 58.9927C77.8368 59.2979 77.9349 59.5323 77.9785 59.5813C78.1202 59.7394 77.7769 61.8267 77.7769 61.8267ZM76.3762 54.8071C76.3544 54.8725 76.3272 54.927 76.2999 54.9488C76.18 55.036 76.0765 54.9488 76.0765 54.9488C76.1037 55.0742 75.9021 55.2104 75.9021 55.2104C76.0002 54.8289 75.8258 54.4038 75.8258 54.4038C74.7957 54.7908 74.6268 54.224 74.6268 54.224C74.5069 54.2948 74.4088 55.0524 74.4088 55.0524C74.4033 55.0469 74.4033 55.0415 74.3979 55.036C74.3979 55.6028 74.5341 56.1042 75.0083 56.077C75.15 56.0661 75.2862 56.017 75.4116 55.9407C75.3898 56.0225 75.368 56.1097 75.3571 56.186C75.3516 56.2187 75.2808 56.2296 75.1881 56.2459C74.9865 57.0798 75.9075 56.4421 75.9184 56.3767C75.9239 56.3495 75.9566 56.3331 76.0002 56.3277C75.9566 56.1369 76.0056 55.5865 76.0274 55.3576C76.0765 55.2922 76.1037 55.2486 76.1037 55.2486C76.1037 55.2486 76.4743 55.2431 76.458 54.9434C76.4471 54.8616 76.4144 54.8235 76.3762 54.8071ZM72.8228 60.5351C72.8228 60.5351 72.2724 60.6768 72.1797 60.6495C72.0925 60.6223 72.1361 60.8893 72.5612 60.8076C72.5612 60.8076 72.0598 61.3417 71.9018 61.4071C71.7437 61.4725 71.8691 61.5324 72.098 61.4616C72.098 61.4616 71.9181 61.6741 71.9999 61.6741C72.0816 61.6687 72.3269 61.5324 72.3269 61.5324C72.3269 61.5324 72.1198 61.8213 72.2124 61.7995C72.3051 61.7777 72.4413 61.636 72.4413 61.636C72.4413 61.636 72.3105 61.8431 72.3923 61.8649C72.474 61.8867 72.7465 61.4888 72.7465 61.4888C72.7465 61.4888 73.237 60.9547 73.237 60.8185C73.237 60.7422 73.7112 60.2135 74.1199 59.7775C74.1308 59.7121 74.1417 59.6413 74.1581 59.5595C74.1581 59.5432 74.1635 59.5268 74.169 59.5105C74.1799 59.4233 74.1962 59.3361 74.2126 59.2434C74.2126 59.2325 74.218 59.2162 74.218 59.2053C74.2235 59.1671 74.2289 59.1235 74.2344 59.0854C74.2344 59.0745 74.2398 59.0581 74.2398 59.0472C74.2453 59.0309 74.2453 59.0091 74.2507 58.9927C74.3052 58.6221 74.3543 58.2788 74.3652 58.197C74.1199 58.5077 73.515 59.2816 73.4714 59.4832C73.4114 59.723 72.8228 60.5351 72.8228 60.5351ZM29.5389 58.9818C29.5062 58.9055 29.419 58.9328 29.3918 58.5949C29.3863 58.5567 29.3918 58.5131 29.3972 58.475C29.2991 58.5404 29.1574 58.5785 29.0103 58.4532C29.0266 58.5513 29.0375 58.6112 29.0375 58.6112C29.0375 58.6112 29.0048 59.7012 29.2446 59.8865C29.2446 59.8865 29.2882 59.8974 29.2719 59.7666C29.2719 59.7666 29.3972 60.0827 29.4136 59.8429C29.4136 59.8429 29.5989 60.0664 29.5662 59.8429C29.5662 59.8429 29.7678 60.1045 29.8169 59.9519C29.8659 59.7993 29.6261 59.6576 29.6043 59.3633C29.6043 59.3633 29.9313 59.4887 29.9477 59.287C29.9477 59.287 29.5716 59.0581 29.5389 58.9818ZM32.4056 53.1285C32.4111 53.6136 32.3184 54.3875 32.313 54.8071C32.3184 54.3875 32.4111 53.6081 32.4056 53.1285ZM34.9072 58.1916C34.7491 58.1262 34.2477 57.5921 34.2477 57.5921C34.6728 57.6684 34.7164 57.4068 34.6292 57.434C34.542 57.4613 33.9861 57.3196 33.9861 57.3196C33.9861 57.3196 33.9534 57.276 33.9044 57.2051C33.9371 57.2596 33.9534 57.2869 33.9534 57.2869C33.9534 57.2869 33.997 57.5049 33.5774 57.603C33.5828 57.7392 34.0679 58.2679 34.0679 58.2679C34.0679 58.2679 34.3458 58.6657 34.4221 58.6439C34.4984 58.6221 34.3731 58.415 34.3731 58.415C34.3731 58.415 34.5093 58.5513 34.602 58.5785C34.6946 58.6003 34.4875 58.3115 34.4875 58.3115C34.4875 58.3115 34.7328 58.4477 34.8145 58.4532C34.8963 58.4586 34.7164 58.2406 34.7164 58.2406C34.9453 58.3169 35.0652 58.257 34.9072 58.1916ZM61.8029 63.3037C61.683 63.4672 61.5849 63.5925 61.5849 63.5925C61.5849 63.5925 61.0835 63.6961 61.0018 63.6743C60.92 63.647 60.9527 63.8868 61.3342 63.8323C61.3342 63.8323 60.8655 64.2901 60.7184 64.3446C60.5712 64.3991 60.6857 64.4536 60.8928 64.4046C60.8928 64.4046 60.7184 64.5899 60.7947 64.5899C60.871 64.5899 61.0944 64.4754 61.0944 64.4754C61.0944 64.4754 60.8982 64.7261 60.98 64.7098C61.0617 64.6934 61.1925 64.5735 61.1925 64.5735C61.1925 64.5735 61.0672 64.7534 61.138 64.7752C61.2089 64.797 61.4705 64.4482 61.4705 64.4482C61.4705 64.4482 61.9337 63.9849 61.9392 63.865C61.9392 63.8378 62.0264 63.7342 62.1463 63.598C61.9991 63.5544 61.852 63.3691 61.8029 63.3037ZM66.0975 64.7207C66.0975 64.7207 66.0921 64.6825 66.0812 64.6226C66.0921 64.7152 66.0975 64.797 66.0921 64.8733C66.0648 65.2112 65.9722 65.1894 65.9449 65.2602C65.9122 65.3365 65.5416 65.5654 65.5416 65.5654C65.558 65.7671 65.885 65.6417 65.885 65.6417C65.8686 65.936 65.6288 66.0832 65.6724 66.2303C65.7215 66.3829 65.9231 66.1213 65.9231 66.1213C65.8959 66.3448 66.0757 66.1213 66.0757 66.1213C66.0975 66.3666 66.2174 66.045 66.2174 66.045C66.2011 66.1758 66.2447 66.1649 66.2447 66.1649C66.4845 65.9796 66.4518 64.8896 66.4518 64.8896C66.4518 64.8896 66.4572 64.846 66.4736 64.7643L66.0975 64.7207ZM64.3971 57.5812C64.3971 57.5812 63.7649 57.7828 63.4052 57.1506C63.4052 57.1506 63.3671 57.5594 63.1382 57.7501C63.1109 58.039 63.1109 58.3333 63.16 58.5785C63.209 58.8129 63.3126 59.0145 63.5088 59.0254C63.5088 59.0254 63.4761 59.0472 63.4107 59.0581C63.4924 59.1235 63.6014 59.1562 63.7322 59.1453C63.8903 59.1344 64.0374 59.069 64.1791 58.9818C64.299 58.9709 64.5497 58.9764 64.6587 59.1072C64.6642 58.7747 64.7132 58.3278 64.7132 58.3278L64.3862 58.5404C64.4516 58.2134 64.5007 57.8264 64.3971 57.5812ZM32.0296 51.1992C32.0296 51.1992 32.3511 51.5971 32.4111 51.8314C32.4111 52.4037 32.2748 52.9051 31.8007 52.8724C31.7516 52.8669 31.6971 52.8615 31.6481 52.8451C31.7516 53.2157 31.6699 53.3629 31.5227 53.401C31.2938 53.461 30.9014 53.2484 30.787 53.183C30.8633 53.0904 30.8088 52.42 30.7815 52.1584C30.7325 52.093 30.7052 52.0494 30.7052 52.0494C30.7052 52.0494 30.3346 52.044 30.351 51.7442C30.3564 51.6298 30.4055 51.5916 30.46 51.5916C30.4818 51.6352 30.509 51.6734 30.5526 51.7006C30.5526 51.7006 30.7543 51.7606 30.7815 51.7006C30.8088 51.6407 30.7488 51.9404 30.9341 52.1475C30.9341 52.1475 30.945 51.6897 31.0159 51.5916C31.0159 51.5916 31.4737 51.7769 31.659 51.6025C31.8443 51.4281 32.0296 51.1992 32.0296 51.1992ZM31.6426 52.8397C31.5609 52.8179 31.4791 52.7797 31.4028 52.7307C31.4192 52.8015 31.441 52.8724 31.4519 52.9378C31.4955 52.916 31.5663 52.8778 31.6426 52.8397Z" fill="white" stroke="#F8C09C" stroke-miterlimit="10"/>
  <path d="M30.6944 66.8058C30.6889 66.7077 30.7162 66.5932 30.7543 66.4842C31.0813 66.4406 31.0759 66.8167 31.0759 66.8167C31.0759 66.8167 31.4574 67.002 31.6318 67.0347C31.8062 67.0674 32.0569 67.6669 32.1713 67.4216C32.2367 67.2745 32.4656 67.2472 32.64 67.2527C32.7926 67.4107 32.9071 67.5906 32.8308 67.7159C32.6673 67.983 31.9697 67.7595 31.9479 67.7595C31.9261 67.7595 31.5773 67.2854 31.1903 67.22C30.8143 67.1491 30.7107 67.0401 30.6944 66.8058ZM27.9367 65.1435C28.1547 65.2634 28.2528 65.6994 28.5907 66.1681C28.934 66.6368 29.4572 66.5387 29.5553 66.3643C29.5826 66.3098 29.5608 66.179 29.5117 66.0101C29.3809 65.8956 29.1357 65.7703 28.825 66.0101C28.825 66.0101 28.6234 65.4596 28.5035 65.4596C28.3836 65.4596 28.2092 64.8819 28.2037 64.8002C28.1983 64.7348 28.2909 64.3424 28.1056 64.168C28.0947 64.1734 28.0838 64.1789 28.0729 64.1843C27.8931 64.277 27.8113 64.4677 27.8113 64.4677C27.8113 64.4677 27.7187 65.0236 27.9367 65.1435ZM75.6514 70.3864C75.2645 70.4518 74.9157 70.926 74.8939 70.926C74.8721 70.926 74.1799 71.1494 74.011 70.8824C73.9347 70.7625 74.0546 70.5826 74.2017 70.4191C74.3761 70.4191 74.605 70.4464 74.6704 70.5881C74.7849 70.8333 75.041 70.2338 75.21 70.2011C75.3789 70.1684 75.7659 69.9831 75.7659 69.9831C75.7659 69.9831 75.7604 69.6071 76.0874 69.6507C76.131 69.7651 76.1583 69.8796 76.1474 69.9722C76.1365 70.2066 76.0384 70.321 75.6514 70.3864ZM79.0413 67.6451C79.0413 67.6451 78.9596 67.4543 78.7797 67.3617C78.7688 67.3562 78.7579 67.3508 78.747 67.3453C78.5617 67.5197 78.6544 67.9121 78.6489 67.9775C78.6435 68.0593 78.4636 68.637 78.3492 68.637C78.2293 68.637 78.0276 69.1874 78.0276 69.1874C77.717 68.9476 77.4717 69.073 77.3409 69.1874C77.2919 69.3564 77.2646 69.4872 77.2973 69.5417C77.3954 69.7161 77.9186 69.8087 78.262 69.3455C78.6053 68.8768 78.7034 68.4408 78.916 68.3209C79.134 68.1955 79.0413 67.6451 79.0413 67.6451ZM64.3481 73.4711C63.9612 73.5365 63.6124 74.0107 63.5906 74.0107C63.5688 74.0107 62.8766 74.2341 62.7077 73.9671C62.6314 73.8472 62.7513 73.6673 62.8984 73.5038C63.0728 73.5038 63.3017 73.5311 63.3671 73.6728C63.4816 73.918 63.7377 73.3185 63.9067 73.2858C64.0756 73.2531 64.4626 73.0678 64.4626 73.0678C64.4626 73.0678 64.4571 72.6918 64.7841 72.7354C64.8277 72.8498 64.855 72.9643 64.8441 73.0569C64.8386 73.2913 64.7351 73.4057 64.3481 73.4711ZM67.629 70.6916C67.629 70.6916 67.5473 70.5118 67.3838 70.4246C67.3729 70.4191 67.362 70.4137 67.3511 70.4082C67.1821 70.5717 67.2639 70.9423 67.2639 71.0023C67.2584 71.084 67.0895 71.6236 66.9805 71.6236C66.8715 71.6236 66.6807 72.1413 66.6807 72.1413C66.3919 71.9179 66.163 72.0323 66.0376 72.1413C65.9886 72.2994 65.9668 72.4247 65.994 72.4738C66.0867 72.6373 66.5772 72.7245 66.8987 72.2885C67.2203 71.8525 67.3129 71.4437 67.5146 71.3293C67.7162 71.2148 67.629 70.6916 67.629 70.6916Z" fill="#A3D6FF"/>
  <path d="M41.033 63.7385L26.6941 55.291C26.6941 55.291 40.3136 62.8065 41.2565 63.357C41.1475 63.4551 41.0712 63.5859 41.033 63.7385ZM59.9118 75.7285C59.9118 76.8021 60.6857 77.6741 61.6449 77.6741C62.6041 77.6741 63.378 76.8021 63.378 75.7285C63.378 74.6548 62.6041 73.7828 61.6449 73.7828C60.6857 73.7828 59.9118 74.6548 59.9118 75.7285ZM58.4294 73.8537C57.8408 74.8674 58.1842 76.159 59.1924 76.7476L59.2687 76.7912C59.2197 76.7694 59.1761 76.7422 59.127 76.7149L42.1394 66.8286C41.1257 66.24 40.7878 64.9429 41.3764 63.9347C41.965 62.921 43.2621 62.5831 44.5047 63.3515L60.9092 72.8945C59.9827 72.6002 58.9417 72.9762 58.4294 73.8537ZM56.9797 73.6956L55.6499 72.889C55.6227 72.8727 55.6118 72.84 55.6227 72.8127L55.9715 72.1751C55.9824 72.1424 55.966 72.1042 55.9279 72.0933C55.8952 72.0824 55.857 72.0988 55.8461 72.1369L55.5137 72.7146C55.5028 72.7528 55.4537 72.7691 55.421 72.7473L52.2655 70.8398C52.2382 70.8235 52.2273 70.7908 52.2382 70.7635L52.6197 70.1313C52.6306 70.0986 52.6143 70.0605 52.5816 70.0496C52.5489 70.0387 52.5107 70.055 52.4998 70.0877L52.1347 70.6709C52.1183 70.709 52.0747 70.7254 52.042 70.7036L49.4369 69.1285C49.4097 69.1122 49.3988 69.074 49.4151 69.0468L49.7094 68.4745C49.7258 68.4418 49.7149 68.4037 49.6822 68.3873C49.6495 68.371 49.6113 68.3819 49.595 68.4146L49.3061 68.9705C49.2898 69.0032 49.2462 69.0141 49.2135 68.9977L47.0062 67.6625C46.979 67.6461 46.9681 67.608 46.9844 67.5807L47.2678 66.9976C47.2842 66.9649 47.2678 66.9267 47.2406 66.9104C47.2079 66.894 47.1697 66.9104 47.1534 66.9376L46.8809 67.499C46.8645 67.5317 46.8209 67.5426 46.7882 67.5262L44.412 66.0929C44.3848 66.0765 44.3739 66.0384 44.3902 66.0057L44.7281 65.3898C44.7445 65.3571 44.7336 65.319 44.7009 65.3026C44.6682 65.2863 44.63 65.2972 44.6137 65.3299L44.2812 65.9348C44.2649 65.9675 44.2213 65.9784 44.194 65.9566L42.45 64.9048C42.4173 64.8884 42.3792 64.8939 42.3628 64.9266C42.3465 64.9593 42.3519 64.9974 42.3846 65.0138L54.4618 72.3222C54.4891 72.3386 54.5 72.3767 54.4836 72.4094L54.2711 72.8073C54.2547 72.84 54.2656 72.8781 54.2983 72.8945C54.331 72.9108 54.3692 72.8999 54.3855 72.8672L54.5926 72.4803C54.609 72.4476 54.6526 72.4367 54.6798 72.453L56.9143 73.7992C56.947 73.8155 56.9852 73.8101 57.0015 73.7774C57.0179 73.7556 57.0124 73.712 56.9797 73.6956ZM64.1356 72.4094C64.1301 72.4149 64.1247 72.4149 64.1247 72.4149C64.1737 72.2132 63.9339 72.235 63.8631 72.2023C63.7922 72.1696 63.6778 72.4694 63.6778 72.5784C63.6778 72.622 63.6178 72.7201 63.5524 72.8291C63.5306 72.9435 63.5088 73.058 63.5361 73.0852C63.5851 73.1397 63.9121 72.8236 63.9121 72.8236L64.1356 72.4094ZM66.3973 70.987C66.4191 70.6654 66.2611 70.8126 66.2611 70.491C66.2611 70.164 66.648 70.3493 66.648 70.3493C66.648 70.3493 66.7134 71.2486 66.648 71.2813C66.5881 71.314 66.4682 71.472 66.3646 71.145C66.381 71.0796 66.3919 71.0306 66.3973 70.987ZM66.6753 63.7984C66.5009 64.4851 66.4736 64.7631 66.4736 64.7631L66.0976 64.7195C66.0976 64.7195 65.8469 63.139 66.0322 62.7193C66.1357 62.485 65.4163 61.5748 65.4163 61.5748C65.4163 61.5748 64.9803 62.5831 65.0021 63.2153C65.0239 63.8475 65.6071 63.684 65.1929 65.1827C65.1929 65.1827 65.0348 64.7249 63.9775 64.5287C62.9202 64.3325 62.7567 63.8529 62.7567 63.8529L62.9638 62.8174L62.2172 63.6077C62.0101 63.6077 61.7866 63.2807 61.7866 63.2807L62.942 61.4822C62.784 61.2914 62.675 60.9426 63.0292 60.3758C63.0292 60.3758 62.8821 59.482 63.1709 59.3458C63.4598 59.2095 64.0102 59.215 64.0102 59.215C64.0102 59.215 64.0484 59.0079 64.1083 58.997C64.1247 58.9915 64.1846 58.9861 64.2555 58.9861C64.2173 59.1114 64.1846 59.1932 64.1846 59.1932C64.3863 59.2095 64.5552 59.2095 64.6969 59.2041C64.7024 59.2204 64.7024 59.2313 64.7024 59.2477C64.7242 59.5583 65.4872 59.6019 65.618 59.8908C65.7488 60.1742 66.7625 62.3978 66.7625 62.5558C66.7679 62.7084 66.8442 63.1117 66.6753 63.7984ZM64.6915 61.2042L64.528 61.1061V60.9317L64.359 60.8336V61.008L64.2064 60.9317V61.1443L64.359 61.226V61.4168L64.528 61.5203V61.3187L64.6969 61.4222V61.2042H64.6915ZM64.4844 57.1385C64.5934 57.1276 65.3782 56.8388 65.3782 56.4518L63.5524 55.7215C63.5524 55.7215 63.22 55.7542 63.1982 55.9613L64.7405 56.6971C64.7405 56.6971 64.9095 57.035 64.4844 57.1385ZM31.4192 66.1583C31.4247 66.1637 31.4301 66.1637 31.4301 66.1637C31.3811 65.9621 31.6209 65.9839 31.6917 65.9512C31.7626 65.9185 31.877 66.2182 31.877 66.3272C31.877 66.3708 31.937 66.4689 32.0024 66.5779C32.0242 66.6924 32.046 66.8068 32.0187 66.8341C31.9697 66.8886 31.6427 66.5725 31.6427 66.5725L31.4192 66.1583ZM29.1248 64.7903C29.103 64.447 29.2665 64.605 29.2665 64.2617C29.2665 63.9183 28.8523 64.1091 28.8523 64.1091C28.8523 64.1091 28.7814 65.0628 28.8523 65.101C28.9122 65.1337 29.043 65.3026 29.152 64.9538C29.1411 64.8884 29.1302 64.8339 29.1248 64.7903ZM32.3348 55.073C32.2313 54.8114 32.5365 52.9148 32.3348 52.724C32.3076 52.6968 32.2749 52.6804 32.2367 52.6641C32.1441 52.8003 32.0024 52.8821 31.8062 52.8712C31.7571 52.8657 31.7026 52.8603 31.6536 52.8439C31.7571 53.2145 31.6754 53.3617 31.5282 53.3998C31.3974 53.438 30.193 53.7922 30.242 53.8304C30.242 53.8304 29.9096 54.0756 30.5527 55.8196C30.8361 56.5881 30.4982 57.471 30.2202 58.1958C32.095 58.5664 32.7599 57.7217 32.7599 57.7217C32.9398 56.9314 32.4384 55.3346 32.3348 55.073ZM31.0868 54.795L30.9342 54.8768V55.0675L30.7652 55.1711V54.9694L30.5963 55.073V54.8495L30.7598 54.7514V54.577L30.9287 54.4789V54.6533L31.0813 54.5716V54.795H31.0868Z" fill="#4A90E2"/>
  <path d="M12.2026 50.7737V51.9891L26.607 43.8577V42.4788L12.2026 50.7737ZM25.6151 44.0539L24.9938 44.4081V43.6942L25.6151 43.3454V44.0539ZM26.389 43.6179L25.7677 43.9721V43.2582L26.389 42.9094V43.6179ZM21.097 52.2234L22.0453 51.7384V53.0355L21.097 53.5478L21.1079 54.7141L20.0779 55.3572L20.067 54.1364L19.0424 54.7631V53.4115L20.0615 52.8229L20.067 51.7656L21.1025 51.1498L21.097 52.2234ZM28.7325 56.1801C28.7761 56.1638 29.5881 53.902 29.6208 53.8366C29.6535 53.7767 30.5855 53.0355 30.7544 53.1608C30.7544 53.1608 31.2558 53.466 31.5229 53.3952C31.3921 53.4333 30.1876 53.7876 30.2367 53.8257C30.2367 53.8257 29.9042 54.071 30.5473 55.815C30.8307 56.5834 30.4928 57.4663 30.2149 58.1912C30.2094 58.1912 30.1222 58.1857 30.1168 58.1857C30.1168 58.1857 30.1113 57.5481 30.313 57.0576C30.5146 56.5671 30.1658 55.3027 30.1658 55.3027C30.1658 55.3027 29.9151 55.5152 29.6644 56.1856C29.599 56.3545 29.6154 56.5725 29.6317 56.8178C29.6753 57.3737 29.6099 57.717 29.55 57.9405C29.4791 58.2021 29.5445 58.3274 29.5445 58.3274C29.5445 58.3274 29.2829 58.7035 28.9886 58.431C28.6998 58.1639 28.6889 56.2019 28.7325 56.1801ZM32.324 52.7085C32.3022 52.6867 32.2913 52.6867 32.2913 52.6867C32.3022 52.6921 32.3131 52.703 32.324 52.7085ZM32.7491 56.7306L33.5394 57.6135C33.9972 57.5208 33.9481 57.2919 33.9481 57.2919C33.9481 57.2919 32.7982 55.2427 32.6783 55.0847C32.5584 54.9266 32.5202 54.4579 32.5202 54.4579C32.5257 53.4224 32.4439 52.9973 32.3731 52.8229C32.4821 53.248 32.2368 54.8449 32.3295 55.0847C32.4003 55.2427 32.6401 56.0493 32.7491 56.7306ZM32.8363 67.5488C32.8363 67.5543 32.8418 67.5597 32.8418 67.5652C32.8418 67.5543 32.8418 67.5543 32.8363 67.5488ZM30.7217 66.6005C30.7217 66.6114 30.7163 66.6169 30.7163 66.6278C30.7163 66.6223 30.7163 66.6114 30.7217 66.6005ZM31.0814 66.8131C31.0814 66.8131 31.4629 67.0038 31.6319 67.0365C31.8008 67.0692 32.0515 67.6742 32.1714 67.4289C32.2423 67.2872 32.4712 67.26 32.6456 67.2654C32.6565 67.2763 32.6619 67.2872 32.6728 67.2981C32.493 67.091 32.2423 66.9112 32.2423 66.9166C32.2423 66.9221 32.106 66.7422 32.0025 66.5787C32.0025 66.5787 32.0025 66.5842 32.0079 66.5842C32.0297 66.6986 32.0461 66.8131 32.0243 66.8403C31.9698 66.8948 31.6537 66.5733 31.6537 66.5733L31.4357 66.1536C31.3812 66.11 31.076 65.8811 30.9833 66.0501C30.9234 66.1591 30.8362 66.3171 30.7762 66.4752C31.0869 66.437 31.0814 66.8131 31.0814 66.8131ZM32.8581 67.6469C32.8581 67.6415 32.8581 67.636 32.8581 67.636C32.8581 67.6415 32.8581 67.6469 32.8581 67.6469ZM32.8527 67.6088C32.8527 67.6142 32.8527 67.6197 32.8527 67.6197C32.8581 67.6142 32.8581 67.6142 32.8527 67.6088ZM32.8254 67.5161C32.8254 67.5216 32.8309 67.527 32.8309 67.5325C32.8309 67.527 32.8309 67.5216 32.8254 67.5161ZM32.6946 67.8268C32.6728 67.8322 32.651 67.8377 32.6292 67.8431C32.651 67.8431 32.6728 67.8377 32.6946 67.8268ZM32.6946 67.8268C32.7164 67.8213 32.7328 67.8104 32.7491 67.805C32.7328 67.8159 32.711 67.8213 32.6946 67.8268ZM30.7054 66.6714C30.7054 66.6659 30.7054 66.655 30.7108 66.6496C30.7108 66.655 30.7054 66.6659 30.7054 66.6714ZM32.8472 67.696C32.8472 67.7014 32.8472 67.7014 32.8418 67.7069C32.8472 67.7014 32.8472 67.696 32.8472 67.696ZM32.8581 67.6633C32.8581 67.6687 32.8581 67.6687 32.8581 67.6742C32.8527 67.6742 32.8581 67.6687 32.8581 67.6633ZM30.6999 66.6932C30.6999 66.6986 30.6999 66.7041 30.6999 66.715C30.6999 66.7095 30.6999 66.7041 30.6999 66.6932ZM32.3404 67.8431C32.3022 67.8377 32.2695 67.8322 32.2314 67.8268C32.2641 67.8322 32.3022 67.8377 32.3404 67.8431ZM29.5663 66.2735C29.5663 66.2844 29.5663 66.2953 29.5663 66.3062C29.5663 66.3008 29.5663 66.2899 29.5663 66.2735ZM29.5663 66.2735C29.5663 66.2626 29.5663 66.2517 29.5609 66.2354C29.5663 66.2463 29.5663 66.2626 29.5663 66.2735ZM28.2038 64.802C28.2093 64.8838 28.3891 65.4615 28.5036 65.4615C28.618 65.4615 28.8251 66.0119 28.8251 66.0119C29.1358 65.7721 29.381 65.8975 29.5118 66.0119C29.5391 66.0937 29.5554 66.17 29.5663 66.2299C29.5227 65.9356 29.2502 65.3089 29.1576 64.9492C29.0486 65.298 28.9178 65.129 28.8578 65.0963C28.787 65.0582 28.8578 64.1044 28.8578 64.1044C28.9178 63.7556 28.6289 63.8101 28.6289 63.8101C28.6289 63.8101 28.2529 64.0935 28.073 64.1916C28.0839 64.1862 28.0948 64.1807 28.1057 64.1753C28.291 64.3442 28.1984 64.7366 28.2038 64.802ZM27.7951 64.6276C27.7951 64.6113 27.7951 64.5949 27.8005 64.5786C27.7951 64.6004 27.7951 64.6113 27.7951 64.6276ZM28.6889 66.2844C28.7325 66.328 28.7815 66.3662 28.8306 66.3989C28.787 66.3662 28.7379 66.328 28.6889 66.2844ZM72.7412 41.5469V42.9257L87.1456 51.0571V49.8418L72.7412 41.5469ZM73.5805 43.0456L72.9592 42.6914V41.9883L73.5805 42.3371V43.0456ZM74.3599 43.4762L73.7386 43.1219V42.4189L74.3599 42.7677V43.4762ZM79.2921 51.891L80.3113 52.4796V53.8366L79.2867 53.2099L79.2758 54.4307L78.2457 53.7876L78.2566 52.6213L77.3083 52.109V50.8119L78.2566 51.2969V50.2233L79.2921 50.8391V51.891ZM75.2101 69.7452C75.2101 69.7452 74.8885 70.0613 74.834 70.0068C74.8068 69.9795 74.8286 69.8596 74.8504 69.7506C74.9212 69.6471 74.9757 69.5435 74.9757 69.4999C74.9757 69.3909 75.0902 69.0857 75.161 69.1239C75.2319 69.1566 75.4717 69.1348 75.4226 69.3364C75.4226 69.3364 75.4281 69.3364 75.4335 69.331L75.2101 69.7452ZM77.6953 68.1211C77.8043 68.4699 77.9351 68.3009 77.995 68.2682C78.0659 68.2301 77.995 67.2763 77.995 67.2763C77.995 67.2763 77.5808 67.0801 77.5808 67.4289C77.5808 67.7777 77.7443 67.6142 77.7225 67.9576C77.7225 68.0066 77.7116 68.0611 77.6953 68.1211ZM77.9569 58.7525C77.8206 59.194 76.856 59.0523 76.856 59.0523C76.8614 58.9542 76.6434 58.4037 76.6434 58.4037C76.5017 58.9487 76.5453 59.3847 76.5562 59.7444C76.5562 59.7662 76.5562 59.788 76.5562 59.8098C76.5562 59.8316 76.5562 59.8534 76.5562 59.8698C76.5562 59.897 76.5562 59.9243 76.5562 59.9515C76.5453 60.3494 76.747 61.1832 76.747 61.1832C76.747 61.1832 76.0167 61.6628 75.0738 61.4285C74.131 61.1941 73.8367 60.7418 73.8476 60.7418C73.8585 60.7418 74.022 60.1804 74.0765 59.9733C74.0819 59.9515 74.0928 59.9079 74.1037 59.8534C74.1037 59.848 74.1037 59.8425 74.1092 59.8371C74.1255 59.7608 74.1419 59.6627 74.1582 59.5482C74.1582 59.5319 74.1637 59.5155 74.1691 59.4992C74.18 59.412 74.1964 59.3248 74.2127 59.2321C74.2127 59.2212 74.2182 59.2049 74.2182 59.194C74.2236 59.1558 74.2291 59.1122 74.2345 59.0741C74.2345 59.0632 74.24 59.0468 74.24 59.0359C74.2454 59.0196 74.2454 58.9978 74.2509 58.9814C74.3163 58.5563 74.3708 58.1639 74.3708 58.1639C73.9675 58.0059 73.7876 57.5917 73.7876 57.5917C73.7876 57.5917 74.2727 57.172 74.2672 56.627C74.2618 55.7986 74.5997 55.9131 74.5997 55.9131H74.6051C74.6978 56.033 74.8286 56.0984 75.0139 56.0875C75.0793 56.082 75.1447 56.0711 75.2046 56.0493C75.2373 56.0602 75.2537 56.0657 75.2537 56.0657C74.8667 57.1829 75.9131 56.4581 75.924 56.3927C75.9349 56.3273 76.1202 56.3436 76.1202 56.3436C76.1202 56.3436 77.1939 56.9104 77.2538 56.9431C77.3138 56.9704 77.4991 57.5099 77.5263 57.608C77.5536 57.7061 77.9569 58.7525 77.9569 58.7525ZM62.8767 73.5438C62.8222 73.6038 62.7786 73.6583 62.7459 73.7182C62.7786 73.6583 62.8222 73.5983 62.8767 73.5438ZM62.686 73.8926C62.686 73.8872 62.686 73.8817 62.686 73.8817C62.686 73.8872 62.686 73.8926 62.686 73.8926ZM62.735 73.7291C62.7296 73.7346 62.7296 73.74 62.7241 73.7455C62.7296 73.74 62.735 73.7346 62.735 73.7291ZM62.7078 73.7945C62.7078 73.8 62.7023 73.8054 62.7023 73.8109C62.7023 73.8 62.7078 73.8 62.7078 73.7945ZM64.8496 72.9389C64.8496 72.9334 64.8496 72.9225 64.8442 72.9171C64.8442 72.9225 64.8496 72.928 64.8496 72.9389ZM62.904 73.5111C63.0784 73.5111 63.3073 73.5384 63.3727 73.6801C63.4871 73.9253 63.7433 73.3258 63.9122 73.2931C64.0812 73.2604 64.4681 73.0751 64.4681 73.0751C64.4681 73.0751 64.4627 72.6991 64.7897 72.7427C64.7297 72.5846 64.6425 72.4211 64.5826 72.3176C64.4899 72.1486 64.1793 72.3775 64.1248 72.4157L63.9013 72.8353C63.9013 72.8353 63.5798 73.1514 63.5253 73.0969C63.498 73.0697 63.5198 72.9498 63.5416 72.8408L63.5471 72.8353C63.4381 72.9988 63.3018 73.1732 63.3018 73.1678C63.3018 73.1623 63.0511 73.3422 62.8658 73.5493C62.8876 73.5329 62.8931 73.522 62.904 73.5111ZM64.8551 72.9825C64.8551 72.977 64.8551 72.9716 64.8551 72.9607C64.8551 72.9661 64.8551 72.9716 64.8551 72.9825ZM64.7951 72.7427C64.8115 72.7863 64.8224 72.8244 64.8333 72.8626C64.8224 72.8244 64.8115 72.7808 64.7951 72.7427ZM64.8387 72.8953C64.8387 72.8844 64.8333 72.8789 64.8333 72.868C64.8387 72.8789 64.8387 72.8844 64.8387 72.8953ZM63.4108 74.0616C63.4435 74.0561 63.4708 74.0507 63.4926 74.0398C63.4708 74.0452 63.4381 74.0561 63.4108 74.0616ZM63.5525 74.0234C63.5634 74.018 63.5743 74.018 63.5798 74.018C63.5743 74.018 63.5634 74.0234 63.5525 74.0234ZM62.6914 73.8545C62.6914 73.8599 62.6914 73.8654 62.6914 73.8654C62.6914 73.8599 62.6914 73.8599 62.6914 73.8545ZM63.5907 74.0125C63.5907 74.0125 63.5852 74.0125 63.5798 74.018C63.5852 74.018 63.5907 74.0125 63.5907 74.0125ZM63.2419 74.0888C63.2637 74.0834 63.2909 74.0834 63.3127 74.0779C63.2909 74.0834 63.2637 74.0888 63.2419 74.0888ZM62.6914 73.9199C62.6914 73.9144 62.6914 73.9144 62.6914 73.909C62.6914 73.9144 62.6914 73.9199 62.6914 73.9199ZM62.7078 73.9744C62.7241 74.0016 62.7459 74.018 62.7677 74.0343C62.7459 74.018 62.7241 73.9962 62.7078 73.9744ZM62.6969 73.9471C62.6969 73.9417 62.6969 73.9417 62.6969 73.9362C62.6969 73.9417 62.6969 73.9471 62.6969 73.9471ZM63.1274 74.0997C63.1002 74.0997 63.0784 74.0997 63.0511 74.0997C63.0784 74.1052 63.1056 74.1052 63.1274 74.0997ZM65.9832 72.3448C65.9832 72.3557 65.9778 72.3666 65.9778 72.3775C65.9832 72.3721 65.9832 72.3557 65.9832 72.3448ZM65.9887 72.3394C65.9996 72.2849 66.0159 72.214 66.0377 72.1377C66.1631 72.0287 66.392 71.9143 66.6808 72.1377C66.6808 72.1377 66.8716 71.62 66.9806 71.62C67.0896 71.62 67.2585 71.0804 67.264 70.9987C67.2694 70.9333 67.1822 70.5681 67.3512 70.4046C67.3621 70.4101 67.373 70.4155 67.3784 70.421C67.2095 70.3283 66.8607 70.0667 66.8607 70.0667C66.8607 70.0667 66.5936 70.0177 66.6481 70.3447C66.6481 70.3447 66.7135 71.2439 66.6481 71.2766C66.5882 71.3093 66.4683 71.4674 66.3647 71.1404C66.283 71.4783 66.0268 72.0669 65.9887 72.3394ZM65.9832 72.4484C65.9832 72.4538 65.9887 72.4647 65.9887 72.4702C65.9887 72.4647 65.9887 72.4538 65.9832 72.4484ZM67.6455 70.8188C67.6455 70.7916 67.64 70.7643 67.64 70.7425C67.64 70.7643 67.64 70.7861 67.6455 70.8188ZM67.6346 70.7425C67.6291 70.7098 67.6291 70.6935 67.6291 70.6935C67.6291 70.6935 67.6346 70.7098 67.6346 70.7425ZM66.0813 72.5465C66.065 72.541 66.0541 72.5301 66.0432 72.5247C66.0541 72.5301 66.0704 72.541 66.0813 72.5465ZM67.4765 71.3475C67.4874 71.3366 67.4983 71.3311 67.5147 71.3202C67.531 71.3093 67.5365 71.3039 67.5474 71.293C67.5365 71.3039 67.5256 71.3093 67.5147 71.3202C67.5038 71.3311 67.4874 71.3366 67.4765 71.3475ZM67.5964 71.2221C67.6073 71.1949 67.6182 71.1622 67.6291 71.124C67.6237 71.1622 67.6128 71.1949 67.5964 71.2221ZM66.8988 72.2849C67.0405 72.0941 67.1332 71.9088 67.2149 71.7508C67.1332 71.9088 67.0351 72.0941 66.8988 72.2849ZM67.5474 71.2984C67.5692 71.2766 67.5855 71.2548 67.5964 71.2221C67.5855 71.2494 67.5692 71.2766 67.5474 71.2984ZM66.4247 72.5901C66.4465 72.5846 66.4683 72.5792 66.4955 72.5737C66.4737 72.5846 66.4465 72.5901 66.4247 72.5901ZM66.2666 72.601C66.2448 72.601 66.2285 72.5955 66.2067 72.5901C66.223 72.5955 66.2448 72.5955 66.2666 72.601ZM66.6318 72.5192C66.5991 72.5356 66.5609 72.5519 66.5282 72.5628C66.5664 72.5519 66.5991 72.5356 66.6318 72.5192ZM66.1522 72.5792C66.1358 72.5737 66.1195 72.5683 66.1031 72.5628C66.1195 72.5628 66.1358 72.5737 66.1522 72.5792ZM63.3563 55.7768C63.3618 55.7714 63.3672 55.7714 63.3727 55.7714C63.3672 55.7714 63.3618 55.7768 63.3563 55.7768ZM63.389 55.7605C63.3945 55.7605 63.3999 55.755 63.4054 55.755C63.3999 55.7605 63.3945 55.7605 63.389 55.7605ZM63.4381 55.7441C63.4326 55.7441 63.4272 55.7496 63.4217 55.7496C63.4272 55.7496 63.4326 55.7496 63.4381 55.7441ZM63.4871 55.7332C63.4926 55.7332 63.498 55.7332 63.498 55.7278C63.4926 55.7332 63.4871 55.7332 63.4871 55.7332ZM63.5416 55.7223H63.5362C63.5362 55.7223 63.5362 55.7223 63.5416 55.7223ZM63.5089 55.7278C63.5144 55.7278 63.5144 55.7278 63.5198 55.7278C63.5198 55.7278 63.5144 55.7278 63.5089 55.7278ZM64.8169 57.0194C64.8442 57.0085 64.866 56.9922 64.8932 56.9813C64.866 56.9922 64.8387 57.0085 64.8169 57.0194ZM64.7406 56.6979L63.2037 55.9621C63.2037 55.9839 63.2037 56.0057 63.2037 56.0275C63.2037 56.0275 63.2201 56.4145 63.4544 56.627C63.6888 56.8396 64.37 57.1502 64.4845 57.1393C64.5226 57.1339 64.6425 57.1012 64.7788 57.0358C64.6425 57.0957 64.5226 57.1339 64.4845 57.1393C64.9096 57.0358 64.7406 56.6979 64.7406 56.6979ZM63.231 55.8804C63.2364 55.8749 63.2364 55.8695 63.2419 55.864C63.2364 55.8695 63.231 55.8749 63.231 55.8804ZM63.3236 55.7932C63.3291 55.7877 63.3345 55.7877 63.34 55.7823C63.3345 55.7877 63.3291 55.7932 63.3236 55.7932ZM63.3073 55.8041C63.2964 55.8095 63.2855 55.8204 63.28 55.8259C63.2909 55.8204 63.2964 55.8095 63.3073 55.8041ZM63.2637 55.8368C63.2582 55.8422 63.2528 55.8477 63.2528 55.8477C63.2582 55.8477 63.2582 55.8422 63.2637 55.8368Z" fill="#FBC02D"/>
  <path d="M76.0929 69.6559C75.7659 69.6123 75.7714 69.9884 75.7714 69.9884C75.7714 69.9884 75.3899 70.1737 75.2155 70.2064C75.0411 70.2391 74.7904 70.8386 74.6759 70.5933C74.6105 70.4462 74.3816 70.4189 74.2072 70.4244C74.3871 70.2336 74.616 70.0701 74.616 70.0756C74.616 70.081 74.7522 69.9012 74.8612 69.7431L74.8558 69.7486C74.834 69.863 74.8122 69.9775 74.8394 70.0047C74.8885 70.0592 75.2155 69.7431 75.2155 69.7431L75.4389 69.3235C75.4934 69.2853 75.7986 69.0564 75.8967 69.2254C75.9512 69.3344 76.0384 69.4924 76.0929 69.6559ZM74.2835 71.013C74.2454 71.0075 74.2127 71.0075 74.18 70.9966C74.2127 71.0075 74.2508 71.013 74.2835 71.013ZM76.0984 69.6559C76.1147 69.6995 76.1256 69.7377 76.1365 69.7758C76.1256 69.7377 76.1093 69.6941 76.0984 69.6559ZM66.0486 69.1491C65.787 68.337 65.1057 68.0972 64.8605 67.8356C64.8169 67.7866 64.7787 67.7375 64.746 67.683C64.7351 67.1489 65.1493 66.2279 65.2856 65.1597C65.3183 64.9035 65.3292 64.691 65.3237 64.5111C65.3074 64.6855 65.2638 64.9035 65.1875 65.176C65.1875 65.176 65.0294 64.7182 63.9721 64.522C62.9148 64.3258 62.7513 63.8462 62.7513 63.8462C62.6968 64.0097 62.6369 64.3749 62.7513 65.127C62.9312 66.2933 63.3672 67.4487 63.3835 67.6122C63.4053 67.7702 63.7977 68.228 63.7977 68.228L63.7432 72.2883C64.1847 72.4954 64.5607 72.1629 64.5607 72.1629C64.528 72.1084 64.8877 70.2173 64.9913 69.863C65.0185 69.7704 65.0294 69.6341 65.024 69.4652L66.3265 70.6587C66.7353 70.6696 66.7353 70.2009 66.7353 70.2009C66.7353 70.2009 66.3156 69.9611 66.0486 69.1491ZM74.1473 70.4898C74.1146 70.5279 74.0819 70.5715 74.0546 70.6097C74.0819 70.5661 74.1146 70.5279 74.1473 70.4898ZM74.4852 54.0417C74.4852 54.0417 74.0819 54.5867 74.4034 55.0608C74.4034 55.0608 74.5015 54.3033 74.6214 54.2324C74.6214 54.2324 74.7904 54.8047 75.8204 54.4123C75.8204 54.4123 75.9948 54.8319 75.8967 55.2189C75.8967 55.2189 76.0984 55.0772 76.0711 54.9573C76.0711 54.9573 76.1692 55.0445 76.2946 54.9573C76.4199 54.8701 76.4962 54.3251 76.1692 54.0962C76.1692 54.0962 76.2074 53.8073 75.9131 53.7201C75.6188 53.6329 74.7141 53.7419 74.5778 53.5948C74.4416 53.4422 74.4143 53.3223 74.4143 53.3223C74.4143 53.3223 74.3108 53.5675 74.4307 53.7474C74.4307 53.7474 74.3707 53.8346 74.2726 53.7419C74.2781 53.731 74.3217 53.9654 74.4852 54.0417ZM63.5089 59.023C63.0129 58.9957 63.1219 57.764 63.1219 57.764C63.3672 57.5787 63.4053 57.1482 63.4053 57.1482C63.765 57.7804 64.3972 57.5787 64.3972 57.5787C64.6098 58.0801 64.1901 59.1865 64.1901 59.1865C65.509 59.29 65.5199 58.8268 65.5199 58.8268C65.6017 57.6169 65.3183 57.1591 65.3183 57.1591C65.3183 57.1591 65.2147 57.0337 65.0512 56.8866C64.8223 57.0392 64.5444 57.1318 64.4844 57.1373C64.3754 57.1482 63.6887 56.8375 63.4598 56.625C63.3781 56.6849 63.2963 56.7612 63.1982 56.8539C62.8985 57.1373 62.953 58.1401 62.9475 58.3526C62.9421 58.5652 62.8058 58.9249 62.8058 58.9249C63.2582 59.1756 63.5089 59.023 63.5089 59.023ZM78.0931 69.5142C78.153 69.4652 78.2075 69.4107 78.262 69.3344C78.2075 69.4107 78.153 69.4706 78.0931 69.5142ZM64.5226 61.5245V61.3229L64.6915 61.4264V61.203L64.528 61.1049V60.9305L64.3591 60.8324V61.0068L64.2065 60.9305V61.143L64.3591 61.2248V61.4155L64.5226 61.5245ZM77.3355 69.2145C77.3301 69.2308 77.3246 69.2417 77.3246 69.2581C77.3246 69.2472 77.3301 69.2308 77.3355 69.2145ZM78.0767 67.0018C78.0876 67.0127 78.0985 67.0181 78.0985 67.0181C78.0985 67.0181 78.0767 67.1598 78.0004 67.3015C78.0113 67.4541 78.0604 68.2335 78.0004 68.2662C77.9405 68.2989 77.8097 68.4678 77.7007 68.119C77.6298 68.4024 77.4445 68.8602 77.3464 69.1818C77.4772 69.0673 77.7225 68.942 78.0331 69.1818C78.0331 69.1818 78.2348 68.6313 78.3547 68.6313C78.4746 68.6313 78.649 68.0536 78.6544 67.9719C78.6599 67.9065 78.5672 67.5141 78.7525 67.3397C78.7634 67.3451 78.7743 67.3506 78.7852 67.356C78.6054 67.2579 78.2348 66.9745 78.2348 66.9745C78.2348 66.9745 78.1421 66.9636 78.0767 67.0018ZM78.0767 67.0018C77.9841 66.9364 77.5971 66.6257 77.39 66.0262C77.1502 65.3341 76.5725 65.0834 76.2619 64.8599C76.2455 64.7836 76.2237 64.7128 76.2074 64.6583C76.033 64.1841 76.5071 63.3067 76.6597 62.0804C76.7033 61.7207 76.7033 61.4373 76.6761 61.2193C76.469 61.3338 75.8422 61.6117 75.0738 61.4264C74.4307 61.2684 74.0873 61.0068 73.9402 60.8542C73.9238 61.1103 73.9293 61.4973 74.011 62.0423C74.1909 63.2086 74.6269 64.364 74.6432 64.5275C74.665 64.6855 75.0574 65.1433 75.0574 65.1433L75.0029 69.2036C75.4444 69.4107 75.8204 69.0782 75.8204 69.0782C75.7877 69.0237 76.2183 67.2143 76.3218 66.8546C76.3491 66.7674 76.36 66.6257 76.3709 66.4568L77.5917 67.574C77.7933 67.5795 77.9187 67.4432 77.995 67.3015C77.995 67.2852 77.995 67.2743 77.995 67.2743C77.9677 67.1108 78.0168 67.0345 78.0767 67.0018ZM79.0359 67.6285C79.0305 67.6176 79.025 67.6067 79.0141 67.5904C79.0196 67.6067 79.0305 67.6176 79.0359 67.6285ZM77.3137 69.2853C77.3083 69.3017 77.3083 69.3126 77.3028 69.3289C77.3083 69.3126 77.3137 69.2962 77.3137 69.2853ZM77.3192 69.2581C77.3192 69.2635 77.3137 69.2744 77.3137 69.2799C77.3192 69.2744 77.3192 69.269 77.3192 69.2581ZM77.341 69.1927C77.341 69.1981 77.3355 69.209 77.3355 69.2145C77.3355 69.209 77.3355 69.1981 77.341 69.1927ZM77.3083 69.3235C77.3083 69.3289 77.3028 69.3344 77.3028 69.3453C77.3028 69.3398 77.3028 69.3289 77.3083 69.3235ZM77.2919 69.3998C77.2919 69.3834 77.2974 69.3671 77.3028 69.3453C77.2974 69.3616 77.2919 69.3834 77.2919 69.3998ZM41.1857 64.3749C41.0821 64.2441 41.0167 64.0806 41.0167 63.9007C41.0167 63.4865 41.3546 63.1541 41.7634 63.1541C41.8724 63.1541 41.9759 63.1759 42.0686 63.2195C41.7852 63.3884 41.5508 63.6337 41.371 63.9334C41.2947 64.0806 41.2293 64.2277 41.1857 64.3749ZM59.9119 75.7272C59.9119 74.6536 60.6858 73.7816 61.645 73.7816C61.8684 73.7816 62.081 73.8306 62.2772 73.9178C62.1028 73.6399 61.8575 73.3946 61.5523 73.2202L61.3289 73.0894C60.3152 72.5008 59.0235 72.8442 58.4349 73.8524C57.8463 74.8661 58.1897 76.1578 59.1979 76.7464L59.4214 76.8772C59.7538 77.0679 60.119 77.1606 60.4732 77.166C60.1299 76.8118 59.9119 76.2995 59.9119 75.7272ZM30.5963 55.0772L30.7653 54.9736V55.1753L30.9342 55.0717V54.881L31.0868 54.7992V54.5867L30.9342 54.6684V54.494L30.7653 54.5921V54.7665L30.6018 54.8646V55.0772H30.5963ZM32.4221 51.8617C32.3894 51.6382 32.0297 51.1968 32.0297 51.1968C32.0297 51.1968 31.8444 51.4202 31.6591 51.6001C31.4738 51.7799 31.016 51.5892 31.016 51.5892C30.9451 51.6873 30.9342 52.1451 30.9342 52.1451C30.7435 51.9434 30.8089 51.6437 30.7816 51.6982C30.7544 51.7581 30.5527 51.6982 30.5527 51.6982C30.3129 51.5456 30.4437 50.9461 30.4437 50.9461C30.3511 50.957 30.2094 50.63 30.2857 50.6954C30.362 50.7608 30.5473 50.7172 30.5473 50.7172C30.5473 50.7172 30.8307 50.5864 31.3811 50.4774C31.9316 50.3738 32.2204 50.7935 32.2204 50.7935C32.5638 51.1641 32.4221 51.8617 32.4221 51.8617ZM32.7981 57.219C32.8036 57.4043 32.7927 57.5787 32.7545 57.7204C32.7545 57.7204 32.0896 58.5652 30.2148 58.1946C30.2094 58.1946 30.1385 58.1891 30.1222 58.1891C30.1113 58.3744 30.1167 58.5979 30.1549 58.8704C30.3075 60.0966 30.7816 60.9741 30.6072 61.4482C30.5854 61.5027 30.5691 61.5736 30.5527 61.6499C30.2366 61.8733 29.6644 62.124 29.4246 62.8162C29.1848 63.492 28.7161 63.8026 28.7161 63.8026C28.7161 63.8026 28.8033 64.3694 29.212 64.3585L30.4328 63.2413C30.4383 63.4157 30.4546 63.5574 30.4819 63.6391C30.5854 63.9934 31.016 65.8082 30.9833 65.8627C30.9833 65.8627 31.3593 66.1952 31.8008 65.9881L31.7463 61.9278C31.7463 61.9278 32.1441 61.47 32.1605 61.312C32.1768 61.1539 32.6183 59.9985 32.7927 58.8268C32.978 57.6605 32.7981 57.219 32.7981 57.219Z" fill="#045395"/>
</svg>