<svg xmlns="http://www.w3.org/2000/svg" width="94" height="94" viewBox="0 0 94 94" fill="none">
  <path d="M41.9866 75.1447L5.35278 54.0647V56.3542L41.9866 77.5606L88.647 50.6381V47.8906L41.9866 75.1447Z" fill="#67A2C1"/>
  <path d="M31.2016 31.3292C33.4439 31.2186 35.2754 28.4397 35.2754 25.1395C35.2754 21.8393 33.4597 19.2971 31.2016 19.4865C28.9594 19.6761 27.1277 22.4393 27.1277 25.6764C27.1277 28.9133 28.9436 31.4398 31.2016 31.3292ZM28.5173 25.85H31.4069V21.3497H31.8017V26.229H28.5173V25.85Z" fill="black"/>
  <path d="M36.9969 46.2174L20.7012 55.6442L20.717 44.1016L36.981 34.7378L36.9969 46.2174ZM31.786 21.3477H31.3912V25.8479H28.5016V26.2427H31.786V21.3477Z" fill="#FF6121"/>
  <path d="M52.8346 54.1763L53.0555 54.8238L49.8186 52.9922L49.0765 51.0182C49.0923 51.0182 49.108 51.0182 49.1239 51.0182H49.1398H49.1556C49.1714 51.0182 49.1714 51.0182 49.1714 51.0182C49.2189 51.0025 49.282 50.9236 49.266 50.8763C49.2502 50.8131 49.1714 50.6867 49.1398 50.6236C49.1081 50.5762 49.0923 50.5131 49.1081 50.4027C49.1081 50.2921 49.1241 50.3079 49.1398 50.2762C49.1554 50.2446 49.0608 50.1025 49.0608 50.1025L49.045 50.0868C49.045 50.0868 49.045 50.0868 49.029 50.0868L49.0132 50.0708C49.0132 50.0708 48.9974 50.0708 48.9974 50.055C48.9815 50.055 48.9815 50.0392 48.9657 50.0392H48.9499C48.9341 50.0392 48.9184 50.0232 48.9026 50.0232C48.8551 50.0074 48.8236 49.9917 48.7761 49.9759C48.7603 49.9759 48.7287 49.9601 48.713 49.9601C48.6972 49.9601 48.6657 49.9441 48.6499 49.9441L48.113 48.5231C48.113 48.5231 48.6815 48.8073 49.4236 49.1232V49.4074L50.5289 49.9126L50.4974 49.5495C50.5448 49.5654 50.6079 49.5809 50.6554 49.6126C51.0185 49.7389 51.3658 49.8495 51.6659 49.8968L52.8346 54.1763ZM55.7715 50.418L54.382 50.055L53.782 49.8971L53.7661 49.9602L53.9555 50.0076L54.3977 50.1182L55.8188 50.4813L56.6714 47.7337L56.6082 47.7179L55.7715 50.418ZM69.5566 28.6907C69.604 27.1748 69.1776 27.0011 69.1776 27.0011L61.9772 22.8325L59.4666 24.2694L60.0192 25.4853L49.6608 31.4856L49.1554 30.1908L46.5659 31.675L53.8452 35.8436C54.9978 35.9701 55.3295 36.7912 55.3295 36.7912V41.0545L66.0513 34.9121L69.1777 36.6964L71.1199 37.8017L58.5034 45.0968L57.335 44.4178C57.4771 44.023 57.7455 43.6126 57.6825 42.8546C57.5877 41.7177 56.8771 41.4808 56.8771 41.4808C56.3875 41.0072 55.7876 41.0072 55.3295 41.1018C54.9032 41.1966 54.6032 41.386 54.6032 41.386C54.2557 41.3229 53.8296 41.6702 53.6873 42.4756C53.5452 43.2809 53.9715 43.4547 53.6715 44.2757C53.5136 44.7179 53.624 45.2231 53.7505 45.5706L51.7766 46.7075V38.8123C51.7766 38.8123 51.8081 37.7385 51.0976 37.3912L42.3813 32.2594L48.5554 28.675L47.2922 25.438C46.7395 24.0958 47.5291 23.6852 47.5291 23.6852L55.1399 19.3587L55.8348 18.9639C56.9559 18.6639 57.4769 19.8165 57.4769 19.8165L58.8191 22.7852L62.9404 20.385L71.1198 25.2011C72.2092 25.5959 72.3513 26.6064 72.3513 26.6064V34.9122L69.5722 36.5228V32.9542V28.6909H69.5566V28.6907ZM52.6609 36.1437L51.5083 36.8068L52.2187 37.3121L53.4505 36.6014L52.6609 36.1437ZM51.366 35.2752L50.2134 35.9384L50.9239 36.4437L52.1556 35.7332L51.366 35.2752ZM48.7765 35.1805L49.4869 35.6857L50.7187 34.9752L49.9291 34.5015L48.7765 35.1805ZM70.425 25.501L68.2616 24.2694L66.8246 25.0747L69.0352 26.3221L70.425 25.501ZM38.0548 46.818L51.366 54.508L32.5281 65.4663L19.1694 57.7134V43.2178L38.0547 32.2751V35.3227V46.818H38.0548ZM20.717 55.6606L37.0127 46.2338L36.981 34.7383L20.7328 44.1178L20.717 55.6606ZM43.613 57.3029L41.2129 55.9133L36.4758 58.6451L38.9234 60.0662L43.613 57.3029ZM38.039 48.6339L22.296 57.7607L28.5806 61.3769L44.3235 52.2814L38.039 48.6339Z" fill="white"/>
  <path d="M38.0389 48.6339L44.3393 52.2973L28.5963 61.3924L22.3118 57.7765L38.0389 48.6339ZM48.3499 23.1956L55.1399 19.3586L53.9714 17.0216C53.9714 17.0216 53.6239 16.2636 52.8976 16.4688L47.4817 19.548C47.4817 19.548 46.9763 19.8163 47.3552 20.7164L48.3499 23.1956ZM36.4757 58.6449L38.9233 60.066L43.5971 57.3028L41.197 55.9131L36.4757 58.6449ZM40.8497 42.223L43.913 43.9283L44.3709 43.1387V37.7384L40.8497 35.6856V42.223ZM51.129 37.4385L42.4127 32.3066V32.8118V34.8015L45.934 36.8227V42.2703L45.5233 42.9809L51.7922 46.7705V38.8753C51.808 38.8596 51.8238 37.7858 51.129 37.4385ZM69.5565 28.6907V32.9383L66.0669 34.9436L55.3452 41.086V36.8227C55.3452 36.8227 55.0136 36.0016 53.8608 35.8753L46.5815 31.6909L47.9709 32.4805L49.6764 31.4857L60.0349 25.4853L63.3034 23.5904L61.9928 22.8325L69.1933 27.0011C69.1933 27.0169 69.6038 27.1906 69.5565 28.6907ZM62.7667 30.3171C62.7982 29.717 62.2298 29.8591 62.2298 29.8591L58.5506 32.0226C58.3771 32.4962 58.8822 32.6226 58.8822 32.6226L62.7667 30.3171ZM49.6448 48.8392L49.4239 48.9021V49.0917V49.3759L50.5292 49.8813L50.4977 49.5181L50.6556 49.5811L50.561 49.2338L49.6448 48.8392Z" fill="#D0E7DF"/>
  <path d="M52.2187 37.3276L51.5083 36.8222L52.6609 36.159L53.4505 36.6326L52.2187 37.3276ZM50.9239 36.4591L52.1556 35.7484L51.366 35.2747L50.2134 35.9378L50.9239 36.4591ZM49.4869 35.7011L50.7187 34.9905L49.9291 34.5167L48.7765 35.1799L49.4869 35.7011ZM58.8822 32.622L62.7668 30.3166C62.7983 29.7166 62.2299 29.8587 62.2299 29.8587L58.5507 32.0221C58.377 32.4957 58.8822 32.622 58.8822 32.622ZM69.3197 36.6486L69.5566 36.5065V32.938L66.067 34.9433L69.1936 36.7276L69.3197 36.6486ZM70.425 25.5005L68.2616 24.269L66.8246 25.0742L69.0352 26.3216L70.425 25.5005ZM63.3035 23.59L61.9929 22.832L59.4823 24.269L60.035 25.4849L63.3035 23.59ZM51.666 49.881L52.8346 54.1759L53.4661 54.3969C53.1345 53.7021 52.345 51.6495 51.9345 50.56C51.7608 50.1492 51.666 49.881 51.666 49.881ZM19.1694 57.7129V58.6919L32.5281 66.3818L51.366 55.518V54.5232L32.5281 65.4659L19.1694 57.7129ZM49.6765 31.485L49.1711 30.1902L46.5816 31.6745L47.971 32.4641L49.6765 31.485ZM58.5349 45.128L57.3663 44.4491C57.2874 44.6543 57.2401 44.8439 57.2874 45.0649C57.3034 45.1122 57.3034 45.1595 57.3034 45.1912L58.5349 45.9018L71.1356 38.6066V37.8172L58.5349 45.128ZM44.371 43.1384L43.9131 43.928L45.5394 42.9806L45.95 42.27V36.8224L42.4288 34.8012L40.8498 35.6854L44.371 37.7382V43.1384ZM38.0548 32.2746L37.2021 31.8167L18.38 42.6963L18.3642 46.6123L18.3325 57.2708L19.1694 57.7129V43.2173L38.0548 32.2746Z" fill="#B7CAB6"/>
  <path d="M52.4239 49.6613C52.3924 49.6139 52.2974 49.6298 52.2974 49.6298C52.2974 49.6298 52.2344 49.5983 52.1555 49.5668C52.108 49.5351 52.0449 49.5035 51.9976 49.4562C51.9028 49.3615 51.887 49.1403 51.887 49.0457C51.887 48.9667 51.9659 48.9351 52.0605 48.872C52.1553 48.8245 52.3447 48.6666 52.408 48.6511C52.4712 48.6194 51.9816 48.193 52.108 48.1615C52.2344 48.13 52.866 48.5563 52.9764 48.6667C52.9924 48.6827 53.0081 48.6984 53.0239 48.73C53.0554 48.7615 53.0714 48.809 53.1028 48.8563C53.1028 48.8563 53.1029 48.8721 53.1187 48.8721C53.1347 48.8881 53.1347 48.9036 53.1503 48.9353C53.1503 48.9511 53.1661 48.9511 53.1661 48.9669C53.182 48.9826 53.182 48.9984 53.1976 49.0299C53.2136 49.0459 53.2136 49.0614 53.2293 49.0774C53.2451 49.0932 53.2451 49.1088 53.2608 49.1403C53.2766 49.1563 53.2766 49.1878 53.2924 49.2036C53.3082 49.2195 53.3082 49.2351 53.3239 49.2666C53.3397 49.2983 53.3397 49.3141 53.3556 49.3456C53.3556 49.3615 53.3714 49.3772 53.3714 49.393C53.3872 49.4405 53.4029 49.472 53.4187 49.5195C53.4347 49.5669 53.4662 49.6141 53.4818 49.6614C53.4818 49.6614 53.4818 49.6774 53.4977 49.6774C53.6241 49.9299 53.7504 50.0247 53.7504 50.0247L53.6397 50.6407C53.6397 50.6407 53.0239 50.4828 52.9767 50.4195C52.9767 50.4038 52.9608 50.388 52.9451 50.3722C52.9294 50.3564 52.9293 50.3406 52.9136 50.3406C52.882 50.2932 52.8346 50.2459 52.7872 50.1826C52.724 50.1037 52.6607 50.0091 52.5978 49.9301C52.5661 49.8984 52.5346 49.8511 52.5186 49.8195C52.4872 49.788 52.4713 49.7565 52.4557 49.7405C52.4397 49.6772 52.4397 49.6613 52.4239 49.6613ZM57.3347 58.1092C57.2716 58.125 57.2243 58.125 57.1768 58.1408C57.1768 58.1408 57.1768 58.1408 57.161 58.1408C57.0662 58.1567 56.9399 58.1723 56.8135 58.1881C56.6871 58.204 56.5451 58.2198 56.403 58.2198C56.2451 58.2198 56.087 58.2198 55.9134 58.2198C56.0399 59.1357 56.2135 60.383 56.2135 60.5726C56.2135 60.8725 56.4977 63.5095 56.4977 63.5095C56.4977 63.5095 56.403 63.6201 56.2766 63.778C56.2766 63.778 56.2766 63.778 56.2608 63.7938L56.245 63.8097C56.245 63.8256 56.229 63.8256 56.229 63.8413C56.2132 63.8571 56.2132 63.8728 56.1975 63.8728C56.1817 63.8888 56.1817 63.9044 56.1658 63.9203C56.15 63.9361 56.15 63.9518 56.1343 63.9677C56.1185 63.9836 56.1185 63.9992 56.1029 64.0151C56.1029 64.0151 56.1029 64.0151 56.1029 64.0309C56.0869 64.0469 56.0869 64.0625 56.0869 64.0783C56.0869 64.0783 56.0869 64.0783 56.0869 64.0942C56.0869 64.11 56.0711 64.1258 56.0711 64.1416C56.0711 64.1416 56.0711 64.1416 56.0711 64.1575C56.0711 64.1733 56.0552 64.189 56.0552 64.2049V64.2208C56.0552 64.2366 56.0552 64.2522 56.0394 64.2681V64.284C56.0394 64.2999 56.0394 64.3155 56.0394 64.3314V64.3473C56.0394 64.3632 56.0394 64.3788 56.0394 64.3947V64.4105C56.0394 64.4265 56.0394 64.4421 56.0552 64.4421V64.4579C56.0552 64.4738 56.0711 64.4894 56.0867 64.5054C56.2605 64.7423 57.1447 63.7316 57.1447 63.7316C57.1447 63.7316 57.1607 63.4476 57.1922 62.3578C57.2396 61.2684 57.4764 58.0945 57.4764 58.0945C57.4137 58.0935 57.3822 58.0935 57.3347 58.1092ZM55.0294 58.125C54.9662 58.1092 54.9029 58.1092 54.8398 58.0935C54.7767 58.0777 54.7134 58.062 54.6502 58.0461C54.5873 58.0302 54.524 58.0146 54.4608 57.9987C54.1923 57.9196 53.9239 57.8407 53.6397 57.7145C53.6239 57.8251 53.6239 57.9356 53.6083 58.062C53.4662 59.404 53.2293 61.8833 53.2293 61.8833C53.2293 61.8833 52.7872 62.2938 52.4239 62.6727C52.4239 62.6727 52.4239 62.6887 52.408 62.6887C52.408 62.7045 52.3922 62.7045 52.3922 62.7202C52.3922 62.736 52.3762 62.736 52.3762 62.7519C52.3762 62.7677 52.3762 62.7833 52.3762 62.7992C52.3762 62.815 52.3762 62.8308 52.3762 62.8466C52.3762 62.8466 52.3762 62.8466 52.3762 62.8625C52.3762 62.8783 52.3922 62.8939 52.3922 62.9099C52.3922 62.9099 52.3922 62.9099 52.3922 62.9257C52.408 62.9416 52.4237 62.9572 52.4395 62.9731C52.4553 62.989 52.4553 62.989 52.4712 62.989H52.487C52.5028 62.989 52.5028 62.989 52.5185 63.0049C52.5345 63.0049 52.5501 63.0049 52.566 63.0207H52.5818C52.5976 63.0207 52.6134 63.0207 52.6292 63.0207C52.6451 63.0207 52.6607 63.0207 52.6607 63.0207C52.6766 63.0207 52.6766 63.0207 52.6924 63.0207C52.7082 63.0207 52.7239 63.0207 52.7397 63.0207C52.7555 63.0207 52.7555 63.0207 52.7713 63.0207C52.7872 63.0207 52.8187 63.0207 52.8345 63.0207C52.8503 63.0207 52.8818 63.0207 52.8975 63.0049C52.8975 63.0049 52.8975 63.0049 52.9134 63.0049C52.9293 63.0049 52.9608 62.989 52.9764 62.989C53.1343 62.9416 53.2924 62.8784 53.3554 62.8153L53.3714 62.7995C53.3872 62.7837 53.4029 62.768 53.4187 62.7522L53.4345 62.7362C53.4505 62.7204 53.4662 62.6889 53.482 62.673C53.6241 62.5151 53.7505 62.3415 53.7505 62.3415C53.782 62.168 53.9084 61.6625 54.1453 60.5731C54.3189 59.7993 54.8085 58.8519 55.2191 58.1571C55.1557 58.1408 55.0924 58.1408 55.0294 58.125ZM49.1078 50.4192C49.1078 50.3088 49.1238 50.3246 49.1395 50.2929C49.1552 50.2613 49.0605 50.1193 49.0605 50.1193L49.0447 50.1034C49.0447 50.1034 49.0447 50.1034 49.0287 50.1034L49.0129 50.0875C49.0129 50.0875 48.9971 50.0875 48.9971 50.0717C48.9813 50.0717 48.9813 50.0559 48.9654 50.0559H48.9496C48.9338 50.0559 48.9181 50.0401 48.9023 50.0401C48.8548 50.0241 48.8233 50.0084 48.7759 49.9926C48.7601 49.9926 48.7284 49.9768 48.7127 49.9768C48.6969 49.9768 48.6654 49.961 48.6496 49.961C48.5392 49.9293 48.4444 49.9293 48.4444 49.961C48.4284 50.0556 48.5706 50.2293 48.5706 50.2293C48.5706 50.2293 48.5233 50.2608 48.5233 50.3872C48.5233 50.5137 48.6812 50.7031 48.6812 50.7031C48.6812 50.7031 48.7127 50.8927 48.7917 50.9716C48.8392 51.0189 48.9813 51.0506 49.0759 51.0662C49.0917 51.0662 49.1074 51.0662 49.1234 51.0662H49.1392H49.155C49.1708 51.0662 49.1708 51.0662 49.1708 51.0662C49.2183 51.0504 49.2814 50.9716 49.2655 50.9243C49.2496 50.861 49.1708 50.7347 49.1392 50.6716C49.1079 50.5931 49.092 50.5298 49.1078 50.4192ZM55.2977 46.5981C55.8346 46.5823 56.6399 46.1718 56.6399 46.1718L56.6241 46.0612C55.6291 46.2506 55.6451 46.0612 55.6451 46.0612C55.6451 46.0612 55.6451 46.0612 55.8345 45.8876C56.0241 45.7139 56.5135 44.1665 56.5135 43.7085C56.5293 43.2506 56.3081 42.8716 56.3081 42.8716C56.1502 43.0927 56.1818 43.7559 56.1818 43.7559C54.8553 43.5033 54.4449 42.082 54.4449 42.082C54.4449 42.082 54.1607 42.382 54.1448 43.0294C54.129 43.6767 54.429 44.6874 54.6974 45.0506C54.9816 45.4137 55.3764 45.3506 55.3764 45.3506V45.556L55.2977 46.5981Z" fill="white"/>
  <path d="M53.5451 49.7395C53.5293 49.7081 53.5136 49.6766 53.4976 49.6449C53.5136 49.6766 53.5294 49.7081 53.5451 49.7395ZM53.7505 49.9608L53.7663 49.8976L54.3663 50.0555L54.1768 49.0291L53.5452 49.7395C53.6557 49.9133 53.7347 49.9766 53.7347 49.9766L53.7505 49.9608ZM69.3197 36.6496L69.1934 36.7127L71.1355 37.8182V38.6076L58.5348 45.9028L57.3032 45.1921C57.3822 45.7449 57.0822 45.9659 56.6242 46.0605L56.64 46.1712L56.7821 46.1238L57.1926 46.5345L57.1295 46.5976C57.1295 46.5976 58.077 47.466 58.1559 47.7187C58.2349 47.9714 57.3034 51.2083 57.3034 51.2083L57.4453 52.4715C57.4453 52.4715 57.7295 53.5295 57.619 54.3347C57.5243 55.1402 57.398 56.0559 57.5084 56.8613C57.6032 57.6667 57.7295 58.0297 57.7295 58.0297C57.7295 58.0297 57.6349 58.0614 57.4611 58.0929C57.4611 58.0929 57.2243 61.2668 57.1769 62.3562C57.1295 63.4458 57.1295 63.73 57.1295 63.73V64.125C57.1295 64.125 56.3875 65.1988 56.1346 65.3409C55.8821 65.4672 55.2662 65.4672 55.1873 65.3409C55.0925 65.2145 55.3294 64.9303 55.5188 64.6777C55.7083 64.4252 56.3082 63.7618 56.3082 63.7618C56.4347 63.6039 56.5293 63.4933 56.5293 63.4933C56.5293 63.4933 56.2452 60.8721 56.2452 60.5563C56.2452 60.3669 56.0715 59.1193 55.9452 58.2035C55.7242 58.2035 55.4873 58.172 55.2188 58.1405C54.824 58.8353 54.3187 59.7827 54.145 60.5563C53.8924 61.6459 53.7818 62.1513 53.7502 62.3249V62.9881C53.7502 62.9881 52.8816 63.5565 52.408 63.7144C51.9344 63.8723 51.7605 63.6829 51.7132 63.525C51.6501 63.367 52.4395 62.6722 52.4395 62.6722C52.4395 62.6722 52.4395 62.6722 52.4395 62.6882C52.787 62.3092 53.2449 61.8988 53.2449 61.8988C53.2449 61.8988 53.4818 59.4197 53.6239 58.0774C53.6397 57.9509 53.6554 57.8403 53.6554 57.7299C53.6396 57.7299 53.6396 57.7299 53.6239 57.714C53.6239 57.714 53.5293 53.435 54.0503 52.3769L54.3029 50.9716L53.6554 50.6401V50.6084C53.6554 50.6084 53.0395 50.4505 52.9924 50.3874L51.9344 50.5611C52.3449 51.6349 53.1345 53.6876 53.466 54.398L52.8344 54.177L53.0555 54.8245L49.8185 52.9929L49.0763 51.0189C48.9817 51.0032 48.8553 50.9716 48.7921 50.9243C48.7132 50.861 48.6817 50.6557 48.6817 50.6557C48.6817 50.6557 48.5238 50.4662 48.5238 50.3397C48.5238 50.2135 48.5711 50.1818 48.5711 50.1818C48.5711 50.1818 48.429 50.0082 48.4448 49.9135C48.4448 49.882 48.5394 49.882 48.65 49.9135L48.1131 48.4923C48.1131 48.4923 48.6817 48.7765 49.4238 49.0924V48.9028L49.6449 48.8398L50.5764 49.2346L50.671 49.5819C51.0342 49.7084 51.3815 49.8188 51.6815 49.8661L52.1711 49.5503C52.1236 49.5188 52.0605 49.4873 52.0132 49.4398C51.9186 49.3451 51.9026 49.124 51.9026 49.0292C51.9026 48.9503 51.9816 48.9188 52.0763 48.8556C52.171 48.8083 52.3604 48.6504 52.4237 48.6346C52.4868 48.6031 51.9974 48.1766 52.1237 48.145C52.2501 48.1135 52.8816 48.54 52.9922 48.6506C53.008 48.6662 53.0237 48.6821 53.0395 48.7135C53.3712 48.082 53.987 46.9608 54.1923 46.8187C54.4606 46.6292 54.6027 46.5976 54.6027 46.5976L54.8713 46.3134L55.3292 46.2028L55.2976 46.5976L55.3765 45.5555C55.3765 45.5555 54.4921 45.729 54.0344 46.1238C54.0344 46.1238 53.9081 45.9185 53.7975 45.6184L51.8236 46.7554L45.5549 42.9658L43.9286 43.9133L40.8653 42.2078V35.6864L42.4443 34.8022V32.8125L38.0545 35.3232V46.8345L51.3657 54.5243V55.5191L32.5278 66.3829L19.1691 58.693V57.714L18.3322 57.2719L18.3639 46.6134L5.35254 54.0822L41.9867 75.1622L88.6472 47.8923L69.3197 36.6496Z" fill="#A3D6FF"/>
  <path d="M57.4611 58.0754C57.4295 58.0912 57.3822 58.0912 57.3505 58.1068H57.3347C57.2872 58.1227 57.2401 58.1227 57.1926 58.1385C57.1926 58.1385 57.1926 58.1385 57.1768 58.1385C57.0822 58.1543 56.9557 58.17 56.8293 58.1858C56.703 58.2016 56.5609 58.2175 56.4188 58.2175C56.2609 58.2175 56.103 58.2175 55.9293 58.2175C55.7082 58.2175 55.4713 58.1858 55.203 58.1543C55.1398 58.1385 55.0765 58.1385 55.0134 58.1227C54.9502 58.1069 54.8871 58.1068 54.824 58.0912C54.7608 58.0754 54.6975 58.0597 54.6344 58.0437C54.5713 58.0279 54.5081 58.0122 54.445 57.9964C54.1765 57.9173 53.9081 57.8383 53.6239 57.7122C53.6081 57.7122 53.6081 57.7122 53.5923 57.6964C53.5923 57.6964 53.4976 53.4172 54.0187 52.3594C55.5821 53.0224 57.4295 52.454 57.4295 52.454C57.4295 52.454 57.7137 53.5121 57.6031 54.3174C57.5085 55.1228 57.3822 56.0385 57.4926 56.8438C57.5873 57.6492 57.7137 58.0124 57.7137 58.0124C57.7137 58.0124 57.6191 58.0437 57.4611 58.0754ZM56.0715 64.5021C56.0557 64.4862 56.0557 64.4705 56.04 64.4547V64.4388C56.04 64.423 56.04 64.4072 56.0242 64.4072V64.3914C56.0242 64.3756 56.0242 64.3599 56.0242 64.3441V64.3281C56.0242 64.3123 56.0242 64.2966 56.0242 64.2808V64.2648C56.0242 64.249 56.0242 64.2333 56.04 64.2175V64.2017C56.04 64.1857 56.0558 64.17 56.0558 64.1542C56.0558 64.1542 56.0558 64.1542 56.0558 64.1384C56.0558 64.1225 56.0717 64.1067 56.0717 64.0909C56.0717 64.0909 56.0717 64.0909 56.0717 64.0751C56.0717 64.0592 56.0875 64.0436 56.0875 64.0276C56.0875 64.0276 56.0875 64.0276 56.0875 64.0118C56.1035 63.996 56.1035 63.9803 56.1191 63.9645C56.135 63.9485 56.135 63.9328 56.1506 63.917C56.1666 63.9012 56.1666 63.8855 56.1823 63.8695C56.1981 63.8537 56.1981 63.838 56.2138 63.838C56.2138 63.8222 56.2296 63.8222 56.2296 63.8064C56.2296 63.7906 56.2456 63.7906 56.2456 63.7906C56.2456 63.7906 56.2456 63.7747 56.2614 63.7747C56.2614 63.7747 55.6614 64.4379 55.4718 64.6906C55.2824 64.9432 55.0455 65.2275 55.1403 65.3538C55.2351 65.4801 55.8508 65.4802 56.0878 65.3538C56.3404 65.2273 57.0826 64.1379 57.0826 64.1379V63.7431C57.1138 63.7282 56.2294 64.7389 56.0715 64.5021ZM53.4661 62.6702C53.4503 62.6862 53.4345 62.7177 53.4187 62.7334L53.4029 62.7492C53.387 62.7652 53.3714 62.7808 53.3554 62.7967L53.3396 62.8125C53.2764 62.8915 53.1185 62.9546 52.9606 62.9862C52.9448 62.9862 52.9133 63.0021 52.8974 63.0021C52.8974 63.0021 52.8974 63.0021 52.8816 63.0021C52.8658 63.0021 52.8343 63.0021 52.8185 63.0179C52.8027 63.0179 52.7712 63.0179 52.7555 63.0179C52.7395 63.0179 52.7395 63.0179 52.7239 63.0179C52.7082 63.0179 52.6924 63.0179 52.6765 63.0179C52.6606 63.0179 52.6606 63.0179 52.6449 63.0179C52.6292 63.0179 52.6134 63.0179 52.6134 63.0179C52.5974 63.0179 52.5818 63.0179 52.5659 63.0179H52.5501C52.5343 63.0179 52.5185 63.0179 52.5026 63.0021C52.4868 63.0021 52.4868 63.0021 52.4712 62.9862H52.4553C52.4394 62.9862 52.4237 62.9703 52.4237 62.9703C52.4079 62.9544 52.3922 62.9388 52.3762 62.9229C52.3762 62.9229 52.3762 62.9229 52.3762 62.9071C52.3762 62.8911 52.3604 62.8755 52.3604 62.8596C52.3604 62.8596 52.3604 62.8596 52.3604 62.8438C52.3604 62.8278 52.3604 62.8122 52.3604 62.7964C52.3604 62.7805 52.3604 62.7649 52.3604 62.7489C52.3604 62.7331 52.3604 62.7174 52.3762 62.7174C52.3762 62.7016 52.3922 62.7016 52.3922 62.6859C52.3922 62.6859 52.3922 62.6699 52.408 62.6699V62.6541C52.408 62.6541 51.6186 63.3489 51.6816 63.5067C51.7447 63.6648 51.9026 63.8542 52.3764 63.6962C52.8501 63.5383 53.7185 62.9698 53.7185 62.9698V62.3068C53.7345 62.3387 53.6084 62.5123 53.4661 62.6702Z" fill="#4A90E2"/>
  <path d="M57.3034 51.2099L57.4453 52.4731C57.4453 52.4731 55.5979 53.0415 54.0345 52.3783L54.2872 50.973L53.6397 50.6415V50.6099L53.7503 49.994V49.9625L53.9397 50.0098L54.3818 50.1204L55.803 50.4836L56.6555 47.736L56.5924 47.7201L55.7555 50.4046L54.366 50.0415L54.1764 49.015L53.5449 49.7256C53.5291 49.694 53.5134 49.6623 53.4818 49.615C53.4818 49.615 53.4818 49.5992 53.466 49.5992C53.4501 49.5517 53.4185 49.5044 53.4028 49.4571C53.3872 49.4098 53.3713 49.3781 53.3554 49.3307C53.3554 49.3149 53.3395 49.2992 53.3395 49.2834C53.3237 49.2517 53.3237 49.2359 53.308 49.2044C53.2922 49.1884 53.2922 49.1728 53.2764 49.1413C53.2606 49.1254 53.2606 49.0938 53.2449 49.0781C53.2291 49.0622 53.2291 49.0466 53.2134 49.015C53.1974 48.9992 53.1974 48.9834 53.1818 48.9677C53.1659 48.9517 53.1659 48.9202 53.1503 48.9044C53.1503 48.8887 53.1343 48.8729 53.1343 48.8729C53.1185 48.8571 53.1185 48.8254 53.1028 48.8099C53.1028 48.8099 53.1028 48.7939 53.087 48.7939C53.0553 48.7465 53.0395 48.6993 53.008 48.6675C53.3395 48.036 53.9554 46.9149 54.1606 46.7728C54.4291 46.5834 54.5711 46.5517 54.5711 46.5517L54.8396 46.2675L55.2976 46.1569L55.2661 46.5517C55.803 46.5359 56.6081 46.1254 56.6081 46.1254L56.7502 46.0781L57.1608 46.4887L57.0977 46.5519C57.0977 46.5519 58.045 47.4203 58.124 47.673C58.2191 47.973 57.3034 51.2099 57.3034 51.2099ZM52.9136 50.2942C52.8819 50.2469 52.8346 50.1996 52.7871 50.1363C52.724 50.0573 52.6607 49.9627 52.5976 49.8837C52.5661 49.8521 52.5346 49.8048 52.5186 49.7731C52.4871 49.7415 52.4713 49.71 52.4556 49.6941C52.4396 49.6783 52.424 49.6625 52.424 49.6468C52.3925 49.5994 52.2975 49.6152 52.2975 49.6152C52.2975 49.6152 52.2346 49.5835 52.1556 49.5521L51.666 49.8679C51.666 49.8679 51.7606 50.1364 51.9186 50.5469L52.9765 50.3733C52.9765 50.3575 52.9607 50.3416 52.945 50.326C52.9294 50.3258 52.9294 50.3099 52.9136 50.2942Z" fill="#FBC02D"/>
  <path d="M57.3663 44.4515C57.5084 44.0567 57.7769 43.6461 57.7137 42.8882C57.6191 41.7512 56.9083 41.5143 56.9083 41.5143C56.4189 41.0407 55.8189 41.0407 55.3609 41.1354C54.9345 41.2302 54.6345 41.4196 54.6345 41.4196C54.2871 41.3564 53.8608 41.7038 53.7186 42.509C53.5765 43.3144 54.0028 43.488 53.7028 44.3091C53.5449 44.7512 53.6553 45.2565 53.7817 45.604C53.8923 45.904 54.0186 46.1094 54.0186 46.1094C54.4765 45.7146 55.3608 45.5408 55.3608 45.5408V45.3356C55.3608 45.3356 54.966 45.3987 54.6818 45.0356C54.3976 44.6724 54.1132 43.6618 54.1292 43.0144C54.145 42.3671 54.4292 42.0671 54.4292 42.0671C54.4292 42.0671 54.8397 43.4882 56.1662 43.7409C56.1662 43.7409 56.1346 43.0777 56.2925 42.8567C56.2925 42.8567 56.5135 43.2356 56.4979 43.6936C56.4822 44.1515 56.0083 45.6831 55.8189 45.8727C55.6293 46.0464 55.6293 46.0464 55.6293 46.0464C55.6293 46.0464 55.6135 46.2358 56.6083 46.0464C57.0662 45.9516 57.3663 45.7306 57.2873 45.178C57.2873 45.1307 57.2715 45.099 57.2715 45.0517C57.24 44.8462 57.2873 44.6568 57.3663 44.4515Z" fill="#171819"/>
</svg>