<svg xmlns="http://www.w3.org/2000/svg" width="128" height="128" viewBox="0 0 128 128" fill="none">
  <path d="M79.0015 24.346L80.0383 24.8772L80.8319 23.962L81.1711 25.4596L82.2847 26.0612L81.1711 26.8228L81.2927 28.4996L80.0575 26.8292L78.6815 27.0468L79.4815 26.0548L79.0015 24.346ZM86.8799 30.7588L86.0799 31.7508L87.4559 31.5332L88.6911 33.2036L88.5695 31.5268L89.6831 30.7652L88.5695 30.1636L88.2303 28.666L87.4367 29.5812L86.3999 29.05L86.8799 30.7588ZM85.5167 22.9636L84.7167 23.9556L86.0927 23.738L87.3279 25.4084L87.2063 23.7316L88.3199 22.97L87.2063 22.3684L86.8671 20.8708L86.0735 21.786L85.0367 21.2548L85.5167 22.9636ZM66.3295 17.69L67.3663 18.2212L68.1599 17.306L68.4991 18.8036L69.6127 19.4052L68.4991 20.1668L68.6207 21.8436L67.3855 20.1732L66.0095 20.3908L66.8095 19.3988L66.3295 17.69ZM74.2079 24.1028L73.4079 25.0948L74.7839 24.8772L76.0191 26.5476L75.8975 24.8708L77.0111 24.1092L75.8975 23.5076L75.5583 22.01L74.7647 22.9252L73.7279 22.394L74.2079 24.1028ZM72.8447 16.3076L72.0447 17.2996L73.4207 17.082L74.6559 18.7524L74.5343 17.0756L75.6479 16.314L74.5343 15.7124L74.1951 14.2148L73.4015 15.13L72.3647 14.5988L72.8447 16.3076Z" fill="#E2F3FC"/>
  <path d="M86.0736 21.7795L85.0368 21.2483L85.3504 21.0883L86.2656 21.5555L86.0736 21.7795ZM86.3936 29.0435L87.4304 29.5747L87.6224 29.3571L86.7072 28.8899L86.3936 29.0435ZM88.3264 22.9699L87.2128 23.7315L87.3344 25.4083L87.648 25.2483L87.5264 23.5715L88.64 22.8099L87.5264 22.2083L87.1872 20.7107L86.8736 20.8707L87.2128 22.3683L88.3264 22.9699ZM89.9968 30.6115L88.8832 30.0099L88.544 28.5123L88.2304 28.6723L88.5696 30.1699L89.6832 30.7715L88.5696 31.5331L88.6912 33.2099L89.0048 33.0499L88.8832 31.3731L89.9968 30.6115ZM80.2304 24.6595L79.3152 24.1923L79.0016 24.3523L80.0384 24.8835L80.2304 24.6595ZM81.4912 25.3059L81.152 23.8083L80.8384 23.9683L81.1776 25.4659L82.2912 26.0675L81.1776 26.8291L81.2992 28.5059L81.6128 28.3459L81.4912 26.6691L82.6048 25.9075L81.4912 25.3059ZM73.5936 14.9059L72.6784 14.4387L72.3648 14.5987L73.4016 15.1299L73.5936 14.9059ZM73.7216 22.3875L74.7584 22.9187L74.9504 22.7011L74.0352 22.2339L73.7216 22.3875ZM75.6544 16.3139L74.5408 17.0755L74.6624 18.7523L74.976 18.5923L74.8544 16.9155L75.968 16.1539L74.8544 15.5523L74.5152 14.0547L74.2016 14.2147L74.5408 15.7123L75.6544 16.3139ZM77.3248 23.9555L76.2112 23.3539L75.872 21.8563L75.5584 22.0163L75.8976 23.5139L77.0112 24.1155L75.8976 24.8771L76.0192 26.5539L76.3328 26.3939L76.2112 24.7171L77.3248 23.9555ZM67.5584 18.0035L66.6432 17.5363L66.3296 17.6963L67.3664 18.2275L67.5584 18.0035ZM68.8192 18.6499L68.48 17.1523L68.1664 17.3123L68.5056 18.8099L69.6192 19.4115L68.5056 20.1731L68.6272 21.8499L68.9408 21.6899L68.8192 20.0131L69.9328 19.2515L68.8192 18.6499Z" fill="#2276BB"/>
  <path d="M92.9855 41.8236L95.5455 40.3516V45.4268C95.0847 44.71 94.3551 43.9612 93.2031 43.2956C93.2095 43.302 93.2095 42.6812 92.9855 41.8236ZM88.6463 44.3196L77.7599 50.5724V52.6396C78.1183 52.6844 78.5407 52.838 79.0463 53.1324C82.2079 54.9564 82.2079 58.6108 82.2079 58.6108C86.0799 60.8444 85.1903 63.9868 85.1903 63.9868L77.7535 59.6924L77.7471 81.4268L95.5455 71.1804V48.3068L88.6463 44.3196ZM63.2639 89.862L74.7007 83.2764V63.4812L63.2703 70.0476L63.2639 89.862ZM59.3855 50.4508L49.1199 56.3516L49.1135 81.7468L51.8399 80.1788V63.4748L59.9679 58.7772V50.7836L59.3855 50.4508ZM44.3903 52.4604L36.6207 80.8316C36.5823 80.9596 36.4671 81.0556 36.3327 81.0556H36.0191C35.8207 81.0556 35.6735 80.8636 35.7311 80.678L37.1967 75.334C37.1711 75.3276 37.1455 75.3148 37.1135 75.302L32.2495 72.5884L30.9247 77.4332C30.8863 77.5612 30.7711 77.6572 30.6367 77.6572H30.3231C30.1247 77.6572 29.9775 77.4652 30.0351 77.2796L37.7919 48.8956C37.8303 48.7676 37.9455 48.6716 38.0799 48.6716H38.3935C38.5919 48.6716 38.7391 48.8636 38.6815 49.0492L37.1007 54.822C37.1391 54.8284 37.1839 54.8412 37.2223 54.8668L42.0607 57.5292L43.4943 52.3004C43.5327 52.1724 43.6479 52.0764 43.7823 52.0764H44.0959C44.2943 52.0828 44.4415 52.2748 44.3903 52.4604ZM38.7327 69.702C38.7263 69.702 38.7263 69.6956 38.7199 69.6956L33.8303 66.9692C33.8175 66.9628 33.8047 66.95 33.7919 66.9436L32.4415 71.8716C32.4863 71.878 32.5375 71.8908 32.5823 71.9164L37.4015 74.566L38.7327 69.702ZM40.3327 63.8652C40.2943 63.8588 40.2623 63.846 40.2303 63.8268L35.3855 61.1196L33.9775 66.2652C34.0479 66.2588 34.1247 66.2716 34.1951 66.31L38.9503 68.9276L40.3327 63.8652ZM41.8559 58.2972C41.8239 58.2908 41.7919 58.278 41.7535 58.2588L36.9087 55.558L35.5839 60.3964C35.6223 60.4028 35.6607 60.4156 35.6991 60.4348L40.5375 63.0972L41.8559 58.2972Z" fill="#38874C"/>
  <path d="M67.3088 40.7953C67.3088 40.7953 67.3472 40.7249 67.392 40.6225C67.392 40.6673 67.392 40.7121 67.3856 40.7697V40.7761C67.3536 40.8273 67.3088 40.7953 67.3088 40.7953ZM67.7568 40.5649C67.6992 40.5969 67.648 40.6417 67.648 40.7249C67.648 40.7633 67.6288 40.8081 67.6096 40.8529C67.616 40.8465 67.6224 40.8337 67.6352 40.8209C67.648 40.7825 67.7056 40.6673 67.7568 40.5649ZM67.8336 40.8145C67.8464 40.7889 67.8656 40.7633 67.8848 40.7441V40.5521C67.8272 40.6609 67.744 40.8721 67.744 40.8721C67.744 40.8721 67.7888 40.8785 67.8336 40.8145ZM66.8096 41.6849C66.8352 41.4737 66.8864 41.1473 66.9504 41.0449C67.0464 40.8849 67.4752 40.1617 67.4752 40.1617C67.4752 40.1617 67.5072 40.1937 67.4944 40.2961L68.032 39.8353C68.3712 37.9537 69.2928 36.1425 69.2928 36.1425C69.2736 36.0593 69.2608 35.9377 69.248 35.7841C69.1968 35.7585 69.1456 35.7265 69.1072 35.6881L69.056 35.0929L67.8528 35.7841V35.8545C68.0896 36.9233 67.2896 39.1313 67.2896 39.1313L67.3728 39.5729C67.3728 39.5729 67.3728 39.8801 66.9824 40.1041C66.9824 40.1041 66.9824 40.4561 66.9824 40.6417C66.9824 40.8337 66.8544 40.8593 66.7648 40.7633C66.7648 40.7633 66.5472 41.0065 66.5152 40.7313C66.5152 40.7313 66.3424 40.9041 66.2976 40.7185C66.2464 40.5393 66.1504 39.7201 66.1504 39.7201L66.5984 39.1313L66.6368 36.4881L59.968 40.3409L65.9904 43.8033C66.3296 42.9137 66.7392 41.8577 66.8096 41.6849ZM68.7872 60.9617C68.7552 61.1217 69.3952 63.0929 69.4144 63.0545C69.4336 63.0097 69.3952 63.4385 68.8832 62.9905C68.3712 62.5425 67.68 61.5825 67.4752 61.4417C67.296 61.3201 67.8464 60.7121 67.9744 60.5841C67.9488 60.2449 67.9424 59.9121 67.9552 59.5921L65.376 58.1009L65.2352 59.6497C65.2352 59.6497 64.4864 64.4561 63.9936 65.5505C64.0128 65.5569 64.0128 65.5697 64.0128 65.5825C64.064 65.6721 64.1024 65.7553 64.1024 65.8321C64.1216 66.1777 64.1088 66.5873 64.1856 66.6897C64.2624 66.7921 64.608 67.2529 64.608 67.2529C64.608 67.2529 64.1408 67.8033 63.3984 67.2401C62.656 66.6769 63.4496 66.2417 63.0208 65.8833C62.592 65.5249 62.6304 65.4161 63.3472 64.8401C63.3408 64.8209 63.3408 64.8081 63.3408 64.8081C62.8288 61.9281 63.4368 59.8161 63.5648 59.5281C63.6288 59.3809 63.3792 58.1457 63.1168 56.9681L51.84 63.4769L63.2704 70.0497L74.7008 63.4833L69.1072 60.2449C68.9088 60.6865 68.7872 60.9617 68.7872 60.9617ZM53.6832 47.1569C53.6832 43.7393 56.8448 45.3649 56.8448 45.3649C56.8448 45.3649 56.8448 44.6993 57.088 44.0721L49.1136 39.4577L34.4768 47.9249L37.5744 49.7041L37.7984 48.8977C37.8368 48.7697 37.952 48.6737 38.0864 48.6737H38.4C38.5984 48.6737 38.7456 48.8657 38.688 49.0513L38.3808 50.1649L43.3024 52.9937L43.4944 52.2961C43.5328 52.1681 43.648 52.0721 43.7824 52.0721H44.096C44.2944 52.0721 44.4416 52.2641 44.384 52.4497L44.1088 53.4545L49.1136 56.3345L59.3792 50.4337L53.6832 47.1569ZM77.7472 30.0625L74.8544 31.7329C75.1936 31.9249 75.4048 32.1297 75.4048 32.3601C75.4048 32.3601 76.128 33.6785 75.936 35.0033C75.8272 35.7457 75.0592 36.9361 74.4 37.8385L75.6928 38.5105C75.6992 38.4593 75.7056 38.4273 75.7056 38.4273C76.6336 38.4593 76.7296 38.5233 76.6016 39.0673C76.4736 39.6113 77.3696 39.4833 77.1136 40.3793C76.8576 41.2753 76.1536 41.1153 76.1536 41.1153C76.1536 41.1153 76.1536 40.5393 76.1536 40.4113C76.1536 40.2833 75.8976 39.9633 75.7056 39.6753C75.6864 39.6497 75.6736 39.6177 75.6608 39.5793C75.3856 39.5473 74.5664 39.4577 73.6576 39.3489C74.464 40.4369 75.0016 42.6193 75.168 43.3553C75.3664 43.5729 75.7312 44.0145 75.5776 44.1169C75.3728 44.2577 74.6816 45.2177 74.1696 45.6657C73.6576 46.1137 73.6128 45.6849 73.6384 45.7297C73.6576 45.7681 74.1184 44.3473 74.24 43.8225C73.824 43.0225 72.352 40.1617 71.9488 39.1249C71.4368 39.0481 70.9952 38.9777 70.7392 38.9137C69.6896 38.6577 70.0352 37.8065 70.0352 37.8065L72.0896 34.4081C71.8272 34.3633 71.392 34.2993 71.1104 34.3121C71.04 34.3313 70.9568 34.3505 70.8672 34.3697V35.6945C70.8672 35.6945 70.7968 35.7201 70.688 35.7521C70.6304 36.1937 70.5792 36.5329 70.5664 36.5969C70.5344 36.7953 68.864 39.7457 68.672 40.0849L68.608 40.8529C68.5568 41.0321 68.3904 40.9361 68.3904 40.9361C68.3776 41.1537 68.128 41.1345 68.128 41.1345C68.0256 41.4161 67.8656 41.3649 67.8656 41.3649L67.872 40.9937C67.776 41.1857 67.6544 41.4097 67.5904 41.4673C67.4944 41.5569 67.4304 41.9409 67.4176 42.0497C67.392 42.3697 67.296 43.4577 67.1488 44.4945L69.2032 45.6785C69.3568 45.4225 69.5296 45.1217 69.5296 45.1217C69.5296 45.1217 69.5808 45.1729 69.5296 45.3649C69.4784 45.5633 69.3632 45.7553 69.3632 45.7553C69.3632 45.7553 69.408 45.7873 69.44 45.7297C69.472 45.6785 69.7152 45.2049 69.7152 45.2049C69.7152 45.2049 69.8048 45.2369 69.76 45.3841C69.7088 45.5313 69.6 45.8193 69.6 45.8193C69.6 45.8193 69.6448 45.8577 69.6832 45.7745C69.7216 45.6913 69.9264 45.2753 69.9264 45.2753C69.9264 45.2753 70.016 45.3841 69.9648 45.4609C69.9136 45.5377 69.7984 45.8257 69.7984 45.8257C69.7984 45.8257 69.8432 45.8321 69.888 45.7681C69.9584 45.6593 70.0864 45.5249 70.0864 45.5249C70.0864 45.5249 70.1376 45.5825 70.0864 45.6465C70.0608 45.6785 69.9712 45.8705 69.8752 46.0561L77.7472 50.5809L88.6336 44.3281L83.7056 41.4865C83.7056 38.0689 86.8672 39.6945 86.8672 39.6945C86.8672 39.6945 86.8672 36.0017 90.0352 37.8321C91.8976 38.9073 92.6592 40.6097 92.9792 41.8385L95.5392 40.3665L77.7472 30.0625Z" fill="#C1E2CC"/>
  <path d="M71.04 103.533L122.688 73.7159V79.4758L71.2448 108.839L5.31201 71.0982V65.5878L71.04 103.533ZM37.2288 54.8742L42.0672 57.5366L43.3088 53.0054L38.3808 50.1766L37.1072 54.8358C37.1456 54.8422 37.1904 54.855 37.2288 54.8742ZM60.0128 43.5014C60 43.495 59.9808 43.4822 59.968 43.4758V40.3398L65.9904 43.8022C65.7728 44.3782 65.5872 44.8902 65.536 45.063C65.5104 45.1654 65.3696 45.3766 65.1648 45.6518C65.1584 45.415 65.0624 45.1462 64.7168 45.095C64.0576 44.999 63.1296 45.3766 62.9888 46.0486C62.9888 46.0486 62.6688 45.9974 62.7008 46.4582C62.7072 46.5478 62.7072 46.6374 62.7072 46.727C62.2912 45.639 61.504 44.3654 60.0128 43.5014ZM63.1104 56.9606L59.9616 58.7782V50.7846L62.3104 52.1414C62.208 53.415 62.1696 54.503 62.1696 54.503C62.2528 54.7078 62.4256 54.8614 62.6432 54.983C62.7392 55.3414 62.9248 56.135 63.1104 56.9606ZM69.216 45.6646C69.1328 45.8054 69.056 45.9334 69.024 45.991C68.928 46.151 68.8576 46.8166 68.8576 46.8166C68.4096 48.2182 68.4288 49.127 68.4288 49.127L65.7408 49.223C65.4336 49.0374 65.056 48.8582 64.6848 48.6982L64.8512 48.3398C64.9472 48.2374 65.0432 48.135 65.1456 48.0262C65.4208 47.8854 65.728 47.6422 65.7408 47.4694C65.7408 47.4502 65.7408 47.431 65.7408 47.4118C66.1312 47.0086 66.4768 46.6758 66.6304 46.5606C66.8416 46.407 67.0272 45.4662 67.1616 44.4742L69.216 45.6646ZM65.4656 57.0566C66.8672 56.6854 68.7168 55.9942 68.7168 55.9942C68.7168 55.9942 68.0256 57.6262 67.9552 59.5846L65.376 58.0934L65.4656 57.0566ZM63.0848 48.1414C63.0592 47.9942 63.0272 47.8278 62.9824 47.6486C63.0272 47.6934 63.0784 47.7318 63.1424 47.7638C63.2064 47.8022 63.2704 47.8342 63.328 47.8598C63.232 47.975 63.1488 48.071 63.0848 48.1414ZM38.7328 69.703L37.4016 74.567L34.4768 72.9542V67.3286L38.72 69.6966C38.7264 69.6966 38.7264 69.703 38.7328 69.703ZM44.1152 53.4726L49.12 56.3526L49.1136 81.7478L38.1248 75.3734L44.1152 53.4726ZM51.84 63.4758L63.2704 70.0486L63.264 89.863L51.84 83.239V63.4758ZM72.7168 56.7878L77.7536 59.6934L77.7472 81.4278L74.6944 79.655V63.4822L69.1008 60.2438C69.728 58.791 71.0656 55.559 70.8928 54.9702C70.6688 54.2022 69.76 54.2022 69.76 54.2022L66.528 54.8614C66.3616 54.6566 66.336 52.8966 66.336 51.495C67.1488 51.1238 69.4848 50.0358 69.664 49.7222C69.8752 49.3382 69.4912 47.0022 69.4912 47.0022C69.4912 47.0022 69.5552 46.4966 69.6704 46.3942C69.7216 46.3494 69.8048 46.1958 69.888 46.0422L77.76 50.567V52.6342C75.8848 52.3846 75.8848 54.9894 75.8848 54.9894C75.8848 54.9894 72.7168 53.3638 72.7168 56.7878ZM37.568 49.7094L34.4704 61.0182V47.9238L37.568 49.7094ZM38.944 68.9286L34.4768 66.471V64.4486L35.3856 61.127L40.2304 63.8278C40.2624 63.847 40.3008 63.8598 40.3328 63.8662L38.944 68.9286ZM36.9088 55.559L41.7536 58.2598C41.7856 58.279 41.8176 58.2918 41.856 58.2982L40.5376 63.1046L35.6992 60.4422C35.6608 60.423 35.6224 60.4102 35.584 60.4038L36.9088 55.559Z" fill="#52B965"/>
  <path d="M49.7984 39.8652L56.9216 35.75L62.4256 38.9244L59.968 40.3452V43.4812C59.9808 43.4876 60 43.5004 60.0128 43.5068C58.1888 42.4572 57.4208 43.2316 57.088 44.0828L49.7984 39.8652ZM95.552 58.0476V71.174L77.7536 81.4204L74.7008 79.6476V83.27L63.264 89.8556L51.84 83.238V80.1724L49.1136 81.7404L38.1248 75.366L43.4688 55.8524L36.6208 80.8316C36.5824 80.9596 36.4672 81.0556 36.3328 81.0556H36.0192C35.8208 81.0556 35.6736 80.8636 35.7312 80.678L37.1968 75.334C37.1712 75.3276 37.1456 75.3148 37.1136 75.302L32.2496 72.5884L30.9248 77.4332C30.8864 77.5612 30.7712 77.6572 30.6368 77.6572H30.3232C30.1248 77.6572 29.9776 77.4652 30.0352 77.2796L34.4832 61.03V48.7228L5.31201 65.5868L71.04 103.539L122.688 73.7212L95.552 58.0476Z" fill="#DEEEE0"/>
  <path d="M65.4209 46.7272C65.4657 46.9384 65.7537 47.2264 65.7409 47.476C65.7345 47.6872 65.2545 48.0136 64.9601 48.1096L64.6849 48.7048C64.3073 48.5448 63.9425 48.404 63.6609 48.308L63.9041 48.0456C63.8657 48.0328 63.8337 48.02 63.7953 48.0072C63.8849 48.02 63.9297 48.0136 63.9297 48.0136C63.9297 48.0136 64.1665 48.1352 64.2881 47.7512C64.2881 47.7512 63.6929 47.6232 63.8529 47.1752C64.0129 46.7272 64.3649 47.4184 64.3649 47.4184L64.6081 47.2584L64.3649 46.6696C64.3649 46.6696 64.9985 46.5672 65.1201 46.0616C65.1329 46.0872 65.1393 46.1064 65.1521 46.132C65.1521 46.1256 65.3761 46.5096 65.4209 46.7272ZM66.9825 40.6408C66.9825 40.4488 66.9825 40.1032 66.9825 40.1032C67.3729 39.8856 67.3729 39.572 67.3729 39.572L67.2897 39.1304C67.2897 39.1304 68.0897 36.916 67.8529 35.8536L67.8721 34.8488C67.5841 34.9064 66.9633 34.9 66.5665 34.8552L66.6433 36.212L66.5985 39.1368L66.1505 39.7256C66.1505 39.7256 66.2529 40.5448 66.2977 40.724C66.3489 40.9032 66.5153 40.7368 66.5153 40.7368C66.5473 41.0056 66.7649 40.7688 66.7649 40.7688C66.8545 40.8648 66.9825 40.8328 66.9825 40.6408ZM67.4881 32.244C67.5585 32.2248 67.6481 32.1928 67.7441 32.1352C68.2305 31.8472 68.1217 31.028 68.0257 30.868C67.9681 30.7656 67.8721 30.708 67.8081 30.6824C67.7761 30.868 67.7441 31.0472 67.7441 31.1752C67.7569 31.5656 67.2385 31.572 67.2001 31.572H67.1937C67.1937 31.572 67.1937 31.572 67.2001 31.572C67.2257 31.572 67.3537 31.5464 67.3665 31.0088C67.3793 30.42 66.9441 30.9512 66.9441 30.9512C67.0529 31.316 66.8289 31.4632 66.8289 31.4632C66.8289 31.2776 66.7329 30.996 66.7329 30.996C66.1377 31.0408 65.2289 30.5352 65.2289 30.5352C65.0625 30.6632 65.2609 31.284 65.2609 31.2968C65.3377 31.4888 65.4529 31.7384 65.6129 31.9176C65.6129 31.9176 65.7345 32.5768 66.1633 32.9096C66.4961 33.1592 67.1425 32.692 67.4881 32.244ZM69.9009 45.7608C69.8625 45.8248 69.8113 45.8184 69.8113 45.8184C69.8113 45.8184 69.9265 45.5304 69.9777 45.4536C70.0289 45.3768 69.9393 45.268 69.9393 45.268C69.9393 45.268 69.7345 45.684 69.6961 45.7672C69.6577 45.8504 69.6129 45.812 69.6129 45.812C69.6129 45.812 69.7281 45.5304 69.7729 45.3768C69.8241 45.2296 69.7281 45.1976 69.7281 45.1976C69.7281 45.1976 69.4849 45.6648 69.4529 45.7224C69.4209 45.7736 69.3761 45.748 69.3761 45.748C69.3761 45.748 69.4849 45.556 69.5425 45.3576C69.5937 45.1592 69.5425 45.1144 69.5425 45.1144C69.5425 45.1144 69.1137 45.8376 69.0177 45.9976C68.9217 46.1576 68.8513 46.8232 68.8513 46.8232L69.4913 47.0152C69.4913 47.0152 69.5553 46.5096 69.6705 46.4072C69.7857 46.3048 70.0481 45.716 70.0993 45.652C70.1505 45.588 70.0993 45.5304 70.0993 45.5304C70.0993 45.5304 69.9713 45.652 69.9009 45.7608ZM70.6945 35.7384C70.6369 36.18 70.5857 36.5192 70.5729 36.5832C70.5409 36.7816 68.8705 39.732 68.6785 40.0712L68.6145 40.8392C68.5633 41.0184 68.3969 40.9224 68.3969 40.9224C68.3841 41.14 68.1345 41.1208 68.1345 41.1208C68.0321 41.4024 67.8721 41.3512 67.8721 41.3512L67.8785 40.98C67.7825 41.172 67.6609 41.396 67.5969 41.4536C67.5009 41.5432 67.4369 41.9272 67.4241 42.036C67.4305 41.9784 67.4305 41.9464 67.4305 41.9464L66.8097 41.6648C66.8097 41.6648 66.8033 41.6712 66.7969 41.6904C66.8225 41.4792 66.8737 41.1528 66.9377 41.0504C67.0337 40.8904 67.4625 40.1672 67.4625 40.1672C67.4625 40.1672 67.4945 40.1992 67.4817 40.3016L68.0193 39.8408C68.3585 37.9592 69.2801 36.148 69.2801 36.148C69.2609 36.0648 69.2481 35.9432 69.2353 35.7896C69.6705 36.0008 70.3681 35.8408 70.6945 35.7384ZM67.3921 40.6216C67.3473 40.724 67.3089 40.7944 67.3089 40.7944C67.3089 40.7944 67.3537 40.8264 67.3857 40.7688V40.7624C67.3921 40.7112 67.3921 40.6664 67.3921 40.6216ZM67.6289 40.82C67.6481 40.7816 67.7057 40.6728 67.7569 40.564C67.6993 40.596 67.6481 40.6408 67.6481 40.724C67.6481 40.7624 67.6289 40.8072 67.6097 40.852C67.6097 40.8392 67.6225 40.8328 67.6289 40.82ZM67.8849 40.5512C67.8273 40.66 67.7441 40.8712 67.7441 40.8712C67.7441 40.8712 67.7889 40.8776 67.8337 40.8136C67.8465 40.788 67.8657 40.7624 67.8849 40.7432V40.5512Z" fill="white"/>
  <path d="M62.3167 52.14L53.6831 47.1544C53.6831 43.7368 56.8447 45.3624 56.8447 45.3624C56.8447 45.3624 56.8447 41.6696 60.0127 43.5C61.5039 44.364 62.2975 45.6312 62.7135 46.732C62.7199 47.0648 62.7327 47.404 62.9887 47.6408C63.0335 47.82 63.0655 47.9864 63.0911 48.1336C63.0719 48.1528 63.0591 48.172 63.0463 48.1848C63.0335 48.1976 63.0207 48.2104 63.0079 48.2296C62.9887 48.2488 62.9823 48.2616 62.9823 48.2616C62.9823 48.268 62.9759 48.2744 62.9759 48.2744C62.6431 48.7928 62.4319 50.604 62.3167 52.14ZM93.2095 43.3016C93.2095 43.3016 93.2095 39.6472 90.0479 37.8232C86.8863 35.9992 86.8799 39.6856 86.8799 39.6856C86.8799 39.6856 83.7183 38.0536 83.7183 41.4776L96.1919 48.6776C96.1919 48.6776 97.0751 45.5352 93.2095 43.3016ZM82.2079 58.6104C82.2079 58.6104 82.2079 54.956 79.0463 53.132C75.8847 51.308 75.8783 54.9944 75.8783 54.9944C75.8783 54.9944 72.7167 53.3624 72.7167 56.7864L85.1903 63.9864C85.1903 63.9864 86.0799 60.844 82.2079 58.6104Z" fill="#A3D6FF"/>
  <path d="M68.7872 60.961C68.2432 61.729 67.9808 60.673 67.9808 60.673C67.7568 58.273 68.7168 56.001 68.7168 56.001C68.7168 56.001 66.8672 56.6922 65.4656 57.0634L65.2352 59.6554C65.2352 59.6554 64.4864 64.4618 63.9936 65.5562C63.4496 65.3642 63.3408 64.8138 63.3408 64.8138C62.8288 61.9338 63.4368 59.8218 63.5648 59.5338C63.6736 59.2842 62.8672 55.873 62.656 54.9962C63.8848 55.6554 66.7648 55.169 66.5344 54.881L69.7664 54.2218C69.7664 54.2218 70.6752 54.2218 70.8992 54.9898C71.1168 55.7386 68.7872 60.961 68.7872 60.961ZM63.1808 48.1354C63.1808 48.1354 63.3728 48.1994 63.6608 48.3018L63.904 48.0394C63.8656 48.0266 63.8336 48.0138 63.7952 48.001C63.6928 47.9882 63.5392 47.9498 63.3344 47.8538C63.2064 48.001 63.104 48.1162 63.04 48.1866C63.0848 48.1482 63.1296 48.129 63.1808 48.1354ZM63.0016 48.2378C62.9824 48.257 62.976 48.2698 62.976 48.2698C62.976 48.2762 62.9696 48.2826 62.9696 48.2826C62.9824 48.2634 62.9888 48.2506 63.0016 48.2378ZM65.1456 48.0266C65.0816 48.0586 65.0176 48.0842 64.96 48.1034L64.8512 48.3402C64.9472 48.2378 65.0496 48.1354 65.1456 48.0266ZM66.816 41.6586C66.816 41.6586 65.664 44.6026 65.536 45.0698C65.5104 45.1722 65.3696 45.3834 65.1648 45.6586C65.1712 45.8698 65.12 46.0554 65.12 46.0554C65.1328 46.081 65.1392 46.1002 65.152 46.1258C65.152 46.1258 65.376 46.5098 65.4208 46.721C65.4592 46.9194 65.7088 47.1818 65.7408 47.4122C66.1312 47.009 66.4768 46.6762 66.6304 46.561C67.0976 46.2218 67.4432 41.9402 67.4432 41.9402L66.816 41.6586ZM75.968 38.6506L74.4 37.8378C75.0592 36.9354 75.8272 35.745 75.936 35.0026C76.128 33.6778 75.4048 32.3594 75.4048 32.3594C75.4048 32.3594 73.7344 34.017 72.3264 34.433C72.3264 34.433 72.2368 34.4138 72.1024 34.3946L70.048 37.793C70.048 37.793 69.7024 38.6442 70.752 38.9002C71.0144 38.9642 71.4496 39.0346 71.9616 39.1114C72.4288 40.321 74.3616 44.0202 74.3616 44.0202C74.3616 44.0202 75.1296 44.0394 75.2384 43.5914C75.2384 43.5914 74.6496 40.6538 73.6704 39.3354C74.784 39.4762 75.7696 39.5786 75.7696 39.5786L75.968 38.6506Z" fill="#4A90E2"/>
  <path d="M69.664 49.7209C69.4912 50.0345 67.1488 51.1225 66.336 51.4937C66.3296 52.8953 66.3616 54.6617 66.528 54.8601C66.8032 55.1993 62.7328 55.8201 62.176 54.4953C62.176 54.4953 62.4128 48.0185 63.1808 48.1337C63.1808 48.1337 64.7936 48.6521 65.7408 49.2153L68.4288 49.1193C68.4288 49.1193 68.4096 48.2105 68.8576 46.8089L69.4976 47.0009C69.4912 47.0073 69.8816 49.3369 69.664 49.7209ZM67.872 30.2969C67.8528 30.4249 67.8272 30.5593 67.808 30.6873C67.872 30.7129 67.968 30.7705 68.0256 30.8729C68.1216 31.0329 68.2304 31.8521 67.744 32.1401C67.6416 32.1977 67.5584 32.2361 67.488 32.2489C67.2192 32.5945 66.7776 32.9465 66.4384 32.9785C66.4 33.3177 66.24 34.6489 66.1824 34.7577C66.1184 34.8857 68.0576 34.9689 68.0256 34.7577C68.0128 34.6745 68.0384 34.3865 68.0832 34.0729C68.576 34.2713 68.992 34.3481 68.992 34.3481L69.1072 35.6857C69.6192 36.1529 70.8736 35.6857 70.8736 35.6857V34.3609C71.0656 34.1881 72.3264 34.4377 72.3264 34.4377C73.7344 34.0217 75.4048 32.3641 75.4048 32.3641C75.4048 31.0713 68.8704 30.3929 67.872 30.2969Z" fill="#FBC02D"/>
  <path d="M64.1855 66.6803C64.2623 66.7827 64.6079 67.2435 64.6079 67.2435C64.6079 67.2435 64.1407 67.7939 63.3983 67.2307C62.6559 66.6675 63.4495 66.2323 63.0207 65.8739C62.5919 65.5155 62.6303 65.4067 63.3471 64.8307C63.3791 64.9459 63.5199 65.3811 63.9871 65.5475C64.0511 65.6499 64.0959 65.7459 64.0959 65.8291C64.1215 66.1683 64.1087 66.5779 64.1855 66.6803ZM69.4143 63.0515C69.3951 63.0963 68.7551 61.1187 68.7871 60.9587C68.2431 61.7267 67.9807 60.6707 67.9807 60.6707C67.9807 60.6387 67.9743 60.6131 67.9743 60.5811C67.8527 60.7155 67.2959 61.3171 67.4751 61.4387C67.6799 61.5795 68.3711 62.5395 68.8831 62.9875C69.3951 63.4355 69.4399 63.0067 69.4143 63.0515ZM65.1199 46.0531C65.1199 46.0531 65.3695 45.1955 64.7167 45.0995C64.0575 45.0035 63.1295 45.3811 62.9887 46.0531C62.9887 46.0531 62.6687 46.0019 62.7007 46.4627C62.7327 46.9235 62.6367 47.4739 63.1487 47.7619C63.6607 48.0499 63.9295 48.0115 63.9295 48.0115C63.9295 48.0115 64.1663 48.1331 64.2879 47.7491C64.2879 47.7491 63.6927 47.6211 63.8527 47.1731C64.0127 46.7251 64.3647 47.4163 64.3647 47.4163L64.6079 47.2563L64.3647 46.6675C64.3647 46.6547 64.9919 46.5587 65.1199 46.0531ZM77.1199 40.3699C76.8639 41.2659 76.1599 41.1059 76.1599 41.1059C76.1599 41.1059 76.1599 40.5299 76.1599 40.4019C76.1599 40.2739 75.9039 39.9539 75.7119 39.6659C75.6927 39.6403 75.6799 39.6083 75.6671 39.5699C75.7311 39.5763 75.7695 39.5827 75.7695 39.5827L75.9743 38.6419L75.6991 38.5011C75.7055 38.4499 75.7119 38.4179 75.7119 38.4179C76.6399 38.4499 76.7359 38.5139 76.6079 39.0579C76.4799 39.6019 77.3759 39.4739 77.1199 40.3699ZM75.2319 43.5955C75.1231 44.0435 74.3551 44.0243 74.3551 44.0243C74.3551 44.0243 74.3167 43.9475 74.2463 43.8131C74.1247 44.3379 73.6639 45.7587 73.6447 45.7203C73.6255 45.6755 73.6639 46.1043 74.1759 45.6563C74.6879 45.2083 75.3791 44.2483 75.5839 44.1075C75.7375 44.0051 75.3663 43.5635 75.1743 43.3459C75.2191 43.5059 75.2319 43.5955 75.2319 43.5955ZM66.9503 30.9427C66.9503 30.9427 67.3855 30.4115 67.3727 31.0003C67.3599 31.5891 67.2063 31.5635 67.2063 31.5635C67.2063 31.5635 67.7631 31.5699 67.7503 31.1667C67.7375 30.7635 68.0575 29.9315 67.8015 29.5795C67.5455 29.2275 67.0527 29.1507 66.9823 29.2403C66.9823 29.2403 66.0095 27.9411 65.2223 28.6323C64.4351 29.3235 64.8511 30.3603 64.8511 30.3603C64.8511 30.3603 64.9727 31.1987 65.2799 31.2947C65.2799 31.2947 65.0751 30.6611 65.2479 30.5331C65.2479 30.5331 66.1567 31.0323 66.7519 30.9939C66.7519 30.9939 66.8479 31.2755 66.8479 31.4611C66.8415 31.4611 67.0591 31.3075 66.9503 30.9427Z" fill="#045395"/>
</svg>