<svg xmlns="http://www.w3.org/2000/svg" width="141" height="112" viewBox="0 0 141 112" fill="none">
<path d="M61.7247 98.3907L6.65576 66.5618V69.7212L61.7247 101.835L131.478 61.3364V57.1797L61.7247 98.3907Z" fill="#6BA7D0"/>
<path d="M52.2257 54.6601L52.1784 53.7577C52.1547 53.7339 52.131 53.7101 52.1072 53.6861C52.1072 53.6861 52.0835 53.6861 52.0835 53.7101H52.0597H52.036C52.036 53.7101 52.0123 53.7101 52.0123 53.7342C52.0123 53.7342 52.0123 53.7342 51.9885 53.7342C51.9648 53.7342 51.9648 53.7342 51.9411 53.7582H51.9173C51.8936 53.7582 51.8936 53.7582 51.8699 53.782C51.8699 53.782 51.8461 53.782 51.8461 53.8063C51.7987 53.8298 51.7749 53.8298 51.7277 53.8536V54.0198L49.8801 54.9464V53.8536L50.2117 53.7111C50.1407 53.6163 50.0933 53.5209 50.0458 53.4502C50.0221 53.4028 49.9983 53.355 49.9748 53.3312C49.9748 53.3312 49.9748 53.3312 49.9748 53.3074C49.9511 53.26 49.9274 53.236 49.9274 53.1886C49.9274 53.1646 49.9036 53.1412 49.9036 53.1172L49.2405 53.5209L49.3114 54.5663L45.735 56.585C45.735 56.585 45.3087 56.9416 45.3559 57.4876C45.3796 58.0337 44.8586 64.0912 44.8586 64.0912L46.8009 65.3026V57.6304L52.2257 54.6601Z" fill="#EDB120"/>
<path d="M51.5862 53.0703C51.6571 53.1648 51.8231 53.4026 52.1072 53.6875C52.1072 53.6875 52.0834 53.6875 52.0834 53.7115H52.0597H52.036C52.036 53.7115 52.0122 53.7116 52.0122 53.7356C52.0122 53.7356 52.0122 53.7356 51.9885 53.7356C51.9648 53.7356 51.9648 53.7356 51.941 53.7596H51.9173C51.8936 53.7596 51.8936 53.7596 51.8698 53.7834C51.8698 53.7834 51.8461 53.7834 51.8461 53.8077C51.7986 53.8313 51.7749 53.8313 51.7276 53.8551C51.4196 53.9738 51.017 54.116 50.8039 54.14C50.5907 54.164 50.3776 53.9738 50.1879 53.7125C50.117 53.6178 50.0695 53.5223 50.022 53.4516C49.9983 53.4042 49.9748 53.3564 49.951 53.3328C49.951 53.3328 49.951 53.3328 49.951 53.3088C49.9273 53.2614 49.9036 53.2374 49.9036 53.19C49.9036 53.166 49.8798 53.1427 49.8798 53.1186C49.7139 52.8094 49.6192 52.5009 49.7379 52.1446C49.8798 51.7649 50.4248 51.2658 50.4248 51.2658C50.4248 51.2658 51.3011 51.456 51.8221 51.0756L52.0353 51.218C52.0115 51.2653 52.0115 51.3367 51.9878 51.3841C51.9878 51.4084 51.9878 51.4084 51.9878 51.4312C51.9641 51.4791 51.9641 51.5503 51.9403 51.5979V51.6217C51.9166 51.669 51.9166 51.7404 51.8928 51.7878C51.8456 52.0256 51.7981 52.2151 51.7509 52.4055C51.7272 52.4769 51.7034 52.5478 51.7034 52.6192C51.656 52.7616 51.6325 52.8801 51.6087 52.9515C51.6087 52.9515 51.6087 52.9515 51.6087 52.9756C51.6087 52.9996 51.6087 52.9996 51.6087 52.9996C51.6087 53.0236 51.6087 53.047 51.6087 53.047C51.6087 53.047 51.5624 53.0465 51.5862 53.0703ZM61.5814 28.89C61.5577 28.89 61.5105 28.89 61.4867 28.89C61.392 28.89 61.2973 28.9138 61.2026 28.9611C61.1316 28.9849 61.0842 29.0561 61.0607 29.1275C61.0132 29.2225 60.9897 29.3651 60.9897 29.5312C61.0134 30.1489 61.2738 31.1227 61.0369 32.0253C60.9422 32.429 60.8238 32.7141 60.7054 32.8803C60.6579 32.9514 60.6106 32.999 60.5632 33.0467C60.5157 33.0943 60.4685 33.1178 60.4447 33.1416C60.35 33.2128 60.2788 33.2128 60.2316 33.2128C60.2079 33.2128 60.2079 33.2128 60.2079 33.2128C60.2079 33.2128 60.421 31.479 60.2079 31.0513C60.1841 31.0037 60.1604 30.9563 60.1369 30.9087C60.1132 30.8613 60.0894 30.8375 60.0894 30.7899C59.9947 30.6 59.9947 30.6 59.9947 30.6C59.9947 30.6 59.9237 30.5762 59.8288 30.6C59.8051 30.6 59.7813 30.6 59.7341 30.6C59.6866 30.6 59.6157 30.6238 59.5444 30.6476C59.4497 30.6714 59.355 30.7425 59.2603 30.8375C59.0944 31.0277 58.9525 31.3364 59.0235 31.9301C59.1182 32.8803 59.0944 33.5691 58.8815 34.0204C58.7868 34.2104 58.6684 34.3291 58.5025 34.4479C58.4315 34.4953 58.3365 34.5429 58.2418 34.5667C58.1471 34.5905 58.0287 34.6143 57.8865 34.6143C57.7681 34.6143 57.6259 34.5905 57.4602 34.5429C56.5839 34.3291 55.4705 33.6879 55.4705 33.6879V35.4219V35.9206C55.4705 35.9206 56.3468 36.847 57.9338 36.6809V35.6595C57.9338 35.6595 58.0522 35.2082 58.5969 35.327C59.1417 35.4457 60.7759 35.3746 61.534 34.4244C62.2683 33.4744 62.5524 30.529 62.1736 29.3177C62.1971 29.2939 61.9365 28.9376 61.5814 28.89ZM76.7164 39.2699L74.7506 41.8116L73.969 41.9539C73.969 41.8823 73.969 41.8351 73.969 41.7635C73.922 41.4548 73.7088 41.241 73.6137 41.4548C73.5187 41.6683 73.3293 42.072 73.0924 42.3336C72.8556 42.5947 72.7844 43.1174 72.7844 43.1174L72.9975 43.8536C72.9735 43.9724 72.9735 44.0912 72.9735 44.1861C73.021 45.1361 73.1155 45.3023 73.518 45.2549C73.921 45.2309 74.8921 45.0173 75.1997 44.8274C75.508 44.6374 75.5785 44.5898 75.626 44.2816C75.626 44.2102 75.6497 44.1392 75.6732 44.0912C75.626 44.115 75.5785 44.1623 75.5313 44.1861C75.9338 43.9486 76.2182 43.4737 76.1944 43.0222C76.1944 42.7846 76.147 42.5949 76.076 42.4523C76.0046 42.2388 76.0046 42.096 76.0046 42.096L77.8519 40.2194L77.8756 40.1956L76.9518 39.4353L76.7164 39.2699ZM89.5302 51.4077C88.6302 51.7642 87.8246 51.9304 87.1377 51.9777L88.2981 62.2863H89.5062H89.5535V62.2627L89.5302 51.4077ZM86.6406 51.9777C86.6167 51.9777 86.5934 51.9777 86.5695 51.9777C86.4982 51.9777 86.4035 51.9778 86.3326 51.954C86.3088 51.954 86.2851 51.954 86.2851 51.954C86.1909 51.954 86.0957 51.9301 86.025 51.9301C86.001 51.9301 86.001 51.9301 85.9777 51.9301C85.9063 51.9301 85.8355 51.9059 85.7646 51.9059C85.7408 51.9059 85.7171 51.9059 85.6934 51.9059C85.6222 51.8821 85.5514 51.8821 85.4802 51.8585C85.4093 51.8347 85.3383 51.8114 85.2671 51.8114C85.2433 51.8114 85.2433 51.8114 85.2198 51.7871C85.1728 51.7633 85.1014 51.7633 85.0542 51.7397H85.0302C84.9592 51.7159 84.9118 51.6926 84.8408 51.6683L86.025 61.5022H87.1619L86.9722 52.0016C86.8301 52.0016 86.7354 52.0016 86.6406 51.9777ZM83.1352 25.7785C83.2061 25.7547 83.2296 25.7547 83.2536 25.7309C83.2773 25.7309 83.2773 25.707 83.2773 25.707L83.372 25.8496L84.2721 28.2961C84.2721 28.2961 84.3191 28.1059 84.414 27.821C84.438 27.7022 84.4852 27.5834 84.5325 27.4646C84.6272 27.2035 84.7223 26.9184 84.8168 26.6096C84.8408 26.5147 84.8878 26.4197 84.9353 26.3247C84.9825 26.2298 85.0065 26.1348 85.0537 26.0398C85.1724 25.7787 85.2666 25.5173 85.3618 25.351C85.3858 25.3034 85.4093 25.2798 85.4093 25.256C85.4565 25.161 85.5277 25.1136 85.5512 25.0896C85.5512 25.0896 85.4567 25.0658 85.338 25.0184C85.2671 24.9946 85.1726 24.9473 85.1012 24.8761C84.9827 24.8049 84.888 24.6859 84.7931 24.5671C84.7221 24.4484 84.6746 24.2822 84.6986 24.092C84.6986 23.997 84.7226 23.9021 84.7458 23.8307C84.7696 23.6883 84.7931 23.5696 84.8171 23.4508C84.841 23.332 84.8643 23.2132 84.9115 23.1182C84.9115 23.0944 84.9355 23.0471 84.9355 23.0233C84.9827 22.8569 85.03 22.7384 85.0539 22.7146C85.0539 22.7146 85.1726 22.7857 85.3143 22.7857C85.4563 22.8095 85.6459 22.7857 85.7881 22.5958C85.8355 22.5244 85.9065 22.4294 85.954 22.3109C86.1669 21.8119 86.3095 20.957 86.1669 20.5533C86.1432 20.5056 86.1432 20.4821 86.0959 20.4583C86.0247 20.3871 85.906 20.3395 85.7876 20.3395C85.6219 20.3395 85.4323 20.3871 85.2666 20.4345C85.077 20.4821 84.935 20.5533 84.935 20.5533C84.935 20.5533 83.8221 20.9808 82.7796 20.8146C81.7371 20.6482 80.3636 18.6055 80.3636 18.6055C80.3636 18.6055 80.4583 18.8904 80.1509 19.5792C80.1034 19.6742 80.0562 19.793 80.0087 19.888C79.535 20.7906 79.2986 20.9569 79.2986 20.9569L79.464 21.6694L79.6299 22.382C79.6299 22.382 79.5829 22.3109 79.5115 22.2394C79.464 22.1921 79.393 22.1683 79.2986 22.1683C79.2746 22.1683 79.2271 22.1921 79.2038 22.1921C79.2985 23.5934 80.1039 23.9023 80.3408 24.1161C80.3408 24.1161 80.3645 24.1399 80.3645 24.1637L80.3887 24.1875C80.5072 24.3298 80.8148 24.7099 81.1703 25.0425C81.336 25.2088 81.5256 25.375 81.7146 25.4938C81.7621 25.5176 81.8093 25.5411 81.8568 25.5649C81.951 25.6125 82.0462 25.6599 82.1169 25.6837C82.401 25.7549 82.6381 25.7787 82.8038 25.7787C82.993 25.8023 83.0877 25.7785 83.1352 25.7785ZM85.954 37.3461C86.0012 37.2985 86.0485 37.2512 86.0959 37.2036C86.1669 37.1324 86.2144 37.0848 86.2379 37.0612H86.2618C86.2856 37.0612 86.2856 37.0612 86.333 37.0374C86.333 37.0374 86.357 37.0374 86.3803 37.0374C86.4042 37.0374 86.4277 37.0136 86.4515 37.0136H86.4754C86.4992 37.0136 86.5466 36.9898 86.5699 36.9898H86.5939C86.6414 36.966 86.6651 36.966 86.7123 36.9422C86.7361 36.9422 86.7361 36.9422 86.7598 36.9184C86.807 36.9184 86.8308 36.8946 86.8782 36.8946C86.902 36.8946 86.902 36.8946 86.9255 36.8708C86.9727 36.847 87.0199 36.847 87.0439 36.8232H87.0676C87.1151 36.7994 87.1861 36.7994 87.2336 36.7756C87.2808 36.7518 87.352 36.7518 87.3992 36.7282C87.4467 36.7044 87.4939 36.7044 87.5177 36.6806H87.5416C87.5656 36.6806 87.6129 36.6568 87.6361 36.6568C87.6603 36.6568 87.6836 36.633 87.7073 36.633C87.802 36.6092 87.8972 36.5854 87.9677 36.5619C88.0861 36.538 88.1573 36.5142 88.1573 36.5142L87.6129 34.9466L87.1389 35.1841C87.1389 35.1841 86.9259 35.2318 86.6176 35.3029C86.1204 35.4217 85.4097 35.564 85.1733 35.6116C85.1258 35.6116 85.0786 35.6354 85.0311 35.6354C84.8892 35.6354 84.747 35.6116 84.6051 35.5405C84.5576 35.5167 84.5104 35.4929 84.4629 35.4691C84.321 35.3741 84.2028 35.2791 84.0604 35.1127C83.7288 34.709 83.3499 34.5903 83.326 34.7802C83.3022 34.9704 83.3972 35.0178 83.5631 35.3503C83.5871 35.3979 83.5871 35.4217 83.5871 35.4691C83.5871 35.7304 83.1608 35.9204 83.1608 35.9204C83.1608 35.9204 82.616 35.873 82.5451 36.1106C82.4739 36.3481 82.6635 37.1793 82.9239 37.6544C83.1608 38.1057 83.8002 38.1295 84.1555 38.1533C84.1793 38.1533 84.2028 38.1533 84.2265 38.1533C84.274 38.1533 84.3449 38.1533 84.4161 38.1295C84.8424 38.0583 85.5061 37.8208 85.743 37.607C85.8355 37.4411 85.9063 37.3935 85.954 37.3461Z" fill="white"/>
<path d="M51.7767 51.0743L51.4214 45.1362L52.4161 43.7585C52.4161 43.7585 52.8187 45.0413 52.795 46.7279C52.7712 47.7253 52.3449 49.7207 52.0133 51.1931L51.7767 51.0743ZM49.8582 53.8535V54.9463L51.7055 54.0197V53.8535C51.3976 53.9723 50.9951 54.1147 50.7817 54.1385C50.5686 54.1627 50.3554 53.9723 50.1658 53.7112L49.8582 53.8535ZM59.3087 37.4641L59.0481 37.7966C59.0481 37.7966 59.6403 38.153 60.2562 38.4855C60.8721 38.818 66.5328 43.1887 66.5328 43.1887L72.7385 42.9509L72.7857 43.1173C72.7857 43.1173 72.8569 42.5946 73.0938 42.3334C73.3307 42.0721 73.5198 41.6684 73.615 41.4546C73.71 41.2409 73.8991 41.4546 73.9703 41.7634C73.9703 41.835 73.9703 41.8824 73.9703 41.9538L74.7519 41.8114L76.7177 39.2698L76.9309 39.4362L76.5993 39.1512L78.139 37.1561C78.139 37.1561 79.0153 29.484 79.0863 29.1276C79.1338 28.8665 80.1048 27.9639 80.697 27.465L77.6178 25.6836L58.551 36.6572H58.7879L59.3087 37.4641ZM89.8394 33.4736L89.5551 32.6659L89.2235 32.4757L89.271 33.9008L89.8394 33.4736ZM92.5868 34.4473C91.9944 34.9936 90.4079 36.015 89.7915 36.3951C89.8862 36.3713 90.0046 36.3239 90.0998 36.2763C90.6443 37.4877 91.0711 38.2715 91.0711 38.2715L90.5498 38.4138L90.1468 38.5088C90.6683 40.0527 91.26 41.6441 91.26 41.6441C91.189 41.7158 91.1181 41.7865 91.0231 41.8345C91.3075 44.1863 89.7915 51.2405 89.7915 51.2405C89.697 51.2878 89.6021 51.3354 89.5074 51.3592V62.1907L89.6258 62.0957V63.9007H88.9861V63.4735C88.9861 63.4735 88.6073 64.0435 88.2992 64.2811C87.9909 64.5424 87.1623 64.8988 86.7123 64.8988C86.2623 64.8988 85.5041 64.6612 85.5518 64.4237C85.5991 64.1623 86.2388 64.2811 86.9019 63.8298C87.5651 63.3782 87.8492 62.4283 87.9676 62.2621C88.0623 62.1433 88.2045 62.1907 88.252 62.2381L87.0916 51.9296C87.0201 51.9296 86.9494 51.9296 86.8784 51.9296L87.0678 61.4302L87.2575 61.2879V63.0931H86.6178V62.6656C86.6178 62.6656 86.239 63.2357 85.9309 63.4732C85.623 63.7343 84.794 64.0909 84.3439 64.0909C83.8939 64.0909 83.136 63.8531 83.1835 63.6156C83.231 63.3544 83.8707 63.4732 84.5336 63.0214C85.1968 62.5699 85.4809 61.6202 85.5993 61.454C85.7178 61.2879 85.9309 61.454 85.9309 61.454L84.7467 51.6201C84.273 51.454 84.0124 51.2638 84.0124 51.2638L82.6151 43.5914L82.639 43.5674C82.3309 43.52 82.1418 43.4727 82.1418 43.4727C82.1418 43.4727 82.3074 40.741 82.1418 38.7457C81.9758 36.7505 81.0048 33.9477 81.0048 33.9477L80.152 37.6295L77.8547 40.2662L77.7599 40.195L75.9128 42.0714C75.9128 42.0714 75.9128 42.1902 75.9841 42.4277C76.0788 42.5703 76.1025 42.7605 76.1025 42.998C76.1265 43.4731 75.8421 43.9242 75.4393 44.1617C75.4866 44.1382 75.534 44.0906 75.5813 44.0672C75.5575 44.1144 75.534 44.186 75.534 44.2574C75.5103 44.5662 75.4156 44.614 75.108 44.8037C74.7997 44.9937 73.8291 45.1831 73.4263 45.231C73.0238 45.2548 72.9291 45.112 72.8816 44.1617C72.029 44.4231 66.7234 45.967 66.3681 46.0146C65.9893 46.0857 60.3284 43.307 60.3284 43.307L61.0388 54.0906C61.0388 54.0906 60.8256 54.1854 60.4703 54.3284V72.5231C60.4703 72.5231 61.4888 71.7626 62.1757 71.8104C62.8626 71.8582 63.3364 72.8318 63.3126 72.9506C63.2889 73.0455 60.6834 75.0409 60.1862 75.0649C59.6889 75.0887 58.4335 74.9462 58.3623 74.8272C58.2914 74.7084 58.1492 73.3545 58.1729 73.141C58.1967 72.9505 58.3623 72.8558 58.3623 72.8558L56.3016 60.6707L55.1647 71.9058L55.7806 71.5021C55.7806 71.5021 56.1597 71.3117 56.6807 71.5021C57.2254 71.6921 57.5807 72.2857 57.5807 72.2857C57.5807 72.2857 57.6045 72.5468 57.2017 72.7611C56.8226 72.9746 55.591 73.996 54.7621 74.3763C53.9096 74.756 52.9858 74.0438 52.9858 74.0438V72.6183L52.4883 61.906L46.6142 65.3025L44.6719 64.0909C44.6719 64.0909 45.1932 58.034 45.1694 57.4875C45.1457 56.941 45.5485 56.5849 45.5485 56.5849L49.125 54.5662L49.054 53.5208L49.7172 53.1171C49.5513 52.8079 49.4568 52.4994 49.5752 52.1431C49.7172 51.7634 50.2621 51.2643 50.2621 51.2643C50.2621 51.2643 49.3146 46.3476 49.2199 45.3262C49.1727 44.8035 49.599 43.1173 50.0962 41.4782L6.65576 66.5609L61.7247 98.3898L131.479 57.1788L92.5868 34.4473Z" fill="#A3D6FF"/>
<path d="M89.53 62.2628L89.6484 62.1676V63.9728H89.0085V63.5455C89.0085 63.5455 88.6299 64.1154 88.3216 64.3532C88.0138 64.614 87.1847 64.9706 86.7347 64.9706C86.2846 64.9706 85.5268 64.7328 85.5742 64.4953C85.6217 64.2344 86.2611 64.3529 86.9243 63.9011C87.5872 63.4496 87.8714 62.5001 87.9898 62.3337C88.0845 62.215 88.2271 62.2626 88.2742 62.3099C88.2981 62.3337 88.2981 62.3337 88.2981 62.3337H89.435L89.4588 62.3099H89.5063V62.2626L89.53 62.2628ZM62.2444 71.8589C61.5575 71.8113 60.539 72.5713 60.539 72.5713V54.3767C60.4678 54.4007 60.3968 54.424 60.3258 54.4714C60.3258 54.4714 60.3258 54.4714 60.3021 54.4714C60.2309 54.4955 60.1599 54.519 60.0652 54.5664H60.0415C59.9705 54.5902 59.8756 54.638 59.7809 54.6614C59.7571 54.6614 59.7571 54.6614 59.7336 54.6852C59.6624 54.709 59.5677 54.7325 59.4968 54.7801C59.473 54.7801 59.473 54.7801 59.4493 54.8039C59.3546 54.8277 59.2599 54.8756 59.1652 54.8989C59.1414 54.8989 59.1177 54.923 59.094 54.923C58.9993 54.9468 58.9281 54.9701 58.8336 54.9944C58.8098 54.9944 58.7861 54.9944 58.7861 55.0182C58.6914 55.042 58.573 55.0658 58.478 55.1131C58.4543 55.1131 58.4308 55.1369 58.4071 55.1369C58.3124 55.1607 58.2176 55.1845 58.1229 55.2081C58.0992 55.2081 58.0755 55.2081 58.0755 55.2324C57.957 55.2562 57.8623 55.2795 57.7439 55.3038C57.7202 55.3038 57.6967 55.3038 57.6492 55.3276C57.5545 55.3516 57.4598 55.375 57.3651 55.375C57.3413 55.375 57.3413 55.375 57.3176 55.375C57.1992 55.399 57.1045 55.399 56.986 55.4228C56.9623 55.4228 56.9385 55.4228 56.8913 55.4228C56.7966 55.4464 56.6782 55.4464 56.5832 55.4464C56.5595 55.4464 56.5595 55.4464 56.5358 55.4464C56.4173 55.4464 56.3226 55.4704 56.2042 55.4704C56.1804 55.4704 56.1569 55.4704 56.1332 55.4704C56.0385 55.4704 55.9201 55.4704 55.8253 55.4704H55.8016C55.7069 55.4704 55.5885 55.4464 55.4938 55.4464C55.47 55.4464 55.4463 55.4464 55.4228 55.4464C55.3281 55.4228 55.2096 55.4228 55.1147 55.399C54.9488 55.375 54.8069 55.3276 54.6409 55.2802C54.5935 55.2562 54.5462 55.2562 54.4988 55.2329C54.4041 55.2088 54.3094 55.1615 54.2147 55.1381C54.1674 55.1141 54.12 55.0903 54.0487 55.0667C53.954 55.0191 53.8831 54.9953 53.8119 54.9477C53.7644 54.9239 53.7172 54.9003 53.6699 54.8765C53.599 54.8289 53.504 54.7816 53.4331 54.7578C53.3856 54.7335 53.3618 54.7099 53.3146 54.6864C53.2199 54.639 53.1487 54.5911 53.0777 54.5202C53.054 54.4959 53.0305 54.4959 53.0068 54.4724C52.6989 54.2348 52.4146 54.0213 52.2014 53.8075L52.2489 54.7099L52.5805 62.0022L53.0777 72.7144V74.1397C53.0777 74.1397 54.0015 74.8288 54.8543 74.4722C55.7069 74.0923 56.915 73.0709 57.2939 72.857C57.6727 72.6434 57.6727 72.3816 57.6727 72.3816C57.6727 72.3816 57.3174 71.7877 56.7726 71.598C56.2279 71.4078 55.8726 71.598 55.8726 71.598L55.2566 72.002L56.3936 60.767L58.4543 72.9517C58.4543 72.9517 58.2649 73.0467 58.2649 73.2371C58.2411 73.4273 58.3833 74.7809 58.4543 74.9233C58.5253 75.0421 59.7806 75.1844 60.2781 75.1608C60.7756 75.1373 63.3811 73.1421 63.4046 73.0467C63.4288 72.9041 62.9313 71.9063 62.2444 71.8589ZM91.0697 41.8828C90.975 41.9542 90.9038 42.0254 90.8091 42.0968C90.8091 42.0968 90.7854 42.0968 90.7854 42.1204C89.8853 42.8095 88.8668 43.237 87.8721 43.4985C87.3748 43.6173 86.8778 43.7121 86.4035 43.7594C86.3798 43.7594 86.3798 43.7594 86.3563 43.7594C86.2618 43.7594 86.1667 43.7837 86.0962 43.7837H86.0722C85.8118 43.8073 85.5277 43.8073 85.2908 43.8073C85.2666 43.8073 85.2666 43.8073 85.2434 43.8073C85.1724 43.8073 85.1014 43.8073 85.0302 43.8073C85.0065 43.8073 84.983 43.8073 84.9592 43.8073C84.888 43.8073 84.8173 43.8073 84.7694 43.8073C84.7456 43.8073 84.7224 43.8073 84.6984 43.8073C84.4852 43.8073 84.2956 43.7837 84.106 43.7837C84.082 43.7837 84.0587 43.7837 84.0112 43.7837C83.964 43.7837 83.9168 43.7837 83.8693 43.7594C83.8456 43.7594 83.7983 43.7594 83.7748 43.7594C83.7276 43.7594 83.6804 43.7594 83.6329 43.7356C83.6092 43.7356 83.5619 43.7356 83.5384 43.7356C83.3728 43.7118 83.2303 43.688 83.0884 43.688C83.0644 43.688 83.0644 43.688 83.0412 43.688C82.9937 43.688 82.9465 43.664 82.9227 43.664C82.8988 43.664 82.8988 43.664 82.8753 43.664C82.828 43.664 82.7808 43.6402 82.7568 43.6402C82.7328 43.664 82.7328 43.664 82.7328 43.664L84.1302 51.3366C84.1302 51.3366 84.3908 51.5268 84.8645 51.6929C84.9118 51.717 84.983 51.7403 85.0542 51.7643H85.0781C85.1254 51.7881 85.1966 51.7881 85.2438 51.8117C85.2676 51.8117 85.2676 51.8117 85.2913 51.8357C85.3623 51.8595 85.4332 51.8831 85.5042 51.8831C85.5754 51.9069 85.6461 51.9069 85.7171 51.9305C85.7413 51.9305 85.7646 51.9305 85.7883 51.9305C85.8598 51.9305 85.9303 51.9545 86.0015 51.9545C86.0254 51.9545 86.0254 51.9545 86.0487 51.9545C86.1434 51.9545 86.2146 51.9785 86.3093 51.9785C86.333 51.9785 86.3563 51.9785 86.3563 51.9785C86.4278 51.9785 86.4983 51.9785 86.5934 52.0026C86.6172 52.0026 86.6409 52.0026 86.6646 52.0026C86.7593 52.0026 86.854 52.0026 86.9727 52.0026C87.0439 52.0026 87.1147 52.0026 87.1856 52.0026C87.8963 51.955 88.7016 51.8124 89.5779 51.4323C89.6726 51.3849 89.7678 51.3609 89.8623 51.3135C89.8143 51.289 91.3538 44.2343 91.0697 41.8828ZM86.6642 62.7379V63.1654H87.3036V61.3602L87.1142 61.5025H85.9773C85.9773 61.5025 85.7641 61.3364 85.6457 61.5025C85.5272 61.6689 85.2429 62.6189 84.5797 63.07C83.9168 63.5215 83.2771 63.4263 83.2299 63.6641C83.1824 63.9252 83.9403 64.1394 84.3903 64.1394C84.8403 64.1394 85.6689 63.7829 85.9773 63.522C86.2851 63.2842 86.6642 62.7379 86.6642 62.7379Z" fill="#4A90E2"/>
<path d="M90.3854 25.6606C90.3612 25.4469 88.0169 25.2807 88.0169 25.2807L87.8037 25.2331C87.8275 25.2569 87.851 25.2807 87.851 25.2807C87.851 25.2807 85.9562 24.9244 85.6008 25.1143C85.5536 25.1381 85.5064 25.1855 85.4589 25.2807C85.4349 25.3045 85.4117 25.3519 85.4117 25.3757C85.317 25.5421 85.1985 25.8032 85.1033 26.0646C85.0561 26.1595 85.0321 26.2545 84.9849 26.3495C84.9377 26.4444 84.9137 26.5397 84.8665 26.6346C84.7718 26.9196 84.6533 27.2285 84.5821 27.4896C84.5349 27.632 84.4876 27.7508 84.4637 27.846C84.3692 28.1309 84.3217 28.3211 84.3217 28.3211L83.4219 25.8746L81.1246 27.1335C81.1246 27.1335 80.9589 27.2761 80.6983 27.4899C80.1298 28.0123 79.1355 28.9149 79.0876 29.1525C79.0166 29.5088 78.1403 37.181 78.1403 37.181L76.6006 39.1761L76.9322 39.461L77.8559 40.2211L77.8322 40.2449L77.9267 40.3163L80.224 37.6796L81.0769 33.998C81.0769 33.998 82.0479 36.8008 82.2138 38.796C82.3795 40.7911 82.2138 43.5227 82.2138 43.5227C82.2138 43.5227 82.4034 43.5701 82.711 43.6177C82.7583 43.6177 82.7822 43.6415 82.8295 43.6415C82.8535 43.6415 82.8535 43.6415 82.8767 43.6415C82.9242 43.6415 82.9479 43.6656 82.9952 43.6656C83.0191 43.6656 83.0191 43.6656 83.0426 43.6656C83.1846 43.6894 83.3267 43.7129 83.4927 43.7129C83.5164 43.7129 83.5639 43.7129 83.5871 43.7129C83.6344 43.7129 83.6818 43.7129 83.7291 43.737C83.7528 43.737 83.8003 43.737 83.8238 43.737C83.8708 43.737 83.9182 43.737 83.9657 43.761C83.9897 43.761 84.0129 43.761 84.0604 43.761C84.2501 43.785 84.4392 43.785 84.6526 43.785C84.6766 43.785 84.7001 43.785 84.7241 43.785C84.795 43.785 84.866 43.785 84.9135 43.785C84.9374 43.785 84.9609 43.785 84.9847 43.785C85.0561 43.785 85.1266 43.785 85.1978 43.785C85.2215 43.785 85.2216 43.785 85.2451 43.785C85.5054 43.785 85.7663 43.761 86.0267 43.761H86.0504C86.1451 43.761 86.2163 43.737 86.311 43.737C86.3347 43.737 86.3347 43.737 86.358 43.737C86.832 43.6894 87.3295 43.6182 87.8265 43.4761C88.8452 43.2147 89.8398 42.787 90.7398 42.0981C90.7398 42.0981 90.7636 42.0981 90.7636 42.0741C90.8583 42.0025 90.9292 41.9318 91.0239 41.8606C91.0951 41.7889 91.1659 41.7182 91.2608 41.6702C91.2608 41.6702 90.6686 40.0789 90.1479 38.5349L84.9842 39.9126L84.1556 38.0598C83.8 38.036 83.1608 38.0122 82.924 37.5608C82.6871 37.1095 82.4739 36.2545 82.5451 36.017C82.6161 35.7794 83.1608 35.8271 83.1608 35.8271L81.3607 31.8365L82.0239 31.1239L87.898 29.485C88.0874 30.9101 88.5607 32.4778 89.1059 33.9031C89.0112 33.998 88.8927 34.0932 88.7505 34.212C88.4664 34.4258 88.0874 34.6633 87.5901 34.9009L88.1348 36.4685L88.2295 36.7535C88.2295 36.7535 88.7266 36.7058 89.5559 36.4685C89.6271 36.4447 89.6978 36.4209 89.769 36.3974C90.385 36.0172 91.9717 34.9959 92.5641 34.4496C92.6826 34.3308 92.7773 34.2358 92.7773 34.1647C92.9197 33.7605 90.4092 25.8744 90.3854 25.6606ZM89.2485 33.9028L89.201 32.4778L89.1771 31.6701L89.5326 32.6677L89.8167 33.4753L89.2485 33.9028ZM52.228 54.6625L52.5596 61.9545L46.6855 65.3511V57.6788L52.228 54.6625Z" fill="#FBC02D"/>
<path d="M87.825 25.2804C87.825 25.2804 85.9302 24.9241 85.5752 25.114C85.5752 25.114 85.4804 25.0902 85.362 25.0429C85.291 25.0191 85.1963 24.9715 85.1251 24.9005C85.0067 24.8294 84.912 24.7106 84.817 24.5918C84.7458 24.473 84.6986 24.3069 84.7226 24.1167C84.7226 24.0217 84.7463 23.9268 84.7696 23.8556C84.7935 23.713 84.817 23.5942 84.841 23.4754C84.8647 23.3567 84.888 23.2379 84.9355 23.1429C84.9355 23.1191 84.9595 23.0718 84.9595 23.048C85.0067 22.8816 85.0539 22.763 85.0779 22.739C85.0779 22.739 85.1963 22.8102 85.338 22.8102C85.48 22.834 85.6696 22.8102 85.812 22.6202C85.8595 22.549 85.9305 22.4538 85.9779 22.3353C86.1911 21.8364 86.3333 20.9814 86.1911 20.5777C86.1669 20.5301 86.1669 20.5065 86.1197 20.4827C86.0484 20.4113 85.93 20.3639 85.8116 20.3639C85.6459 20.3639 85.4562 20.4113 85.2906 20.4589C85.1007 20.5065 84.959 20.5777 84.959 20.5777C84.959 20.5777 83.8458 21.0052 82.8036 20.839C81.7611 20.6729 80.3878 18.6299 80.3878 18.6299C80.3878 18.6299 80.4822 18.9148 80.1746 19.6037C80.1271 19.6987 80.0799 19.8174 80.0327 19.9126C79.5587 20.8152 79.3223 20.9814 79.3223 20.9814L79.4882 21.694L79.6539 22.4065C79.6539 22.4065 79.6066 22.3353 79.5354 22.2641C79.4882 22.2165 79.417 22.193 79.3223 22.193C79.2985 22.193 79.2513 22.2168 79.2276 22.2168C79.2276 22.2168 77.8305 18.8915 79.796 17.4662C79.796 17.4662 80.1044 16.1123 80.886 15.8985C81.6673 15.6848 84.5811 15.661 85.5994 18.0839C86.6418 20.5065 86.6891 22.9532 87.1153 23.9746C87.4469 24.7584 87.6838 25.0909 87.7785 25.2097C87.825 25.2566 87.825 25.2804 87.825 25.2804ZM83.2773 25.7317C83.2536 25.7317 83.2061 25.7555 83.1589 25.7793C83.0877 25.8031 82.993 25.8031 82.8745 25.8267C82.7089 25.8267 82.472 25.8029 82.1876 25.7317C82.0932 25.7079 81.998 25.6603 81.9272 25.6129C81.88 25.5891 81.8325 25.5653 81.7853 25.5415C81.5954 25.4228 81.4065 25.2566 81.2406 25.0902C80.8853 24.7577 80.5774 24.3778 80.459 24.2352L80.4352 24.2114C80.6721 24.6151 81.1221 27.1568 81.1221 27.1568L83.4195 25.8979L83.2773 25.7317C83.3011 25.7079 83.2773 25.7079 83.2773 25.7317ZM63.334 25.2328C63.334 25.2328 63.4525 25.8741 62.7656 26.4679C62.0787 27.0618 60.2548 26.6103 60.2548 26.6103C60.2548 26.6103 58.9522 25.3752 57.3888 25.6365C55.8256 25.8979 53.9545 27.5367 53.9308 29.5556C53.907 31.5746 54.6177 33.1661 55.4702 33.665C55.4702 33.665 56.5599 34.3062 57.4598 34.52C57.6019 34.5438 57.7439 34.5676 57.886 34.5911C58.0045 34.5911 58.1229 34.5911 58.2414 34.5435C58.3361 34.5197 58.431 34.4724 58.502 34.4248C58.6679 34.3298 58.7861 34.1872 58.8808 33.9973C59.0939 33.546 59.1177 32.8571 59.023 31.9069C58.9755 31.3368 59.0939 31.0043 59.2598 30.8143C59.3546 30.7194 59.4495 30.6718 59.544 30.6244C59.6149 30.6006 59.6861 30.5768 59.7336 30.5768C59.7573 30.5768 59.7808 30.5768 59.8283 30.5768C59.923 30.5768 59.9942 30.5768 59.9942 30.5768C59.9942 30.5768 59.9942 30.5768 60.0889 30.7667C60.1127 30.7905 60.1127 30.8379 60.1364 30.8855C60.1601 30.9331 60.1836 30.9805 60.2074 31.0281C60.4205 31.4794 60.2074 33.1896 60.2074 33.1896C60.2074 33.1896 60.2074 33.1896 60.2311 33.1896C60.2786 33.1896 60.3495 33.1896 60.4442 33.1182C60.4917 33.0944 60.5152 33.0709 60.5627 33.0232C60.6102 32.9756 60.6574 32.9283 60.7049 32.8569C60.8233 32.6905 60.9417 32.4056 61.0365 32.0019C61.2496 31.0993 60.9892 30.1255 60.9892 29.5078C60.9892 29.3414 60.9892 29.1991 61.0602 29.1041C61.0839 29.0329 61.1312 28.9853 61.2021 28.9377C61.2968 28.8901 61.3918 28.8666 61.4862 28.8666C61.51 28.8666 61.5574 28.8666 61.5809 28.8666C61.9363 28.9142 62.1969 29.2703 62.1969 29.2703C62.1969 29.2703 63.7129 28.7478 64.0442 27.4412C64.3525 26.1592 63.334 25.2328 63.334 25.2328Z" fill="#045395"/>
</svg>