<svg xmlns="http://www.w3.org/2000/svg" width="94" height="94" viewBox="0 0 94 94" fill="none">
  <path d="M88.595 57.2073V59.9803L48.9787 82.8505L5.40503 57.6914V54.9184L48.9787 80.0775L88.595 57.2073ZM71.1815 64.2432L60.0613 70.6634L53.8855 67.0961L65.0057 60.6759L71.1815 64.2432ZM60.3856 70.0054L70.0441 64.4265L64.6767 61.3292L55.0182 66.9081L60.3856 70.0054ZM50.0644 64.45L36.002 56.3331V56.9253L50.0644 65.0422L57.0956 60.9814V60.3892L50.0644 64.45ZM60.4796 47.6099V58.434L59.4409 59.0403V48.2162L45.3785 40.0946L46.4172 39.4883L60.4796 47.6099ZM55.7796 56.9253L53.7539 58.0956L47.0752 54.2416V53.9596L53.7539 57.8136L55.5352 56.7843L52.9925 55.3132L55.7796 56.9253ZM70.3261 52.9491L70.312 52.7094L70.453 55.332L70.6457 55.4448C70.9042 55.5952 71.064 55.8725 71.064 56.1733V60.4127C71.064 60.6806 70.9418 60.9062 70.7632 61.0566L70.8055 61.8462C71.1439 62.2833 71.6797 61.5689 71.6985 61.6253C71.7173 61.6817 71.957 53.7716 72.098 53.9267C72.239 54.0865 72.9534 62.9977 72.9534 62.9977C73.4892 63.3361 73.8464 62.8802 73.8464 62.8802L74.3164 52.8551L74.3117 52.9585C72.9393 53.2734 71.3507 53.123 70.3261 52.9491ZM77.6393 46.0166L75.1671 47.4407L76.8121 48.3901L79.2843 46.966L77.6393 46.0166Z" fill="#4F8EBA"/>
  <path d="M17.9117 57.2311C17.9164 57.2311 17.9164 57.2311 17.9211 57.2311C17.9258 57.2311 17.9305 57.2311 17.9352 57.2264C17.9258 57.2264 17.9211 57.2264 17.9117 57.2311ZM17.9493 57.217C17.9493 57.217 17.9446 57.217 17.9446 57.2217C17.9399 57.2217 17.9399 57.2217 17.9352 57.2264C17.9399 57.2217 17.9446 57.2217 17.9493 57.217ZM18.1984 50.9895C18.1702 51.0083 18.1373 51.0224 18.1091 51.0412C18.142 51.0271 18.1702 51.0083 18.1984 50.9895ZM17.9728 57.2076C17.9681 57.2076 17.9681 57.2123 17.9634 57.2123C17.9587 57.2123 17.9587 57.217 17.954 57.217C17.9634 57.2123 17.9681 57.2123 17.9728 57.2076ZM18.0856 51.0553C18.0621 51.0647 18.0433 51.0741 18.0198 51.0882C18.0386 51.0741 18.0621 51.0647 18.0856 51.0553ZM17.7613 48.24C17.7707 48.24 17.7801 48.24 17.7942 48.24C17.7848 48.24 17.7707 48.24 17.7613 48.24ZM17.531 51.2245C17.5545 51.2198 17.5827 51.2151 17.6062 51.2104C17.5827 51.2198 17.5545 51.2245 17.531 51.2245ZM17.4934 51.2292C17.4793 51.2292 17.4652 51.2339 17.4511 51.2339C17.4652 51.2339 17.4793 51.2339 17.4934 51.2292ZM18.0198 57.1794C18.0104 57.1841 18.0057 57.1888 18.001 57.1935C18.001 57.1935 17.9963 57.1935 17.9963 57.1982C18.0057 57.1888 18.0151 57.1841 18.0198 57.1794ZM17.907 57.2311C17.8929 57.2358 17.8788 57.2358 17.8647 57.2358C17.8741 57.2358 17.8788 57.2358 17.8882 57.2358C17.8929 57.2358 17.8929 57.2358 17.8976 57.2358C17.9023 57.2311 17.9023 57.2311 17.907 57.2311ZM18.4851 50.402H18.4804C18.4804 50.402 18.4804 50.402 18.4851 50.402ZM18.5509 50.3879C18.5462 50.3879 18.5415 50.3879 18.5368 50.3926C18.5368 50.3926 18.5415 50.3926 18.5509 50.3879ZM18.2548 50.4396C18.2501 50.4396 18.2454 50.4396 18.2407 50.4396C18.2501 50.4396 18.2548 50.4396 18.2548 50.4396ZM18.612 50.3785C18.6073 50.3785 18.5979 50.3832 18.5932 50.3832C18.5979 50.3785 18.6026 50.3785 18.612 50.3785ZM18.33 50.4255C18.3253 50.4255 18.3206 50.4255 18.3159 50.4255C18.3206 50.4302 18.3253 50.4302 18.33 50.4255ZM18.8047 50.3362C18.8 50.3362 18.7906 50.3409 18.7859 50.3409C18.7906 50.3409 18.7953 50.3362 18.8047 50.3362ZM18.9034 47.9157C18.894 47.9204 18.8893 47.9251 18.8799 47.9298C18.8846 47.9251 18.894 47.9204 18.9034 47.9157ZM18.8705 50.3221C18.8658 50.3221 18.8611 50.3268 18.8564 50.3268C18.8564 50.3221 18.8658 50.3221 18.8705 50.3221ZM18.0339 48.2071C18.0433 48.2071 18.0574 48.2024 18.0668 48.2024C18.0574 48.2024 18.048 48.2024 18.0339 48.2071ZM18.7389 50.3503C18.7295 50.3503 18.7248 50.355 18.7154 50.355C18.7248 50.355 18.7295 50.355 18.7389 50.3503ZM70.9606 60.8313C70.9653 60.8266 70.9653 60.8219 70.97 60.8125C70.9653 60.8172 70.9606 60.8219 70.9606 60.8313ZM70.9935 60.7655C70.9888 60.7702 70.9888 60.7796 70.9841 60.7843C70.9841 60.7796 70.9888 60.7749 70.9935 60.7655ZM70.9418 60.8548C70.9371 60.8595 70.9371 60.8642 70.9324 60.8689C70.9371 60.8642 70.9418 60.8595 70.9418 60.8548ZM18.2313 50.4396C18.2266 50.4396 18.2266 50.4396 18.2219 50.4396C18.2219 50.4443 18.2266 50.4443 18.2313 50.4396ZM71.0358 60.648C71.0311 60.6621 71.0264 60.6715 71.0217 60.6856C71.0264 60.6762 71.0311 60.6621 71.0358 60.648ZM71.064 60.4882C71.064 60.5023 71.064 60.5117 71.0593 60.5258C71.064 60.5117 71.064 60.4976 71.064 60.4882ZM71.0405 60.6292C71.0452 60.6198 71.0452 60.6104 71.0499 60.5963C71.0452 60.6057 71.0452 60.6198 71.0405 60.6292ZM71.0546 60.5775C71.0546 60.5681 71.0593 60.554 71.0593 60.5446C71.0546 60.554 71.0546 60.5634 71.0546 60.5775ZM54.9524 40.3816C54.849 40.2265 54.7409 40.0808 54.6281 39.9445C54.7409 40.0855 54.849 40.2312 54.9524 40.3816ZM55.1827 40.7623C55.1451 40.6965 55.1122 40.6354 55.0746 40.5696C55.1075 40.6307 55.1451 40.6965 55.1827 40.7623ZM54.1863 39.4886C54.238 39.5356 54.2897 39.5826 54.3367 39.6343C54.285 39.5826 54.238 39.5309 54.1863 39.4886ZM17.6391 51.2057C17.6579 51.201 17.6767 51.1963 17.6955 51.1963C17.6767 51.201 17.6579 51.2057 17.6391 51.2057ZM54.6281 39.9445C54.5341 39.8317 54.4401 39.7283 54.3367 39.6296C54.4354 39.7283 54.5341 39.8364 54.6281 39.9445ZM54.1064 39.4181C54.0547 39.3758 54.003 39.3288 53.9466 39.2912C53.9983 39.3335 54.0547 39.3758 54.1064 39.4181ZM52.9878 38.0316C52.9455 37.9611 52.9126 37.8906 52.8797 37.8154C52.9126 37.8906 52.9502 37.9611 52.9878 38.0316ZM52.8186 38.7883C52.7716 38.7836 52.7199 38.7789 52.6729 38.7789C52.7199 38.7789 52.7716 38.7789 52.8186 38.7883ZM53.1946 38.323C53.2463 38.3841 53.298 38.4405 53.3544 38.4922C53.298 38.4405 53.2416 38.3841 53.1946 38.323ZM53.0489 38.8306C52.9972 38.8165 52.9455 38.8071 52.8938 38.7977C52.9455 38.8071 52.9925 38.8165 53.0489 38.8306ZM69.2545 59.0641C69.2169 59.0124 69.1746 58.9607 69.1323 58.9137C69.1746 58.9654 69.2122 59.0124 69.2545 59.0641ZM14.4384 54.6931C14.4525 54.7119 14.4666 54.7354 14.4901 54.7636C14.4807 54.7495 14.4713 54.7401 14.4666 54.7307C14.4619 54.726 14.4619 54.7213 14.4572 54.7166C14.4478 54.7072 14.4431 54.6978 14.4384 54.6931ZM14.5747 54.8576C14.5888 54.8717 14.6029 54.8858 14.6217 54.8952C14.6029 54.8811 14.5888 54.8717 14.5747 54.8576ZM14.6358 54.9046C14.6734 54.9328 14.711 54.9563 14.7533 54.9798C14.7298 54.9704 14.711 54.9563 14.6922 54.9422C14.6875 54.9375 14.6828 54.9328 14.6734 54.9328C14.6593 54.9234 14.6499 54.914 14.6358 54.9046ZM14.5747 54.8529C14.57 54.8482 14.57 54.8482 14.5653 54.8435C14.5559 54.8341 14.5465 54.8247 14.5371 54.8153C14.5465 54.8294 14.5606 54.8388 14.5747 54.8529ZM14.4948 54.7683L14.4901 54.7636C14.4901 54.7636 14.4901 54.7683 14.4948 54.7683ZM14.4948 54.773C14.5042 54.7824 14.5089 54.7918 14.5183 54.8012L14.523 54.8059C14.5136 54.7965 14.5042 54.7824 14.4948 54.773ZM17.1127 51.2292C17.1174 51.2292 17.1221 51.2292 17.1315 51.2292C17.1268 51.2292 17.1221 51.2292 17.1127 51.2292ZM67.6659 55.5015C67.7129 55.4968 67.7646 55.4968 67.821 55.5062C67.7693 55.4968 67.7176 55.4921 67.6659 55.5015ZM67.9056 55.5203C67.9573 55.5344 68.009 55.5532 68.0607 55.5814C68.009 55.5579 67.9573 55.5344 67.9056 55.5203ZM66.6084 57.8891C66.6648 57.8562 66.7212 57.8327 66.7823 57.8092C66.7212 57.828 66.6648 57.8562 66.6084 57.8891ZM69.4566 59.3508C69.7386 59.7785 69.9642 60.2532 70.1005 60.7279C69.9642 60.2579 69.7433 59.7785 69.4566 59.3508ZM66.4486 57.9972C66.4768 57.9737 66.5003 57.9549 66.5285 57.9361C66.505 57.9549 66.4768 57.9737 66.4486 57.9972ZM70.8008 61.0287L70.7961 61.0334C70.8008 61.0287 70.8008 61.0287 70.8008 61.0287ZM68.1077 55.6049C68.1124 55.6096 68.1218 55.6143 68.1265 55.6143C68.1923 55.6519 68.2534 55.6989 68.3145 55.7459C68.2534 55.6942 68.1876 55.6519 68.1265 55.6143C68.1218 55.6143 68.1171 55.6096 68.1077 55.6049ZM69.2827 59.1064C69.3203 59.1581 69.3579 59.2098 69.3955 59.2615C69.3626 59.2098 69.325 59.1581 69.2827 59.1064ZM67.3886 56.7846C67.4215 56.8551 67.4544 56.9303 67.4967 57.0008C67.4544 56.9303 67.4168 56.8598 67.3886 56.7846ZM67.4967 57.0008C67.539 57.0713 67.5813 57.1371 67.6283 57.2029C67.5813 57.1371 67.5343 57.0713 67.4967 57.0008ZM68.9631 57.4614C68.9866 57.4003 69.0007 57.3345 69.0101 57.2593C69.0007 57.3298 68.9866 57.4003 68.9631 57.4614ZM69.0148 57.1559C69.0148 57.1935 69.0148 57.2264 69.0101 57.2593C69.0148 57.2217 69.0148 57.1888 69.0148 57.1559C69.0148 57.0854 69.0101 57.0149 68.996 56.9397C69.0101 57.0102 69.0148 57.0854 69.0148 57.1559ZM67.6988 57.2922C67.7223 57.3204 67.7505 57.3533 67.7787 57.3815C67.7505 57.3533 67.7223 57.3251 67.6988 57.2922ZM68.6905 58.4578C68.6388 58.4108 68.5871 58.3685 68.5354 58.3262C68.5871 58.3638 68.6388 58.4108 68.6905 58.4578ZM19.0256 47.8499C19.0209 47.8499 19.0209 47.8546 19.0162 47.8546C19.0209 47.8546 19.0256 47.8546 19.0256 47.8499ZM18.9457 47.8969C18.9504 47.8922 18.9598 47.8922 18.9645 47.8875C18.9598 47.8875 18.9551 47.8922 18.9457 47.8969ZM17.5357 48.2447C17.5263 48.2447 17.5169 48.2447 17.5075 48.2447C17.5169 48.24 17.5263 48.2447 17.5357 48.2447ZM17.4182 48.2353C17.4088 48.2353 17.3994 48.2353 17.39 48.2353C17.4041 48.2353 17.4135 48.2353 17.4182 48.2353ZM17.3242 51.2386C17.3148 51.2386 17.3101 51.2386 17.3007 51.2386C17.3101 51.2386 17.3195 51.2386 17.3242 51.2386ZM18.2924 48.146C18.3018 48.1413 18.3159 48.1413 18.3253 48.1366C18.3159 48.1413 18.3065 48.1413 18.2924 48.146ZM18.3911 48.1178C18.4052 48.1131 18.4146 48.1084 18.4287 48.1084C18.4146 48.1131 18.4005 48.1131 18.3911 48.1178ZM18.6026 48.0473C18.5885 48.052 18.5791 48.0567 18.565 48.0614C18.5791 48.0567 18.5932 48.052 18.6026 48.0473ZM17.1879 48.2071C17.1785 48.2071 17.1691 48.2024 17.1597 48.2024C17.1738 48.2071 17.1785 48.2071 17.1879 48.2071ZM18.6496 48.0285C18.659 48.0238 18.6731 48.0191 18.6825 48.0144C18.6731 48.0191 18.6637 48.0238 18.6496 48.0285ZM50.8305 54.068L54.9054 56.4227L53.5847 55.6613L50.8305 54.068ZM88.595 57.2076L48.9787 80.0778L5.40503 54.9234L15.2186 49.2552C15.2421 49.5795 15.2985 49.9226 15.4301 50.026C15.4301 50.026 15.4818 50.0401 15.463 49.8944C15.463 49.8944 15.5993 50.2469 15.6228 49.979C15.6228 49.979 15.8296 50.2281 15.7967 49.979C15.7967 49.979 16.0223 50.2657 16.074 50.1012C16.1257 49.932 15.8625 49.7769 15.839 49.4479C15.839 49.4479 16.2009 49.5889 16.2197 49.3633C16.2197 49.3633 15.8061 49.1095 15.7685 49.0249C15.7591 49.0014 15.7403 48.9826 15.7215 48.9638L16.4735 48.5314C16.4312 49.1142 16.3701 49.7863 16.2855 50.2751C16.2761 50.3409 16.262 50.402 16.2526 50.4584C16.2526 50.4584 16.2526 50.4584 16.2526 50.4631C16.2479 50.4913 16.2385 50.5195 16.2338 50.543C16.2291 50.5665 16.2244 50.5947 16.215 50.6135V50.6182C16.2103 50.6417 16.2009 50.6605 16.1962 50.684C16.1962 50.6887 16.1962 50.6887 16.1915 50.6934C16.1868 50.7122 16.1821 50.731 16.1727 50.7451V50.7498C16.168 50.7686 16.1586 50.7827 16.1539 50.7968C16.1539 50.8015 16.1492 50.8015 16.1492 50.8062C16.1445 50.8203 16.1351 50.8344 16.1304 50.8485C16.1304 50.8485 16.5158 51.1399 17.061 51.2151C17.1127 51.4501 17.1409 51.6005 17.1409 51.6005C17.1409 51.6005 17.1456 51.6287 17.1503 51.6804C17.0939 51.8308 16.9811 52.0188 16.7602 52.1833C16.3184 52.5076 15.9283 52.7802 15.6651 53.4241C15.4019 54.068 14.7204 54.5333 14.5277 54.6038C14.4995 54.6132 14.4619 54.6273 14.4243 54.6461C14.429 54.6555 14.4337 54.6649 14.4384 54.6743C14.4055 54.6226 14.3961 54.5897 14.3961 54.5897C14.053 54.5427 13.7898 55.1114 13.7945 55.3041C13.7992 55.4921 13.9778 55.666 14.2034 55.9668C14.429 56.2676 14.3679 57.0901 15.0259 57.2593C15.6839 57.4285 15.7544 57.2546 15.886 56.9068C15.9659 56.7 15.7873 56.559 15.6322 56.3616C15.6181 56.3475 15.6087 56.3287 15.5946 56.3146C15.5946 56.3099 15.5899 56.3099 15.5899 56.3052C15.5805 56.2864 15.5664 56.2723 15.557 56.2535C15.557 56.2535 15.557 56.2488 15.5523 56.2488C15.5429 56.23 15.5335 56.2159 15.5241 56.1971C15.5241 56.1924 15.5194 56.1924 15.5194 56.1877C15.51 56.1689 15.5006 56.1501 15.4959 56.1313C15.4959 56.1313 15.4959 56.1266 15.4912 56.1266C15.4818 56.1031 15.4724 56.0796 15.4677 56.0561C15.4677 56.0514 15.4677 56.0514 15.4677 56.0467C15.463 56.0232 15.4583 55.9997 15.4536 55.9762C15.4489 55.9574 15.4489 55.9339 15.4489 55.9151C15.4489 55.9104 15.4489 55.9057 15.4489 55.901C15.4489 55.8775 15.4489 55.8493 15.4489 55.8258C15.4536 55.7224 15.4536 55.6378 15.4489 55.5579C15.4489 55.5579 15.4489 55.5579 15.4489 55.5532C15.4489 55.5532 15.4489 55.5532 15.4489 55.5485C15.4489 55.5344 15.4442 55.5203 15.4442 55.5062C15.4442 55.4968 15.4442 55.4874 15.4395 55.478C15.4395 55.4639 15.4348 55.4498 15.4348 55.4357C15.4348 55.431 15.4348 55.4216 15.4301 55.4169C15.416 55.3276 15.3925 55.2571 15.3737 55.2054C15.3596 55.1725 15.3455 55.1443 15.3314 55.1255C15.322 55.1114 15.3173 55.1067 15.3126 55.102C15.3079 55.0973 15.3032 55.0926 15.3032 55.0926C15.2985 55.0926 15.2891 55.0926 15.2844 55.0926C15.3502 54.8952 16.5299 53.9646 16.9435 53.4899C16.9106 53.9129 16.9153 54.3641 16.9576 54.4863C17.0328 54.6978 17.3994 56.1313 17.3524 56.4039C17.3524 56.4039 17.4323 56.8269 17.3853 56.9491C17.3806 56.9632 17.3759 56.9773 17.3665 56.9914C17.249 57.0572 17.0375 57.2781 17.2255 57.9972C17.2255 57.9972 17.2725 58.0677 17.625 58.1899C17.9775 58.3168 18.471 58.909 18.6543 58.8855C18.8376 58.862 19.4063 58.9325 19.5755 58.5706C19.7447 58.2087 19.3405 58.1664 19.0867 57.922C19.082 57.9173 19.0726 57.9079 19.0679 57.9032C19.0209 57.8562 18.9739 57.8045 18.9222 57.7434C18.9034 57.7199 18.8799 57.6964 18.8611 57.6729C18.8423 57.6494 18.8188 57.6212 18.8 57.5977C18.7859 57.5789 18.7671 57.5601 18.753 57.5366C18.7201 57.4943 18.6872 57.4567 18.6543 57.4144C18.6449 57.4003 18.6308 57.3909 18.6214 57.3768C18.6214 57.3768 18.6214 57.3768 18.6214 57.3721C18.612 57.358 18.6026 57.3486 18.5885 57.3345C18.5885 57.3345 18.5885 57.3345 18.5885 57.3298C18.5791 57.3157 18.5697 57.3063 18.5556 57.2922C18.4663 57.1888 18.3864 57.1042 18.33 57.0619C18.3159 57.0525 18.3065 57.0478 18.2971 57.0431C18.2924 57.0431 18.2877 57.0384 18.283 57.0384C18.2783 57.0384 18.2736 57.0384 18.2689 57.0384C18.2595 57.0384 18.2501 57.0384 18.2454 57.0384H18.2407C18.236 57.0384 18.2266 57.0431 18.2219 57.0431H18.2172C18.2125 57.0431 18.2031 57.0478 18.1984 57.0525C18.1937 57.0525 18.189 57.0572 18.189 57.0572C18.189 57.0525 18.189 57.0525 18.189 57.0478C18.1937 56.9397 18.1608 55.0456 18.1608 55.0456L18.1138 52.7285C18.1138 52.7285 18.1185 52.5264 18.1232 52.2679C18.2219 52.188 18.3582 52.0329 18.5368 51.7462C18.706 51.4689 18.847 50.9096 18.9551 50.2986C19.2418 50.2234 19.5144 50.1153 19.5849 49.9743L19.5332 49.4996L19.3405 47.6525C19.5144 47.5162 19.5802 47.4081 19.5708 47.4081C19.5614 47.4081 19.4721 47.1073 19.3969 46.8488L19.6319 46.7125C19.9703 47.0838 20.2617 47.4269 20.2617 47.488C20.2617 47.6337 20.8069 48.2306 20.8069 48.2306C20.8069 48.2306 21.1124 48.6724 21.2017 48.6489C21.291 48.6254 21.1453 48.3951 21.1453 48.3951C21.1453 48.3951 21.2957 48.5502 21.3991 48.5737C21.5025 48.6019 21.2722 48.2776 21.2722 48.2776C21.2722 48.2776 21.5448 48.4327 21.6341 48.4327C21.7281 48.4374 21.526 48.1977 21.526 48.1977C21.7845 48.2729 21.9255 48.2118 21.7469 48.1366C21.5683 48.0614 21.0137 47.4739 21.0137 47.4739C21.4837 47.5585 21.5354 47.2671 21.4367 47.2953C21.338 47.3235 20.7223 47.1684 20.7223 47.1684C20.7223 47.1684 20.4121 46.7407 20.2006 46.3788L21.3991 45.6879L33.0692 52.5499L41.4916 47.6713L41.4963 46.7736L42.2671 46.3365L42.3188 37.0963C42.3188 36.8143 42.1731 36.5511 41.9287 36.4101L39.7103 35.1129L45.0354 32.0391L51.2253 35.6111V39.31C51.2253 39.6108 51.3851 39.8881 51.6436 40.0385L55.319 42.1582C55.8783 42.4825 56.5786 42.0783 56.5786 41.4297V38.699L70.2838 46.6138C70.1663 48.3998 69.9501 52.1457 69.9501 52.1457L70.077 52.1927C69.9924 52.4371 69.842 52.8789 69.889 53.128C69.9219 53.3066 70.1757 53.5369 70.3825 53.6779L70.3402 52.8601L70.4718 55.3182L70.6645 55.431L66.9891 53.3113C66.4298 52.987 65.7295 53.3912 65.7295 54.0398V58.2792C65.7295 58.58 65.8893 58.8573 66.1478 59.0077L69.8232 61.1274C70.1522 61.3154 70.5282 61.2543 70.782 61.0428L70.8243 61.823C70.782 62.1755 70.7303 62.6267 70.7397 62.6737C70.7538 62.7489 71.0076 62.8523 71.4259 62.7771C71.8442 62.7019 72.38 61.776 72.4552 61.5692C72.5116 61.4141 72.004 61.4094 71.7314 61.4141C71.7831 60.2015 71.9899 53.7672 72.1168 53.9129C72.2578 54.0727 72.9722 62.9839 72.9722 62.9839C72.9722 62.9839 72.9722 62.9792 72.9722 62.9698C72.9487 63.186 72.8876 63.8017 72.9769 63.8393C73.0803 63.8863 74.6783 64.0461 75.153 63.4821C75.6324 62.9134 73.931 62.8993 73.931 62.8993C73.931 62.8993 73.9028 62.8711 73.8652 62.8382L74.3352 52.8413C74.3352 52.8413 74.3305 51.8496 74.3164 50.5853C74.5138 50.7169 74.7817 50.7827 75.1107 50.6652C75.3786 50.5712 75.6888 50.2704 75.9896 49.9038L88.595 57.2076ZM45.3785 50.919L48.8612 52.9306L47.0799 53.9599V54.2419L53.7586 58.0959L55.7843 56.9256L59.4456 59.0406L60.4843 58.4343V47.6102L46.4172 39.4933L45.3785 40.0996V50.919ZM50.0597 65.0425L57.0909 60.9817V60.3895L43.0332 52.2679L36.002 56.3334V56.9256L50.0597 65.0425ZM71.1815 64.2435L65.0057 60.6762L53.8855 67.0964V68.5205L60.0613 72.0878L71.1815 65.6676V64.2435Z" fill="#E6F4F7"/>
  <path d="M64.6813 61.3307L64.6907 67.5206L63.1068 68.4371V62.2425L64.6813 61.3307ZM59.563 64.287L59.5536 69.5275L60.3855 70.0069L61.7015 69.2455V63.0509L59.563 64.287ZM46.2385 41.2617V50.7557L58.5713 57.8762V48.3822L46.2385 41.2617Z" fill="#F2F9FD"/>
  <path d="M71.4824 41.9163C71.6328 41.2442 72.6104 41.2536 72.6104 41.2536C72.6104 41.2536 72.9394 40.981 73.3389 40.9857L57.7725 31.9993C59.0368 29.1135 62.1153 28.3333 65.7014 30.406C69.2593 32.4599 72.3002 36.7275 73.5645 41.0233C73.6632 41.0562 73.7666 41.1079 73.8653 41.1925C74.4481 41.686 73.9969 42.3252 73.9969 42.3252C73.9969 42.3252 74.1332 42.7623 74.2319 43.2229C75.9286 43.1524 77.4467 41.7753 77.4467 39.8718V22.9565C77.4467 21.758 76.8075 20.6535 75.7735 20.0566L61.133 11.6013C58.9005 10.3135 56.1087 11.9256 56.1087 14.5012V31.4071C56.1087 32.6056 56.7479 33.7101 57.7819 34.307L71.426 42.1842C71.4354 42.1137 71.4589 42.0197 71.4824 41.9163ZM65.7249 20.7522C67.6848 21.8802 69.264 24.6203 69.2593 26.8716C69.2546 29.1229 67.6613 30.03 65.7014 28.8973C63.7415 27.7693 62.1623 25.0292 62.167 22.7779C62.1764 20.5313 63.7697 19.6242 65.7249 20.7522ZM40.7632 37.2351L40.7162 45.7468L29.6947 39.3031L29.737 30.7867L40.7632 37.2351ZM29.4456 40.3606L24.1863 43.3592L34.6391 49.4692L39.9031 46.4706L29.4456 40.3606ZM27.4951 45.6293L25.4459 46.7949L28.7124 48.6843L30.7428 47.5328L27.4951 45.6293Z" fill="#BEDCEB"/>
  <path d="M28.9709 29.7422L28.9239 39.443L41.4776 46.7844L41.5293 37.0883L28.9709 29.7422ZM40.7162 45.741L29.6947 39.302L29.737 30.7856L40.7632 37.234L40.7162 45.741ZM28.9239 39.443L20.5015 44.2464L33.0552 51.5878L41.4776 46.7844L28.9239 39.443ZM28.7124 48.6832L25.4459 46.7938L27.4951 45.6282L30.7475 47.5317L28.7124 48.6832ZM24.1863 43.3581L29.4456 40.3595L39.8984 46.4695L34.6344 49.4681L24.1863 43.3581Z" fill="#4F8EBA"/>
  <path d="M62.1716 22.7752C62.1763 20.5239 63.7696 19.6168 65.7295 20.7495C67.6894 21.8775 69.2686 24.6176 69.2639 26.8689C69.2592 29.1202 67.6659 30.0273 65.706 28.8946C63.7461 27.7666 62.1622 25.0265 62.1716 22.7752ZM73.5597 41.0159C72.2954 36.7201 69.2545 32.4525 65.6966 30.3986C62.1058 28.3259 59.0273 29.1061 57.7677 31.9919L73.3341 40.983C73.4093 40.983 73.4845 40.9924 73.5597 41.0159ZM40.9934 26.6339V30.878C40.9934 31.5266 40.2931 31.9308 39.7338 31.6065L36.0584 29.4868C35.7999 29.3364 35.6401 29.0591 35.6401 28.7583V24.5189C35.6401 23.8703 36.3404 23.4661 36.8997 23.7904L40.5751 25.9101C40.8336 26.0558 40.9934 26.3331 40.9934 26.6339ZM37.1629 26.5916C37.1629 27.1556 37.5577 27.8418 38.0512 28.1285C38.54 28.4105 38.9395 28.1849 38.9442 27.6209C38.9442 27.0569 38.5494 26.3707 38.0559 26.084C37.5624 25.7973 37.1629 26.0276 37.1629 26.5916ZM40.0252 31.1976C39.715 30.1119 38.9442 29.0262 38.0465 28.5045C37.1441 27.9828 36.3733 28.1802 36.0584 28.904L40.0252 31.1976ZM56.5645 37.2042V41.4436C56.5645 42.0922 55.8642 42.4964 55.3049 42.1721L51.6295 40.0524C51.371 39.902 51.2112 39.6247 51.2112 39.3239V35.0845C51.2112 34.4359 51.9115 34.0317 52.4708 34.356L56.1462 36.4757C56.4 36.6261 56.5645 36.9034 56.5645 37.2042ZM52.7293 37.1572C52.7293 37.7212 53.1241 38.4074 53.6176 38.6941C54.1064 38.9761 54.5059 38.7505 54.5106 38.1865C54.5153 37.6225 54.1158 36.9363 53.6223 36.6496C53.1335 36.3676 52.734 36.5932 52.7293 37.1572ZM55.5963 41.7632C55.2861 40.6775 54.5153 39.5918 53.6176 39.0701C52.7152 38.5484 51.9444 38.7458 51.6295 39.4696L55.5963 41.7632ZM71.0687 56.1734V60.4128C71.0687 61.0614 70.3684 61.4656 69.8091 61.1413L66.1337 59.0216C65.8752 58.8712 65.7154 58.5939 65.7154 58.2931V54.049C65.7154 53.4004 66.4157 52.9962 66.975 53.3205L70.6504 55.4402C70.9089 55.5953 71.0687 55.8726 71.0687 56.1734ZM67.2382 56.1264C67.2382 56.6904 67.633 57.3766 68.1265 57.6633C68.62 57.95 69.0148 57.7197 69.0195 57.1557C69.0195 56.5917 68.6247 55.9055 68.1312 55.6188C67.6377 55.3368 67.2382 55.5624 67.2382 56.1264ZM70.1052 60.7324C69.795 59.6467 69.0242 58.561 68.1265 58.0393C67.2241 57.5176 66.4533 57.715 66.1384 58.4388L70.1052 60.7324Z" fill="#E8666A"/>
  <path d="M38.0512 26.0844C38.54 26.3664 38.9395 27.0573 38.9395 27.6213C38.9395 28.1853 38.54 28.4156 38.0465 28.1289C37.553 27.8422 37.1582 27.156 37.1582 26.592C37.1629 26.028 37.5624 25.7977 38.0512 26.0844ZM36.0584 28.9044L40.0299 31.198C39.7197 30.1123 38.9489 29.0266 38.0512 28.5049C37.1441 27.9832 36.3733 28.1806 36.0584 28.9044ZM52.7293 37.1576C52.7293 37.7216 53.1241 38.4078 53.6176 38.6945C54.1111 38.9812 54.5059 38.7509 54.5106 38.1869C54.5106 37.6229 54.1158 36.9367 53.6223 36.65C53.1335 36.368 52.734 36.5936 52.7293 37.1576ZM51.6248 39.47L55.5963 41.7636C55.2861 40.6779 54.5153 39.5922 53.6176 39.0705C52.7152 38.5488 51.9444 38.7462 51.6248 39.47ZM67.2382 56.1268C67.2382 56.6908 67.633 57.377 68.1265 57.6637C68.6153 57.9457 69.0148 57.7201 69.0195 57.1561C69.0242 56.5921 68.6247 55.9059 68.1312 55.6192C67.6377 55.3372 67.2382 55.5628 67.2382 56.1268ZM66.1337 58.4392L70.1052 60.7328C69.795 59.6471 69.0242 58.5614 68.1265 58.0397C67.2194 57.518 66.4486 57.7154 66.1337 58.4392ZM16.4453 44.8092C16.4453 44.8092 17.8835 43.6859 18.8846 43.9397L18.9786 44.5413C18.9786 44.5413 19.0397 44.9784 19.1102 45.4484C18.6731 45.486 17.0939 45.6646 16.544 46.2991C16.5581 45.8996 16.6051 45.4155 16.4453 44.8092Z" fill="white"/>
  <path d="M70.3684 53.6939C70.1616 53.5529 69.9078 53.3226 69.8749 53.144C69.8279 52.8949 69.9783 52.4531 70.0629 52.2087L70.3026 52.298C70.3073 52.5424 70.312 52.6787 70.312 52.6787V52.721L70.3684 53.6939ZM73.2119 42.7523C72.9393 42.8604 73.1273 43.4761 73.1273 43.4761H72.9816L72.9769 43.2599C72.9769 43.2599 73.0521 43.0249 72.6103 42.7946C72.1685 42.5643 72.5727 43.3069 72.5727 43.3069C72.4693 43.6876 72.1168 43.5137 71.8207 43.5137C71.9194 43.7017 72.0228 43.8615 72.0651 43.9555C72.0933 44.0119 72.1826 44.0683 72.3048 44.1247V44.3503L73.2918 44.5148C73.2777 44.4584 73.2683 44.402 73.2542 44.3503C73.7054 44.402 74.1331 44.3926 74.2506 44.2563C74.3305 44.1623 74.3352 43.932 74.3023 43.6688C74.2506 43.6594 74.1989 43.5842 74.1566 43.6406C74.0908 43.7299 73.9968 43.6359 74.0344 43.4009C74.0532 43.2834 74.1425 43.2411 74.2271 43.2317C74.1284 42.7664 73.9921 42.3293 73.9921 42.3293C74.0109 42.5173 73.4892 42.6442 73.2119 42.7523ZM17.061 41.3188C17.061 41.3188 17.0939 41.3658 17.1503 41.441C17.1738 41.6995 17.2255 42.3105 17.1785 42.522C17.2161 42.5314 17.249 42.5455 17.2537 42.5737C17.2631 42.6442 18.4052 43.4385 18.0104 42.2494C17.9634 42.2729 17.9164 42.2964 17.8788 42.3199C17.8647 42.2447 17.8459 42.1648 17.8271 42.0896C17.907 42.1366 17.9869 42.1742 18.0715 42.2024C18.1373 42.2259 18.2078 42.24 18.2783 42.2447C18.471 42.2541 18.612 42.1883 18.7154 42.0708C18.9457 41.8029 18.9833 41.2671 18.941 40.7407C18.9128 40.6138 18.8658 40.501 18.8235 40.4258C18.7436 40.501 18.5885 40.5762 18.2971 40.5245C18.2971 40.5245 17.9916 40.7548 17.5357 40.6044C17.5357 40.6044 17.5451 40.8159 17.3289 40.8864C17.1127 40.9616 17.3477 41.347 17.3477 41.347C17.3477 41.347 17.2396 41.4222 17.1127 41.1778C16.9858 40.9334 16.9435 40.9945 16.9247 41.0039C16.9153 41.0086 16.8542 40.9287 16.8119 40.8253C16.7414 40.8159 16.6756 40.8488 16.6662 40.9945C16.6521 41.3141 17.061 41.3188 17.061 41.3188ZM21.7328 48.1526C21.5542 48.0774 20.9996 47.4899 20.9996 47.4899C21.4696 47.5745 21.5213 47.2831 21.4226 47.3113C21.3239 47.3395 20.7082 47.1844 20.7082 47.1844C20.7082 47.1844 20.0549 46.2773 19.9891 46C19.9374 45.7744 19.2418 44.8767 18.9786 44.5477C18.9833 44.5665 19.0397 44.9942 19.1102 45.4501C19.1149 45.4689 19.1149 45.4924 19.1196 45.5112C19.1196 45.5253 19.1243 45.5394 19.1243 45.5582C19.129 45.6052 19.1384 45.6475 19.1431 45.6945C19.1431 45.7086 19.1478 45.7227 19.1478 45.7368C19.1619 45.8402 19.1807 45.9389 19.1948 46.0329C19.1995 46.0517 19.1995 46.0705 19.2042 46.0893C19.2183 46.1739 19.2324 46.2491 19.2418 46.3196C19.6977 46.8084 20.2382 47.41 20.2382 47.4946C20.2382 47.6403 20.7834 48.2372 20.7834 48.2372C20.7834 48.2372 21.0889 48.679 21.1782 48.6555C21.2675 48.632 21.1218 48.4017 21.1218 48.4017C21.1218 48.4017 21.2722 48.5568 21.3756 48.5803C21.479 48.6085 21.2487 48.2842 21.2487 48.2842C21.2487 48.2842 21.5213 48.4393 21.6106 48.4393C21.7046 48.444 21.5025 48.2043 21.5025 48.2043C21.7704 48.2889 21.9114 48.2231 21.7328 48.1526ZM17.3477 56.4058C17.3477 56.4058 17.4276 56.8288 17.3806 56.951C17.3759 56.9651 17.3712 56.9792 17.3618 56.9933C17.3947 56.9745 17.4182 56.9698 17.4276 56.9698H17.4323C17.4323 57.1249 17.6814 57.2283 17.8553 57.2377C17.86 57.2377 17.86 57.2377 17.8647 57.2377C17.8741 57.2377 17.8788 57.2377 17.8882 57.2377C17.8929 57.2377 17.8929 57.2377 17.8976 57.2377C17.9023 57.2377 17.907 57.2377 17.9117 57.233C17.9164 57.233 17.9164 57.233 17.9211 57.233C17.9258 57.233 17.9305 57.2283 17.9352 57.2283C17.9399 57.2283 17.9399 57.2283 17.9446 57.2236C17.9493 57.2236 17.954 57.2189 17.9587 57.2189C17.9634 57.2189 17.9634 57.2189 17.9681 57.2142C17.9728 57.2142 17.9775 57.2095 17.9822 57.2095C17.9822 57.2095 17.9869 57.2095 17.9869 57.2048C17.9916 57.2001 17.9963 57.2001 18.001 57.1954C18.001 57.1954 18.0057 57.1954 18.0057 57.1907C18.0104 57.186 18.0151 57.186 18.0198 57.1813C18.0198 57.1813 18.0198 57.1813 18.0245 57.1813C18.0715 57.1484 18.1138 57.1061 18.1561 57.0779C18.1608 57.0732 18.1655 57.0732 18.1702 57.0685C18.1702 57.0638 18.1702 57.0638 18.1702 57.0591C18.1749 56.951 18.142 55.0569 18.142 55.0569L18.095 52.7398C18.095 52.7398 18.0997 52.5377 18.1044 52.2792C18.2031 52.1993 18.3394 52.0442 18.518 51.7575C18.6872 51.4802 18.8282 50.9209 18.9363 50.3099C18.5697 50.4086 18.189 50.4556 18.189 50.4556L18.1937 50.6624L18.2031 50.9961C17.7989 51.2358 17.3994 51.2734 17.061 51.2264C17.1127 51.4614 17.1409 51.6118 17.1409 51.6118C17.1409 51.6118 17.1456 51.64 17.1503 51.6917C17.0939 51.8421 16.9811 52.0301 16.7602 52.1946C16.3184 52.5189 15.9283 52.7915 15.6651 53.4354C15.4019 54.0793 14.7204 54.5446 14.5277 54.6151C14.4995 54.6245 14.4619 54.6386 14.4243 54.6574C14.429 54.6668 14.4337 54.6762 14.4384 54.6856C14.4384 54.6903 14.4431 54.695 14.4478 54.695C14.4525 54.6997 14.4572 54.7091 14.4619 54.7185C14.4666 54.7232 14.4666 54.7279 14.4713 54.7326C14.4807 54.742 14.4901 54.7561 14.4995 54.7655C14.5042 54.7702 14.5042 54.7702 14.5089 54.7749C14.5183 54.7843 14.523 54.7937 14.5324 54.8031C14.5371 54.8078 14.5418 54.8125 14.5465 54.8172C14.5559 54.8266 14.5653 54.836 14.5747 54.8454C14.5794 54.8501 14.5841 54.8548 14.5841 54.8548C14.5982 54.8689 14.6123 54.883 14.6311 54.8924C14.6358 54.8971 14.6405 54.8971 14.6452 54.9018C14.6593 54.9112 14.6734 54.9206 14.6875 54.93C14.6922 54.9347 14.6969 54.9394 14.7063 54.9394C14.7251 54.9535 14.7439 54.9629 14.7674 54.977C14.8003 54.9958 14.8379 55.0099 14.8755 55.024H14.8802C14.899 55.0287 14.9131 55.0381 14.9319 55.0428C14.9366 55.0428 14.9413 55.0428 14.9413 55.0475C14.9601 55.0522 14.9789 55.0569 14.9977 55.0616C15.0024 55.0616 15.0024 55.0616 15.0071 55.0616C15.0306 55.0663 15.0494 55.071 15.0729 55.0757C15.0776 55.0757 15.0776 55.0757 15.0823 55.0757C15.1011 55.0804 15.1199 55.0804 15.1387 55.0851C15.1434 55.0851 15.1528 55.0851 15.1622 55.0851C15.181 55.0851 15.1951 55.0898 15.2139 55.0898C15.2233 55.0898 15.228 55.0898 15.2374 55.0898C15.2562 55.0898 15.275 55.0898 15.2985 55.0898C15.3643 54.8924 16.544 53.9618 16.9576 53.4871C16.9247 53.9101 16.9294 54.3613 16.9717 54.4835C17.0234 54.6997 17.3947 56.1379 17.3477 56.4058ZM15.4301 50.0279C15.4301 50.0279 15.4818 50.042 15.463 49.8963C15.463 49.8963 15.5993 50.2488 15.6228 49.9809C15.6228 49.9809 15.8296 50.23 15.7967 49.9809C15.7967 49.9809 16.0223 50.2676 16.074 50.1031C16.1257 49.9339 15.8625 49.7788 15.839 49.4498C15.839 49.4498 16.2009 49.5908 16.2197 49.3652C16.2197 49.3652 15.8061 49.1114 15.7685 49.0268C15.7356 48.9422 15.6322 48.9751 15.604 48.5944C15.5758 48.2137 15.9095 47.8283 15.8625 46.7567C15.8625 46.7567 15.8061 46.2303 15.8202 46.0893C15.8249 46.0235 15.9095 45.7932 16.0223 45.5441C15.8249 45.5582 15.5053 45.5582 15.2703 45.4642C15.1387 45.8026 15.0306 46.0564 14.9836 46.1128C14.8238 46.2867 15.2045 48.6085 15.2045 48.6085C15.2045 48.6085 15.1622 49.8258 15.4301 50.0279Z" fill="white"/>
  <path d="M59.5584 69.5252L60.3903 70.0046L55.0229 66.9073L60.1365 63.9557L59.5678 64.2847L59.5584 69.5252ZM64.6814 61.3284L64.6908 67.5183L63.1069 68.4348V62.2402L61.7016 63.0533V69.2479L60.3856 70.0093L70.0441 64.4304L64.6814 61.3284ZM59.4362 48.2154V59.0394L45.3738 50.9226V40.0938L59.4362 48.2154ZM58.5761 48.3799L46.2386 41.2594V50.7534L58.5714 57.8739V48.3799H58.5761ZM36.002 56.3323L50.0644 64.4492L57.0956 60.3884L43.0379 52.2668L36.002 56.3323ZM55.5352 56.7834L53.7539 57.8127L47.0752 53.9588L48.8565 52.9294L55.5352 56.7834ZM77.1082 48.2248C76.7745 48.8076 75.7969 50.4385 75.0966 50.6829C74.7676 50.7957 74.5044 50.7298 74.3023 50.6029C74.3164 51.8625 74.3211 52.8589 74.3211 52.8589L74.3164 52.9624C72.9393 53.2773 71.3507 53.1269 70.3261 52.9483L70.312 52.6757C70.312 52.6757 70.3073 52.5346 70.3026 52.2949L69.936 52.1587C69.936 52.1587 70.1757 48.0227 70.2885 46.373C70.4013 44.7233 71.0123 44.7374 71.1298 44.6575C71.8301 44.2016 72.3095 44.5823 72.3095 44.5823V44.3426L73.2965 44.5071C73.3388 44.681 73.3811 44.8455 73.3811 44.8455C73.3811 44.8455 73.9028 45.0194 74.1002 45.3672L74.1096 45.3578C74.1472 45.3766 75.2846 45.8747 75.1624 48.8169L76.0507 47.9522L76.8215 48.3987L77.1082 48.2248Z" fill="#A3D6FF"/>
  <path d="M19.5756 58.5742C19.4064 58.9314 18.8377 58.8703 18.6544 58.8891C18.4711 58.9079 17.9776 58.3157 17.6251 58.1935C17.2726 58.0666 17.2256 58.0008 17.2256 58.0008C16.9718 57.0373 17.4371 56.9715 17.4371 56.9715C17.4371 57.1266 17.6862 57.23 17.8601 57.2394C17.8648 57.2394 17.8648 57.2394 17.8695 57.2394C18.0058 57.2394 18.0904 57.1125 18.1844 57.0655C18.1891 57.0608 18.1985 57.0608 18.2032 57.0561H18.2079C18.2126 57.0561 18.222 57.0514 18.2267 57.0514H18.2314C18.2408 57.0514 18.2455 57.0514 18.2549 57.0514C18.2596 57.0514 18.2643 57.0514 18.269 57.0514C18.2737 57.0514 18.2784 57.0561 18.2831 57.0561C18.2925 57.0608 18.3066 57.0702 18.316 57.0749C18.3771 57.1172 18.4523 57.2018 18.5416 57.3052C18.551 57.3193 18.5604 57.3287 18.5745 57.3428C18.5745 57.3428 18.5745 57.3428 18.5745 57.3475C18.5839 57.3616 18.5933 57.371 18.6074 57.3851C18.6074 57.3851 18.6074 57.3851 18.6074 57.3898C18.6168 57.4039 18.6309 57.4133 18.6403 57.4274C18.6732 57.4697 18.7061 57.5073 18.739 57.5496C18.7531 57.5684 18.7719 57.5872 18.786 57.6107C18.8095 57.6342 18.8283 57.6624 18.8471 57.6859C18.8659 57.7094 18.8894 57.7329 18.9082 57.7564C18.9599 57.8175 19.0116 57.8739 19.0539 57.9162C19.0586 57.9209 19.068 57.9303 19.0727 57.935C19.3406 58.17 19.7448 58.217 19.5756 58.5742ZM15.59 56.3088C15.59 56.3041 15.5853 56.3041 15.5853 56.2994C15.5759 56.2806 15.5618 56.2665 15.5524 56.2477C15.5524 56.2477 15.5524 56.243 15.5477 56.243C15.5383 56.2242 15.5289 56.2101 15.5195 56.1913C15.5195 56.1866 15.5148 56.1866 15.5148 56.1819C15.5054 56.1631 15.496 56.1443 15.4913 56.1255C15.4913 56.1255 15.4913 56.1208 15.4866 56.1208C15.4772 56.0973 15.4678 56.0738 15.4631 56.0503C15.4631 56.0456 15.4631 56.0456 15.4631 56.0409C15.4584 56.0174 15.4537 55.9939 15.449 55.9704C15.4443 55.9516 15.4443 55.9281 15.4443 55.9093C15.4443 55.9046 15.4443 55.8999 15.4443 55.8952C15.4443 55.8717 15.4443 55.8435 15.4443 55.82C15.449 55.7166 15.449 55.632 15.4443 55.5521C15.4443 55.5521 15.4443 55.5521 15.4443 55.5474C15.4443 55.5474 15.4443 55.5474 15.4443 55.5427C15.4443 55.5286 15.4396 55.5145 15.4396 55.5004C15.4396 55.491 15.4396 55.4816 15.4349 55.4722C15.4349 55.4581 15.4302 55.444 15.4302 55.4299C15.4302 55.4252 15.4302 55.4158 15.4255 55.4111C15.4114 55.3218 15.3879 55.2513 15.3691 55.1996C15.355 55.1667 15.3409 55.1385 15.3268 55.1197C15.3174 55.1056 15.3127 55.1009 15.308 55.0962C15.3033 55.0915 15.2986 55.0868 15.2986 55.0868C15.2704 55.0868 15.2469 55.0868 15.2234 55.0868C15.214 55.0868 15.2093 55.0868 15.1999 55.0868C15.1811 55.0868 15.1623 55.0868 15.1482 55.0821C15.1388 55.0821 15.1341 55.0821 15.1247 55.0821C15.1059 55.0821 15.0871 55.0774 15.0683 55.0727C15.0636 55.0727 15.0636 55.0727 15.0589 55.0727C15.0354 55.068 15.0166 55.0633 14.9931 55.0586C14.9884 55.0586 14.9884 55.0586 14.9837 55.0586C14.9649 55.0539 14.9461 55.0492 14.9273 55.0445C14.9226 55.0445 14.9179 55.0445 14.9179 55.0398C14.8991 55.0351 14.885 55.0304 14.8662 55.021H14.8615C14.8239 55.0069 14.7863 54.9881 14.7534 54.974C14.4761 54.8236 14.3868 54.5839 14.3868 54.5839C14.0437 54.5369 13.7805 55.1056 13.7852 55.2983C13.7899 55.4863 13.9685 55.6602 14.1941 55.961C14.4197 56.2618 14.3586 57.0843 15.0166 57.2535C15.6746 57.4227 15.7451 57.2488 15.8767 56.901C15.9566 56.6942 15.778 56.5532 15.6229 56.3558C15.6135 56.3464 15.5994 56.3276 15.59 56.3088ZM16.3326 47.8958C16.3326 47.8958 17.1457 48.4316 18.1938 48.1731C19.2372 47.9146 19.5709 47.4117 19.5568 47.4117C19.5427 47.4117 19.3641 46.7866 19.2983 46.561C19.2889 46.5375 19.2795 46.4905 19.2701 46.4294C19.2701 46.4247 19.2701 46.4153 19.2654 46.4106C19.2513 46.326 19.2325 46.2179 19.209 46.091C19.2043 46.0722 19.2043 46.0534 19.1996 46.0346C19.1855 45.9406 19.1667 45.8419 19.1526 45.7385C19.1526 45.7244 19.1479 45.7103 19.1479 45.6962C19.1432 45.6539 19.1338 45.6069 19.1291 45.5599C19.1244 45.5458 19.1244 45.5317 19.1244 45.5129C19.1197 45.4941 19.1197 45.4706 19.115 45.4518C18.6779 45.4894 17.0987 45.668 16.5488 46.3025C16.5488 46.326 16.5488 46.3495 16.5488 46.373C16.5488 46.3965 16.5488 46.42 16.5488 46.4435C16.5488 46.4717 16.5488 46.5046 16.5488 46.5328C16.5582 46.9699 16.3326 47.8958 16.3326 47.8958ZM19.0915 42.8339C19.0962 42.0067 18.8001 42.0208 18.7343 42.0349C18.6309 42.1712 18.4805 42.2464 18.2784 42.2323C18.2032 42.2276 18.128 42.2135 18.0575 42.1853C18.0199 42.1947 17.9964 42.2041 17.9964 42.2041C18.4288 43.4496 17.2632 42.6412 17.2491 42.566C17.2397 42.4908 17.0282 42.5096 17.0282 42.5096C17.0282 42.5096 15.8391 43.1441 15.7733 43.177C15.7075 43.2099 15.496 43.8068 15.4678 43.9149C15.4396 44.023 14.9884 45.1933 14.9884 45.1933C15.1435 45.6868 16.2104 45.5223 16.2104 45.5223C16.201 45.4142 16.4501 44.8032 16.4501 44.8032C16.4501 44.8032 17.8883 43.6799 18.8894 43.9337L18.9834 44.5353C19.4346 44.3614 19.6273 43.9008 19.6273 43.9008C19.6273 43.9008 19.0868 43.4355 19.0915 42.8339Z" fill="#4A90E2"/>
  <path d="M75.139 63.4985C74.6596 64.0672 73.0663 63.9027 72.9629 63.8557C72.8736 63.8181 72.9347 63.2024 72.9582 62.9862C72.9582 62.9956 72.9582 63.0003 72.9582 63.0003C73.494 63.3387 73.8512 62.8828 73.8512 62.8828V62.8593C73.8888 62.8922 73.917 62.9204 73.917 62.9204C73.917 62.9204 75.6184 62.9345 75.139 63.4985ZM71.7174 61.4352C71.7127 61.5668 71.708 61.6373 71.7033 61.6326C71.6845 61.5715 71.1487 62.2906 70.8103 61.8535V61.8488C70.768 62.2013 70.7163 62.6525 70.7257 62.6995C70.7398 62.7747 70.9936 62.8781 71.4119 62.8029C71.8302 62.7277 72.366 61.8018 72.4412 61.595C72.4929 61.4352 71.99 61.4305 71.7174 61.4352ZM72.5681 43.3073C72.5681 43.3073 72.1592 42.5694 72.6057 42.795C73.0522 43.0206 72.9723 43.2603 72.9723 43.2603L72.977 43.4765H73.1227C73.1227 43.4765 72.9347 42.8608 73.2073 42.7527C73.4799 42.6446 74.0063 42.5177 73.9828 42.3203C73.9828 42.3203 74.434 41.6811 73.8512 41.1876C73.2684 40.6941 72.5963 41.2534 72.5963 41.2534C72.5963 41.2534 71.6234 41.244 71.4683 41.9161C71.3179 42.5882 71.2897 42.6352 71.4119 42.936C71.5341 43.2368 71.5106 43.5047 71.8067 43.5094C72.1169 43.5141 72.4647 43.6833 72.5681 43.3073ZM74.3964 43.2274C74.3964 43.2274 74.0768 43.1522 74.0392 43.3872C74.0016 43.6222 74.0909 43.7162 74.1614 43.6269C74.2272 43.5376 74.3071 43.7632 74.4011 43.5846C74.4904 43.4107 74.3964 43.2274 74.3964 43.2274ZM71.1816 64.2458V65.6699L60.0614 72.0901L53.8856 68.5228V67.0987L60.0614 70.666L71.1816 64.2458ZM41.9147 36.4218L30.0848 29.5081C29.8733 29.3859 29.6148 29.3812 29.3986 29.5034L28.9709 29.7478L41.534 37.0939L41.4823 46.79L42.2531 46.3529L42.3048 37.1127C42.3048 36.826 42.1544 36.5628 41.9147 36.4218ZM41.4823 46.7853L41.4776 47.683L33.0552 52.5616L20.5015 45.1826L20.5062 44.2473L33.0599 51.5887L41.4823 46.7853Z" fill="#FBC02D"/>
  <path d="M19.5144 49.5032L19.5661 49.9779C19.4063 50.3022 18.1843 50.4479 18.1843 50.4479L18.189 50.6547L18.1984 50.9884C17.1409 51.6182 16.1304 50.8568 16.1304 50.8568C16.1351 50.8427 16.1445 50.8286 16.1492 50.8145C16.1492 50.8098 16.1539 50.8098 16.1539 50.8051C16.1586 50.791 16.168 50.7722 16.1727 50.7581V50.7534C16.1774 50.7346 16.1821 50.7205 16.1915 50.7017C16.1915 50.697 16.1915 50.697 16.1962 50.6923C16.2009 50.6735 16.2103 50.65 16.215 50.6265V50.6218C16.2197 50.5983 16.2291 50.5748 16.2338 50.5513C16.2385 50.5231 16.2479 50.4996 16.2526 50.4714C16.2526 50.4714 16.2526 50.4714 16.2526 50.4667C16.2667 50.4103 16.2761 50.3492 16.2855 50.2834C16.3983 49.6348 16.4688 48.6572 16.5064 47.9945C16.7978 48.1355 17.437 48.3658 18.1937 48.1778C18.7624 48.0368 19.1196 47.8206 19.3264 47.6561L19.5144 49.5032ZM19.2371 38.9987C19.2371 38.9987 19.0162 38.2138 18.2924 38.6133C17.5686 39.0128 17.8694 39.558 17.8694 39.558C17.4229 39.323 17.2161 39.8118 17.2161 39.8118C17.2161 39.8118 17.0281 39.7319 16.8354 39.9763C16.638 40.2207 16.8072 40.4839 16.8072 40.4839C16.7038 40.7095 16.9153 40.9868 16.9294 40.9821C16.9435 40.9774 16.9858 40.9116 17.1174 41.156C17.2443 41.4004 17.3524 41.3252 17.3524 41.3252C17.3524 41.3252 17.1174 40.9398 17.3336 40.8646C17.5498 40.7894 17.5404 40.5826 17.5404 40.5826C18.001 40.733 18.3018 40.5027 18.3018 40.5027C18.5932 40.5591 18.7483 40.4792 18.8282 40.404C18.894 40.5168 18.9739 40.7283 18.9692 40.9257C18.9645 41.1889 19.1337 40.5873 19.0021 40.2536C19.6272 39.9105 19.2371 38.9987 19.2371 38.9987Z" fill="#045395"/>
</svg>