<svg xmlns="http://www.w3.org/2000/svg" width="122" height="122" viewBox="0 0 122 122" fill="none">
  <path d="M65.2457 92.5189L53.6008 99.2167L9.85766 73.9871L9.83936 78.4096L53.5825 103.639L68.8996 94.8247L65.2457 92.5189ZM81.1606 83.3689L84.6071 85.5405L83.7043 86.0224L83.9361 86.1688L112.161 69.9245V65.5508L81.1606 83.3689Z" fill="#EDA7CA"/>
  <path d="M82.6856 74.7513C82.9296 73.9705 82.466 72.0795 82.1915 71.4451C82.0695 71.1584 82.039 70.9815 82.039 70.8717C82.222 70.9022 82.3745 70.9266 82.4843 70.9327C82.6673 71.0669 82.9479 71.1645 83.2834 71.2133V75.8371C83.0211 75.8554 82.771 75.8981 82.5392 75.9469C82.5514 75.5138 82.588 75.0624 82.6856 74.7513ZM65.2457 92.5206L53.6008 99.2184L29.0361 85.0481L38.6558 79.5398V73.6106L39.766 74.1779L38.6558 71.8904L32.1959 68.2182L22.4054 73.8119L20.8682 76.7155L22.4054 77.6061V81.2295L9.85767 73.9888L19.0138 68.7062L19.0077 71.866L21.2464 73.1531L56.0896 53.0353L56.0774 53.6819C56.0774 53.6819 56.0469 55.3045 56.0408 56.0121C56.0042 56.0487 55.9676 56.1158 55.931 56.189C55.8944 56.2683 55.87 56.3537 55.8517 56.433C55.8395 56.4757 55.8334 56.5184 55.8334 56.5489C55.8334 56.555 55.8334 56.5672 55.8273 56.5733V56.5794C55.8273 56.5916 55.8212 56.5977 55.8151 56.6099V56.616C55.809 56.6282 55.809 56.6404 55.8029 56.6465V56.6526C55.7968 56.6648 55.7907 56.677 55.7846 56.6953C55.7846 56.6953 55.7846 56.7014 55.7785 56.7014C55.7602 56.7319 55.7419 56.7624 55.7236 56.799V56.8051C55.6992 56.8417 55.6809 56.8783 55.6504 56.9149C55.5406 57.0796 55.4186 57.2443 55.3454 57.3358C55.3027 57.3724 55.2661 57.409 55.2234 57.4456C55.1075 57.531 54.8879 57.7079 54.6988 57.9092C54.6866 57.9214 54.6744 57.9397 54.6561 57.9519C54.65 57.958 54.6439 57.9641 54.6378 57.9702C54.589 58.0129 54.5524 58.0495 54.5341 58.0739C54.4975 58.1105 54.4792 58.1532 54.467 58.202C54.467 58.202 54.467 58.2081 54.4609 58.2081C54.4548 58.2142 54.4548 58.2203 54.4487 58.2264C54.4426 58.2325 54.4365 58.2447 54.4365 58.2508C54.4304 58.2569 54.4304 58.263 54.4243 58.2691C54.4182 58.2752 54.4182 58.2874 54.4121 58.2935C54.406 58.2996 54.406 58.3057 54.3999 58.3179C54.3999 58.324 54.3938 58.3301 54.3938 58.3423C54.3938 58.3484 54.3877 58.3606 54.3877 58.3667C54.3877 58.3728 54.3816 58.3789 54.3816 58.385C54.3816 58.3911 54.3755 58.4033 54.3755 58.4094C54.3755 58.4155 54.3755 58.4216 54.3755 58.4277C54.3755 58.4338 54.3755 58.446 54.3755 58.4521C54.3755 58.4582 54.3755 58.4643 54.3755 58.4704C54.3755 58.4765 54.3755 58.4887 54.3755 58.4948C54.3755 58.5009 54.3755 58.507 54.3755 58.5131C54.3755 58.5192 54.3816 58.5314 54.3816 58.5375C54.3816 58.5436 54.3816 58.5436 54.3877 58.5497C54.3938 58.5619 54.3999 58.5741 54.406 58.5863C54.4487 58.6595 54.5219 58.7083 54.6134 58.7388C54.6439 58.751 54.6744 58.7571 54.7049 58.7632C54.7232 58.7632 54.7354 58.7693 54.7537 58.7693C54.7903 58.7754 54.8208 58.7754 54.8574 58.7754C54.8757 58.7754 54.894 58.7754 54.9123 58.7754C55.2722 58.7754 55.6809 58.6473 55.6992 58.6473C55.7053 58.6473 55.7297 58.6229 55.7663 58.5802C55.7724 58.5741 55.7785 58.568 55.7846 58.5558C55.8151 58.5253 55.8456 58.4887 55.8883 58.446C55.9066 58.4277 55.931 58.4033 55.9493 58.385C55.9676 58.3667 55.992 58.3423 56.0164 58.3179C56.0774 58.263 56.1445 58.202 56.2177 58.141C56.2482 58.1166 56.2787 58.0983 56.3092 58.0739C56.4617 57.9641 56.6386 57.8787 56.8155 57.8482C56.9558 57.8238 57.0717 57.7933 57.1693 57.7628C57.2059 57.7506 57.2364 57.7384 57.2669 57.7201C57.334 57.6835 57.3889 57.6469 57.4316 57.6042C57.4621 57.5737 57.4865 57.5371 57.5048 57.4944C57.5109 57.4822 57.517 57.47 57.5231 57.4517C57.5353 57.409 57.5475 57.3663 57.5536 57.3175C57.5597 57.2931 57.5597 57.2687 57.5597 57.2443C57.5597 57.226 57.5597 57.2016 57.5597 57.1833C57.5597 57.1772 57.5597 57.1711 57.5597 57.1589C57.5597 57.1467 57.5597 57.1345 57.5597 57.1162C57.5597 57.104 57.5597 57.0979 57.5536 57.0857C57.5536 57.0735 57.5475 57.0613 57.5475 57.0491C57.5475 57.0369 57.5414 57.0247 57.5414 57.0186C57.5414 57.0064 57.5353 57.0003 57.5353 56.9881C57.5353 56.9759 57.5292 56.9637 57.5292 56.9515V56.9454C57.517 56.8844 57.4926 56.8234 57.4743 56.7624C57.3889 56.5245 57.2608 56.2927 57.1754 56.1341C57.151 56.0853 57.1083 56.0609 57.0656 56.0487C57.0595 55.823 57.1266 55.457 57.1266 55.457C57.0656 55.0971 57.5536 53.2 57.6512 52.9194C57.6939 52.8035 57.7061 52.4741 57.6939 52.0898L57.9806 51.9251C58.4869 52.4192 59.2494 53.0536 59.6337 53.4379C59.6337 53.444 59.6337 53.444 59.6337 53.4501C59.6337 53.932 59.8594 53.7063 59.8289 54.1821C59.8289 54.1943 59.8289 54.2126 59.8228 54.2309V54.237C59.8228 54.2553 59.8167 54.2675 59.8167 54.2858V54.2919C59.8106 54.3285 59.7984 54.3651 59.7923 54.4078C59.6947 54.8043 59.4324 55.4265 59.3043 55.8718C59.2982 55.9023 59.286 55.9267 59.2799 55.9511V55.9572C59.2738 55.9816 59.2677 56.006 59.2616 56.0304C59.2494 56.0792 59.2433 56.128 59.2372 56.1646C59.2372 56.1707 59.2372 56.1707 59.2372 56.1768C59.2372 56.1951 59.2311 56.2073 59.2311 56.2195C59.2311 56.2256 59.2311 56.2317 59.2311 56.2317C59.2311 56.2439 59.2311 56.2561 59.2311 56.2622C59.2311 56.2683 59.2311 56.2744 59.2311 56.2744C59.2311 56.2866 59.2311 56.2927 59.2372 56.2988C59.2372 56.3049 59.2372 56.3049 59.2372 56.311C59.2372 56.3232 59.2433 56.3293 59.2494 56.3415C59.3836 56.5794 60.1095 56.7136 60.5792 56.067C61.0489 55.4204 61.1831 54.8226 61.482 54.6518C61.5918 54.5908 61.6467 54.4444 61.665 54.2858C61.6772 54.2492 61.6894 54.2065 61.7016 54.1577C61.7382 54.0113 61.7138 53.8893 61.6589 53.7917C61.6528 53.7551 61.6528 53.7307 61.6528 53.7307C61.6528 53.7307 61.5369 53.4684 61.2868 53.3342C61.0367 53.2 60.5243 52.8096 60.5243 52.8096C60.5243 52.8096 60.3169 52.773 60.2376 52.9377C59.9509 52.6022 59.6032 52.0654 59.3714 51.5042C59.3287 51.3944 59.2799 51.2907 59.225 51.1992L63.9098 48.4969V48.4908L65.1298 47.7832V42.0553L68.3323 40.207L68.6983 40.4205V54.5176C73.2794 54.3224 73.5295 56.8112 73.5417 57.2138V57.2687L74.719 56.5916V58.019C79.3001 57.8238 79.5502 60.3126 79.5624 60.7152V60.7701L81.1362 59.8612C80.9105 60.3309 80.6909 60.7884 80.6116 60.9653C80.5811 61.0263 80.575 61.0934 80.5872 61.1544C80.6665 61.5448 81.1179 61.8132 81.5388 61.9718C81.4778 62.6977 81.4351 63.2589 81.4351 63.2589L78.1411 65.7599C78.1411 65.7599 76.6344 66.9738 76.6649 67.2788C76.6954 67.5838 76.7564 67.4923 76.7564 67.4923C76.7564 67.4923 76.6527 67.8339 76.8357 67.8705C77.0187 67.9071 76.9089 68.0169 77.0065 68.1511C77.1041 68.2853 77.3908 67.7363 77.3908 67.7363L78.0496 66.8884C78.0496 66.8884 78.0008 67.657 78.3729 67.5533C78.3729 67.5533 78.3241 66.9555 78.5742 66.7725C78.7633 66.6383 80.7885 65.3024 81.856 64.607L81.7279 65.3024C80.3188 65.6318 79.3611 66.3089 79.3611 67.0836V67.5045C79.1293 67.6265 78.928 67.7241 78.7816 67.7607C77.9947 67.9864 77.3542 69.0661 77.342 69.4138C77.3298 69.7371 78.684 75.0502 78.928 76.0933C78.928 76.0994 78.9219 76.1055 78.9219 76.1116C78.9158 76.1299 78.9097 76.1482 78.9036 76.1665C78.7206 76.5813 78.2387 77.7647 77.7019 78.3686C77.0431 79.1128 78.44 78.8261 78.5071 78.7834C78.5742 78.7468 80.0748 77.8135 80.1785 77.8135C80.2822 77.8135 80.7031 77.6244 80.7275 77.4414C80.7519 77.2584 80.5811 76.0445 80.0382 75.526C80.026 75.526 80.0199 75.5565 80.0016 75.6053C79.9894 75.587 79.9772 75.5687 79.965 75.5565C79.5868 75.0868 79.7088 73.025 79.843 72.293C79.9772 71.5671 79.2391 69.7005 79.2391 69.7005L80.0077 69.4138C80.0138 69.4199 80.026 69.426 80.0321 69.4321L79.8674 69.7676C79.8735 69.7737 79.8735 69.7798 79.8796 69.7859C79.7942 69.914 79.7271 70.0543 79.7088 70.1763C79.6722 70.4569 80.9471 74.4219 81.551 76.3495C81.2338 76.5508 81.0508 76.8009 81.0508 77.0632V77.8623C81.0508 78.0087 81.1057 78.149 81.2094 78.2832C81.1728 78.332 81.1423 78.3747 81.1057 78.4235C81.0752 78.454 81.0508 78.4845 81.0325 78.5211C81.0264 78.5394 81.0203 78.5577 81.0081 78.5699C80.9044 78.7163 80.8068 78.8566 80.7275 78.9542C80.4164 79.3812 79.9406 79.6801 80.0321 80.1437C80.1236 80.6073 81.5815 80.1681 81.7218 80.0339C81.856 79.8997 83.0272 79.2897 83.1614 79.1555C83.1797 79.1372 83.1919 79.1067 83.2041 79.0701C83.3749 79.0884 83.5518 79.0945 83.7348 79.0945C85.2232 79.0945 86.4249 78.5394 86.4249 77.8623V77.0632C86.4249 76.4532 85.455 75.9469 84.1862 75.8493V71.2255C84.784 71.1401 85.2171 70.8839 85.2171 70.5789V70.2678C86.9007 69.9872 88.1024 69.2491 88.1024 68.3829V67.0836C88.1024 66.4492 87.4497 65.8819 86.4371 65.5159L86.3822 64.8388L86.4981 64.7473C87.3887 64.2288 87.4497 63.6127 87.3521 62.3927C87.3582 62.2829 87.3643 62.167 87.3704 62.0511C87.5473 61.9291 87.6815 61.7949 87.7669 61.6851C87.8523 61.5814 87.8584 61.435 87.7852 61.3252C87.4619 60.8433 87.4253 59.7758 87.1447 59.0438C86.8824 58.3545 85.4489 58.5131 84.9914 58.5863C84.9792 58.5863 84.9609 58.5924 84.9487 58.5985C84.9243 58.5924 84.8999 58.5863 84.8877 58.5741C84.7718 58.4765 84.7901 58.0739 84.8267 57.7628L91.7502 53.7734L97.838 57.287C97.6428 57.5066 97.4659 57.7689 97.35 58.1105C97.0267 59.0438 96.3984 59.5013 96.3191 59.5562C96.2398 59.5318 96.1605 59.544 96.1605 59.544C96.1605 59.544 95.6115 59.9649 95.3492 60.1052C95.0869 60.2455 94.9588 60.5261 94.9588 60.5261C94.9588 60.5261 94.8246 61.3374 95.1418 61.5143C95.459 61.6912 95.6054 62.3317 96.1056 63.021C96.6058 63.7042 97.3805 63.5639 97.5208 63.3138C97.5269 63.3077 97.5269 63.2955 97.533 63.2833C97.533 63.2772 97.533 63.2772 97.533 63.2711C97.533 63.265 97.533 63.2528 97.5391 63.2406C97.5391 63.2345 97.5391 63.2284 97.5391 63.2223C97.5391 63.2101 97.5391 63.1979 97.5391 63.1857C97.5391 63.1796 97.5391 63.1735 97.5391 63.1674C97.5391 63.1552 97.5391 63.1369 97.533 63.1186C97.533 63.1125 97.533 63.1125 97.533 63.1064C97.5269 63.0637 97.5147 63.0149 97.5025 62.96C97.4964 62.9356 97.4903 62.9051 97.4842 62.8807V62.8746C97.4781 62.8441 97.4659 62.8197 97.4598 62.7892C97.3195 62.3134 97.045 61.6485 96.9413 61.2276C96.9352 61.2032 96.9291 61.1849 96.923 61.1605C96.9169 61.1422 96.9169 61.1239 96.9108 61.1056V61.0995C96.9108 61.0812 96.9047 61.069 96.9047 61.0507C96.9047 61.0446 96.9047 61.0446 96.9047 61.0385C96.9047 61.0202 96.8986 61.0019 96.8986 60.9897C96.8681 60.5261 97.0694 60.6847 97.106 60.3248L98.8445 58.7327C98.8567 58.9889 98.875 59.1963 98.9116 59.3183C99.0641 59.8429 99.6985 62.5086 99.6497 62.5879C99.6497 62.5879 99.6619 62.594 99.6741 62.6062C99.6802 62.6611 99.6802 62.716 99.6863 62.7709C99.6497 62.7831 99.6192 62.8075 99.6009 62.8502C99.5094 63.0088 99.3874 63.2406 99.302 63.4785C99.2776 63.5395 99.2593 63.6005 99.2471 63.6615V63.6676C99.241 63.6798 99.241 63.692 99.241 63.7042C99.241 63.7164 99.2349 63.7225 99.2349 63.7347C99.2349 63.7469 99.2288 63.7591 99.2288 63.7652C99.2288 63.7774 99.2227 63.7896 99.2227 63.8018C99.2227 63.814 99.2227 63.8201 99.2166 63.8323C99.2166 63.8445 99.2166 63.8567 99.2166 63.875C99.2166 63.8811 99.2166 63.8872 99.2166 63.8994C99.2166 63.9177 99.2166 63.9421 99.2166 63.9604C99.2166 63.9787 99.2227 64.0031 99.2227 64.0214C99.2349 64.1007 99.2532 64.1678 99.2837 64.2288C99.3752 64.3935 99.5643 64.4911 99.9608 64.5582H99.9669C100.028 64.5765 100.095 64.5948 100.162 64.6131C100.65 64.8083 101.053 65.3512 101.083 65.3512C101.114 65.3573 102.138 65.6806 102.376 65.2902C102.382 65.278 102.389 65.2658 102.395 65.2536C102.395 65.2475 102.395 65.2475 102.401 65.2414C102.401 65.2353 102.407 65.2231 102.407 65.217C102.407 65.2109 102.407 65.2048 102.407 65.1987C102.407 65.1926 102.407 65.1804 102.407 65.1743C102.407 65.1682 102.407 65.1621 102.407 65.156C102.407 65.1499 102.407 65.1377 102.407 65.1316C102.407 65.1255 102.407 65.1194 102.407 65.1133C102.407 65.1072 102.407 65.095 102.401 65.0889C102.401 65.0828 102.395 65.0767 102.395 65.0706C102.395 65.0645 102.389 65.0523 102.389 65.0462C102.389 65.0401 102.382 65.034 102.382 65.0218C102.382 65.0157 102.376 65.0096 102.37 64.9974C102.364 64.9913 102.364 64.9791 102.358 64.973C102.352 64.9669 102.352 64.9608 102.346 64.9547C102.34 64.9486 102.34 64.9364 102.334 64.9303C102.328 64.9242 102.328 64.9181 102.321 64.912C102.315 64.8998 102.309 64.8937 102.303 64.8815C102.267 64.8205 102.218 64.7595 102.169 64.6985C102.157 64.6863 102.145 64.668 102.132 64.6558C102.12 64.6436 102.108 64.6253 102.09 64.6131C101.827 64.3325 101.492 64.0946 101.492 64.1007C101.492 64.1068 101.297 63.8567 101.138 63.6188C101.114 63.5822 101.089 63.5456 101.065 63.509V63.5029C101.047 63.4663 101.028 63.4358 101.01 63.4053C101.01 63.4053 101.01 63.3992 101.004 63.3992C100.998 63.387 100.992 63.3687 100.986 63.3565V63.3504C100.979 63.3382 100.973 63.326 100.973 63.3199V63.3138C100.967 63.3016 100.967 63.2955 100.961 63.2833V63.2772C100.961 63.2711 100.955 63.2589 100.955 63.2528C100.955 63.1491 100.888 62.9295 100.809 62.8014C100.827 62.7953 100.851 62.7831 100.87 62.777L100.821 58.995L112.185 65.5525L81.185 83.3767L63.2693 72.0917L49.5626 79.5215L50.4593 80.0827L49.5626 80.5707L50.4715 81.1441L49.5626 81.6382L50.3312 82.1201L49.4772 82.5837L65.2457 92.5206ZM39.4122 82.1994L50.929 73.5618C51.0022 73.5069 51.0571 73.4459 51.1059 73.3727C51.234 73.1897 51.2462 73.0006 51.2279 72.8603C51.2218 72.8237 51.2157 72.781 51.2035 72.7444V72.7383C51.1974 72.72 51.1913 72.7078 51.1852 72.6895C51.173 72.659 51.1669 72.6468 51.1669 72.6468C51.1425 72.598 51.1181 72.5431 51.0815 72.5004C50.8314 72.1649 50.3556 72.0978 50.0201 72.3479L38.9974 80.6195L39.2658 81.0282L39.0035 81.0953L39.2658 81.4491C39.2658 81.4491 38.9242 81.687 38.9486 81.748C38.9669 81.7968 39.2536 82.0591 39.4122 82.1994Z" fill="white"/>
  <path d="M97.5328 63.0991C97.5267 63.0564 97.5145 63.0076 97.5023 62.9527C97.5206 63.0076 97.5267 63.0564 97.5328 63.0991ZM97.545 63.2089C97.545 63.1967 97.545 63.1845 97.545 63.1723C97.545 63.1906 97.545 63.2028 97.545 63.2089ZM97.545 63.2272C97.545 63.2394 97.545 63.2455 97.5389 63.2577C97.5389 63.2455 97.5389 63.2394 97.545 63.2272ZM97.5389 63.2699C97.5389 63.2821 97.5328 63.2943 97.5267 63.3004C97.5267 63.2882 97.5328 63.2821 97.5389 63.2699ZM97.4596 62.7819C97.4657 62.8124 97.4779 62.8429 97.484 62.8673C97.4718 62.8368 97.4657 62.8124 97.4596 62.7819ZM99.9484 64.5509C100.516 64.6485 101.034 65.3439 101.065 65.35C101.095 65.3561 102.12 65.6794 102.358 65.289C102.468 65.1121 102.297 64.8437 102.071 64.6119C101.815 64.6119 101.48 64.6485 101.376 64.862C101.205 65.2219 100.833 64.3374 100.577 64.2886C100.327 64.2398 99.7593 63.9653 99.7593 63.9653C99.7593 63.9653 99.7654 63.4102 99.2835 63.4712C99.2225 63.6359 99.1798 63.8067 99.192 63.947C99.2286 64.2886 99.375 64.4594 99.9484 64.5509ZM102.358 65.0023C102.352 64.9962 102.352 64.984 102.346 64.9779C102.346 64.984 102.352 64.9901 102.358 65.0023ZM102.157 64.6973C102.144 64.6851 102.132 64.6668 102.12 64.6546C102.132 64.6729 102.144 64.6851 102.157 64.6973ZM102.321 64.9291C102.327 64.9352 102.334 64.9474 102.334 64.9535C102.327 64.9474 102.327 64.9352 102.321 64.9291ZM102.291 64.8803C102.297 64.8925 102.303 64.8986 102.309 64.9108C102.303 64.9047 102.297 64.8925 102.291 64.8803ZM102.382 65.0877C102.382 65.0816 102.376 65.0755 102.376 65.0694C102.382 65.0755 102.382 65.0816 102.382 65.0877ZM102.37 65.045C102.37 65.0389 102.364 65.0328 102.364 65.0206C102.37 65.0328 102.37 65.0389 102.37 65.045ZM102.376 65.2524C102.376 65.2463 102.376 65.2463 102.382 65.2402C102.382 65.2463 102.382 65.2463 102.376 65.2524ZM99.2347 63.6603C99.2286 63.6725 99.2286 63.6847 99.2286 63.6969C99.2286 63.6908 99.2286 63.6786 99.2347 63.6603ZM99.2164 63.7335C99.2164 63.7457 99.2103 63.7579 99.2103 63.764C99.2164 63.7518 99.2164 63.7457 99.2164 63.7335ZM99.2042 63.8311C99.2042 63.8189 99.2042 63.8128 99.2103 63.8006C99.2103 63.8067 99.2042 63.8189 99.2042 63.8311ZM99.2347 63.6542C99.2469 63.5932 99.2713 63.5322 99.2896 63.4712C99.2713 63.5383 99.253 63.5993 99.2347 63.6542ZM99.2042 63.8677C99.2042 63.8738 99.2042 63.8799 99.2042 63.8921C99.2042 63.886 99.2042 63.8738 99.2042 63.8677ZM81.6911 77.5988C81.6911 77.5988 81.3434 78.0868 81.0262 78.5138C80.8615 78.8737 80.7334 79.2092 80.7761 79.2702C80.8676 79.3983 81.7033 78.6419 82.3194 77.4707C82.0998 77.611 81.7338 77.6049 81.6911 77.5988ZM55.7722 56.6941C55.7722 56.6941 55.7722 56.7002 55.7661 56.7002C55.7661 56.7002 55.7661 56.6941 55.7722 56.6941ZM55.2842 57.3956C55.2842 57.3956 55.3025 57.3712 55.333 57.3346C55.2903 57.3712 55.2476 57.4078 55.211 57.4505C55.2537 57.4139 55.2842 57.3956 55.2842 57.3956ZM54.4668 58.1764C54.5095 58.1093 54.5644 58.0361 54.6254 57.969C54.5766 58.0178 54.54 58.0483 54.5156 58.0727C54.479 58.1093 54.4607 58.152 54.4485 58.2008C54.4546 58.1947 54.4607 58.1886 54.4668 58.1764ZM61.6404 53.821C61.6526 53.9186 61.6709 54.126 61.6465 54.3151C61.6587 54.2785 61.6709 54.2358 61.6831 54.187C61.7197 54.0406 61.6953 53.9247 61.6404 53.821ZM57.5534 57.2492C57.5656 57.1089 57.5229 56.9381 57.4619 56.7734C56.98 56.7124 56.9861 57.2675 56.9861 57.2675C56.9861 57.2675 56.4249 57.542 56.1687 57.5908C55.9125 57.6396 55.5404 58.5241 55.3696 58.1642C55.272 57.9507 54.9365 57.9141 54.6742 57.9141C54.4546 58.1459 54.2777 58.4143 54.3875 58.5912C54.6315 58.9816 55.6502 58.6583 55.6807 58.6522C55.7112 58.6461 56.2297 57.9507 56.797 57.8531C57.3826 57.7555 57.529 57.5908 57.5534 57.2492ZM61.4635 54.6872C61.1646 54.8519 61.0304 55.4558 60.5607 56.1024C60.091 56.7429 59.3651 56.6148 59.2309 56.3769C59.1882 56.3037 59.2248 56.1207 59.2919 55.8889C59.4749 55.7303 59.8104 55.5595 60.2374 55.8889C60.2374 55.8889 60.518 55.1325 60.6827 55.1325C60.8474 55.1325 61.0914 54.3395 61.0975 54.2236C61.1036 54.1321 60.9755 53.5892 61.2317 53.3513C61.25 53.3574 61.2622 53.3696 61.2744 53.3757C61.5245 53.5099 61.6404 53.7722 61.6404 53.7722C61.6404 53.7722 61.7624 54.5225 61.4635 54.6872ZM95.1416 61.507C95.4588 61.6839 95.6052 62.3244 96.1054 63.0137C96.6056 63.6969 97.3803 63.5566 97.5206 63.3065C97.5633 63.2333 97.5267 63.0381 97.4535 62.788C97.2583 62.6172 96.9045 62.4403 96.447 62.788C96.447 62.788 96.1481 61.9767 95.9773 61.9767C95.8065 61.9767 95.5381 61.1288 95.5381 61.0068C95.532 60.9092 95.6662 60.3297 95.3978 60.0735C95.3795 60.0857 95.3673 60.0918 95.349 60.0979C95.0867 60.2382 94.9586 60.5188 94.9586 60.5188C94.9586 60.5188 94.8244 61.324 95.1416 61.507ZM100.119 43.6157L99.6373 44.2501L99.3384 43.5181L99.4116 43.1094C99.4177 43.1094 99.5092 43.4266 100.119 43.6157ZM100.632 44.3843C100.729 44.305 100.766 44.1464 100.772 43.9756C100.638 44.0854 100.369 44.244 99.8874 44.2684C100.168 44.4575 100.473 44.5185 100.632 44.3843ZM100.54 43.4083L100.504 43.6279L100.967 43.8231L100.845 43.4754C100.748 43.4632 100.644 43.4388 100.54 43.4083ZM102.895 49.8987L102.889 49.9048L102.925 49.9353L102.895 49.8987ZM103.749 49.5144C103.669 49.6608 103.486 49.8865 103.102 50.0756L103.346 50.283C103.627 50.1671 103.895 49.7584 103.895 49.7584L103.749 49.5144ZM96.5873 51.8873L96.6361 52.1557C96.874 52.3387 97.3925 52.1252 97.3925 52.1252V51.8385C97.0448 52.0154 96.7581 51.9605 96.5873 51.8873ZM80.2576 68.9429L79.8489 69.7603C80.6968 70.8522 82.6427 70.9437 82.6427 70.9437C82.783 70.8339 83.0758 70.6387 83.2954 70.3947C82.3987 70.108 80.4833 69.437 80.2576 68.9429ZM80.2576 68.9429L80.7029 68.1072C80.7029 68.1072 80.2454 67.4118 79.977 66.6432L79.428 66.8933C79.306 68.0523 80.2576 68.9429 80.2576 68.9429Z" fill="white"/>
  <path d="M100.705 43.707L100.778 43.7375V43.9815C100.723 44.0242 100.65 44.0791 100.54 44.1279L100.504 43.6277L100.705 43.707ZM100.119 44.3902C100.125 44.3963 100.125 44.3963 100.119 44.3902V44.3902ZM100.125 44.2438C100.125 43.9632 100.119 43.6094 100.119 43.6094L99.7228 44.1279C99.7777 44.1767 99.8387 44.2255 99.8936 44.2621C99.979 44.2621 100.052 44.256 100.125 44.2438ZM99.918 44.2804L99.9241 44.2865C99.9241 44.2865 99.918 44.2865 99.918 44.2804ZM100.028 44.3475C100.022 44.3475 100.022 44.3414 100.016 44.3414C100.022 44.3475 100.022 44.3475 100.028 44.3475ZM100.278 63.0013C100.278 62.9952 100.278 62.9952 100.278 62.9952V63.0013ZM100.272 63.0013C100.272 63.0013 100.266 63.0013 100.266 62.9952C100.272 62.9952 100.272 62.9952 100.272 63.0013ZM100.796 62.8061C100.821 62.8488 100.839 62.8915 100.857 62.9403C100.839 62.8915 100.815 62.8427 100.796 62.8061ZM100.937 63.2514C100.937 63.1904 100.912 63.0928 100.876 62.9891C100.912 63.0867 100.937 63.1904 100.937 63.2514ZM102.077 64.6117C101.821 64.6117 101.486 64.6483 101.382 64.8618C101.211 65.2217 100.839 64.3372 100.583 64.2884C100.333 64.2396 99.7655 63.9651 99.7655 63.9651C99.7655 63.9651 99.7716 63.41 99.2897 63.471C99.3751 63.2331 99.5032 63.0013 99.5886 62.8427C99.7289 62.5926 100.18 62.9281 100.26 62.9891L100.589 63.6052C100.589 63.6052 101.065 64.0688 101.138 63.9895C101.175 63.9529 101.15 63.776 101.114 63.6113C101.272 63.8492 101.467 64.0993 101.467 64.0932C101.473 64.0932 101.809 64.3311 102.077 64.6117ZM100.699 62.6902C100.711 62.6963 100.717 62.7024 100.729 62.7085C100.717 62.7024 100.705 62.6963 100.699 62.6902ZM100.992 63.4039C100.992 63.4039 100.992 63.3978 100.985 63.3978C100.992 63.3978 100.992 63.3978 100.992 63.4039ZM100.967 63.3551V63.349C100.967 63.349 100.967 63.349 100.967 63.3551ZM96.8985 61.0493C96.8924 61.0249 96.8924 61.0066 96.8924 60.9822C96.8924 61.0005 96.8985 61.0249 96.8985 61.0493ZM97.4597 62.7817C97.2645 62.6109 96.9107 62.434 96.4532 62.7817C96.4532 62.7817 96.1543 61.9704 95.9835 61.9704C95.8127 61.9704 95.5443 61.1225 95.5443 61.0005C95.5382 60.9029 95.6724 60.3234 95.404 60.0672C95.3857 60.0794 95.3735 60.0855 95.3552 60.0916C95.6175 59.9513 96.1665 59.5304 96.1665 59.5304C96.1665 59.5304 96.5874 59.4572 96.502 59.9696C96.502 59.9696 96.3983 61.3787 96.502 61.4275C96.5935 61.4763 96.7826 61.7264 96.9412 61.214C96.9351 61.1896 96.929 61.1652 96.9229 61.1408C97.0083 61.5556 97.3072 62.2754 97.4597 62.7817ZM83.5639 67.1066C84.5582 67.4848 85.5586 67.6373 86.1259 67.6983C85.8697 68.0338 84.9669 69.1196 83.082 70.6141C83.1552 70.547 83.2284 70.4799 83.2955 70.4006C82.3988 70.1139 80.4834 69.4429 80.2638 68.9488L80.7091 68.1131C80.7091 68.1131 80.2516 67.4177 79.9832 66.6491L81.6607 65.8866C81.6729 65.9476 81.7095 66.0025 81.7522 66.0513C81.984 66.2587 82.2341 66.4417 82.5025 66.6003C82.2219 66.7833 81.8254 67.009 81.5082 67.0517C80.9409 67.1249 81.6119 67.2164 81.6119 67.2164C81.6119 67.2164 81.3069 67.4055 81.4777 67.4726C81.6424 67.5397 81.8925 67.4726 81.8925 67.4726C81.8925 67.4726 81.5814 67.6678 81.7339 67.741C81.8864 67.8081 82.0999 67.741 82.0999 67.741C82.0999 67.741 81.9047 67.9545 81.9779 67.985C82.0511 68.0155 82.5696 67.8264 82.5696 67.8264C82.5696 67.8264 83.0942 67.497 83.5639 67.1066Z" fill="#38874C"/>
  <path d="M74.7007 56.6157L73.5234 57.2928V34.003L88.1207 26.378L88.1268 27.7261L74.6946 35.4365L74.7007 56.6157ZM70.7906 92.9046L50.4349 80.0824L49.5382 80.5704L70.7906 93.9599L84.6071 86.5972L83.7043 86.0299L70.7906 92.9046ZM51.1059 73.3724C51.3499 73.0247 51.1669 72.6465 51.1669 72.6465L40.9128 80.3691L40.3638 80.7778L39.9978 80.5826C39.9978 80.5826 39.6684 80.9364 39.5769 81.1194C39.4854 81.3024 39.9978 81.3146 39.9978 81.3146L39.4183 82.1991L51.1059 73.3724ZM38.6497 73.6103V71.8962L39.7599 74.1837L38.6497 73.6103ZM22.4054 73.8116L20.8682 76.7152L27.566 80.5948L28.9324 77.5997L22.4054 73.8116ZM57.6573 51.6137C57.6695 51.7784 57.6817 51.9431 57.6817 52.1017L57.9684 51.937C57.8464 51.8211 57.7427 51.7113 57.6573 51.6137ZM21.2403 45.0501V73.1528L56.0835 53.0289L56.114 51.6442L23.3753 70.5542V45.1782L62.9826 22.2666V47.6792L58.4381 50.3022C58.7309 50.5462 58.9871 50.8207 59.2067 51.2233L65.1115 47.8134V19.668L21.2403 45.0501ZM84.7962 55.9325C84.8084 55.9386 84.8267 55.9447 84.845 55.9447C84.8267 55.9447 84.8145 55.9386 84.7962 55.9325ZM85.1561 55.902C85.1561 55.902 85.1073 55.9142 85.0463 55.9264C85.1073 55.9203 85.1561 55.902 85.1561 55.902ZM83.1797 58.5433C83.1797 58.5494 83.1797 58.5494 83.1797 58.5555C83.1797 58.5555 83.1797 58.5494 83.1797 58.5433ZM81.1179 59.8914C81.3802 59.3546 81.6547 58.7995 81.7828 58.6165C81.9475 58.3786 82.4904 58.3237 82.8747 58.3176C82.954 58.3176 83.0272 58.3481 83.0821 58.3908C83.4054 58.3725 83.7226 58.3298 83.747 58.2627C83.7531 58.2505 83.7653 58.2322 83.7836 58.2139C83.6006 58.2566 83.4786 58.2627 83.4786 58.2627C83.4786 58.2627 82.1732 58.2017 82.0512 56.2436C82.0451 56.1704 82.0451 56.1033 82.0451 56.0301C82.0268 56.085 82.0085 56.1338 82.0024 56.1765C82.0024 56.1765 81.7645 54.9992 82.3379 54.377C82.3379 54.377 82.832 53.6633 83.7592 53.8402C84.6925 54.0171 85.1683 54.2428 85.1683 54.2428C85.1683 54.2428 85.4855 54.316 85.6136 54.2062C85.7417 54.0964 85.5038 54.6454 85.3452 54.6332C85.3452 54.6332 85.5282 55.4567 85.2598 55.8105C85.3635 55.7434 85.5343 55.6946 85.6746 55.9447C85.9003 56.3412 85.1134 56.8231 85.1134 56.8231C85.0829 57.1281 84.9853 57.366 84.8511 57.5551C84.845 57.6161 84.8328 57.6832 84.8267 57.7564L94.2085 52.3518L94.1414 29.8855L79.5441 37.5105V60.7454C79.5441 60.782 79.5441 60.8003 79.5441 60.8003L81.1179 59.8914ZM85.2049 55.8654L85.211 55.8593C85.211 55.8593 85.211 55.8593 85.2049 55.8654ZM83.1858 58.5982C83.1858 58.5921 83.1858 58.5921 83.1858 58.586C83.1858 58.586 83.1858 58.5921 83.1858 58.5982ZM83.5457 55.8532C83.5762 55.8593 83.6006 55.8593 83.6311 55.8654C83.6006 55.8593 83.5762 55.8532 83.5457 55.8532ZM82.6429 55.0785C82.6551 55.0602 82.6612 55.0541 82.6612 55.0541C82.6612 55.0541 82.6551 55.0663 82.6429 55.0785ZM83.2895 55.7312C83.32 55.7617 83.3505 55.78 83.3871 55.7983C83.3505 55.78 83.32 55.7556 83.2895 55.7312ZM83.503 55.841C83.4603 55.8288 83.4237 55.8166 83.3871 55.7983C83.4237 55.8166 83.4603 55.8349 83.503 55.841ZM80.0199 69.4318L80.0382 69.4013L79.9955 69.4135C80.0016 69.4196 80.0077 69.4257 80.0199 69.4318ZM84.9243 69.0048C84.5217 69.3952 84.0093 69.8588 83.3749 70.3712C83.4908 70.3773 83.6128 70.3773 83.7348 70.3773C86.1443 70.3773 88.1024 69.4806 88.1024 68.3765V67.0772C88.0963 67.9983 86.7543 68.7669 84.9243 69.0048ZM79.3611 67.0833V67.5042C79.3855 67.492 79.4099 67.4737 79.4404 67.4615C79.3916 67.3334 79.3611 67.2114 79.3611 67.0833ZM83.7287 78.289C83.4908 78.289 83.259 78.2768 83.0394 78.2463C83.1309 78.3988 83.2468 78.8502 83.198 79.0637C83.3688 79.082 83.5457 79.0881 83.7287 79.0881C85.2171 79.0881 86.4188 78.533 86.4188 77.8559V77.0568C86.4188 77.74 85.2171 78.289 83.7287 78.289ZM81.0386 77.0568V77.8559C81.0386 78.0023 81.0935 78.1426 81.1972 78.2768C81.246 78.2097 81.2948 78.1426 81.3436 78.0755C81.4168 77.9718 81.49 77.8681 81.551 77.7827C81.2338 77.5814 81.0386 77.3313 81.0386 77.0568Z" fill="#D62F87"/>
  <path d="M70.7905 92.9014L49.5381 79.5119L63.2448 72.0821L84.607 85.5387L70.7905 92.9014ZM65.1114 19.6648L62.8727 18.3594L19.0625 43.7232L19.0015 71.8625L21.2402 73.1496V45.0469L65.1114 19.6648ZM21.2402 73.1496L63.8914 48.5178V48.5117L21.2402 73.1496ZM79.544 37.5073L94.1413 29.8823C94.1413 29.8823 95.1417 27.3752 89.2674 27.0702L74.6945 35.4394C74.6945 35.4333 78.2569 33.9327 79.544 37.5073ZM51.2034 72.7409C51.2095 72.7714 51.2217 72.8141 51.2278 72.8568C51.2217 72.8202 51.2156 72.7836 51.2034 72.7409ZM51.1851 72.686C51.1912 72.6982 51.1973 72.7165 51.2034 72.7348C51.1973 72.7226 51.1912 72.7043 51.1851 72.686ZM39.5768 81.1162C39.6683 80.9332 39.9977 80.5794 39.9977 80.5794L40.3637 80.7746L40.9127 80.3659L51.1668 72.6433C51.1424 72.5945 51.118 72.5396 51.0814 72.4969C50.8313 72.1614 50.3555 72.0943 50.02 72.3444L38.9973 80.616L39.2657 81.0247L39.0034 81.0918L39.2657 81.4456C39.2657 81.4456 38.9241 81.6835 38.9485 81.7445C38.9668 81.7933 39.2535 82.0556 39.4182 82.1959L39.9977 81.3114C39.9977 81.3114 39.4853 81.2992 39.5768 81.1162ZM39.4121 82.1959L50.9289 73.5583C51.0021 73.5034 51.057 73.4424 51.1058 73.3692L39.4121 82.1959ZM83.2528 23.5627L68.6799 31.9319C68.6799 31.9319 72.2423 30.4252 73.5233 34.0059L88.1206 26.3809C88.1267 26.3748 89.1271 23.8677 83.2528 23.5627ZM82.5635 66.5494C82.5452 66.5616 82.5208 66.5799 82.4964 66.5921C82.5208 66.5799 82.5391 66.5616 82.5635 66.5494ZM79.4464 67.4522C79.4159 67.2753 79.4037 67.0923 79.4281 66.8971L79.9771 66.647C80.0259 66.7812 80.0747 66.9154 80.1296 67.0374C80.0747 66.9093 80.0198 66.7812 79.9771 66.647L81.6546 65.8845C81.6485 65.8418 81.6424 65.8052 81.6546 65.7625L81.74 65.305C80.3309 65.6344 79.3732 66.3115 79.3732 67.0862C79.361 67.2082 79.3915 67.3302 79.4464 67.4522ZM81.7217 66.9886C81.7095 66.9947 81.7034 66.9947 81.6912 67.0008C81.7034 66.9947 81.7156 66.9947 81.7217 66.9886ZM81.5875 67.0252C81.5814 67.0252 81.5753 67.0313 81.5631 67.0313C81.5692 67.0313 81.5814 67.0313 81.5875 67.0252ZM81.6546 67.013C81.6485 67.013 81.6363 67.0191 81.6302 67.0191C81.6363 67.013 81.6485 67.013 81.6546 67.013ZM80.2821 67.3546C80.2943 67.3729 80.3004 67.3973 80.3126 67.4156C80.3004 67.3973 80.2882 67.3729 80.2821 67.3546ZM80.2516 67.2936C80.2211 67.2265 80.1906 67.1594 80.1601 67.0923C80.1906 67.1655 80.2211 67.2326 80.2516 67.2936ZM81.6668 65.9333C81.6668 65.9333 81.6668 65.9272 81.6607 65.9272C81.6668 65.9272 81.6668 65.9272 81.6668 65.9333ZM80.4102 67.6169C80.5688 67.9158 80.703 68.111 80.703 68.111C80.703 68.111 80.5749 67.9158 80.4102 67.6169ZM81.6912 65.9699C81.6912 65.9638 81.6851 65.9638 81.6851 65.9577C81.6851 65.9638 81.6851 65.9699 81.6912 65.9699ZM82.1975 66.7751C82.1914 66.7812 82.1792 66.7812 82.1731 66.7873C82.1853 66.7812 82.1914 66.7812 82.1975 66.7751ZM81.7949 66.9642C81.7827 66.9703 81.7766 66.9703 81.7644 66.9764C81.7705 66.9703 81.7827 66.9703 81.7949 66.9642ZM81.9962 66.8788C81.984 66.8849 81.9779 66.891 81.9657 66.891C81.9779 66.8849 81.9901 66.8849 81.9962 66.8788ZM81.9291 66.9093C81.9169 66.9154 81.9108 66.9154 81.8986 66.9215C81.9108 66.9215 81.9169 66.9154 81.9291 66.9093ZM82.0389 66.8605C82.0511 66.8544 82.0572 66.8483 82.0694 66.8483C82.0572 66.8483 82.045 66.8544 82.0389 66.8605ZM82.1304 66.8117C82.1243 66.8178 82.1121 66.8178 82.106 66.8239C82.1182 66.8178 82.1243 66.8178 82.1304 66.8117ZM84.3142 67.3485C84.302 67.3424 84.2898 67.3424 84.2715 67.3363C84.2837 67.3424 84.2959 67.3485 84.3142 67.3485ZM85.3146 67.5803C85.3268 67.5803 85.3451 67.5864 85.3573 67.5864C85.3451 67.5803 85.3268 67.5803 85.3146 67.5803ZM82.6306 67.7755C82.6184 67.7816 82.6123 67.7877 82.6001 67.7938C82.6062 67.7877 82.6184 67.7816 82.6306 67.7755ZM84.9791 67.5132C84.9974 67.5193 85.0096 67.5193 85.0279 67.5254C85.0157 67.5193 84.9974 67.5193 84.9791 67.5132ZM84.4972 67.4034C84.4789 67.3973 84.4667 67.3973 84.4484 67.3912C84.4667 67.3912 84.485 67.3973 84.4972 67.4034ZM86.437 65.5063L86.5834 67.3729C86.6017 67.562 86.437 67.7206 86.2479 67.7084C86.2113 67.7023 86.1686 67.7023 86.1259 67.6962C85.9734 67.8975 85.5952 68.355 84.9242 69.0077C86.7542 68.7698 88.0962 68.0012 88.0962 67.0801C88.0962 66.4396 87.4435 65.8723 86.437 65.5063ZM85.5037 67.6108C85.4915 67.6108 85.4793 67.6047 85.4671 67.6047C85.4854 67.6047 85.4915 67.6108 85.5037 67.6108ZM82.9295 67.5803C82.8929 67.6047 82.8563 67.6291 82.8197 67.6535C82.8502 67.6291 82.8868 67.6047 82.9295 67.5803ZM83.082 67.4705C83.1125 67.4522 83.143 67.4278 83.1735 67.4034C83.1369 67.4278 83.1064 67.4522 83.082 67.4705ZM82.6733 67.7511C82.6916 67.7389 82.7099 67.7267 82.7343 67.7084C82.7099 67.7206 82.6916 67.7389 82.6733 67.7511ZM83.2284 67.3668C83.2223 67.3729 83.2162 67.379 83.2101 67.379C83.2162 67.3729 83.2223 67.3729 83.2284 67.3668ZM83.2955 67.3119C83.3138 67.2997 83.3321 67.2814 83.3504 67.2692C83.3321 67.2875 83.3138 67.2997 83.2955 67.3119ZM83.3809 67.2448C83.4053 67.2265 83.4236 67.2082 83.448 67.1899C83.4297 67.2143 83.4053 67.2265 83.3809 67.2448ZM83.7286 70.8072C83.448 70.8072 83.1796 70.7706 82.9539 70.7096C82.8258 70.8072 82.7099 70.8926 82.6367 70.9475C82.6367 70.9475 82.5757 70.9475 82.472 70.9353C82.7343 71.1244 83.1979 71.2525 83.7225 71.2525C84.5399 71.2525 85.2048 70.9475 85.2048 70.5754V70.1362C85.2109 70.5022 84.546 70.8072 83.7286 70.8072ZM81.0385 77.0536C81.0385 77.3281 81.2337 77.5782 81.557 77.7795C81.6851 77.6026 81.7705 77.4745 81.7705 77.4745C81.7766 77.4745 81.801 77.4745 81.8315 77.4806C81.8193 77.4806 81.8132 77.4806 81.8071 77.4806C81.8376 77.4257 81.8559 77.383 81.8559 77.3708C81.8559 77.3342 81.7278 76.9316 81.5387 76.3399C81.2276 76.5412 81.0385 76.7852 81.0385 77.0536ZM81.9169 77.4867C81.9718 77.4867 82.045 77.4867 82.1182 77.4745C82.045 77.4806 81.9779 77.4867 81.9169 77.4867ZM82.1243 77.4745C82.1426 77.4745 82.1609 77.4684 82.1792 77.4684C82.1609 77.4745 82.1426 77.4745 82.1243 77.4745ZM82.5452 77.3464C82.4537 77.4135 82.3195 77.4501 82.1792 77.4684C82.3195 77.4501 82.4598 77.4135 82.5452 77.3464ZM84.18 75.8397V76.5717C84.18 76.8157 83.9787 77.017 83.7347 77.017H83.7225C83.4785 77.017 83.2772 76.8157 83.2772 76.5717V75.8397C83.0149 75.858 82.7648 75.9007 82.533 75.9495C82.5086 76.6205 82.5513 77.2549 82.5513 77.2549C82.5513 77.2549 82.5635 77.2732 82.5757 77.3098C82.5818 77.3037 82.594 77.2915 82.6001 77.2854C82.7587 77.0597 82.9234 78.0662 83.0271 78.2309C83.0271 78.237 83.0332 78.237 83.0332 78.2431C83.2528 78.2675 83.4846 78.2858 83.7225 78.2858C85.2109 78.2858 86.4126 77.7307 86.4126 77.0536C86.4187 76.4436 85.4549 75.9373 84.18 75.8397ZM81.8803 77.4867C81.8925 77.4867 81.9047 77.4867 81.9169 77.4867C81.8986 77.4867 81.8864 77.4867 81.8803 77.4867Z" fill="#EDA7CA"/>
  <path d="M60.2193 52.9658C60.1888 53.0268 60.1705 53.1183 60.1949 53.2525C60.1949 53.2525 59.6337 52.9902 59.6215 53.4538C59.1457 52.978 58.0904 52.1118 57.6573 51.6177C57.7 52.1728 57.6939 52.7767 57.639 52.9353C57.5414 53.2098 57.0534 55.113 57.1144 55.4729C57.1144 55.4729 57.0412 55.8389 57.0534 56.0646C56.8399 56.0158 56.48 56.3025 56.48 56.3025C56.5532 56.0036 56.1994 56.0402 56.0957 55.9914C56.0774 55.9792 56.053 55.9914 56.0286 56.0097C56.0347 55.3021 56.0652 53.6795 56.0652 53.6795L56.1262 50.6112C56.1262 50.6112 56.1201 50.3489 56.114 50.0012C55.9798 49.8975 55.8029 49.6901 55.565 49.3058C55.3698 48.9825 55.2051 48.3786 55.0648 47.6832C55.6199 47.6832 55.7968 46.7255 56.8582 47.5307C57.1571 47.7564 57.4072 47.915 57.6207 48.0126C57.4804 48.647 57.3889 49.1105 57.3889 49.1105C57.3889 49.1105 57.3828 49.1472 57.3767 49.2143C57.4499 49.4095 57.6024 49.6596 57.8952 49.8792C58.4808 50.3062 58.9932 50.6722 59.347 51.5262C59.5788 52.0935 59.9326 52.6303 60.2193 52.9658ZM60.2498 41.8455C60.1583 41.7418 59.9143 41.1317 59.652 40.418C59.6215 40.4424 59.5849 40.4669 59.5483 40.4852C59.5056 40.5096 59.4629 40.5401 59.4263 40.5645C59.3836 40.5889 59.3409 40.6133 59.3043 40.6377C59.1213 40.7353 58.9566 40.8146 58.859 40.8634C59.1091 41.2477 59.3287 41.6686 59.3409 41.7723C59.3592 41.9614 59.286 42.6568 59.286 42.6568C59.225 44.072 59.469 44.6332 59.4324 45.1334C59.3958 45.6336 59.2616 45.597 59.2128 45.7068C59.164 45.8166 58.615 46.1521 58.615 46.1521C58.6394 46.451 59.1152 46.2619 59.1152 46.2619C59.0908 46.695 58.737 46.9085 58.8041 47.128C58.8712 47.3477 59.1701 46.9695 59.1701 46.9695C59.1274 47.305 59.3958 46.9695 59.3958 46.9695C59.4263 47.3294 59.6093 46.8597 59.6093 46.8597C59.5849 47.0488 59.652 47.0305 59.652 47.0305C59.9997 46.756 59.9509 45.1578 59.9509 45.1578C59.9509 45.1578 60.4633 42.0834 60.2498 41.8455ZM54.894 41.638C54.9001 41.6319 54.9001 41.6259 54.9001 41.6259C54.9001 41.6198 54.9062 41.6136 54.9062 41.6075C54.9428 41.516 55.0343 41.2416 55.0282 40.9549C55.0221 40.7597 54.9733 40.5523 54.8269 40.3937C54.4365 40.8512 53.7716 41.6503 53.7045 41.8882C53.613 42.2176 52.7895 43.2607 52.7895 43.2607C52.7895 43.2607 52.0514 43.4131 51.9355 43.3765C51.8196 43.3399 51.8623 43.6877 52.4296 43.6084C52.4296 43.6084 51.7342 44.2794 51.5207 44.3587C51.3072 44.438 51.4719 44.5233 51.7769 44.444C51.7769 44.444 51.5268 44.7185 51.6366 44.7185C51.7464 44.7185 52.0758 44.5478 52.0758 44.5478C52.0758 44.5478 51.783 44.9199 51.905 44.8894C52.027 44.865 52.2161 44.6881 52.2161 44.6881C52.2161 44.6881 52.0331 44.9565 52.1368 44.987C52.2405 45.0175 52.6309 44.505 52.6309 44.505C52.6309 44.505 53.308 43.8279 53.3202 43.651C53.3263 43.5351 54.1681 42.6934 54.7598 42.1139L54.894 41.638ZM56.6508 36.7703C56.6508 36.7703 57.2608 35.1355 56.9375 34.4035C56.9375 34.4035 56.0103 34.7085 55.4735 33.7812C55.4735 33.7812 55.4186 34.3913 55.0831 34.6719C55.0648 34.9159 55.0526 35.1599 55.0648 35.3917C55.1014 35.9041 55.2295 36.5202 55.6504 36.5385C55.6504 36.5385 55.6016 36.569 55.4979 36.5873C55.6199 36.6727 55.7663 36.7154 55.9554 36.7093C56.1323 36.6971 56.297 36.6422 56.4617 36.5568C56.4373 36.6666 56.4129 36.7764 56.3946 36.8679C56.3946 36.874 56.3946 36.8739 56.3946 36.88C56.3458 36.8739 56.2787 36.874 56.2116 36.8679C56.2116 36.9594 56.2177 37.1485 56.2177 37.2278C56.2177 37.2522 56.2177 37.301 56.2238 37.3559C56.236 37.4352 56.2604 37.5327 56.3153 37.612C56.3702 37.6913 56.4617 37.7401 56.6081 37.734C56.9558 37.7096 57.2974 37.2522 57.3645 37.1607C57.334 37.1058 57.3157 36.9654 57.3157 36.7885C57.1266 36.7946 56.9009 36.7886 56.6508 36.7703ZM98.1186 52.9109C98.1186 52.9109 97.5696 52.5753 97.5208 52.4656C97.4842 52.3801 97.3927 52.3863 97.3378 52.1484C97.228 52.185 96.9718 52.2642 96.7705 52.2215C96.7766 52.7035 96.8193 53.5941 97.0755 53.7893C97.0755 53.7893 97.1426 53.8076 97.1182 53.6185C97.1182 53.6185 97.3012 54.0882 97.3317 53.7283C97.3317 53.7283 97.6062 54.0638 97.5574 53.7283C97.5574 53.7283 97.8563 54.1126 97.9234 53.8869C97.9905 53.6612 97.6428 53.4538 97.6123 53.0207C97.6184 53.0207 98.0942 53.2037 98.1186 52.9109ZM105.127 51.3798C105.127 51.3798 105.396 51.697 105.274 51.6909C105.152 51.6848 104.792 51.4835 104.792 51.4835C104.792 51.4835 105.097 51.9105 104.963 51.8739C104.829 51.8373 104.627 51.636 104.627 51.636C104.627 51.636 104.816 51.941 104.7 51.9715C104.585 52.002 104.176 51.4164 104.176 51.4164C104.176 51.4164 103.45 50.6295 103.456 50.4343C103.456 50.4099 103.426 50.355 103.365 50.2757C103.615 50.1598 103.846 49.8304 103.889 49.7694C103.993 49.9158 104.066 50.0195 104.066 50.0195C104.066 50.0195 104.877 50.2269 105.012 50.1903C105.146 50.1537 105.079 50.538 104.45 50.4282C104.45 50.4282 105.188 51.209 105.42 51.3066C105.652 51.4042 105.475 51.4835 105.127 51.3798ZM101.748 41.815C101.772 42.7056 101.583 43.5168 100.851 43.4681C100.827 43.4681 100.809 43.462 100.784 43.462C100.772 43.462 100.766 43.462 100.754 43.4559C100.742 43.4559 100.723 43.4498 100.711 43.4498C100.699 43.4498 100.687 43.4437 100.681 43.4437C100.668 43.4437 100.656 43.4376 100.644 43.4315C100.51 43.3949 100.382 43.34 100.26 43.2668C100.29 43.3705 100.315 43.4803 100.327 43.5718C100.382 43.5413 100.455 43.4986 100.534 43.462L100.51 43.6145L100.546 44.1147C100.583 44.0964 100.62 44.0781 100.65 44.0598C100.589 44.0964 100.51 44.1329 100.412 44.1695C100.327 44.2001 100.235 44.2245 100.125 44.2428C100.125 43.9622 100.119 43.6084 100.119 43.6084C100.046 43.584 99.973 43.5596 99.912 43.5352C99.8205 43.4925 99.7473 43.4498 99.6863 43.4132C99.5826 43.34 99.5155 43.2729 99.4789 43.218C99.4545 43.1875 99.4362 43.157 99.4301 43.1387C99.424 43.1326 99.424 43.1265 99.424 43.1204C99.4179 43.1143 99.4179 43.1082 99.4179 43.1082V43.1204V43.1387C99.4057 42.8642 99.3813 42.5897 99.363 42.4189C99.2898 42.3213 99.2471 42.2603 99.2471 42.2603C99.2471 42.2603 98.7042 42.2542 98.7286 41.815C98.7408 41.5771 98.8689 41.5649 98.9787 41.6015C98.9909 41.6137 99.0031 41.6259 99.0214 41.632C99.0214 41.632 99.0458 41.6381 99.0885 41.6503C99.1373 41.6747 99.1678 41.6991 99.1678 41.693C99.1678 41.6808 99.1617 41.6747 99.1617 41.6625C99.2471 41.6747 99.3447 41.6808 99.363 41.632C99.3996 41.5466 99.3142 41.9858 99.5887 42.2847C99.5887 42.2847 99.6009 41.6137 99.7046 41.4673C99.7046 41.4673 100.376 41.7418 100.65 41.4795C100.925 41.2172 101.193 40.8878 101.193 40.8878C101.193 40.8878 101.657 41.4734 101.748 41.815ZM87.3521 62.3903C87.4497 63.6103 87.3887 64.2203 86.4981 64.7449L86.3822 64.8364L86.2114 64.9706C86.2114 64.9706 85.0402 65.7514 84.3631 66.337C84.357 66.3431 84.3509 66.3431 84.3509 66.3492C84.3326 66.3614 84.3204 66.3736 84.3021 66.3919C84.296 66.398 84.2899 66.404 84.2838 66.4101C84.2655 66.4285 84.2411 66.4468 84.2228 66.465C84.2106 66.4773 84.1984 66.4834 84.1862 66.4956C84.1801 66.5017 84.1679 66.5139 84.1618 66.52C84.1496 66.5322 84.1374 66.5383 84.1313 66.5505C84.1252 66.5566 84.1191 66.5627 84.113 66.5688C84.1008 66.581 84.0886 66.5932 84.0825 66.6054C84.0764 66.6115 84.0703 66.6175 84.0642 66.6236C84.0459 66.6419 84.0337 66.6542 84.0215 66.6725C83.991 66.7091 83.9544 66.7457 83.9239 66.7823L83.9178 66.7884C83.8812 66.825 83.8507 66.8616 83.8141 66.8921L83.808 66.8982C83.7714 66.9347 83.7348 66.9714 83.6921 67.0019C83.6921 67.0019 83.6921 67.0019 83.686 67.008C83.6433 67.0446 83.6067 67.0812 83.564 67.1116C83.0943 67.502 82.5636 67.8254 82.5636 67.8254C82.5636 67.8254 82.0451 68.0145 81.9719 67.984C81.8987 67.9535 82.0939 67.74 82.0939 67.74C82.0939 67.74 81.8804 67.8071 81.7279 67.74C81.5754 67.6729 81.8865 67.4715 81.8865 67.4715C81.8865 67.4715 81.6364 67.5387 81.4717 67.4715C81.307 67.4045 81.6059 67.2154 81.6059 67.2154C81.6059 67.2154 80.9288 67.1239 81.5022 67.0507C81.8499 67.0019 82.283 66.7518 82.5636 66.5566C82.5697 66.5505 82.5758 66.5505 82.5758 66.5444C82.5819 66.5383 82.5941 66.5322 82.6002 66.5261C82.6063 66.52 82.6124 66.52 82.6124 66.5139C82.6185 66.5078 82.6246 66.5017 82.6368 66.4956C82.6429 66.4895 82.649 66.4895 82.649 66.4834C82.6551 66.4773 82.6612 66.4711 82.6673 66.4711C82.6734 66.465 82.6734 66.4651 82.6795 66.459C82.6856 66.4529 82.6917 66.4468 82.6978 66.4468C82.7039 66.4468 82.7039 66.4407 82.71 66.4407C82.7161 66.4346 82.7222 66.4285 82.7283 66.4285C82.7283 66.4285 82.7344 66.4285 82.7344 66.4224C82.7588 66.4041 82.7771 66.3918 82.7893 66.3797L82.7954 66.3736C82.8015 66.3736 82.8015 66.3675 82.8076 66.3675L82.8137 66.3614C82.8198 66.3614 82.8198 66.3553 82.8259 66.3553C82.8259 66.3553 82.832 66.3553 82.832 66.3492L82.8381 66.3431C82.8381 66.3431 82.8442 66.3431 82.8442 66.337C82.8442 66.337 82.8442 66.337 82.8503 66.3309C82.8503 66.3309 82.8503 66.3309 82.8564 66.3309L82.8625 66.3248L82.649 66.2576C82.3379 66.16 82.3806 65.8185 82.4538 65.8856C82.4538 65.8856 82.4599 65.8917 82.466 65.8917H82.4721C82.4782 65.8917 82.4843 65.8978 82.4965 65.8978C82.5026 65.8978 82.5148 65.9039 82.527 65.9039C82.527 65.9039 82.5331 65.9039 82.5392 65.9039C82.5514 65.9039 82.5636 65.91 82.5758 65.91C82.588 65.91 82.6063 65.916 82.6185 65.916C82.6246 65.916 82.6246 65.916 82.6307 65.916C82.6429 65.916 82.6612 65.916 82.6734 65.9221H82.6795C82.6978 65.9221 82.7161 65.9222 82.7344 65.9283C82.7405 65.9283 82.7466 65.9283 82.7466 65.9283C82.7649 65.9283 82.7832 65.9283 82.8015 65.9283H82.8076C82.8259 65.9283 82.8503 65.9283 82.8686 65.9283C82.8747 65.9283 82.8808 65.9283 82.8808 65.9283C82.8991 65.9283 82.9174 65.9283 82.9357 65.9283H82.9418C82.9601 65.9283 82.9845 65.9283 83.0028 65.9283C83.0089 65.9283 83.0089 65.9283 83.015 65.9283C83.0333 65.9283 83.0516 65.9283 83.076 65.9283H83.0821C83.1004 65.9283 83.1248 65.9283 83.1431 65.9283C83.1492 65.9283 83.1492 65.9283 83.1553 65.9283C83.3383 65.9283 83.4908 65.9283 83.4908 65.9283L86.2358 63.3663L86.187 63.3846C86.187 63.3846 86.2114 63.348 86.2541 63.2931L86.2053 62.6709C86.1931 62.5001 86.3151 62.3537 86.4859 62.3354C86.8641 62.3049 87.1508 62.1829 87.3704 62.0304C87.3643 62.1646 87.3582 62.2744 87.3521 62.3903ZM81.856 64.6046C80.7885 65.3 78.7633 66.6359 78.5742 66.7701C78.3241 66.9531 78.3729 67.5509 78.3729 67.5509C78.0008 67.6546 78.0496 66.886 78.0496 66.886L77.3908 67.7339C77.3908 67.7339 77.1102 68.2828 77.0065 68.1487C76.9028 68.0145 77.0187 67.9047 76.8357 67.8681C76.6527 67.8315 76.7564 67.4899 76.7564 67.4899C76.7564 67.4899 76.6954 67.5814 76.6649 67.2764C76.6344 66.9714 78.1411 65.7575 78.1411 65.7575L81.4168 63.287C81.4168 63.287 81.4595 62.7197 81.5205 61.9999C81.6974 62.067 81.8743 62.1219 82.0085 62.1585C82.1671 62.2012 82.2647 62.3537 82.2342 62.5123L81.856 64.6046ZM85.1134 56.821C85.0829 57.126 84.9853 57.3639 84.8511 57.553C84.8023 57.8641 84.7413 58.4497 84.8816 58.5656C84.8938 58.5778 84.9182 58.5839 84.9426 58.59C84.8755 58.6083 84.8145 58.651 84.7779 58.712C84.6254 58.9377 84.2106 59.4318 83.625 59.4013C83.1614 59.3769 83.137 58.9804 83.1858 58.6693C83.2041 58.5595 83.1614 58.4497 83.0821 58.3826C83.4054 58.3643 83.7226 58.3216 83.747 58.2545C83.7531 58.2423 83.7653 58.224 83.7836 58.2057C83.6006 58.2484 83.4786 58.2545 83.4786 58.2545C83.4786 58.2545 82.1732 58.1935 82.0512 56.2354C82.0451 56.1622 82.0451 56.0951 82.0451 56.0219C82.1976 55.6254 82.6673 55.0459 82.6673 55.0459C82.6673 55.0459 82.9784 55.4241 83.2956 55.723C83.6067 56.0219 84.3814 55.7108 84.3814 55.7108C84.5034 55.8755 84.5156 56.6502 84.5156 56.6502C84.8328 56.3086 84.7291 55.8023 84.7779 55.8999C84.8206 55.9975 85.1622 55.8999 85.1622 55.8999C85.2049 55.8755 85.2354 55.8389 85.2659 55.8023C85.3696 55.7352 85.5404 55.6864 85.6807 55.9365C85.9003 56.333 85.1134 56.821 85.1134 56.821ZM78.9341 76.0909C78.6901 75.0539 77.3359 69.7347 77.3481 69.4114C77.3603 69.0637 78.0008 67.984 78.7877 67.7583C78.9524 67.7095 79.1842 67.5997 79.4465 67.4533C79.599 68.3256 80.2578 68.9417 80.2578 68.9417L80.0321 69.3931L79.2269 69.692C79.2269 69.692 79.9711 71.5586 79.8308 72.2845C79.6966 73.0104 79.5746 75.0783 79.9528 75.548C79.965 75.5663 79.9772 75.5785 79.9894 75.5968C79.9589 75.6578 79.904 75.7432 79.7759 75.8225V75.8164C79.6295 75.9079 79.3855 75.9872 78.9646 76.0055C78.9707 76.0116 78.9524 76.0421 78.9341 76.0909ZM81.856 77.3719C81.8438 77.2194 79.6539 70.5338 79.6966 70.1678C79.7149 70.0458 79.782 69.9055 79.8674 69.7774C80.4164 70.4667 81.3985 70.7534 82.039 70.8693C82.039 70.9791 82.0695 71.1559 82.1915 71.4426C82.466 72.077 82.9296 73.9742 82.6856 74.7489C82.4416 75.5297 82.5514 77.256 82.5514 77.256C82.5514 77.256 82.5636 77.2743 82.5758 77.3109C82.4111 77.4878 81.9353 77.4878 81.8011 77.4756C81.8377 77.4268 81.856 77.3841 81.856 77.3719Z" fill="white"/>
  <path d="M83.6981 87.0778L84.6131 87.6512L70.7966 95.0139L49.5442 81.6244L50.4531 81.1303L70.7966 93.9464L83.6981 87.0778ZM27.5659 80.5874L22.4053 77.5984V81.3621L28.9262 85.1014V77.5923L27.5659 80.5874ZM38.6496 71.8888L32.1897 75.6769V68.2227L38.6496 71.8888ZM83.3748 70.376C83.2772 70.4553 83.1857 70.5285 83.082 70.6078C83.0393 70.6444 82.9966 70.681 82.96 70.7115C83.1857 70.7725 83.448 70.8091 83.7347 70.8091C84.4545 70.8091 85.0462 70.5773 85.1865 70.2662C84.7351 70.3394 84.2471 70.3821 83.7347 70.3821C83.6066 70.3821 83.4907 70.376 83.3748 70.376ZM83.7286 71.2483C83.57 71.2483 83.4175 71.2361 83.2772 71.2178V76.5736C83.2772 76.8176 83.4785 77.0189 83.7225 77.0189H83.7347C83.9787 77.0189 84.18 76.8176 84.18 76.5736V71.2178C84.0397 71.2361 83.8872 71.2483 83.7286 71.2483Z" fill="#A3D6FF"/>
  <path d="M83.753 88.1151L84.5277 88.6031L70.7112 95.9658L49.4588 82.5763L50.3128 82.1127L70.7966 95.0142L83.753 88.1151ZM79.544 37.5095C78.2569 33.9349 74.7006 35.4355 74.7006 35.4355L74.7067 58.0421C79.2878 57.8469 79.5379 60.3357 79.5501 60.7383L79.544 37.5095ZM38.6496 71.8891V79.5324L28.9323 85.1017V77.5926L38.6496 71.8891ZM32.1897 75.6772V68.223L22.4053 73.8106L28.9262 77.5926L32.1897 75.6772ZM57.0716 43.8413C57.0228 43.8535 56.974 43.8657 56.9252 43.8779C56.9679 43.8657 57.0228 43.8535 57.0716 43.8413ZM56.8398 37.6559C56.8337 37.662 56.8215 37.662 56.8154 37.6681C56.8215 37.6681 56.8276 37.662 56.8398 37.6559ZM56.7483 37.6986C56.7544 37.6986 56.7666 37.6925 56.7727 37.6864C56.7605 37.6925 56.7544 37.6986 56.7483 37.6986ZM57.0899 43.8352C57.1387 43.823 57.1936 43.8047 57.2485 43.7864C57.1936 43.8047 57.1448 43.8169 57.0899 43.8352ZM57.4315 43.7193C57.3766 43.7437 57.3217 43.762 57.2668 43.7803C57.3217 43.7559 57.3766 43.7376 57.4315 43.7193ZM56.7361 43.9206C56.6873 43.9267 56.6446 43.9389 56.6019 43.945C56.6446 43.9328 56.6873 43.9267 56.7361 43.9206ZM56.5775 43.945C56.5348 43.9511 56.4921 43.9572 56.4433 43.9572C56.486 43.9572 56.5287 43.9511 56.5775 43.945ZM57.6389 43.6339C57.6999 43.6095 57.7609 43.579 57.8219 43.5485C57.7609 43.579 57.6999 43.6034 57.6389 43.6339ZM57.6206 43.64C57.5596 43.6644 57.5047 43.6888 57.4498 43.7132C57.5047 43.6888 57.5657 43.6644 57.6206 43.64ZM55.0159 40.7852C55.0159 40.773 55.0098 40.7608 55.0098 40.7486C55.0159 40.7669 55.0159 40.7791 55.0159 40.7852ZM54.9915 40.6693C54.9976 40.6815 54.9976 40.6937 55.0037 40.7059C54.9976 40.6998 54.9915 40.6815 54.9915 40.6693ZM54.9244 40.5168C54.9305 40.529 54.9366 40.5412 54.9427 40.5595C54.9427 40.5473 54.9366 40.529 54.9244 40.5168ZM55.0281 40.8706C55.0281 40.8584 55.0281 40.8523 55.022 40.8401C55.0281 40.8462 55.0281 40.8584 55.0281 40.8706ZM57.0106 37.54C57.0167 37.5339 57.0228 37.5339 57.0289 37.5278C57.0228 37.5339 57.0167 37.54 57.0106 37.54ZM55.5832 36.5335H55.5893C55.5893 36.5335 55.5893 36.5335 55.5832 36.5335ZM55.4673 36.4847C55.4673 36.4847 55.4734 36.4847 55.4734 36.4908C55.4673 36.4847 55.4673 36.4847 55.4673 36.4847ZM55.5222 36.5091C55.5283 36.5091 55.5283 36.5091 55.5344 36.5152C55.5283 36.5152 55.5222 36.5152 55.5222 36.5091ZM55.2904 36.3017C55.2904 36.3017 55.2904 36.2956 55.2843 36.2956L55.2904 36.3017ZM55.3209 36.3505C55.3209 36.3566 55.327 36.3566 55.327 36.3566C55.327 36.3566 55.327 36.3566 55.3209 36.3505ZM55.3697 36.4054L55.3758 36.4115C55.3697 36.4115 55.3697 36.4054 55.3697 36.4054ZM55.1257 35.8442C55.1257 35.8564 55.1318 35.8625 55.1318 35.8747C55.1257 35.8625 55.1257 35.8503 55.1257 35.8442ZM55.083 34.673C55.0647 34.917 55.0525 35.161 55.0647 35.3928C55.0647 35.4233 55.0708 35.4538 55.0708 35.4904C55.0342 35.0756 55.0647 34.6913 55.0647 34.6913C55.0708 34.6852 55.0769 34.6791 55.083 34.673ZM55.1135 35.7832C55.1135 35.771 55.1074 35.7588 55.1074 35.7527C55.1074 35.7649 55.1135 35.771 55.1135 35.7832ZM55.0769 35.5453C55.0769 35.5697 55.083 35.6002 55.0891 35.6246C55.083 35.6002 55.083 35.5758 55.0769 35.5453ZM55.0952 35.6551C55.0952 35.6734 55.1013 35.6917 55.1013 35.71C55.0952 35.6917 55.0952 35.6734 55.0952 35.6551ZM55.0769 35.5392C55.0769 35.5209 55.0708 35.5087 55.0708 35.4904C55.0769 35.5026 55.0769 35.5209 55.0769 35.5392ZM55.2233 36.1736C55.2233 36.1675 55.2172 36.1614 55.2172 36.1614C55.2233 36.1675 55.2233 36.1736 55.2233 36.1736ZM56.4006 47.2634C56.3884 47.2573 56.3823 47.2573 56.3701 47.2512C56.3823 47.2573 56.3884 47.2634 56.4006 47.2634ZM56.4494 47.2878C56.4616 47.2939 56.4738 47.3 56.4799 47.3C56.4738 47.2939 56.4616 47.2878 56.4494 47.2878ZM56.2786 43.9694C56.2359 43.9694 56.1993 43.9694 56.1566 43.9694C56.1932 43.9694 56.2359 43.9694 56.2786 43.9694ZM56.2969 47.2329C56.303 47.2329 56.3152 47.239 56.3213 47.239C56.3091 47.239 56.303 47.2329 56.2969 47.2329ZM56.2359 47.2207C56.2298 47.2207 56.2237 47.2207 56.2176 47.2207C56.2298 47.2207 56.2359 47.2207 56.2359 47.2207ZM56.5409 47.3244C56.5531 47.3305 56.5653 47.3366 56.5775 47.3427C56.5592 47.3366 56.547 47.3305 56.5409 47.3244ZM55.144 35.9296C55.144 35.9357 55.1501 35.9418 55.1501 35.9479C55.1501 35.9479 55.144 35.9418 55.144 35.9296ZM55.1623 36.0089C55.1623 36.015 55.1684 36.0211 55.1684 36.0272C55.1684 36.0211 55.1684 36.015 55.1623 36.0089ZM56.73 47.4403C56.7422 47.4464 56.7483 47.4525 56.7605 47.4586C56.7544 47.4525 56.7422 47.4464 56.73 47.4403ZM55.1928 36.1004C55.1928 36.0943 55.1867 36.0882 55.1867 36.0821C55.1928 36.0882 55.1928 36.0943 55.1928 36.1004ZM56.7544 43.9145C56.8032 43.9084 56.8459 43.8962 56.8947 43.884C56.852 43.8962 56.8032 43.9084 56.7544 43.9145ZM56.6995 37.7169C56.6934 37.7169 56.6873 37.723 56.6751 37.723C56.6873 37.7169 56.6934 37.7169 56.6995 37.7169ZM56.2237 37.2045C56.2237 37.2045 56.2237 37.1984 56.2237 37.1923C56.2237 37.1984 56.2237 37.1984 56.2237 37.2045ZM59.2371 40.6693C59.231 40.6754 59.2249 40.6754 59.2188 40.6815C59.2249 40.6815 59.231 40.6754 59.2371 40.6693ZM59.1761 40.7059C59.17 40.712 59.1639 40.712 59.1578 40.7181C59.1639 40.712 59.17 40.7059 59.1761 40.7059ZM56.2176 37.1008C56.2176 37.1069 56.2176 37.1069 56.2176 37.113C56.2176 37.113 56.2176 37.1069 56.2176 37.1008ZM57.3095 37.235C57.3095 37.2289 57.3156 37.2289 57.3156 37.2228C57.3095 37.2289 57.3095 37.2289 57.3095 37.235ZM56.0163 47.2207C56.0224 47.2207 56.0224 47.2207 56.0285 47.2207C56.0224 47.2207 56.0163 47.2207 56.0163 47.2207ZM54.6499 43.4021C54.656 43.4082 54.6682 43.4204 54.6865 43.4387C54.6743 43.4265 54.6621 43.4143 54.6499 43.4021ZM55.9553 47.2329C55.9614 47.2329 55.9614 47.2329 55.9675 47.2329C55.9614 47.2329 55.9553 47.2329 55.9553 47.2329ZM55.9004 47.2512H55.9065C55.9004 47.2512 55.9004 47.2512 55.9004 47.2512ZM54.7231 43.4692C54.7353 43.4753 54.7414 43.4875 54.7536 43.4936C54.7414 43.4875 54.7292 43.4753 54.7231 43.4692ZM56.2115 36.9178V36.9117C56.2115 36.9117 56.2115 36.9117 56.2115 36.9178ZM56.2176 37.0154C56.2176 37.0093 56.2176 37.0093 56.2176 37.0032C56.2176 37.0032 56.2176 37.0093 56.2176 37.0154ZM56.2176 37.0642C56.2176 37.0581 56.2176 37.0581 56.2176 37.052C56.2176 37.0581 56.2176 37.0642 56.2176 37.0642ZM54.7353 43.1215C54.7353 43.1154 54.7292 43.1154 54.7292 43.1093C54.7292 43.1154 54.7353 43.1215 54.7353 43.1215ZM54.717 43.4631C54.7048 43.457 54.6987 43.4448 54.6926 43.4387C54.6987 43.4509 54.7109 43.457 54.717 43.4631ZM55.3392 43.823C55.3148 43.8108 55.2843 43.8047 55.2599 43.7925C55.2843 43.8047 55.3148 43.8169 55.3392 43.823ZM58.9931 40.7974C58.987 40.7974 58.9809 40.8035 58.9809 40.8035C58.987 40.8035 58.9931 40.7974 58.9931 40.7974ZM55.7723 43.9389C55.8089 43.945 55.8455 43.9511 55.8821 43.9572C55.8455 43.9511 55.8028 43.945 55.7723 43.9389ZM56.0041 43.9633C55.9675 43.9633 55.9248 43.9572 55.8882 43.9511C55.9309 43.9572 55.9675 43.9633 56.0041 43.9633ZM55.1013 43.7193C55.1257 43.7315 55.144 43.7437 55.1684 43.7498C55.144 43.7437 55.1196 43.7315 55.1013 43.7193ZM54.839 43.5607C54.8268 43.5485 54.8085 43.5424 54.7963 43.5302C54.8085 43.5424 54.8207 43.5485 54.839 43.5607ZM55.0281 43.6827C55.0464 43.6949 55.0708 43.7071 55.0891 43.7132C55.0647 43.701 55.0464 43.6888 55.0281 43.6827ZM54.7902 43.5241C54.778 43.5119 54.7658 43.5058 54.7536 43.4936C54.7658 43.5058 54.778 43.518 54.7902 43.5241ZM55.4368 43.8596C55.4063 43.8474 55.3758 43.8413 55.3514 43.8291C55.3819 43.8413 55.4063 43.8474 55.4368 43.8596ZM55.2477 43.7864C55.2233 43.7742 55.1989 43.7681 55.1745 43.7559C55.1989 43.7681 55.2233 43.7803 55.2477 43.7864ZM55.6564 43.9145C55.693 43.9206 55.7296 43.9267 55.7662 43.9328C55.7235 43.9267 55.6869 43.9206 55.6564 43.9145ZM54.8451 43.5668C54.8573 43.579 54.8756 43.5851 54.8878 43.5973C54.8756 43.5851 54.8573 43.5729 54.8451 43.5668ZM57.279 47.8246C57.2851 47.8246 57.2851 47.8307 57.2912 47.8307C57.2912 47.8307 57.2851 47.8246 57.279 47.8246ZM57.3705 47.8795C57.3705 47.8795 57.3766 47.8795 57.3766 47.8856C57.3766 47.8856 57.3766 47.8795 57.3705 47.8795ZM55.5466 43.8901C55.5771 43.8962 55.6137 43.9084 55.6503 43.9145C55.6137 43.9084 55.5832 43.8962 55.5466 43.8901ZM58.8894 40.8462C58.8894 40.8462 58.8955 40.8462 58.8955 40.8401C58.8955 40.8462 58.8955 40.8462 58.8894 40.8462ZM58.9443 40.8218C58.9382 40.8218 58.9321 40.8279 58.9321 40.8279C58.9382 40.8218 58.9443 40.8218 58.9443 40.8218ZM62.9825 22.2656V47.6782L58.438 50.3012C58.2672 50.1609 58.0842 50.0267 57.9012 49.8925C57.6084 49.679 57.4559 49.4228 57.3827 49.2276C57.3888 49.1605 57.3949 49.1239 57.3949 49.1239C57.3949 49.1239 57.4864 48.6542 57.6267 48.0259C58.2489 48.3309 58.499 48.1906 58.499 48.1906C58.499 48.1906 58.2428 47.6477 58.6027 46.1166C58.9626 44.5855 58.0232 43.4509 58.0232 43.4509C57.9683 43.3411 57.9073 43.2435 57.8463 43.1398C57.8707 43.2069 57.8951 43.2435 57.9012 43.2496C57.8951 43.2374 57.8219 43.1398 57.7853 42.9324C57.7792 42.9019 57.7731 42.8714 57.767 42.8409C57.7304 42.5908 57.7426 42.2309 57.9012 41.7368C57.9073 41.7185 57.9134 41.6941 57.9195 41.6758C58.2428 40.6693 58.2367 40.1691 58.2367 40.1691L58.7552 40.9133C58.7552 40.9133 58.7918 40.9011 58.8467 40.8706C59.0968 41.2549 59.3164 41.6758 59.3286 41.7795C59.3469 41.9686 59.2737 42.664 59.2737 42.664C59.2127 44.0792 59.4567 44.6404 59.4201 45.1406C59.3835 45.6408 59.2493 45.6042 59.2005 45.714C59.1517 45.8238 58.6027 46.1593 58.6027 46.1593C58.6271 46.4582 59.1029 46.2691 59.1029 46.2691C59.0785 46.7022 58.7247 46.9157 58.7918 47.1353C58.8589 47.3549 59.1578 46.9767 59.1578 46.9767C59.1151 47.3122 59.3835 46.9767 59.3835 46.9767C59.414 47.3366 59.597 46.8669 59.597 46.8669C59.5726 47.056 59.6397 47.0377 59.6397 47.0377C59.9874 46.7632 59.9386 45.165 59.9386 45.165C59.9386 45.165 60.4449 42.0967 60.2314 41.8649C60.1399 41.7612 59.8959 41.1512 59.6336 40.4375C59.8776 40.2667 60.0789 40.0776 60.085 39.8946C60.085 39.8946 60.0667 39.8824 60.0362 39.8641C59.9813 39.8275 59.8959 39.7726 59.8105 39.7055C59.7861 39.6872 59.7617 39.6689 59.7434 39.6445C59.7251 39.6262 59.7007 39.6018 59.6885 39.5835C59.6824 39.5713 59.6702 39.5652 59.6641 39.553C59.6519 39.5408 59.6397 39.5164 59.6214 39.4859C59.6092 39.4676 59.597 39.4432 59.5787 39.4188C59.5604 39.3944 59.5482 39.3639 59.5238 39.3334C59.4994 39.3029 59.4872 39.2724 59.4628 39.2358C59.4201 39.1687 59.3774 39.0955 59.3347 39.0162C59.3103 38.9796 59.292 38.9369 59.2676 38.9003C59.2432 38.8637 59.2249 38.821 59.2005 38.7844C59.1212 38.6502 59.048 38.5282 58.9931 38.4306C58.987 38.4184 58.9748 38.4062 58.9687 38.394C58.9565 38.3696 58.9382 38.3452 58.9321 38.3269C58.9016 38.2781 58.8894 38.2537 58.8894 38.2537C58.8894 38.2537 58.7003 37.4241 57.3644 37.1557C57.3644 37.1557 57.3583 37.1679 57.34 37.1862C57.3461 37.1801 57.3461 37.174 57.3522 37.1679C57.3217 37.113 57.3034 36.9727 57.3034 36.7958C58.5783 36.7531 58.5905 36.2346 58.5905 36.2346C58.7003 34.4534 58.2794 33.7824 58.2794 33.7824C58.2794 33.7824 57.4376 32.7698 56.6263 32.7454C55.815 32.721 55.5893 32.9406 55.1501 33.3615C54.7109 33.7763 54.8024 35.2525 54.7963 35.5697C54.7902 35.8808 54.6011 36.4115 54.6011 36.4115C55.022 36.6433 55.327 36.6433 55.4978 36.6067C55.6198 36.6921 55.7662 36.7348 55.9553 36.7287C56.1322 36.7165 56.2969 36.6616 56.4616 36.5762C56.4372 36.686 56.4128 36.7958 56.3945 36.8873C56.3945 36.8934 56.3945 36.8934 56.3945 36.8995C56.3457 36.8934 56.2786 36.8934 56.2115 36.8873C56.2115 36.8873 56.2115 36.8873 56.2115 36.8934C56.2115 36.8568 56.2115 36.8324 56.2115 36.8324C56.2115 36.8324 55.2416 36.7958 55.1135 36.9544C55.1135 36.9544 55.0037 37.1679 54.9366 37.6681C54.8695 38.1683 54.7658 38.3696 54.7658 38.3696C54.7658 38.3696 54.6743 38.5465 54.534 38.7112C54.5035 38.7417 54.473 38.7783 54.4425 38.8088C54.3754 38.8698 54.3022 38.9247 54.2229 38.9552L54.4242 39.2114C54.4242 39.2114 54.2351 39.9068 54.7597 40.3338C54.7902 40.3582 54.8146 40.3826 54.8329 40.407C54.4425 40.8645 53.7776 41.6636 53.7105 41.9015C53.619 42.2309 52.7955 43.274 52.7955 43.274C52.7955 43.274 52.0574 43.4265 51.9415 43.3899C51.8256 43.3533 51.8683 43.701 52.4356 43.6217C52.4356 43.6217 51.7402 44.2927 51.5267 44.372C51.3132 44.4513 51.4779 44.5367 51.7829 44.4574C51.7829 44.4574 51.5328 44.7319 51.6426 44.7319C51.7524 44.7319 52.0818 44.5611 52.0818 44.5611C52.0818 44.5611 51.789 44.9332 51.911 44.9027C52.033 44.8783 52.2221 44.7014 52.2221 44.7014C52.2221 44.7014 52.0391 44.9698 52.1428 45.0003C52.2465 45.0308 52.6369 44.5184 52.6369 44.5184C52.6369 44.5184 53.314 43.8413 53.3262 43.6644C53.3323 43.5485 54.1741 42.7067 54.7658 42.1272L54.5584 42.9141C54.5584 42.9141 54.595 42.9812 54.6743 43.0788C54.656 43.1886 54.6438 43.3045 54.6377 43.4143C54.6377 43.4143 54.6438 43.4204 54.6499 43.4265C54.6438 43.4143 54.6377 43.4143 54.6377 43.4143L53.7044 46.9401C53.7044 46.9401 54.0948 47.3549 54.8451 47.666C54.9305 47.7026 55.0037 47.7148 55.0708 47.7148C55.205 48.4041 55.3758 49.0141 55.571 49.3374C55.8089 49.7217 55.9858 49.923 56.12 50.0328C56.1261 50.3805 56.1322 50.6428 56.1322 50.6428L56.1139 51.6798L23.3752 70.5898V45.2138L62.9825 22.2656ZM57.1997 47.7697C57.1936 47.7636 57.1875 47.7636 57.1814 47.7575C57.1875 47.7636 57.1936 47.7697 57.1997 47.7697ZM57.0045 47.6355C56.9923 47.6294 56.9862 47.6233 56.974 47.6111C56.9862 47.6233 56.9984 47.6294 57.0045 47.6355ZM68.6799 31.9341C68.6799 31.9341 72.2423 30.4274 73.5233 34.0081V57.2979C73.5233 57.2979 73.6697 54.3333 68.6799 54.5468V31.9341Z" fill="#4A90E2"/>
  <path d="M56.1627 56.9078C56.1627 56.9078 55.6869 57.3714 55.6137 57.2921C55.5771 57.2555 55.6015 57.0786 55.6381 56.9139C55.7418 56.7614 55.8272 56.615 55.8272 56.5479C55.8272 56.3832 55.998 55.944 56.1017 55.9928C56.2054 56.0416 56.5592 56.005 56.486 56.3039C56.486 56.3039 56.4921 56.2978 56.4982 56.2917L56.1627 56.9078ZM59.78 54.419C59.9325 54.9009 60.1094 54.6691 60.1948 54.6203C60.2924 54.5715 60.1948 53.2478 60.1948 53.2478C60.1948 53.2478 59.6214 52.9794 59.6214 53.4613C59.6214 53.9432 59.8471 53.7175 59.8166 54.1933C59.8166 54.2543 59.7983 54.3336 59.78 54.419ZM60.0545 39.8522C59.9996 39.8156 59.9142 39.7607 59.8288 39.6936C59.8044 39.6753 59.78 39.657 59.7617 39.6326C59.7434 39.6143 59.719 39.5899 59.7068 39.5716C59.7007 39.5594 59.6885 39.5533 59.6824 39.5411C59.6702 39.5289 59.658 39.5045 59.6397 39.474C59.6275 39.4557 59.6153 39.4313 59.597 39.4069C59.5787 39.3825 59.5665 39.352 59.5421 39.3215C59.5177 39.291 59.5055 39.2605 59.4811 39.2239C59.4384 39.1568 59.3957 39.0836 59.353 39.0043C59.3286 38.9677 59.3103 38.925 59.2859 38.8884C59.2615 38.8518 59.2432 38.8091 59.2188 38.7725C59.1395 38.6383 59.0663 38.5163 59.0114 38.4187C59.0053 38.4065 58.9931 38.3943 58.987 38.3821C58.9748 38.3577 58.9565 38.3333 58.9504 38.315C58.9199 38.2662 58.9077 38.2418 58.9077 38.2418C58.9077 38.2418 58.7186 37.4122 57.3827 37.1438C57.3827 37.1438 56.9984 37.705 56.6202 37.7294C56.4799 37.7416 56.3884 37.6867 56.3274 37.6074C56.2664 37.5281 56.2481 37.4305 56.2359 37.3512C56.2298 37.2963 56.2298 37.2536 56.2298 37.2231C56.2298 37.1194 56.2176 36.8083 56.2176 36.8083C56.2176 36.8083 55.2477 36.7717 55.1196 36.9303C55.1196 36.9303 55.0098 37.1438 54.9427 37.644C54.8756 38.1442 54.7719 38.3455 54.7719 38.3455C54.7719 38.3455 54.6804 38.5224 54.5401 38.6871C54.5096 38.7176 54.4791 38.7542 54.4486 38.7847C54.3815 38.8457 54.3083 38.9006 54.229 38.9311L54.4303 39.1873C54.4303 39.1873 54.2412 39.8827 54.7658 40.3097C54.9732 40.4744 55.0342 40.7123 55.0403 40.9441C55.0464 41.2308 54.9488 41.5053 54.9183 41.5968C54.9183 41.6029 54.9122 41.609 54.9122 41.6151C54.9122 41.6212 54.9122 41.6212 54.9061 41.6212L54.5767 42.8839C54.5767 42.8839 54.8207 43.3109 55.3697 43.5732C55.5527 43.6586 55.7662 43.7318 56.0224 43.7562C56.1505 43.7684 56.2664 43.7806 56.3823 43.7928C56.4982 43.7989 56.6019 43.805 56.7056 43.805C56.8093 43.805 56.9008 43.7989 56.9923 43.7928C57.1753 43.7745 57.3278 43.7379 57.462 43.6769C57.5596 43.6342 57.6511 43.5732 57.7243 43.5C57.7975 43.4268 57.8646 43.3353 57.9134 43.2316C57.9134 43.2316 57.8402 43.1279 57.7914 42.9144C57.7853 42.8839 57.7792 42.8534 57.7731 42.8229C57.7365 42.5728 57.7487 42.2129 57.9073 41.7188C57.9134 41.7005 57.9195 41.6761 57.9256 41.6578C58.2489 40.6513 58.2428 40.1511 58.2428 40.1511L58.7613 40.8953C58.7613 40.8953 59.0175 40.7916 59.3042 40.6269C59.3469 40.6025 59.3896 40.5781 59.4262 40.5537C59.4689 40.5293 59.5116 40.5049 59.5482 40.4744C59.8349 40.2914 60.0972 40.0657 60.1033 39.8644C60.1094 39.8827 60.085 39.8705 60.0545 39.8522ZM54.4242 58.2559C54.4303 58.2498 54.4303 58.2376 54.4364 58.2315C54.4303 58.2376 54.4303 58.2437 54.4242 58.2559ZM54.6438 57.957C54.6316 57.9692 54.6194 57.9875 54.6072 57.9997C54.6133 57.9814 54.6255 57.9692 54.6438 57.957ZM54.4669 58.1766C54.5035 58.1156 54.5523 58.0546 54.6011 57.9936C54.5523 58.0607 54.5035 58.1217 54.4669 58.1766ZM54.4486 58.2132C54.4547 58.201 54.4608 58.1949 54.4669 58.1827C54.4608 58.1888 54.4547 58.201 54.4486 58.2132ZM54.3815 58.3657C54.3815 58.3718 54.3754 58.3779 54.3754 58.384C54.3754 58.3779 54.3754 58.3718 54.3815 58.3657ZM54.412 58.2742C54.4059 58.2803 54.4059 58.2925 54.3998 58.2986C54.4059 58.2925 54.412 58.2803 54.412 58.2742ZM54.3693 58.4084C54.3693 58.4145 54.3693 58.4206 54.3693 58.4267C54.3693 58.4267 54.3693 58.4145 54.3693 58.4084ZM57.4681 56.7736C57.4925 56.8346 57.5108 56.8956 57.523 56.9566C57.5047 56.8956 57.4864 56.8346 57.4681 56.7736ZM54.6438 57.9509C54.656 57.9387 54.6682 57.9204 54.6865 57.9082C54.6682 57.9265 54.656 57.9387 54.6438 57.9509ZM57.5535 57.164C57.5535 57.1701 57.5535 57.1762 57.5535 57.1884C57.5596 57.1823 57.5535 57.1762 57.5535 57.164ZM57.5474 57.0603C57.5474 57.0481 57.5413 57.0359 57.5413 57.0298C57.5413 57.042 57.5413 57.0542 57.5474 57.0603ZM57.5474 57.0969C57.5474 57.1091 57.5474 57.1152 57.5535 57.1274C57.5535 57.1152 57.5535 57.1091 57.5474 57.0969ZM57.5352 56.9993C57.5352 56.9871 57.5291 56.9749 57.5291 56.9627C57.5291 56.9749 57.5291 56.9871 57.5352 56.9993ZM55.3758 58.1583C55.5466 58.5182 55.9187 57.6337 56.1749 57.5849C56.4311 57.5361 56.9923 57.2616 56.9923 57.2616C56.9923 57.2616 56.9862 56.7065 57.4681 56.7675C57.3827 56.5296 57.2546 56.2978 57.1692 56.1392C57.0167 55.8647 56.486 56.2917 56.486 56.2917C56.486 56.2917 56.4921 56.2856 56.4982 56.2795L56.1688 56.8956C56.1688 56.8956 55.693 57.3592 55.6198 57.2799C55.5832 57.2433 55.6076 57.0664 55.6442 56.9017C55.4856 57.1396 55.2904 57.3897 55.2904 57.3836C55.2904 57.3775 54.9549 57.6154 54.6926 57.896C54.9427 57.9082 55.2782 57.9448 55.3758 58.1583ZM54.3815 58.5487C54.3815 58.5426 54.3815 58.5426 54.3754 58.5365C54.3754 58.5426 54.3815 58.5487 54.3815 58.5487ZM57.2607 57.7252C57.3095 57.7008 57.3522 57.6764 57.3888 57.6459C57.3522 57.6703 57.3095 57.7008 57.2607 57.7252ZM56.2176 58.1461C56.2481 58.1217 56.2786 58.1034 56.3091 58.079C56.2725 58.1034 56.242 58.1217 56.2176 58.1461ZM55.8272 58.5121C55.8089 58.5304 55.7967 58.5487 55.7784 58.5609C55.7906 58.5426 55.8089 58.5304 55.8272 58.5121ZM57.5535 57.2494C57.5535 57.2738 57.5474 57.2982 57.5474 57.3226C57.5535 57.2982 57.5535 57.2738 57.5535 57.2494ZM56.0102 58.323C55.9858 58.3474 55.9614 58.3718 55.9431 58.3901C55.9675 58.3657 55.9858 58.3413 56.0102 58.323ZM54.8512 58.7805C54.8146 58.7805 54.778 58.7744 54.7475 58.7744C54.7841 58.7744 54.8146 58.7744 54.8512 58.7805ZM55.2294 58.75C55.1928 58.7561 55.1562 58.7622 55.1196 58.7622C55.1623 58.7622 55.1989 58.7561 55.2294 58.75ZM55.4734 58.7073C55.4063 58.7256 55.3209 58.7378 55.2355 58.7561C55.3209 58.7378 55.4002 58.7195 55.4734 58.7073ZM59.2127 56.249C59.2127 56.2673 59.2127 56.2795 59.2127 56.2978C59.2066 56.2795 59.2066 56.2673 59.2127 56.249ZM59.2188 56.1819C59.231 56.0965 59.2554 55.9989 59.292 55.883C59.475 55.7244 59.8105 55.5536 60.2375 55.883C60.2375 55.883 60.5181 55.1266 60.6828 55.1266C60.8475 55.1266 61.0915 54.3336 61.0976 54.2177C61.1037 54.1262 60.9756 53.5833 61.2318 53.3454C61.2501 53.3515 61.2623 53.3637 61.2745 53.3698C61.0244 53.2356 60.512 52.8452 60.512 52.8452C60.512 52.8452 60.1155 52.772 60.2009 53.2539C60.2009 53.2539 60.2985 54.5715 60.2009 54.6264C60.1155 54.6691 59.9386 54.907 59.7861 54.4251C59.6519 54.9131 59.2798 55.7793 59.2188 56.1819ZM59.2188 56.1941C59.2188 56.2124 59.2127 56.2307 59.2127 56.2429C59.2127 56.2307 59.2127 56.2124 59.2188 56.1941ZM59.2188 56.3405C59.2188 56.3527 59.2249 56.3588 59.231 56.371C59.2249 56.3649 59.2188 56.3527 59.2188 56.3405ZM100.266 62.9956C100.272 63.0017 100.278 63.0078 100.278 63.0078C100.205 62.7089 100.559 62.7455 100.662 62.6967C100.766 62.6479 100.937 63.0932 100.937 63.2518C100.937 63.3128 101.022 63.4653 101.126 63.6178C101.162 63.7825 101.187 63.9594 101.15 63.996C101.077 64.0753 100.601 63.6117 100.601 63.6117L100.266 62.9956ZM96.8924 60.9826C96.8619 60.4763 97.0998 60.7142 97.0998 60.2018C97.0998 59.6894 96.4898 59.9761 96.4898 59.9761C96.4898 59.9761 96.3861 61.3852 96.4898 61.434C96.5813 61.4828 96.7704 61.7329 96.929 61.2205C96.9107 61.129 96.8985 61.0436 96.8924 60.9826ZM102.456 47.3308C102.157 47.0014 102.077 46.2633 102.077 46.2633C102.126 44.4821 101.919 43.7745 101.772 43.4939C101.76 43.378 101.742 43.2926 101.711 43.256C101.638 43.1645 101.589 43.1096 101.547 43.0852C101.406 43.3414 101.193 43.4878 100.864 43.4695L100.986 43.8172L100.784 43.7318C100.803 43.9941 100.79 44.2686 100.644 44.3845C100.449 44.5431 100.046 44.4211 99.735 44.1344L99.6496 44.2442L99.4727 43.805C99.4178 43.7135 99.3812 43.6159 99.3507 43.5122C99.3507 43.5122 98.9664 44.049 98.3076 44.3052C97.6488 44.5553 97.4597 45.2629 97.4597 45.2629L96.3251 48.7155L96.4227 51.796C96.4227 51.796 96.8741 52.1559 97.478 51.796L97.6915 49.8806L97.6854 48.6545C97.6854 48.6545 97.9294 47.6236 98.3747 46.977C98.3747 46.977 98.7529 47.6663 98.7895 48.6667C98.8261 49.6671 98.6248 50.3015 98.6248 50.3015C98.6248 50.3015 100.711 51.6313 102.334 49.9538C102.334 49.9538 102.23 49.5451 102.102 48.9961L103.078 50.1002C103.743 49.783 103.822 49.356 103.822 49.356C103.822 49.356 102.748 47.6602 102.456 47.3308ZM86.5834 67.3754C86.6017 67.5645 86.437 67.7231 86.2479 67.7109C85.705 67.6621 84.6314 67.5157 83.5578 67.1131C83.6005 67.0765 83.6432 67.0399 83.6798 67.0094C83.6798 67.0094 83.6798 67.0094 83.6859 67.0033C83.7225 66.9667 83.7652 66.9362 83.8018 66.8996L83.8079 66.8935C83.8445 66.8569 83.8811 66.8203 83.9116 66.7898L83.9177 66.7837C83.9543 66.7471 83.9848 66.7105 84.0153 66.6739C84.0275 66.6556 84.0458 66.6434 84.058 66.6251C84.0641 66.619 84.0702 66.6129 84.0763 66.6068C84.0885 66.5946 84.0946 66.5824 84.1068 66.5702C84.1129 66.5641 84.119 66.558 84.1251 66.5519C84.1373 66.5397 84.1434 66.5336 84.1556 66.5214C84.1617 66.5153 84.1739 66.5031 84.18 66.497C84.1922 66.4848 84.2044 66.4787 84.2166 66.4665C84.2349 66.4482 84.2593 66.4299 84.2776 66.4116C84.2837 66.4055 84.2898 66.3994 84.2959 66.3933C84.3081 66.3811 84.3264 66.3689 84.3447 66.3506C84.3508 66.3445 84.3569 66.3445 84.3569 66.3384C85.0279 65.7528 86.2052 64.972 86.2052 64.972L86.376 64.8378L86.5834 67.3754ZM87.7668 61.6841C87.6814 61.7939 87.5472 61.9281 87.3703 62.0501C87.3459 62.0684 87.3154 62.0867 87.291 62.0989C87.2849 62.0989 87.2849 62.105 87.2788 62.105C87.2544 62.1172 87.23 62.1355 87.2056 62.1477C87.1995 62.1538 87.1934 62.1538 87.1812 62.1599C87.1568 62.1721 87.1324 62.1843 87.108 62.1965C87.0958 62.2026 87.0897 62.2026 87.0775 62.2087C87.0531 62.2209 87.0287 62.227 87.0043 62.2392C86.9921 62.2453 86.9799 62.2453 86.9677 62.2514C86.9433 62.2575 86.9189 62.2697 86.8945 62.2758C86.8823 62.2819 86.8701 62.2819 86.8518 62.288C86.8274 62.2941 86.803 62.3002 86.7786 62.3063C86.7664 62.3124 86.7481 62.3124 86.7359 62.3185C86.7054 62.3246 86.681 62.3307 86.6505 62.3368C86.6383 62.3368 86.6261 62.3429 86.6078 62.3429C86.5651 62.349 86.5224 62.3551 86.4736 62.3551C86.4553 62.3551 86.4309 62.3612 86.4126 62.3673C86.376 62.3795 86.3394 62.3978 86.3089 62.4222C86.2784 62.4466 86.254 62.4771 86.2357 62.5137C86.2052 62.5686 86.193 62.6235 86.1991 62.6906L86.2174 62.9407L86.2479 63.3128C86.2052 63.3677 86.1808 63.4043 86.1808 63.4043L86.2296 63.386L83.4846 65.948C83.4846 65.948 83.3382 65.948 83.1491 65.948C83.143 65.948 83.143 65.948 83.1369 65.948C83.1186 65.948 83.0942 65.948 83.0759 65.948H83.0698C83.0515 65.948 83.0332 65.948 83.0088 65.948C83.0027 65.948 83.0027 65.948 82.9966 65.948C82.9783 65.948 82.9539 65.948 82.9356 65.948H82.9295C82.9112 65.948 82.8929 65.948 82.8746 65.948C82.8685 65.948 82.8624 65.948 82.8624 65.948C82.8441 65.948 82.8197 65.948 82.8014 65.948H82.7953C82.777 65.948 82.7587 65.948 82.7404 65.948C82.7343 65.948 82.7282 65.948 82.7282 65.948C82.7099 65.948 82.6916 65.948 82.6733 65.9419H82.6672C82.6489 65.9419 82.6367 65.9419 82.6245 65.9358C82.6184 65.9358 82.6184 65.9358 82.6123 65.9358C82.594 65.9358 82.5818 65.9358 82.5696 65.9297C82.5574 65.9297 82.5452 65.9236 82.533 65.9236C82.5269 65.9236 82.5269 65.9236 82.5208 65.9236C82.5086 65.9236 82.4964 65.9175 82.4903 65.9175C82.4842 65.9175 82.472 65.9114 82.4659 65.9114H82.4598C82.4537 65.9114 82.4476 65.9053 82.4476 65.9053C82.3805 65.8382 82.3317 66.1798 82.6428 66.2774L82.8563 66.3445C82.8563 66.3445 82.8563 66.3445 82.8502 66.3506C82.8502 66.3506 82.8502 66.3506 82.8441 66.3506C82.8441 66.3506 82.8441 66.3506 82.838 66.3567C82.838 66.3567 82.8319 66.3567 82.8319 66.3628L82.8258 66.3689C82.8258 66.3689 82.8197 66.3689 82.8197 66.375C82.8197 66.375 82.8136 66.3811 82.8075 66.3811L82.8014 66.3872C82.7953 66.3872 82.7953 66.3933 82.7892 66.3933L82.7831 66.3994C82.7648 66.4116 82.7465 66.4238 82.7282 66.4421C82.7282 66.4421 82.7221 66.4421 82.7221 66.4482C82.716 66.4543 82.7099 66.4543 82.7038 66.4604C82.6977 66.4604 82.6977 66.4665 82.6916 66.4665C82.6855 66.4726 82.6794 66.4787 82.6733 66.4787C82.6672 66.4787 82.6672 66.4848 82.6611 66.4909C82.655 66.497 82.6489 66.5031 82.6428 66.5031C82.6367 66.5092 82.6306 66.5092 82.6306 66.5153C82.6245 66.5214 82.6184 66.5275 82.6062 66.5336C82.6001 66.5397 82.594 66.5397 82.594 66.5458C82.5879 66.5519 82.5757 66.558 82.5696 66.5641C82.5635 66.5702 82.5574 66.5702 82.5574 66.5763C82.5391 66.5885 82.5147 66.6068 82.4903 66.619C82.2219 66.4604 81.9718 66.2774 81.74 66.07C81.6607 65.9968 81.6241 65.8931 81.6424 65.7833L82.228 62.5381C82.2585 62.3795 82.1609 62.227 82.0023 62.1843C81.5448 62.0623 80.6725 61.7695 80.5627 61.2083C80.5505 61.1412 80.5566 61.0802 80.5871 61.0192C80.764 60.641 81.5448 58.9757 81.7766 58.6402C81.9413 58.4023 82.4842 58.3474 82.8685 58.3413C83.0637 58.3352 83.2101 58.5121 83.1796 58.7012C83.1308 59.0062 83.1552 59.4088 83.6188 59.4332C84.2044 59.4637 84.6192 58.9696 84.7717 58.7439C84.8205 58.6707 84.8937 58.628 84.9791 58.6097C85.4366 58.5426 86.8701 58.384 87.1324 59.0672C87.413 59.7992 87.4496 60.8667 87.7729 61.3486C87.8583 61.434 87.8522 61.5804 87.7668 61.6841ZM80.032 75.5311C80.0076 75.5311 80.0076 75.6958 79.7819 75.83V75.8239C79.6355 75.9154 79.3915 75.9947 78.9706 76.013C78.9645 76.013 78.9462 76.0496 78.9218 76.1106C78.9157 76.1289 78.9096 76.1472 78.9035 76.1655C78.7205 76.5803 78.2386 77.7637 77.7018 78.3676C77.043 79.1118 78.4399 78.8251 78.507 78.7824C78.5741 78.7458 80.0747 77.8125 80.1784 77.8125C80.2821 77.8125 80.703 77.6234 80.7274 77.4404C80.7457 77.2574 80.5749 76.0435 80.032 75.5311ZM83.0332 78.2395C82.9295 78.0748 82.7648 77.0683 82.6062 77.294C82.4476 77.5197 81.8315 77.4892 81.7766 77.4831C81.7766 77.4831 81.5814 77.7576 81.3496 78.0809C81.2886 78.1602 81.2337 78.2395 81.1727 78.3188C81.1422 78.392 81.0507 78.4469 81.0263 78.5201C81.0324 78.5201 81.0324 78.5201 81.0385 78.5201C80.9165 78.6848 80.8067 78.8434 80.7274 78.9532C80.4163 79.3802 79.9405 79.6791 80.032 80.1427C80.1235 80.6063 81.5814 80.1671 81.7217 80.0329C81.8559 79.8987 83.0271 79.2887 83.1613 79.1545C83.2955 79.0142 83.1369 78.4042 83.0332 78.2395Z" fill="#FBC02D"/>
  <path d="M54.6376 43.389C54.6376 43.389 55.7661 44.6578 58.0231 43.4439C58.0231 43.4439 58.9625 44.5846 58.6026 46.1096C58.2427 47.6346 58.4989 48.1836 58.4989 48.1836C58.4989 48.1836 58.0597 48.4398 56.8641 47.537C55.6746 46.6281 55.5953 47.9518 54.845 47.6407C54.0947 47.3296 53.7043 46.9148 53.7043 46.9148L54.6376 43.389ZM56.9373 34.4037C57.2606 35.1418 56.6506 36.7705 56.6506 36.7705C58.5904 36.9047 58.6026 36.2215 58.6026 36.2215C58.7124 34.4403 58.2915 33.7693 58.2915 33.7693C58.2915 33.7693 57.4497 32.7567 56.6384 32.7323C55.8271 32.7079 55.6014 32.9275 55.1622 33.3484C54.723 33.7632 54.8145 35.2394 54.8084 35.5566C54.8023 35.8738 54.6132 36.3984 54.6132 36.3984C55.2903 36.7644 55.6563 36.5448 55.6563 36.5448C54.9243 36.5082 55.0707 34.6965 55.0707 34.6965C55.4245 34.422 55.4794 33.7876 55.4794 33.7876C56.0101 34.7087 56.9373 34.4037 56.9373 34.4037ZM101.467 40.3024C101.467 40.3024 101.04 39.6802 100.229 39.8388C99.4177 39.9913 99.0029 40.1865 99.0029 40.1865C99.0029 40.1865 98.7223 40.2536 98.6125 40.156C98.5027 40.0584 98.7101 40.5403 98.8443 40.5281C98.8443 40.5281 98.6491 41.4065 99.009 41.6383C99.009 41.6383 99.3079 41.7237 99.3445 41.6383C99.3811 41.5529 99.2957 41.9921 99.5702 42.291C99.5702 42.291 99.5824 41.62 99.6861 41.4736C99.6861 41.4736 100.357 41.7481 100.632 41.4858C100.906 41.2296 101.175 40.8941 101.175 40.8941C101.175 40.8941 101.699 41.5407 101.748 41.8701C101.76 41.8701 101.968 40.8453 101.467 40.3024ZM102.315 49.8672C102.315 49.8672 102.578 50.5199 102.315 52.2401C102.053 53.9603 101.412 55.6622 101.382 55.894C101.351 56.1258 100.772 56.7968 100.772 56.7968L100.851 62.7687C100.199 63.0676 99.6434 62.5857 99.6434 62.5857C99.6922 62.5064 99.0578 59.8407 98.9053 59.3161C98.8687 59.1941 98.8443 58.9806 98.8382 58.7305L97.0448 60.3714C96.4409 60.3897 96.3128 59.554 96.3128 59.554C96.3128 59.554 97.0082 59.0965 97.3559 58.1022C97.7097 57.0896 98.5576 56.7175 99.0151 56.3881C99.0395 56.2722 99.07 56.1746 99.0944 56.0953C99.3445 55.3938 98.6552 54.1067 98.4295 52.3011C98.277 51.1116 98.4905 50.5138 98.6308 50.2576C98.6247 50.2881 98.6186 50.3064 98.6186 50.3064C98.6186 50.3064 100.705 51.6362 102.327 49.9587C102.327 49.9587 102.321 49.9343 102.309 49.8855C102.315 49.8733 102.315 49.8672 102.315 49.8672ZM82.3316 54.3751C82.3316 54.3751 82.8257 53.6614 83.7529 53.8383C84.6862 54.0152 85.162 54.2409 85.162 54.2409C85.162 54.2409 85.4792 54.3141 85.6073 54.2043C85.7354 54.0945 85.4975 54.6435 85.3389 54.6313C85.3389 54.6313 85.5646 55.6439 85.1498 55.9062C85.1498 55.9062 84.8082 56.0038 84.7655 55.9062C84.7228 55.8086 84.8265 56.3149 84.5032 56.6565C84.5032 56.6565 84.491 55.8818 84.369 55.7171C84.369 55.7171 83.5943 56.0282 83.2832 55.7293C82.9721 55.4304 82.6549 55.0522 82.6549 55.0522C82.6549 55.0522 82.051 55.7964 81.99 56.1746C81.9961 56.1746 81.7582 55.0034 82.3316 54.3751Z" fill="#045395"/>
</svg>